<svg id="Layer_1" data-name="Layer 1" xmlns="http://www.w3.org/2000/svg" viewBox="0 0 60 60"><title>Collaboration_60px </title><path d="M46,23a5.91,5.91,0,0,0-3,.83L39.18,21A5.93,5.93,0,0,0,40,18a6,6,0,0,0-12-.12L22,20a6,6,0,1,0-7,5.92v7.18A6,6,0,1,0,21.91,40L27.09,42A6,6,0,0,0,39,41a5.87,5.87,0,0,0-.78-2.94l4.29-4.19A5.94,5.94,0,0,0,46,35a6,6,0,0,0,0-12ZM35,35.35V28.77l5.12,1.44a5.94,5.94,0,0,0,1,2.24L37,36.5A5.88,5.88,0,0,0,35,35.35ZM18.19,25.58l3.6,4.64-3.32,3.32A6,6,0,0,0,17,33.09V25.91A6,6,0,0,0,18.19,25.58Zm11.57-3.34-2.31,2.32-6.16-1.73a5.69,5.69,0,0,0,.26-.56l6.76-2.38A6,6,0,0,0,29.76,22.24ZM33,23.91v2.22l-3.35-.95,1.66-1.65s.05-.09.09-.13A6.11,6.11,0,0,0,33,23.91Zm-13.07.61,5.89,1.66-2.61,2.61-3.3-4.25Zm.22,10.16L23,31.81,27.82,38a6,6,0,0,0-.71,1.86l-5.22-2A6,6,0,0,0,20.15,34.68Zm9,1.74-4.68-6L28,26.81l5,1.4V35A6,6,0,0,0,29.13,36.42Zm10.94-8.3L35,26.69V23.91a6,6,0,0,0,2.9-1.36l3.5,2.6A6.06,6.06,0,0,0,40.07,28.12ZM34,14a4,4,0,1,1-4,4A4,4,0,0,1,34,14ZM12,20a4,4,0,1,1,4,4A4,4,0,0,1,12,20Zm4,23a4,4,0,1,1,4-4A4,4,0,0,1,16,43Zm17,2a4,4,0,1,1,4-4A4,4,0,0,1,33,45ZM46,33a4,4,0,1,1,4-4A4,4,0,0,1,46,33Z"/></svg>