<svg id="Layer_1" data-name="Layer 1" xmlns="http://www.w3.org/2000/svg" xmlns:xlink="http://www.w3.org/1999/xlink" viewBox="0 0 60 60"><defs><style>.cls-1{fill:none;clip-rule:evenodd;}.cls-2{clip-path:url(#clip-path);}</style><clipPath id="clip-path"><path class="cls-1" d="M442.67-11.33a4,4,0,0,0-4,4,4,4,0,0,0,4,4,4,4,0,0,0,4-4A4,4,0,0,0,442.67-11.33Zm0,10a6,6,0,0,1-6-6,6,6,0,0,1,6-6,6,6,0,0,1,6,6A6,6,0,0,1,442.67-1.33Zm8-9.31v-4.69H446l-3.31-3.31-3.31,3.31h-4.69v4.69l-3.31,3.31L434.67-4V.67h4.69L442.67,4,446,.67h4.69V-4L454-7.33Z"/></clipPath></defs><title>Compute as Service_60px</title><path d="M36,25H23a2,2,0,0,0-2,2V50a2,2,0,0,0,2,2H36a2,2,0,0,0,2-2V27A2,2,0,0,0,36,25ZM23,50V27H36V50Z"/><path d="M32,30H27a1,1,0,0,0,0,2h5a1,1,0,0,0,0-2Z"/><path d="M32,34H27a1,1,0,0,0,0,2h5a1,1,0,0,0,0-2Z"/><path d="M32,38H27a1,1,0,0,0,0,2h5a1,1,0,0,0,0-2Z"/><path d="M30,46H29a1,1,0,0,0,0,2h1a1,1,0,0,0,0-2Z"/><path d="M50.18,22a9.17,9.17,0,0,0-4.77-2.84,8.12,8.12,0,0,0-7.67-4.56,13,13,0,0,0-1.78.13A11.55,11.55,0,0,0,15.37,19a8,8,0,0,0-5.16,2.52A8.26,8.26,0,0,0,8,27.1,8.06,8.06,0,0,0,16,35a1,1,0,0,0,0-2,6.11,6.11,0,0,1-6-5.9,6.19,6.19,0,0,1,1.65-4.18,5.85,5.85,0,0,1,4-1.92L17,21l.16-.83A9.67,9.67,0,0,1,26.68,12a9.56,9.56,0,0,1,8,4.4l.38.57.67-.16a9.07,9.07,0,0,1,2-.21,6.12,6.12,0,0,1,6.06,3.86l.24.59.64,0a6.81,6.81,0,0,1,4,2.18A6.11,6.11,0,0,1,50,27.1a6.19,6.19,0,0,1-1.65,4.18A6.41,6.41,0,0,1,44,33a1,1,0,0,0,0,2,8.45,8.45,0,0,0,5.77-2.33A8.26,8.26,0,0,0,52,27.1,8.1,8.1,0,0,0,50.18,22Z"/></svg>