<svg id="Layer_1" data-name="Layer 1" xmlns="http://www.w3.org/2000/svg" viewBox="0 0 60 60"><title>S_60px</title><path d="M36,34.14a4.36,4.36,0,0,1-1.7,3.69,8,8,0,0,1-4.86,1.28,11.22,11.22,0,0,1-5.11-1v-3a12.24,12.24,0,0,0,5.22,1.34c2.08,0,3.13-.65,3.13-1.94a1.58,1.58,0,0,0-.35-1,3.9,3.9,0,0,0-1.14-.86,17.24,17.24,0,0,0-2.2-1,10,10,0,0,1-3.72-2.2,4.11,4.11,0,0,1-1-2.84,3.79,3.79,0,0,1,1.65-3.28,7.68,7.68,0,0,1,4.48-1.16,12.4,12.4,0,0,1,5.31,1.17L34.6,25.91a11.38,11.38,0,0,0-4.33-1.1c-1.79,0-2.68.52-2.68,1.57a1.59,1.59,0,0,0,.7,1.31,15.78,15.78,0,0,0,3,1.47,13.8,13.8,0,0,1,2.86,1.43,4.29,4.29,0,0,1,1.33,1.51A4.45,4.45,0,0,1,36,34.14Z"/></svg>