<svg id="Layer_1" data-name="Layer 1" xmlns="http://www.w3.org/2000/svg" viewBox="0 0 60 60"><title>Messaging_60px </title><path d="M20,24h8a1,1,0,0,0,0-2H20a1,1,0,0,0,0,2Z"/><path d="M38,27H20a1,1,0,0,0,0,2H38a1,1,0,0,0,0-2Z"/><path d="M43.54,16H16.46A3.36,3.36,0,0,0,13,19.25V32.76a3.09,3.09,0,0,0,1.05,2.32,3.61,3.61,0,0,0,2.41.93H33v7.76a1.21,1.21,0,0,0,.83,1.15,1.25,1.25,0,0,0,.42.08,1.3,1.3,0,0,0,1-.52l6-8.47h2.26A3.36,3.36,0,0,0,47,32.76V19.25A3.36,3.36,0,0,0,43.54,16ZM45,32.76A1.39,1.39,0,0,1,43.54,34H41.15a1.77,1.77,0,0,0-1.41.71L35,41.41V35.34A1.35,1.35,0,0,0,33.63,34H16.46a1.66,1.66,0,0,1-1.06-.4,1.16,1.16,0,0,1-.4-.85V19.25A1.39,1.39,0,0,1,16.46,18H43.54A1.39,1.39,0,0,1,45,19.25Z"/></svg>