<svg id="Layer_1" data-name="Layer 1" xmlns="http://www.w3.org/2000/svg" viewBox="0 0 60 60"><title>Network L4_60px </title><path d="M36,47V40H34l-4,7v2h4v2h2V49h2V47Zm-2,0H32l2-4.11Z"/><polygon points="21.94 40.02 20 40.02 20 51.02 28 51.02 28 49.06 22 49.03 21.94 40.02"/><path d="M44.8,20.09A12.36,12.36,0,0,0,33,10.06l-.25,0c-7.48-.43-10.5,2.8-11.71,5.58a1,1,0,1,0,1.84.8c1.39-3.2,4.66-4.68,9.75-4.38l.35,0a10.25,10.25,0,0,1,9.9,9.06L43,22l.9,0c3.65.06,7.1,3.22,7.1,6.49a6.79,6.79,0,0,1-1.91,4.65A6.89,6.89,0,0,1,44.41,35H16.59A6.71,6.71,0,0,1,10,28.52a6,6,0,0,1,2.19-4.24c1.32-1.17,5.87-3,11.09,2.41a1,1,0,0,0,1.41,0,1,1,0,0,0,0-1.42c-6.32-6.55-12.14-4-13.85-2.52A8,8,0,0,0,8,28.52,8.65,8.65,0,0,0,16.59,37H44.41a8.88,8.88,0,0,0,6.05-2.38A8.78,8.78,0,0,0,53,28.52C53,24.42,49.19,20.61,44.8,20.09Z"/></svg>