<svg id="Layer_1" data-name="Layer 1" xmlns="http://www.w3.org/2000/svg" viewBox="0 0 60 60"><title>Network L1-3_60px </title><polygon points="24.45 43.46 25.54 44.43 27.98 42.05 28 51.01 30 51 30 40 28 40 24.45 43.46"/><rect x="32" y="43" width="4.99" height="2"/><path d="M43.46,45.28v-.05a2.91,2.91,0,0,0,1.62-1,2.59,2.59,0,0,0,.58-1.71,2.17,2.17,0,0,0-.92-1.87A4.09,4.09,0,0,0,42.25,40a5.36,5.36,0,0,0-3.32,1.06l1,1.56A4.68,4.68,0,0,1,41.08,42a3,3,0,0,1,1-.18c1,0,1.45.41,1.45,1.22A1.18,1.18,0,0,1,43,44.17a3.48,3.48,0,0,1-1.73.33h-.79v1.74h.77a4.15,4.15,0,0,1,1.87.31,1.12,1.12,0,0,1,.58,1.07,1.44,1.44,0,0,1-.5,1.22,2.61,2.61,0,0,1-1.58.38,5.24,5.24,0,0,1-1.4-.19,6.28,6.28,0,0,1-1.3-.51v1.93a7.12,7.12,0,0,0,2.93.57,4.79,4.79,0,0,0,3-.86A3,3,0,0,0,46,47.75a2.3,2.3,0,0,0-.64-1.69A3.2,3.2,0,0,0,43.46,45.28Z"/><polygon points="16.94 40.02 15.01 40.02 15.01 51.02 23 51.02 23 49.06 17 49.03 16.94 40.02"/><path d="M44.81,20.09c-1-6-7-10-12.18-10h-.25c-8-.48-11.12,2.76-12.3,5.56a1,1,0,0,0,.53,1.31,1,1,0,0,0,1.31-.53c1.34-3.16,4.92-4.66,10.34-4.35l.35,0c4.5,0,9.84,3.78,10.32,9L43,22h.89c3.25.06,6.1,3.23,6.1,6.78a6.13,6.13,0,0,1-1.87,4.37A6.58,6.58,0,0,1,43.59,35H16.43A6.66,6.66,0,0,1,10,28.5,6.47,6.47,0,0,1,16.41,22,7.58,7.58,0,0,1,23,26.39a1,1,0,0,0,1.88-.69A9.63,9.63,0,0,0,16.41,20,8.46,8.46,0,0,0,8,28.5,8.71,8.71,0,0,0,16.41,37H43.59a8.58,8.58,0,0,0,5.93-2.4A8.1,8.1,0,0,0,52,28.8,8.76,8.76,0,0,0,44.81,20.09Z"/></svg>