<svg id="Layer_1" data-name="Layer 1" xmlns="http://www.w3.org/2000/svg" viewBox="0 0 60 60"><title>Network L1-3_60px </title><polygon points="24.45 43.46 25.54 44.43 27.98 42.05 28 51.01 30 51 30 40 28 40 24.45 43.46"/><rect x="32" y="43" width="4.99" height="2"/><path d="M43.46,45.28v-.05a2.91,2.91,0,0,0,1.62-1,2.59,2.59,0,0,0,.58-1.71,2.17,2.17,0,0,0-.92-1.87A4.09,4.09,0,0,0,42.25,40a5.36,5.36,0,0,0-3.32,1.06l1,1.56A4.68,4.68,0,0,1,41.08,42a3,3,0,0,1,1-.18c1,0,1.45.41,1.45,1.22A1.18,1.18,0,0,1,43,44.17a3.48,3.48,0,0,1-1.73.33h-.79v1.74h.77a4.15,4.15,0,0,1,1.87.31,1.12,1.12,0,0,1,.58,1.07,1.44,1.44,0,0,1-.5,1.22,2.61,2.61,0,0,1-1.58.38,5.24,5.24,0,0,1-1.4-.19,6.28,6.28,0,0,1-1.3-.51v1.93a7.12,7.12,0,0,0,2.93.57,4.79,4.79,0,0,0,3-.86A3,3,0,0,0,46,47.75a2.3,2.3,0,0,0-.64-1.69A3.2,3.2,0,0,0,43.46,45.28Z"/><polygon points="16.94 40.02 15.01 40.02 15.01 51.02 23 51.02 23 49.06 17 49.03 16.94 40.02"/><path d="M44.8,20.09A12.36,12.36,0,0,0,33,10.06l-.25,0c-7.48-.42-10.5,2.8-11.71,5.58a1,1,0,1,0,1.84.8c1.39-3.2,4.66-4.69,9.75-4.38l.35,0a10.25,10.25,0,0,1,9.9,9.06L43,22l.9,0c3.65.06,7.1,3.22,7.1,6.49a6.79,6.79,0,0,1-1.91,4.65A6.89,6.89,0,0,1,44.41,35H16.59A6.71,6.71,0,0,1,10,28.52a6,6,0,0,1,2.19-4.24c1.32-1.17,5.87-3,11.09,2.41a1,1,0,0,0,1.41,0,1,1,0,0,0,0-1.42c-6.32-6.55-12.14-4-13.85-2.52A8,8,0,0,0,8,28.52,8.65,8.65,0,0,0,16.59,37H44.41a8.88,8.88,0,0,0,6.05-2.38A8.78,8.78,0,0,0,53,28.52C53,24.42,49.19,20.61,44.8,20.09Z"/></svg>