<svg id="Layer_1" data-name="Layer 1" xmlns="http://www.w3.org/2000/svg" viewBox="0 0 60 60"><title>Network L4_60px </title><path d="M37,47V40H35l-4,7v2h4v2h2V49h2V47Zm-2,0H33l2-4.11Z"/><polygon points="22.94 40.02 21 40.02 21 51.02 29 51.02 29 49.06 23 49.03 22.94 40.02"/><path d="M44.81,20.09c-1-6-7-10-12.18-10h-.25c-8-.47-11.12,2.76-12.3,5.56a1,1,0,0,0,.53,1.31,1,1,0,0,0,1.31-.53c1.34-3.16,4.92-4.66,10.34-4.35l.35,0c4.5,0,9.84,3.78,10.32,9L43,22h.89c3.25.06,6.1,3.23,6.1,6.78a6.13,6.13,0,0,1-1.87,4.37A6.58,6.58,0,0,1,43.59,35H16.43A6.66,6.66,0,0,1,10,28.5,6.47,6.47,0,0,1,16.41,22,7.58,7.58,0,0,1,23,26.39a1,1,0,0,0,1.88-.69A9.63,9.63,0,0,0,16.41,20,8.46,8.46,0,0,0,8,28.5,8.71,8.71,0,0,0,16.41,37H43.59a8.58,8.58,0,0,0,5.93-2.4A8.1,8.1,0,0,0,52,28.8,8.76,8.76,0,0,0,44.81,20.09Z"/></svg>