<svg id="Layer_1" data-name="Layer 1" xmlns="http://www.w3.org/2000/svg" viewBox="0 0 60 60"><title>Notification_60px </title><path d="M44.68,38.63,40,33.53a.28.28,0,0,1,0-.09V27.81a11.13,11.13,0,0,0-6-10.13V14.5A1.5,1.5,0,0,0,32.5,13h-5A1.5,1.5,0,0,0,26,14.5v3.12a11.14,11.14,0,0,0-6,10.21v5.63a.28.28,0,0,1,0,.09l-4.54,4.92-.13.16a2.3,2.3,0,0,0,0,2.31A2,2,0,0,0,17.07,42h8c0,.08,0,.16,0,.25a5,5,0,0,0,10,0c0-.09,0-.17,0-.25h8a2,2,0,0,0,1.77-1.06A2.3,2.3,0,0,0,44.68,38.63ZM28,15h4v2H28Zm5,27.25a3,3,0,0,1-6,0A2,2,0,0,1,27,42h6A2,2,0,0,1,33,42.25ZM42.93,40H17.08a.17.17,0,0,1-.07-.11.32.32,0,0,1,0-.17l4.55-4.92.12-.17A2.26,2.26,0,0,0,22,33.46V27.83C22,23.62,24.46,20,28,19h3.89C35.43,20,38,23.69,38,27.81v5.63a2.31,2.31,0,0,0,.32,1.17L43,39.72a.32.32,0,0,1,0,.17A.27.27,0,0,1,42.93,40Z"/></svg>