<svg xmlns="http://www.w3.org/2000/svg" xmlns:xlink="http://www.w3.org/1999/xlink" viewBox="0 0 60 60"><defs><style>.cls-1{fill:none;clip-rule:evenodd;}.cls-2{clip-path:url(#clip-path);}.cls-3{fill-rule:evenodd;}</style><clipPath id="clip-path"><path class="cls-1" d="M442.67-93.33a4,4,0,0,0-4,4,4,4,0,0,0,4,4,4,4,0,0,0,4-4A4,4,0,0,0,442.67-93.33Zm0,10a6,6,0,0,1-6-6,6,6,0,0,1,6-6,6,6,0,0,1,6,6A6,6,0,0,1,442.67-83.33Zm8-9.31v-4.69H446l-3.31-3.31-3.31,3.31h-4.69v4.69l-3.31,3.31L434.67-86v4.69h4.69L442.67-78,446-81.33h4.69V-86L454-89.33Z"/></clipPath></defs><title>Platform as Service_60px</title><g id="Layer_2" data-name="Layer 2"><path class="cls-3" d="M50.18,22a9.17,9.17,0,0,0-4.77-2.84,8.12,8.12,0,0,0-7.67-4.56,13,13,0,0,0-1.78.13A11.55,11.55,0,0,0,15.37,19a8,8,0,0,0-5.16,2.52A8.26,8.26,0,0,0,8,27.1,8.06,8.06,0,0,0,16,35a1,1,0,0,0,0-2,6.11,6.11,0,0,1-6-5.9,6.19,6.19,0,0,1,1.65-4.18,5.85,5.85,0,0,1,4-1.92L17,21l.16-.83A9.67,9.67,0,0,1,26.68,12a9.56,9.56,0,0,1,8,4.4l.38.57.67-.16a9.07,9.07,0,0,1,2-.21,6.12,6.12,0,0,1,6.06,3.86l.24.59.64,0a6.81,6.81,0,0,1,4,2.18A6.11,6.11,0,0,1,50,27.1a6.19,6.19,0,0,1-1.65,4.18A6.41,6.41,0,0,1,44,33a1,1,0,0,0,0,2,8.45,8.45,0,0,0,5.77-2.33A8.26,8.26,0,0,0,52,27.1,8.1,8.1,0,0,0,50.18,22Z"/><path class="cls-3" d="M37,40.08c0-.08.07-.17.11-.26L39,39.35a1.23,1.23,0,0,0,1-1.21V35.86a1.23,1.23,0,0,0-1-1.21l-1.87-.47c0-.09-.07-.18-.11-.26l1-1.66a1.24,1.24,0,0,0-.18-1.52l-1.62-1.62a1.24,1.24,0,0,0-.88-.36,1.26,1.26,0,0,0-.65.17l-1.65,1-.26-.11L32.31,28A1.25,1.25,0,0,0,31.1,27H28.82A1.25,1.25,0,0,0,27.6,28l-.46,1.87-.26.11-1.66-1a1.23,1.23,0,0,0-.64-.17,1.28,1.28,0,0,0-.89.36l-1.61,1.62a1.24,1.24,0,0,0-.19,1.52l1,1.66a2,2,0,0,0-.11.26l-1.87.47A1.23,1.23,0,0,0,20,35.86v2.28a1.23,1.23,0,0,0,.95,1.21l1.87.47a2,2,0,0,0,.11.26l-1,1.66a1.24,1.24,0,0,0,.19,1.52l1.61,1.62a1.28,1.28,0,0,0,.89.36,1.23,1.23,0,0,0,.64-.17l1.66-1,.26.11.46,1.87a1.25,1.25,0,0,0,1.22,1H31.1a1.25,1.25,0,0,0,1.21-1l.47-1.87.26-.11,1.65,1a1.26,1.26,0,0,0,.65.17,1.24,1.24,0,0,0,.88-.36l1.62-1.62A1.24,1.24,0,0,0,38,41.74ZM35.34,44,33.1,42.65h0a6.38,6.38,0,0,1-1.37.57l-.63,2.53H28.82l-.63-2.53a6.18,6.18,0,0,1-1.37-.57h0L24.58,44,23,42.38l1.35-2.24h0a6.18,6.18,0,0,1-.57-1.37l-2.53-.63V35.86l2.53-.63a6.18,6.18,0,0,1,.57-1.37h0L23,31.62,24.58,30l2.24,1.34h0a6.18,6.18,0,0,1,1.37-.57l.63-2.53H31.1l.63,2.53a6.38,6.38,0,0,1,1.37.57h0L35.34,30,37,31.62l-1.34,2.24h0a5.36,5.36,0,0,1,.57,1.37l2.54.63v2.28l-2.54.63a5.36,5.36,0,0,1-.57,1.37h0L37,42.38Z"/><path class="cls-3" d="M30,34a3,3,0,1,0,3,3A3,3,0,0,0,30,34Zm0,4.5A1.5,1.5,0,1,1,31.5,37,1.5,1.5,0,0,1,30,38.5Z"/><path class="cls-3" d="M46,42V40H44l-1-1-1,1H40v2l-1,1,1,1v2h2l1,1,1-1h2V44l1-1Zm-1.32,2.28a2.09,2.09,0,0,1-1.68.84,2.11,2.11,0,0,1-1.53-3.58A2.1,2.1,0,0,1,43,40.88,2.12,2.12,0,0,1,45.12,43,2.07,2.07,0,0,1,44.68,44.28Z"/></g></svg>