<svg id="Layer_1" data-name="Layer 1" xmlns="http://www.w3.org/2000/svg" viewBox="0 0 24 24"><title>Setting_24px</title><path d="M19.58,10.51l-1.86-.31a6.37,6.37,0,0,0-.4-1l1.1-1.53a.5.5,0,0,0-.06-.65L17,5.64a.5.5,0,0,0-.65-.06l-1.53,1.1a6.37,6.37,0,0,0-1-.4l-.31-1.86A.5.5,0,0,0,13,4H11a.5.5,0,0,0-.49.42L10.2,6.28a6.37,6.37,0,0,0-1,.4L7.7,5.58a.5.5,0,0,0-.65.06L5.64,7.05a.5.5,0,0,0-.06.65l1.1,1.53a6.37,6.37,0,0,0-.4,1l-1.86.31A.5.5,0,0,0,4,11v2a.5.5,0,0,0,.42.49l1.86.31a6.37,6.37,0,0,0,.4,1L5.58,16.3a.5.5,0,0,0,.06.65l1.41,1.41a.5.5,0,0,0,.65.06l1.53-1.1a6.37,6.37,0,0,0,1,.4l.31,1.86A.5.5,0,0,0,11,20h2a.5.5,0,0,0,.49-.42l.31-1.86a6.37,6.37,0,0,0,1-.4l1.53,1.1a.5.5,0,0,0,.65-.06L18.36,17a.49.49,0,0,0,.06-.64l-1.1-1.54a6.37,6.37,0,0,0,.4-1l1.86-.31A.5.5,0,0,0,20,13V11A.5.5,0,0,0,19.58,10.51ZM19,12.58l-1.76.29a.51.51,0,0,0-.4.37,5,5,0,0,1-.54,1.3.52.52,0,0,0,0,.55l1,1.45-.82.82-1.45-1a.52.52,0,0,0-.55,0,5,5,0,0,1-1.3.54.51.51,0,0,0-.37.4L12.58,19H11.42l-.29-1.76a.51.51,0,0,0-.37-.4,5,5,0,0,1-1.3-.54.52.52,0,0,0-.55,0l-1.45,1-.82-.82,1-1.45a.52.52,0,0,0,0-.55,5,5,0,0,1-.54-1.3.51.51,0,0,0-.4-.37L5,12.58V11.42l1.76-.29a.51.51,0,0,0,.4-.37,5,5,0,0,1,.54-1.3.52.52,0,0,0,0-.55l-1-1.45.82-.82,1.45,1a.52.52,0,0,0,.55,0,5,5,0,0,1,1.3-.54.51.51,0,0,0,.37-.4L11.42,5h1.16l.29,1.76a.51.51,0,0,0,.37.4,5,5,0,0,1,1.3.54.52.52,0,0,0,.55,0l1.45-1,.82.82-1,1.45a.52.52,0,0,0,0,.55,5,5,0,0,1,.54,1.3.51.51,0,0,0,.4.37l1.76.29Z"/><path d="M12,9a3,3,0,1,0,3,3A3,3,0,0,0,12,9Zm0,5a2,2,0,1,1,2-2A2,2,0,0,1,12,14Z"/></svg>