<svg id="Layer_1" data-name="Layer 1" xmlns="http://www.w3.org/2000/svg" viewBox="0 0 24 24"><defs><style>.cls-1{fill:#fff;}</style></defs><title>alcatel lucent_24px</title><circle cx="12" cy="12" r="10"/><g id="g36"><path id="path38" class="cls-1" d="M17.28,15.22a8.5,8.5,0,0,1-3,2.26c-.89.37-1.28.37-1.32-.62-.08-1.92.77-5.48,1.65-8.67.75-2.77.86-3.25-.46-3.67-1-.32-1.7-.11-3.16,1.24a35.33,35.33,0,0,0-6.2,8.68,13.61,13.61,0,0,0,1.09.88c.33.23.59.16.83-.21a15.74,15.74,0,0,1,4.91-4.7c.09-.34.19-.67.29-1a20.52,20.52,0,0,0-3.09,1.83C10.55,8,13.1,5.4,13.57,5.6c.3.13-.72,2.73-1.46,5.39A22.53,22.53,0,0,0,11,18.06c.12,1.54,1.33,2,3.14,1.16A8.75,8.75,0,0,0,17.71,16l-.41-.84Zm-.52-6.77a5.66,5.66,0,0,0-1.55-.06l-.13.48a3,3,0,0,1,3.41,1c.8,1.15.31,2.95-.5,4.31l.35.71,0,0c2.2-4.55-.25-6.2-1.6-6.45"/></g></svg>