<svg id="Layer_1" data-name="Layer 1" xmlns="http://www.w3.org/2000/svg" viewBox="0 0 24 24"><defs><style>.cls-1{fill:#fff;fill-rule:evenodd;}</style></defs><title>alcatel lucent_24px</title><path d="M22,12A10,10,0,1,1,12,2,10,10,0,0,1,22,12"/><path class="cls-1" d="M16,8.39a5.11,5.11,0,0,0-1.47-.06c0,.13-.07.29-.12.46a2.81,2.81,0,0,1,3.23,1c.76,1.1.3,2.8-.47,4.09l.34.67v0c2.08-4.31-.24-5.88-1.52-6.12m.49,6.42A7.82,7.82,0,0,1,13.58,17c-.85.35-1.23.36-1.26-.58-.08-1.83.73-5.2,1.56-8.23.72-2.62.82-3.08-.43-3.48-.94-.31-1.61-.1-3,1.18a33,33,0,0,0-5.88,8.24,11.82,11.82,0,0,0,1,.82c.31.23.56.16.79-.19A14.88,14.88,0,0,1,11,10.25c.1-.32.19-.64.29-.95A19.31,19.31,0,0,0,8.39,11C10.06,8,12.48,5.49,12.92,5.69s-.68,2.59-1.38,5.11a21.33,21.33,0,0,0-1.07,6.7c.11,1.47,1.26,1.86,3,1.11a8.27,8.27,0,0,0,3.4-3l-.39-.8,0,0"/></svg>