<svg id="Layer_1" data-name="Layer 1" xmlns="http://www.w3.org/2000/svg" viewBox="0 0 24 24"><title>aricent_24px</title><path d="M15.33,11.87H14.26a0,0,0,0,0,0,0V12a.49.49,0,0,0,0,.12,1.4,1.4,0,0,0,.15.54,1,1,0,0,0,.66.5,1.24,1.24,0,0,0,.27,0h.13a1.27,1.27,0,0,0,.77-.3l.05,0h0v0c-.05.16-.09.32-.13.48,0,0,0,0,0,0v0h0a1.9,1.9,0,0,1-.39.11l-.17,0h0a2.29,2.29,0,0,1-.37,0H15a1.64,1.64,0,0,1-.38-.1,1.59,1.59,0,0,1-.57-.38,1.45,1.45,0,0,1-.35-.67,1.58,1.58,0,0,1-.05-.38,2.83,2.83,0,0,1,0-.29,1.53,1.53,0,0,1,.2-.59,1.33,1.33,0,0,1,.88-.65,1.11,1.11,0,0,1,.36,0h.08a1.27,1.27,0,0,1,1,.58,1.43,1.43,0,0,1,.2.51,1.36,1.36,0,0,1,0,.29.06.06,0,0,1,0,0l0,0H15.33ZM15,11.52h.78v0a.77.77,0,0,0-.08-.27.69.69,0,0,0-.41-.34,1,1,0,0,0-.3,0,.73.73,0,0,0-.3.07.8.8,0,0,0-.46.54.13.13,0,0,0,0,.06l0,0H15Z"/><path d="M4.11,8.58l0,0c.07.17.14.34.2.51l.83,2c.22.54.44,1.08.67,1.62L6,13a2.39,2.39,0,0,0,.13.21,1,1,0,0,0,.3.29l0,0h0s0,0,0,0H5.05l.06,0,.07,0a.21.21,0,0,0,.07-.15.59.59,0,0,0,0-.13s0-.09-.05-.13c-.08-.19-.15-.39-.23-.59L3.9,9.9l-.18-.44a.09.09,0,0,1,0-.11l.36-.74S4.09,8.59,4.11,8.58Z"/><path d="M12.28,13.58h-.19l-.14,0a2,2,0,0,1-.4-.1,1.58,1.58,0,0,1-.44-.24,1.41,1.41,0,0,1-.5-.74.86.86,0,0,1,0-.23,2.32,2.32,0,0,1,0-.37,1.49,1.49,0,0,1,.25-.74,1.41,1.41,0,0,1,.46-.42,2,2,0,0,1,.56-.22l.29,0h.42l.28,0,.22.05h0c.07,0,.07,0,.07.1l0,.24v0s0,.06,0,.1a.19.19,0,0,0,0,.08s0,0,0,0h0l0,0a1.11,1.11,0,0,0-.53-.24l-.2,0h-.1a1.2,1.2,0,0,0-.45.09,1.1,1.1,0,0,0-.66,1s0,0,0,.06v.11c0,.07,0,.14,0,.21a1.17,1.17,0,0,0,.32.6,1.06,1.06,0,0,0,.41.24,1,1,0,0,0,.36.06h.14a1.09,1.09,0,0,0,.71-.28l0,0h0c0,.17-.07.35-.1.52v0s0,0,0,0l-.19,0-.3.05Z"/><path d="M21,11.85V11.1A.62.62,0,0,0,21,11a.4.4,0,0,0-.2-.29l-.15,0h-.06s0,0,0,0l0,0,.09-.08.8-.66.05,0a0,0,0,0,1,0,0v.7a0,0,0,0,0,0,0h.54a1,1,0,0,0,.24,0l.13,0h0v0l-.21.4,0,0a.05.05,0,0,1-.06,0h-.63a0,0,0,0,0,0,0v1.42a1.48,1.48,0,0,0,0,.21.53.53,0,0,0,.3.44.61.61,0,0,0,.18.05h.1a.46.46,0,0,0,.23-.05h0v0l-.25.37,0,0,0,0H22a1.31,1.31,0,0,1-.28,0,.79.79,0,0,1-.53-.24.91.91,0,0,1-.15-.23,1.17,1.17,0,0,1-.09-.32,2.45,2.45,0,0,1,0-.27v-.63Z"/><path d="M6.94,12.09v-1a.43.43,0,0,0,0-.11.35.35,0,0,0-.14-.2l-.07,0h0v0h0l.13,0,.52-.09h.11l0,0v.35s0,0,0,0h0l0,0a.61.61,0,0,1,.12-.16.81.81,0,0,1,.4-.23,1.15,1.15,0,0,1,.26,0,.68.68,0,0,1,.2,0h0c.06,0,.06,0,.06.08v.44h0A1.14,1.14,0,0,0,8.34,11,.87.87,0,0,0,8,11a.55.55,0,0,0-.36.32.9.9,0,0,0-.06.22,1.49,1.49,0,0,0,0,.21v1.16a1.94,1.94,0,0,0,0,.24l0,.14a.43.43,0,0,0,.15.18l0,0s0,0,0,0h-1s0,0,0,0h0l0,0a.41.41,0,0,0,.18-.28.69.69,0,0,0,0-.13v-1Z"/><path d="M18,11a0,0,0,0,1,0,0,1.29,1.29,0,0,1,.16-.17,1,1,0,0,1,.4-.22,1.17,1.17,0,0,1,.26,0h.13a1,1,0,0,1,.84.5,1.11,1.11,0,0,1,.16.39,1.53,1.53,0,0,1,0,.3v1.18a2.17,2.17,0,0,0,0,.26,1,1,0,0,0,0,.17.4.4,0,0,0,.13.16l.05,0s0,0,0,0a0,0,0,0,0,0,0h-1a0,0,0,0,1,0,0h0l0,0a.41.41,0,0,0,.14-.2.85.85,0,0,0,0-.17c0-.1,0-.2,0-.31v-.87a1.94,1.94,0,0,0,0-.24,1.12,1.12,0,0,0-.1-.39.87.87,0,0,0-.18-.26.72.72,0,0,0-.38-.19.76.76,0,0,0-.3,0A.86.86,0,0,0,18,11Z"/><path d="M17.81,11.83v1.09a2.09,2.09,0,0,0,0,.25.43.43,0,0,0,.05.16.38.38,0,0,0,.12.16.1.1,0,0,1,.05,0H17v0h0l0,0a.36.36,0,0,0,.16-.25.51.51,0,0,0,0-.13V11a.43.43,0,0,0,0-.11.27.27,0,0,0-.13-.17l-.06,0s0,0,0,0l0,0h0l.13,0,.39-.07.17,0h.06l0,0v1.26Z"/><path d="M9.8,11.83v1.09a2.09,2.09,0,0,0,0,.25.83.83,0,0,0,0,.15.33.33,0,0,0,.14.17l0,0H9s0,0,0,0H9l0,0,0,0a.38.38,0,0,0,.16-.25.52.52,0,0,0,0-.11,1.13,1.13,0,0,0,0-.26c0-.56,0-1.11,0-1.67V11a.38.38,0,0,0,0-.1.23.23,0,0,0-.12-.15l-.07,0H9a0,0,0,0,1,0,0H9l.12,0,.45-.08.11,0h.07l0,0v1.25Z"/><path d="M4.17,11.23a1.26,1.26,0,0,0-.5.15,3.15,3.15,0,0,0-.61.65c-.05.09-.44,1.05-.46,1.1l0,.13a.22.22,0,0,0,.08.2l.08,0,.06,0H1.52l0,0a.76.76,0,0,0,.3-.26A1.28,1.28,0,0,0,2,13l.06-.12c.1-.22.2-.43.31-.64a3.07,3.07,0,0,1,.2-.36,2,2,0,0,1,.26-.32,1.4,1.4,0,0,1,.61-.33,1.81,1.81,0,0,1,.23,0H4l.18,0Z"/><path d="M9.12,9.05a.32.32,0,0,1,.13-.27.39.39,0,0,1,.3-.09.29.29,0,0,1,.21.09A.45.45,0,0,1,9.88,9a.4.4,0,0,1-.12.36.37.37,0,0,1-.22.1.39.39,0,0,1-.41-.31A.28.28,0,0,1,9.12,9.05Z"/><polygon points="18 10.94 18 10.94 18.01 10.94 18 10.94"/></svg>