<svg id="Layer_1" data-name="Layer 1" xmlns="http://www.w3.org/2000/svg" viewBox="0 0 24 24"><title>at&amp;amp;t_24px</title><g id="g3"><path id="path9" d="M7.66,17.59a7.09,7.09,0,0,0,9-.26s0,0,0,0A8.54,8.54,0,0,1,12,18.5a8.75,8.75,0,0,1-4.33-.92s0,0,0,0m4.82.37a8,8,0,0,0,4.8-1.42,3.66,3.66,0,0,0,.88-1.06,5.53,5.53,0,0,0,.43-.88s0,0,0,0c-1.07,1.57-4.15,2.55-7.34,2.55-2.25,0-4.67-.72-5.62-2.1,0,0,0,0,0,0C6.49,16.93,9.17,18,12.48,18m-1.9-3.12C7,14.84,5.24,13.15,4.93,12c0,0,0,0,0,0A7.72,7.72,0,0,0,5,13.22a1.45,1.45,0,0,0,.36.62c.88.91,3.07,2.2,6.86,2.2,5.16,0,6.34-1.72,6.58-2.29A5.25,5.25,0,0,0,19.08,12c0-.15,0-.27,0-.38s0,0,0,0c-.26,1.39-4.67,3.23-8.48,3.23M5.6,9a7,7,0,0,0-.51,1.47.48.48,0,0,0,0,.34c.43.93,2.63,2.4,7.76,2.4,3.13,0,5.56-.77,5.95-2.17a1.63,1.63,0,0,0,0-.9,6.73,6.73,0,0,0-.46-1.22s0,0,0,0c.06,1.84-5.07,3-7.66,3-2.8,0-5.14-1.12-5.14-2.53A2.13,2.13,0,0,1,5.61,9s0,0,0,0M16.68,6.7a.31.31,0,0,1,0,.17c0,.78-2.41,2.18-6.24,2.18C7.67,9.05,7.14,8,7.14,7.34a1.14,1.14,0,0,1,.29-.73s0,0,0,0a7.48,7.48,0,0,0-1,1,1,1,0,0,0-.23.43c0,1.38,3.46,2.38,6.68,2.38,3.44,0,5-1.12,5-2.11,0-.35-.14-.56-.49-1a8.66,8.66,0,0,0-.67-.68s0,0,0,0m-1.06-.78a7,7,0,0,0-3.62-1,7,7,0,0,0-3.67,1c-.32.2-.5.36-.5.56,0,.6,1.39,1.24,3.87,1.24s4.35-.7,4.35-1.38c0-.16-.14-.27-.43-.44"/></g></svg>