<svg id="Layer_1" data-name="Layer 1" xmlns="http://www.w3.org/2000/svg" viewBox="0 0 24 24"><title>cisco_24px</title><g id="layer1"><g id="g53688"><path id="path53690" d="M22,10.18a.42.42,0,0,0-.43-.42.43.43,0,0,0-.44.42v.89a.43.43,0,0,0,.44.42.42.42,0,0,0,.43-.42ZM19.61,9a.44.44,0,0,0-.87,0v2.05a.44.44,0,0,0,.87,0Zm-2.39-1.6A.42.42,0,0,0,16.79,7a.43.43,0,0,0-.44.42v4.5a.43.43,0,0,0,.44.42.42.42,0,0,0,.43-.42ZM14.83,9a.44.44,0,0,0-.44-.43A.43.43,0,0,0,14,9v2.05a.42.42,0,0,0,.43.42.43.43,0,0,0,.44-.42Zm-2.4,1.16a.43.43,0,0,0-.86,0v.89a.43.43,0,0,0,.86,0ZM10.05,9a.44.44,0,0,0-.88,0v2.05a.44.44,0,0,0,.88,0Zm-2.4-1.6A.42.42,0,0,0,7.22,7a.43.43,0,0,0-.44.42v4.5a.43.43,0,0,0,.44.42.42.42,0,0,0,.43-.42ZM5.26,9a.43.43,0,0,0-.43-.43A.44.44,0,0,0,4.39,9v2.05a.43.43,0,0,0,.44.42.42.42,0,0,0,.43-.42ZM2.87,10.18a.42.42,0,0,0-.43-.42.43.43,0,0,0-.44.42v.89a.43.43,0,0,0,.44.42.42.42,0,0,0,.43-.42v-.89Zm9,3.69a3.66,3.66,0,0,0-.86-.11c-.8,0-1.29.42-1.29,1.06s.41.84.9,1l.18,0c.22.07.39.17.39.34s-.2.32-.63.32a3.23,3.23,0,0,1-.83-.13v.78a5.31,5.31,0,0,0,.94.09c.68,0,1.44-.28,1.44-1.13a1,1,0,0,0-.82-1L11,15.08c-.14,0-.4-.11-.4-.32s.19-.27.54-.27a2.76,2.76,0,0,1,.69.1v-.72Zm7.41,1.64a.91.91,0,1,1-.91-.89.89.89,0,0,1,.91.89m-.91-1.75a1.75,1.75,0,1,0,1.84,1.75,1.75,1.75,0,0,0-1.84-1.75m-11.91.12a2.9,2.9,0,0,0-.8-.12,1.75,1.75,0,1,0,0,3.5,2.88,2.88,0,0,0,.8-.12v-.91a1.57,1.57,0,0,1-.74.18.9.9,0,1,1,0-1.8,1.52,1.52,0,0,1,.74.18Zm9.15,0a2.8,2.8,0,0,0-.79-.12,1.75,1.75,0,1,0,0,3.5,2.79,2.79,0,0,0,.79-.12v-.91a1.51,1.51,0,0,1-.73.18.9.9,0,1,1,0-1.8,1.47,1.47,0,0,1,.73.18ZM8.53,17.2H7.66V13.82h.87Z"/></g></g></svg>