<svg id="Layer_1" data-name="Layer 1" xmlns="http://www.w3.org/2000/svg" viewBox="0 0 24 24"><title>cloud foundry_24px</title><g id="g4191"><g id="g4197"><path id="path4199" d="M9.93,14s.35-1.35-1.18-3.1l-.05-.06A4.34,4.34,0,0,1,7.7,8,4.28,4.28,0,0,1,12,3.72h.1A4.28,4.28,0,0,1,16.3,8a4.34,4.34,0,0,1-1,2.77l-.05.06A4.15,4.15,0,0,0,14.07,14a6.29,6.29,0,0,0-1.72-12.2h-.7A6.29,6.29,0,0,0,9.93,14"/></g><g id="g4201"><path id="path4203" d="M18,18.94a2.74,2.74,0,0,1,.37-.11,2.68,2.68,0,0,1,.43,0s0-.05,0-.12a.72.72,0,0,0-.07-.26s0-.1,0-.14a.67.67,0,0,1-.06-.12L18.49,18a3.13,3.13,0,0,1-.44-.1l-.4-.14a1.57,1.57,0,0,1-.55-.34.42.42,0,0,1-.16-.35A.25.25,0,0,1,17,17a.36.36,0,0,1,.16-.13L17,16.74l-.13-.07-.17-.08-.32-.15-.15-.06-.35,0a2.44,2.44,0,0,1-.38,0,3.1,3.1,0,0,1-.7-.12,1.63,1.63,0,0,1-.29-.1,1,1,0,0,1-.21-.11c-.12-.09-.19-.17-.19-.26l-.17,0-.48-.07a.51.51,0,0,1,0,.09l0,.17a.7.7,0,0,0,.48.82A2.43,2.43,0,0,1,15.58,18c.37,1-1.19,2-3.56,2s-3.94-1-3.57-2a2.35,2.35,0,0,1,1.61-1.14.73.73,0,0,0,.49-.86l-.05-.24-.32,0a2.86,2.86,0,0,0-.37.06l-.18,0c0,.08-.05.17-.16.25l-.2.12L9,16.32l-.33.08-.37.05a3.54,3.54,0,0,1-.73,0l0,0-.1.05-.31.15c-.12.05-.22.12-.3.16l-.1.06,0,0c.16.07.25.17.26.28a.38.38,0,0,1-.11.36,1.11,1.11,0,0,1-.23.19,1.49,1.49,0,0,1-.31.17,3.15,3.15,0,0,1-.85.26l0,.12a2.56,2.56,0,0,0-.09.26c0,.09,0,.19,0,.26a.32.32,0,0,0,0,.13,2.25,2.25,0,0,1,.84.15,1,1,0,0,1,.53.37.57.57,0,0,1,0,.54,1.22,1.22,0,0,1-.47.62l0,0a.41.41,0,0,0,.12.09c.1.07.23.18.38.27l.45.25.16.07.07,0a3.8,3.8,0,0,1,1.15-.28,3.71,3.71,0,0,1,.57,0,3.43,3.43,0,0,1,.56.07,3.26,3.26,0,0,1,.5.16,3.31,3.31,0,0,1,.42.24,1.48,1.48,0,0,1,.55.7l.33,0c.2,0,.47,0,.74,0l.73,0,.33,0a.85.85,0,0,1,.17-.39,1,1,0,0,1,.14-.17l.16-.15a1.6,1.6,0,0,1,.4-.25,2.67,2.67,0,0,1,.48-.18,4.68,4.68,0,0,1,.54-.08,3.62,3.62,0,0,1,.57,0,4,4,0,0,1,1.17.25l.2-.11a3.1,3.1,0,0,0,.41-.26c.13-.1.27-.19.36-.27l.13-.13a1.53,1.53,0,0,1-.53-.6.53.53,0,0,1-.06-.27.39.39,0,0,1,.06-.26.9.9,0,0,1,.46-.38"/></g></g><g id="g4205"><g id="g4207"><g id="g4213"><g id="g4215"><path id="path4229" d="M8.85,8a2.61,2.61,0,0,0,1,2h0a4.48,4.48,0,0,1,1.41,3.26h0c0,1.53-.06,3.3-.12,4.2h0c-.81.12-1.38.39-1.38.71h0c0,.42,1,.91,2.25.91h0c1.24,0,2.24-.49,2.24-.91h0c0-.32-.57-.59-1.37-.71h0c-.07-.9-.17-2.67-.13-4.2h0a4.52,4.52,0,0,1,1.41-3.26h0a2.58,2.58,0,0,0,1-2h0A3,3,0,0,0,12,5.32h0A3,3,0,0,0,8.85,8"/></g></g></g></g></svg>