<svg id="Layer_1" data-name="Layer 1" xmlns="http://www.w3.org/2000/svg" viewBox="0 0 24 24"><title>cloud foundry_24px</title><g id="g4191"><g id="g4197"><path id="path4199" d="M10.47,13.44a2.71,2.71,0,0,0-.88-2.29l0,0a3.23,3.23,0,0,1-.74-2A3.17,3.17,0,0,1,12,5.87H12a3.17,3.17,0,0,1,3.14,3.19,3.23,3.23,0,0,1-.74,2l0,0a3.06,3.06,0,0,0-.88,2.29,4.66,4.66,0,0,0-1.27-9h-.52a4.66,4.66,0,0,0-1.27,9"/></g><g id="g4201"><path id="path4203" d="M16.41,17.14l.27-.08L17,17v-.09c0-.05,0-.12,0-.19l0-.1,0-.09-.05-.08-.33-.08a2,2,0,0,1-.29-.1,1.38,1.38,0,0,1-.41-.25.33.33,0,0,1-.12-.26.23.23,0,0,1,.06-.12.35.35,0,0,1,.11-.09l-.09-.06-.11,0-.12-.06-.24-.11-.11,0-.26,0h-.27a2.94,2.94,0,0,1-.53-.08l-.21-.08L13.73,15c-.08-.07-.14-.13-.14-.19l-.12,0-.36-.05s0,0,0,.06l0,.13a.51.51,0,0,0,.35.61,1.79,1.79,0,0,1,1.23.86c.28.75-.88,1.49-2.64,1.49s-2.91-.74-2.64-1.49a1.77,1.77,0,0,1,1.19-.85.55.55,0,0,0,.37-.63l0-.18-.24,0-.28,0-.12,0a.26.26,0,0,1-.12.19l-.15.09-.21.08-.25.06a2,2,0,0,1-.27,0,2.44,2.44,0,0,1-.54,0h0l-.08,0-.23.11-.22.12-.07,0,0,0a.29.29,0,0,1,.2.21.27.27,0,0,1-.09.26.73.73,0,0,1-.16.14,1.36,1.36,0,0,1-.24.13,3,3,0,0,1-.62.2l0,.08c0,.05,0,.12-.07.19A1.5,1.5,0,0,0,7,17a.62.62,0,0,0,0,.09,2.09,2.09,0,0,1,.62.11.84.84,0,0,1,.39.27.46.46,0,0,1,0,.41,1,1,0,0,1-.36.46l0,0,.09.07c.08.05.17.13.29.2l.33.18.12.06,0,0a2.79,2.79,0,0,1,.85-.21,2.08,2.08,0,0,1,.43,0,1.4,1.4,0,0,1,.41.05,2,2,0,0,1,.37.12,1.8,1.8,0,0,1,.31.17,1.07,1.07,0,0,1,.41.52h.24a4.81,4.81,0,0,0,.55,0l.54,0,.24,0a.76.76,0,0,1,.13-.29.58.58,0,0,1,.1-.12L13.3,19a1.49,1.49,0,0,1,.3-.18,1.59,1.59,0,0,1,.35-.13,2.93,2.93,0,0,1,.41-.07c.13,0,.28,0,.42,0a3.24,3.24,0,0,1,.86.19l.15-.09a2.16,2.16,0,0,0,.31-.19l.26-.19.1-.1a1.12,1.12,0,0,1-.39-.44.41.41,0,0,1-.05-.21.26.26,0,0,1,.05-.19.61.61,0,0,1,.34-.28"/></g></g><g id="g4205"><g id="g4207"><g id="g4213"><g id="g4215"><path id="path4229" d="M9.67,9.07a1.86,1.86,0,0,0,.73,1.48h0a3.4,3.4,0,0,1,1,2.42h0c0,1.13,0,2.44-.09,3.11h0c-.6.09-1,.29-1,.53h0c0,.31.74.67,1.66.67h0c.92,0,1.66-.36,1.66-.67h0c0-.24-.42-.44-1-.53h0c0-.67-.12-2-.09-3.11h0a3.4,3.4,0,0,1,1.05-2.42h0a1.88,1.88,0,0,0,.72-1.48h0a2.2,2.2,0,0,0-2.32-2h0a2.2,2.2,0,0,0-2.32,2"/></g></g></g></g></svg>