<svg id="Layer_1" data-name="Layer 1" xmlns="http://www.w3.org/2000/svg" viewBox="0 0 24 24"><title>juniper_24px</title><path d="M11.83,13.52h.11l.57.79v-.79h.1v1h-.1l-.58-.82v.82h-.1Z"/><path d="M12.85,13.52h.63v.09H13v.32h.52V14H13v.36h.53v.09h-.63Z"/><path d="M14,13.61h-.36v-.09h.82v.09h-.36v.87H14Z"/><path d="M14.57,13.52h.11l.25.8.25-.8h.09l.26.8.25-.8h.09l-.3,1h-.09l-.26-.81-.25.81h-.09Z"/><path d="M16.82,14c0-.26-.12-.4-.38-.4s-.37.14-.37.4.12.4.37.4.38-.14.38-.4M16,14c0-.35.17-.5.47-.5a.5.5,0,0,1,0,1c-.3,0-.47-.15-.47-.5"/><path d="M17.55,14c.13,0,.21-.05.21-.2s-.08-.19-.22-.19h-.31V14Zm0,.09h-.29v.39h-.1v-1h.41c.22,0,.33.09.33.28a.26.26,0,0,1-.25.29l.23.39h-.11Z"/><path d="M18.37,14l-.19.21v.3h-.1v-1h.1v.53l.48-.53h.12l-.34.38.39.58h-.12Z"/><path d="M18.91,14.39l.05-.08a.66.66,0,0,0,.34.1c.2,0,.29-.06.29-.19s-.12-.16-.29-.19S19,14,19,13.76s.12-.26.34-.26a.5.5,0,0,1,.33.09l-.05.08a.49.49,0,0,0-.28-.08c-.17,0-.24.05-.24.17s.1.14.27.18.36.06.36.27-.13.29-.38.29a.69.69,0,0,1-.4-.11"/><path d="M20.68,9.51c-1.34,0-1.39.61-1.39,1.47V13.1h.31V11c0-.65,0-1.17,1.08-1.17l.32,0v-.3l-.32,0"/><path d="M5.06,11.72V9.58h.32v2.15c0,.62,0,1.14,1.11,1.14s1.08-.52,1.08-1.17V9.58h.31V11.7c0,.86,0,1.47-1.39,1.47s-1.43-.61-1.43-1.45"/><path d="M11.24,11V13.1h-.32V11c0-.62,0-1.14-1.11-1.14S8.73,10.33,8.73,11V13.1H8.42V11c0-.86.06-1.47,1.39-1.47s1.43.61,1.43,1.45"/><path d="M11.83,9.59h.31V13.1h-.31Z"/><path d="M14.34,11.56a.73.73,0,0,0,.83-.83.75.75,0,0,0-.85-.83H13v1.66Zm-1.62-2h1.61c.8,0,1.17.4,1.17,1.12a1,1,0,0,1-1.17,1.17H13V13.1h-.31Z"/><path d="M16.17,11.09h2.35c0-.7-.07-1.29-1.08-1.29s-1.23.53-1.27,1.29m-.31.24c0-1,.29-1.83,1.59-1.83s1.39.92,1.38,1.89H16.17c0,.85.21,1.49,1.3,1.49a1.63,1.63,0,0,0,1.13-.37l.18.23a2,2,0,0,1-1.31.43c-1.36,0-1.61-.81-1.61-1.84"/><path d="M3.12,13.86c1.34,0,1.4-.61,1.4-1.47V9.58H4.2v2.81c0,.65,0,1.17-1.08,1.17H3v.31h.12"/><path d="M20.29,12.7a.19.19,0,1,0,0,.38.19.19,0,1,0,0-.38m0,.41a.22.22,0,1,1,.22-.22.22.22,0,0,1-.22.22"/><path d="M20.31,12.89s.06,0,.06-.05,0,0-.06,0h-.07v.09Zm0,0h-.07V13h0v-.26h.12c.06,0,.08,0,.08.08s0,.07-.06.08l.06.1h0Z"/></svg>