<svg id="Layer_1" data-name="Layer 1" xmlns="http://www.w3.org/2000/svg" viewBox="0 0 24 24"><title>mysql_24px</title><path d="M17.47,15.56a3.94,3.94,0,0,0-1.71.25c-.13,0-.34.06-.36.22s.08.2.14.29a2.26,2.26,0,0,0,.46.56c.18.14.37.29.56.41.35.21.74.34,1.07.55s.4.29.59.43.16.19.28.23v0c-.06-.08-.08-.2-.14-.29l-.26-.27a4.41,4.41,0,0,0-.93-.9c-.28-.2-.89-.47-1-.8l0,0a3.88,3.88,0,0,0,.61-.15c.3-.08.57-.06.88-.14l.43-.12V15.7c-.16-.16-.27-.38-.45-.53a13.23,13.23,0,0,0-1.45-1.11,10,10,0,0,0-.93-.45c-.1,0-.27-.08-.34-.17a4.1,4.1,0,0,1-.36-.69c-.26-.5-.5-1-.73-1.57a8.47,8.47,0,0,0-.44-1A9.05,9.05,0,0,0,9.93,6.78,4.17,4.17,0,0,0,8.8,6.41l-.66,0c-.14,0-.28-.22-.41-.3-.5-.33-1.8-1-2.18-.11-.23.59.36,1.16.57,1.46a4.15,4.15,0,0,1,.44.68c.07.15.08.31.14.47a11.85,11.85,0,0,0,.47,1.22,4.37,4.37,0,0,0,.32.55c.07.1.2.15.22.31a2.71,2.71,0,0,0-.2.68,4,4,0,0,0,.26,3c.14.23.47.72.93.53s.31-.68.42-1.13c0-.1,0-.18.06-.24v0l.37.74a4.9,4.9,0,0,0,1.15,1.21c.21.16.37.44.64.53v0h0a.86.86,0,0,0-.2-.18,4.69,4.69,0,0,1-.46-.54,11.71,11.71,0,0,1-1-1.64c-.14-.28-.27-.58-.39-.86,0-.11,0-.28-.14-.33a3.87,3.87,0,0,0-.42.61,5.5,5.5,0,0,0-.24,1.36l0,0c-.28-.07-.38-.36-.49-.62a4,4,0,0,1-.08-2.4c.06-.19.33-.79.23-1s-.23-.27-.33-.41a2.88,2.88,0,0,1-.32-.57C7.23,9,7.13,8.4,6.91,7.89a4.54,4.54,0,0,0-.45-.69A4.33,4.33,0,0,1,6,6.5c-.05-.1-.11-.27,0-.37A.18.18,0,0,1,6.06,6c.12-.09.44,0,.56.09a4,4,0,0,1,.87.45c.13.09.26.26.42.31H8.1c.28.06.6,0,.86.1a4.84,4.84,0,0,1,1.27.62A7.86,7.86,0,0,1,13,10.65c.1.2.15.4.24.62.18.43.42.88.6,1.31a6.28,6.28,0,0,0,.63,1.21c.13.19.66.29.91.39s.44.15.6.25.6.41.89.62C17,15.15,17.45,15.38,17.47,15.56Z"/><path d="M8.46,7.73a1.79,1.79,0,0,0-.36,0v0h0a2.57,2.57,0,0,0,.28.37c.06.15.13.29.2.43l0,0a.51.51,0,0,0,.18-.45c-.05,0-.06-.12-.1-.18S8.53,7.8,8.46,7.73Z"/></svg>