<svg id="Layer_1" data-name="Layer 1" xmlns="http://www.w3.org/2000/svg" viewBox="0 0 24 24"><title>mysql_24px</title><path d="M19.16,16.66a5.2,5.2,0,0,0-2.25.32c-.17.07-.44.07-.47.29a2.64,2.64,0,0,1,.18.38,3.08,3.08,0,0,0,.61.73c.24.18.48.37.74.53.45.29,1,.45,1.4.73.25.17.51.38.76.56s.21.24.37.3v0c-.08-.11-.11-.26-.18-.37L20,19.75a5.46,5.46,0,0,0-1.21-1.19c-.36-.26-1.17-.62-1.32-1l0,0a5.18,5.18,0,0,0,.8-.19c.39-.11.75-.08,1.16-.19l.55-.16v-.11c-.21-.21-.35-.5-.58-.69a16.81,16.81,0,0,0-1.9-1.46c-.37-.23-.82-.39-1.21-.59-.13-.06-.36-.1-.45-.21a5.68,5.68,0,0,1-.47-.92c-.34-.65-.66-1.35-1-2a11.51,11.51,0,0,0-.58-1.34A11.74,11.74,0,0,0,9.29,5.18,5.29,5.29,0,0,0,7.82,4.7L7,4.64a3.88,3.88,0,0,1-.53-.4c-.66-.43-2.36-1.35-2.85-.13-.31.76.46,1.51.74,1.9a6.47,6.47,0,0,1,.58.89,6.32,6.32,0,0,1,.18.62A14.8,14.8,0,0,0,5.68,9.1a5.78,5.78,0,0,0,.42.73c.1.14.27.19.29.4a3.54,3.54,0,0,0-.26.89,5.24,5.24,0,0,0,.34,4c.19.3.62.95,1.22.7s.4-.89.55-1.48c0-.13,0-.23.08-.32v0l.47,1a6.52,6.52,0,0,0,1.51,1.59c.27.21.49.57.84.7v0h0c-.07-.11-.17-.15-.26-.24a5.77,5.77,0,0,1-.61-.7A16.31,16.31,0,0,1,9,14.13c-.18-.36-.34-.76-.5-1.13-.06-.14-.06-.36-.18-.43a4.66,4.66,0,0,0-.56.81,6.73,6.73,0,0,0-.31,1.77l-.06,0c-.36-.09-.49-.48-.63-.81a5.15,5.15,0,0,1-.11-3.14c.08-.25.44-1,.29-1.27s-.29-.36-.42-.53a5.08,5.08,0,0,1-.42-.76c-.28-.65-.41-1.38-.71-2a5.83,5.83,0,0,0-.58-.91,4.67,4.67,0,0,1-.63-.92c-.06-.13-.15-.34-.06-.48a.22.22,0,0,1,.16-.16c.15-.12.58,0,.74.11a6.34,6.34,0,0,1,1.13.59c.18.11.35.34.56.4h.23c.38.09.79,0,1.14.14a6.89,6.89,0,0,1,1.66.8,10.42,10.42,0,0,1,3.61,4c.14.27.2.53.32.81.24.57.55,1.16.79,1.72a7.86,7.86,0,0,0,.82,1.58c.18.25.87.38,1.18.52a5.44,5.44,0,0,1,.79.32c.4.24.79.54,1.16.8C18.55,16.12,19.13,16.41,19.16,16.66Z"/><path d="M7.37,6.42a1.77,1.77,0,0,0-.48,0v0h0A3.59,3.59,0,0,0,7.29,7c.09.19.18.38.26.57l0,0a.68.68,0,0,0,.24-.59c-.07-.07-.08-.16-.13-.24S7.46,6.51,7.37,6.42Z"/></svg>