<svg id="Layer_1" data-name="Layer 1" xmlns="http://www.w3.org/2000/svg" viewBox="0 0 24 24"><title>nokia siemens_24px</title><path d="M21.8,12.86,22,13a.88.88,0,0,0,.33.05.5.5,0,0,0,.18,0l.11,0a.16.16,0,0,0,.06-.08.28.28,0,0,0,0-.09.2.2,0,0,0-.06-.15.55.55,0,0,0-.23-.1l-.2,0L22,12.43a.54.54,0,0,1-.15-.09.36.36,0,0,1-.14-.32.42.42,0,0,1,0-.2.51.51,0,0,1,.13-.16.85.85,0,0,1,.19-.1,1,1,0,0,1,.26,0,1.15,1.15,0,0,1,.33,0,1.45,1.45,0,0,1,.24.1l-.09.22-.07,0-.12,0-.14,0h-.15a.43.43,0,0,0-.26.06A.2.2,0,0,0,22,12a.19.19,0,0,0,0,.08.1.1,0,0,0,0,.07l.09,0,.15,0,.2,0,.2.06.15.09a.5.5,0,0,1,.1.14.48.48,0,0,1,0,.18.45.45,0,0,1-.17.37.73.73,0,0,1-.47.14,1.14,1.14,0,0,1-.39-.06,1.29,1.29,0,0,1-.26-.12Zm-1.34.35h-.28V10.75h.28V12.3l.69-.73h.32l-.68.72.79.92h-.37l-.75-.88Zm-.56-1.39h-.16a.43.43,0,0,0-.36.18.85.85,0,0,0-.13.5v.73H19V11.57h.26v.28a.41.41,0,0,1,.07-.11l.11-.1a.47.47,0,0,1,.15-.06.48.48,0,0,1,.18,0h.17ZM17.81,13a.42.42,0,0,0,.36-.17.78.78,0,0,0,.11-.43.88.88,0,0,0,0-.24.47.47,0,0,0-.08-.19.37.37,0,0,0-.15-.13.46.46,0,0,0-.21-.05.4.4,0,0,0-.35.17.74.74,0,0,0-.12.44.88.88,0,0,0,0,.24.68.68,0,0,0,.08.19.37.37,0,0,0,.15.13A.46.46,0,0,0,17.81,13Zm0,.26a.79.79,0,0,1-.32-.06.55.55,0,0,1-.24-.18.65.65,0,0,1-.15-.27,1,1,0,0,1-.05-.35A1,1,0,0,1,17.1,12a.59.59,0,0,1,.15-.27.55.55,0,0,1,.24-.18.88.88,0,0,1,.64,0,.61.61,0,0,1,.24.17.69.69,0,0,1,.15.28,1.25,1.25,0,0,1,0,.7.82.82,0,0,1-.14.28.81.81,0,0,1-.24.17.88.88,0,0,1-.33.06Zm-3.07-1.68H15l.33,1.32.3-1.26H16l.3,1.26.32-1.32h.29l-.47,1.64h-.3L15.8,12l-.29,1.22h-.3Zm-1.22,0h.32v-.45l.28-.08v.53h.48v.25h-.48v.88a.38.38,0,0,0,0,.16.15.15,0,0,0,.06.09l.11,0h.31l0,.22-.12,0h-.16a.56.56,0,0,1-.4-.12.49.49,0,0,1-.13-.38v-.91h-.32Zm-.5.67a.66.66,0,0,0-.11-.35.34.34,0,0,0-.29-.12.36.36,0,0,0-.31.13.71.71,0,0,0-.13.34Zm.19.89-.06,0-.11,0-.15,0-.2,0a.75.75,0,0,1-.6-.23.93.93,0,0,1-.2-.63,1.23,1.23,0,0,1,0-.35.82.82,0,0,1,.14-.28.66.66,0,0,1,.23-.17.75.75,0,0,1,.31-.06.68.68,0,0,1,.29.05.57.57,0,0,1,.22.16.68.68,0,0,1,.13.27,1.28,1.28,0,0,1,.05.41v0H12.18a.68.68,0,0,0,.14.39.5.5,0,0,0,.39.14A1,1,0,0,0,13,13l.16,0Zm-2-2.23h.28v2.31h-.28l-1-1.83v1.83H9.85V10.9h.3l1,1.82ZM8.33,13.21V13a.48.48,0,0,1-.22.17.72.72,0,0,1-.29.06.63.63,0,0,1-.19,0,.38.38,0,0,1-.17-.08A.53.53,0,0,1,7.32,13a.6.6,0,0,1-.05-.24.58.58,0,0,1,.16-.41.69.69,0,0,1,.48-.15h.4v-.1a.35.35,0,0,0-.1-.26.51.51,0,0,0-.3-.07.85.85,0,0,0-.29,0,.39.39,0,0,0-.17.07l-.09-.21.08,0,.12-.05.18-.05H8a.65.65,0,0,1,.46.14.52.52,0,0,1,.17.43v1.11Zm0-.77H7.92a.47.47,0,0,0-.17,0,.24.24,0,0,0-.12.07.21.21,0,0,0-.06.1.27.27,0,0,0,0,.13.26.26,0,0,0,.09.21.43.43,0,0,0,.24.07L8,13l.14-.07a.35.35,0,0,0,.1-.11.26.26,0,0,0,0-.15ZM6.94,11a.2.2,0,0,1-.05.14.16.16,0,0,1-.13.06.18.18,0,0,1-.14-.06.22.22,0,0,1,0-.28.17.17,0,0,1,.14-.06.16.16,0,0,1,.13.06A.2.2,0,0,1,6.94,11Zm-.32.53H6.9v1.64H6.62ZM5.24,13.21H5V10.75h.28V12.3l.69-.73h.32l-.68.72.79.92H6l-.75-.87ZM3.81,13a.4.4,0,0,0,.36-.17.78.78,0,0,0,.11-.43.88.88,0,0,0,0-.24A.47.47,0,0,0,4.17,12,.37.37,0,0,0,4,11.83a.46.46,0,0,0-.21,0,.39.39,0,0,0-.35.16.74.74,0,0,0-.12.44.88.88,0,0,0,0,.24.68.68,0,0,0,.08.19A.37.37,0,0,0,3.6,13a.46.46,0,0,0,.21,0Zm0,.26a.79.79,0,0,1-.32-.06A.55.55,0,0,1,3.25,13a.59.59,0,0,1-.15-.27,1,1,0,0,1-.05-.35A1,1,0,0,1,3.1,12a.59.59,0,0,1,.15-.27.55.55,0,0,1,.24-.18.79.79,0,0,1,.32-.06.88.88,0,0,1,.33.06.66.66,0,0,1,.23.17.69.69,0,0,1,.15.28,1.25,1.25,0,0,1,0,.7.82.82,0,0,1-.14.28.81.81,0,0,1-.24.17.88.88,0,0,1-.33.06ZM2.33,10.9h.29v2.31H2.33l-1-1.83v1.83H1V10.9h.3l1,1.82Z"/></svg>