<svg id="Layer_1" data-name="Layer 1" xmlns="http://www.w3.org/2000/svg" viewBox="0 0 24 24"><title>Oracle_24px</title><g id="layer1"><g id="g16337"><path id="path16197" d="M10.52,11.36h1.14l-.6-.86L10,12.06H9.44l1.35-1.88a.36.36,0,0,1,.27-.12.32.32,0,0,1,.26.12l1.36,1.88h-.51l-.24-.35H10.77Zm5.26.35V10.08h-.43v1.79a.16.16,0,0,0,.06.13.23.23,0,0,0,.16.06h2l.25-.35Zm-7.11-.29a.67.67,0,1,0,0-1.34H6.79v2h.43V10.43H8.64a.32.32,0,1,1,0,.64H7.43l1.28,1h.63l-.87-.64Zm-4.53.64a1.05,1.05,0,0,1-1.11-1,1.05,1.05,0,0,1,1.11-1h1.3a1.06,1.06,0,0,1,1.12,1,1.06,1.06,0,0,1-1.12,1Zm1.27-.35a.65.65,0,1,0,0-1.28H4.17a.64.64,0,1,0,0,1.28Zm8.16.35a1.05,1.05,0,0,1-1.11-1,1.05,1.05,0,0,1,1.11-1h1.55l-.25.35H13.6a.64.64,0,1,0,0,1.28h1.55l-.25.35Zm5.26-.35a.69.69,0,0,1-.69-.47H20l.26-.34H18.14a.71.71,0,0,1,.69-.47h1.26l.26-.35H18.8a1.06,1.06,0,0,0-1.12,1,1.06,1.06,0,0,0,1.12,1h1.33l.25-.35H18.83"/><path id="path16199" d="M20.58,10.29a.17.17,0,0,1,.19-.17.18.18,0,0,1,.2.17.19.19,0,0,1-.2.18A.18.18,0,0,1,20.58,10.29Zm.19.22a.22.22,0,1,0,0-.44.22.22,0,1,0,0,.44Zm0-.35h.07a.07.07,0,0,1,.06.07v0s0,0,0,0h0l.06.1h-.06l-.06-.1h0v.1h-.05v-.25Zm0,.11h.05v0l0,0h-.07v.07h0"/></g></g></svg>