<svg id="Layer_1" data-name="Layer 1" xmlns="http://www.w3.org/2000/svg" viewBox="0 0 60 60"><title>Aloted_60px</title><path d="M43.51,30H36V25h2.51A1.49,1.49,0,0,0,40,23.51v-7A1.49,1.49,0,0,0,38.51,15h-7A1.49,1.49,0,0,0,30,16.49V19H25V16.49A1.49,1.49,0,0,0,23.51,15h-7A1.49,1.49,0,0,0,15,16.49v7A1.49,1.49,0,0,0,16.49,25H19v5H16.49A1.49,1.49,0,0,0,15,31.49v7A1.49,1.49,0,0,0,16.49,40h7A1.49,1.49,0,0,0,25,38.51V36h5v7.51A1.49,1.49,0,0,0,31.49,45h12A1.49,1.49,0,0,0,45,43.51v-12A1.49,1.49,0,0,0,43.51,30ZM32,17h6v6H32ZM17,17h6v6H17Zm6,21H17V32h6Zm2-3V31.49A1.49,1.49,0,0,0,23.51,30H20V25h3.51A1.49,1.49,0,0,0,25,23.51V20h5v3.51A1.49,1.49,0,0,0,31.49,25H35v5H31.49A1.49,1.49,0,0,0,30,31.49V35Zm18,8H32V32H43Z"/></svg>