<svg id="Layer_1" data-name="Layer 1" xmlns="http://www.w3.org/2000/svg" viewBox="0 0 60 60"><title>Applcation Server-60px_2px</title><path d="M27,20h6a1,1,0,0,0,0-2H27a1,1,0,0,0,0,2Z"/><path d="M31.85,40.23a2.27,2.27,0,0,0-.19-.34,2.16,2.16,0,0,0-.55-.55,2.27,2.27,0,0,0-.34-.19,1.82,1.82,0,0,0-.38-.11,2,2,0,0,0-1.8.55,1.42,1.42,0,0,0-.25.3,1.63,1.63,0,0,0-.19.34,1.82,1.82,0,0,0-.11.38A1.72,1.72,0,0,0,28,41a2,2,0,0,0,.15.77,1.88,1.88,0,0,0,.44.64A2,2,0,0,0,32,41a1.72,1.72,0,0,0,0-.39A1.82,1.82,0,0,0,31.85,40.23Z"/><path d="M42,29H39V16a3,3,0,0,0-3-3H24a3,3,0,0,0-3,3V44a3,3,0,0,0,3,3H36a3,3,0,0,0,3-3V43h3a1,1,0,0,0,1-1V30A1,1,0,0,0,42,29ZM37,44a1,1,0,0,1-1,1H24a1,1,0,0,1-1-1V16a1,1,0,0,1,1-1H36a1,1,0,0,1,1,1V29H35a1,1,0,0,0-1,1V42a1,1,0,0,0,1,1h2Z"/><path d="M27,24h6a1,1,0,0,0,0-2H27a1,1,0,0,0,0,2Z"/><path d="M33,26H27a1,1,0,0,0,0,2h6a1,1,0,0,0,0-2Z"/></svg>