<svg id="Layer_1" data-name="Layer 1" xmlns="http://www.w3.org/2000/svg" viewBox="0 0 60 60"><title>Border Element_60px</title><path d="M53.72,29.25,42.51,9.75A1.52,1.52,0,0,0,41.21,9H18.79a1.52,1.52,0,0,0-1.3.75L6.28,29.25a1.49,1.49,0,0,0,0,1.5l11.21,19.5a1.52,1.52,0,0,0,1.3.75H41.21a1.52,1.52,0,0,0,1.3-.75l11.21-19.5A1.49,1.49,0,0,0,53.72,29.25ZM40.92,49H19.08L8.15,30,19.08,11H40.92L51.85,30Z"/><path d="M34.33,40.28,31,43.36V34a1,1,0,0,0-2,0v9.36l-3.31-3.07a1,1,0,0,0-1.36,1.46L30,47l5.69-5.27a1,1,0,1,0-1.35-1.47Z"/><path d="M25.69,19.74,29,16.67V26a1,1,0,0,0,2,0V16.63l3.37,3.11a1,1,0,0,0,.68.26,1,1,0,0,0,.73-.32,1,1,0,0,0-.05-1.41L30,13l-5.69,5.26a1,1,0,0,0-.06,1.41A1,1,0,0,0,25.69,19.74Z"/><path d="M40.67,24.2a1,1,0,0,0-1.41.06L34,30l5.26,5.66A1,1,0,0,0,40,36a1,1,0,0,0,.73-1.68L37.65,31H47a1,1,0,0,0,0-2H37.64l3.09-3.39A1,1,0,0,0,40.67,24.2Z"/><path d="M20.67,24.36a1,1,0,1,0-1.44,1.38L22.34,29H13a1,1,0,0,0,0,2h9.31l-3.06,3.34a1,1,0,0,0,.06,1.42A1.05,1.05,0,0,0,20,36a1,1,0,0,0,.74-.33L26,29.93Z"/></svg>