<svg id="Layer_1" data-name="Layer 1" xmlns="http://www.w3.org/2000/svg" xmlns:xlink="http://www.w3.org/1999/xlink" viewBox="0 0 60 60"><defs><style>.cls-1{fill:none;clip-rule:evenodd;}.cls-2{fill-rule:evenodd;}.cls-3{clip-path:url(#clip-path);}</style><clipPath id="clip-path"><path class="cls-1" d="M442.67-243.33a4,4,0,0,0-4,4,4,4,0,0,0,4,4,4,4,0,0,0,4-4A4,4,0,0,0,442.67-243.33Zm0,10a6,6,0,0,1-6-6,6,6,0,0,1,6-6,6,6,0,0,1,6,6A6,6,0,0,1,442.67-233.33Zm8-9.31v-4.69H446l-3.31-3.31-3.31,3.31h-4.69v4.69l-3.31,3.31,3.31,3.31v4.69h4.69l3.31,3.31,3.31-3.31h4.69V-236l3.31-3.31Z"/></clipPath></defs><title>Call control_60px </title><path d="M42.23,46.58a27,27,0,0,1-27-26.88,2.52,2.52,0,0,1,2.53-2.52h6.28a2.53,2.53,0,0,1,2.53,2.52,16.05,16.05,0,0,0,.82,5.12,2.54,2.54,0,0,1-.63,2.58l-.19.15a8.63,8.63,0,0,0-1.23.86,9.83,9.83,0,0,0,3.88,7,5.67,5.67,0,0,0,4.56,1.34,6.69,6.69,0,0,0,.48-1l.08-.21.16-.16a2.82,2.82,0,0,1,2.34-.65c1.36.1,2.65.09,4,.07h1.42c1.42,0,2.48,1.57,2.48,3v6.33A2.53,2.53,0,0,1,42.23,46.58ZM17.77,19.18a.53.53,0,0,0-.53.52,25,25,0,0,0,25,24.88.53.53,0,0,0,.53-.53V37.72a1.27,1.27,0,0,0-.49-1h-1.4c-1.39,0-2.72,0-4.17-.08a2.76,2.76,0,0,0-.66,0c-.67,1.69-1.27,1.86-1.5,1.93A7.3,7.3,0,0,1,28,37c-2.83-2.18-4.74-5.85-4.65-8.9,0-.31,0-1,2.07-2.19a.5.5,0,0,0,.07-.47,18.44,18.44,0,0,1-.91-5.74.54.54,0,0,0-.53-.52Zm7.48,9.33Zm.1-.35Z"/><polygon class="cls-2" points="38.13 28.13 42.5 23.75 41.26 22.5 36.88 26.88 35.01 25.01 35.01 29.99 40 30 38.13 28.13"/><polygon class="cls-2" points="42.97 15.01 37.98 15.01 39.86 16.88 35.48 21.25 36.73 22.5 41.11 18.13 42.98 20 42.97 15.01"/></svg>