<svg id="Layer_1" data-name="Layer 1" xmlns="http://www.w3.org/2000/svg" viewBox="0 0 60 60"><title>Collaboration_60px </title><path d="M46,23a6,6,0,0,0-2.91.76l-4.38-5.05a6,6,0,1,0-10.65-4.5l-9.15,3.21-.07,0A6,6,0,1,0,13,26.91v5.18A6,6,0,0,0,14,44a5.94,5.94,0,0,0,4.43-2l9.63,3.76a6,6,0,1,0,10.32-4.88L42.65,34A6,6,0,1,0,46,23ZM35,39.09V28.17l5,1.58a6,6,0,0,0,1.13,2.81l-4.4,7.13A6,6,0,0,0,35,39.09Zm-4.11.79L23,29.8l3.41-4.32L33,27.55V39.09A6,6,0,0,0,30.89,39.88ZM17.68,33.27A5.92,5.92,0,0,0,15,32.09V26.91a6.05,6.05,0,0,0,2.4-1l3,3.85Zm1.16-8.74a5.82,5.82,0,0,0,.68-1.19l4.82,1.51-2.63,3.33ZM30.71,20a5.94,5.94,0,0,0,2.29.9v4.55l-5.28-1.65Zm9.44,7.68L35,26.08V20.91a6,6,0,0,0,2.23-.86l4.3,5A6,6,0,0,0,40.15,27.69ZM34,11a4,4,0,1,1-4,4A4,4,0,0,1,34,11Zm-5.85,5.3a5.91,5.91,0,0,0,1.1,2.35l-3.58,4.52L20,21.39c0-.13,0-.26,0-.39a5.93,5.93,0,0,0-.26-1.75ZM10,21a4,4,0,1,1,4,4A4,4,0,0,1,10,21Zm4,21a4,4,0,1,1,4-4A4,4,0,0,1,14,42Zm5.05-7.23,2.65-3.36,7.68,9.77a6,6,0,0,0-1.23,2.5l-8.61-3.37A6.1,6.1,0,0,0,20,38,5.94,5.94,0,0,0,19.05,34.77ZM34,49a4,4,0,1,1,4-4A4,4,0,0,1,34,49ZM46,33a4,4,0,1,1,4-4A4,4,0,0,1,46,33Z"/></svg>