<svg id="Layer_1" data-name="Layer 1" xmlns="http://www.w3.org/2000/svg" viewBox="0 0 60 60"><title>Compute-60px_2px </title><path d="M22.25,39h15.5A1.25,1.25,0,0,0,39,37.75V22.25A1.25,1.25,0,0,0,37.75,21H22.25A1.25,1.25,0,0,0,21,22.25v15.5A1.25,1.25,0,0,0,22.25,39ZM23,23H37V37H23Z"/><path d="M47,28a1,1,0,0,0,0-2H44V22h3a1,1,0,0,0,0-2H44V17.25A1.25,1.25,0,0,0,42.75,16H40V13a1,1,0,0,0-2,0v3H34V13a1,1,0,0,0-2,0v3H28V13a1,1,0,0,0-2,0v3H22V13a1,1,0,0,0-2,0v3H17.25A1.25,1.25,0,0,0,16,17.25V20H13a1,1,0,0,0,0,2h3v4H13a1,1,0,0,0,0,2h3v4H13a1,1,0,0,0,0,2h3v4H13a1,1,0,0,0,0,2h3v2.75A1.25,1.25,0,0,0,17.25,44H20v3a1,1,0,0,0,2,0V44h4v3a1,1,0,0,0,2,0V44h4v3a1,1,0,0,0,2,0V44h4v3a1,1,0,0,0,2,0V44h2.75A1.25,1.25,0,0,0,44,42.75V40h3a1,1,0,0,0,0-2H44V34h3a1,1,0,0,0,0-2H44V28ZM42,42H18V18H42Z"/></svg>