<svg id="Layer_1" data-name="Layer 1" xmlns="http://www.w3.org/2000/svg" viewBox="0 0 60 60"><title>Compute-60px_2px </title><path d="M22.25,39h15.5A1.25,1.25,0,0,0,39,37.75V22.25A1.25,1.25,0,0,0,37.75,21H22.25A1.25,1.25,0,0,0,21,22.25v15.5A1.25,1.25,0,0,0,22.25,39ZM23,23H37V37H23Z"/><path d="M48,28a1,1,0,0,0,0-2H44V22h4a1,1,0,0,0,0-2H44V17.25A1.25,1.25,0,0,0,42.75,16H40V12a1,1,0,0,0-2,0v4H34V12a1,1,0,0,0-2,0v4H28V12a1,1,0,0,0-2,0v4H22V12a1,1,0,0,0-2,0v4H17.25A1.25,1.25,0,0,0,16,17.25V20H12a1,1,0,0,0,0,2h4v4H12a1,1,0,0,0,0,2h4v4H12a1,1,0,0,0,0,2h4v4H12a1,1,0,0,0,0,2h4v2.75A1.25,1.25,0,0,0,17.25,44H20v4a1,1,0,0,0,2,0V44h4v4a1,1,0,0,0,2,0V44h4v4a1,1,0,0,0,2,0V44h4v4a1,1,0,0,0,2,0V44h2.75A1.25,1.25,0,0,0,44,42.75V40h4a1,1,0,0,0,0-2H44V34h4a1,1,0,0,0,0-2H44V28ZM42,42H18V18H42Z"/></svg>