<svg id="Layer_1" data-name="Layer 1" xmlns="http://www.w3.org/2000/svg" viewBox="0 0 60 60"><title>Connector_60px</title><path d="M34,15.5A1.42,1.42,0,0,0,32.67,14H31V12H29v2H27.33A1.42,1.42,0,0,0,26,15.49V17h8Z"/><polygon points="39 36 31 36 31 23 34 23 34 18 26 18 26 23 29 23 29 36 21 36 21 33 16 33 16 41 21 41 21 38 39 38 39 41 44 41 44 33 39 33 39 36"/><path d="M48,36V34.33A1.42,1.42,0,0,0,46.51,33H45v8h1.5A1.42,1.42,0,0,0,48,39.67V38h2V36Z"/><path d="M12,34.33V36H10v2h2v1.67A1.42,1.42,0,0,0,13.49,41H15V33H13.5A1.42,1.42,0,0,0,12,34.33Z"/></svg>