<svg id="Layer_1" data-name="Layer 1" xmlns="http://www.w3.org/2000/svg" viewBox="0 0 60 60"><title>Connector_60px</title><path d="M34,16.5A1.42,1.42,0,0,0,32.67,15H31V13H29v2H27.33A1.42,1.42,0,0,0,26,16.49V21h8Z"/><polygon points="39 36 31 36 31 28 34 28 34 23 26 23 26 28 29 28 29 36 21 36 21 33 16 33 16 41 21 41 21 38 39 38 39 41 44 41 44 33 39 33 39 36"/><path d="M52,36V34.33A1.42,1.42,0,0,0,50.51,33H46v8h4.5A1.42,1.42,0,0,0,52,39.67V38h2V36Z"/><path d="M8,34.33V36H6v2H8v1.67A1.42,1.42,0,0,0,9.49,41H14V33H9.5A1.42,1.42,0,0,0,8,34.33Z"/></svg>