<svg id="Layer_1" data-name="Layer 1" xmlns="http://www.w3.org/2000/svg" viewBox="0 0 60 60"><title>cp_60px  </title><path d="M24.78,23.32A4.39,4.39,0,0,0,21.15,25a7.11,7.11,0,0,0-1.32,4.56,7.13,7.13,0,0,0,1.27,4.6,4.47,4.47,0,0,0,3.68,1.56,9.52,9.52,0,0,0,2-.21c.65-.14,1.33-.32,2-.53v2.31a12,12,0,0,1-4.37.74,7,7,0,0,1-5.52-2.2A9.28,9.28,0,0,1,17,29.51,10.34,10.34,0,0,1,17.94,25a6.72,6.72,0,0,1,2.71-3,8.06,8.06,0,0,1,4.15-1,10.19,10.19,0,0,1,4.63,1.06l-1,2.25a15.17,15.17,0,0,0-1.75-.69A6.25,6.25,0,0,0,24.78,23.32Z"/><path d="M43.49,26.27a4.69,4.69,0,0,1-1.72,3.92,7.74,7.74,0,0,1-4.91,1.37H35.12v6.11H32.38V21.33h4.83a7.4,7.4,0,0,1,4.71,1.25A4.42,4.42,0,0,1,43.49,26.27Zm-8.37,3h1.46a5.31,5.31,0,0,0,3.1-.72,2.56,2.56,0,0,0,1-2.23,2.5,2.5,0,0,0-.89-2.1,4.4,4.4,0,0,0-2.75-.7H35.12Z"/></svg>