<svg xmlns="http://www.w3.org/2000/svg" viewBox="0 0 60 60">
  <path fill-rule="evenodd" d="M22.944,38.304 C21.3279919,38.304 19.920006,37.9560035 18.72,37.26 C17.519994,36.5639965 16.6000032,35.5640065 15.96,34.26 C15.3199968,32.9559935 15,31.4160089 15,29.64 C15,27.8799912 15.3199968,26.3480065 15.96,25.044 C16.6000032,23.7399935 17.519994,22.7400035 18.72,22.044 C19.920006,21.3479965 21.3279919,21 22.944,21 C24.0000053,21 24.9999953,21.1639984 25.944,21.492 C26.8880047,21.8200016 27.7119965,22.2959969 28.416,22.92 C28.7200015,23.1600012 28.872,23.479998 28.872,23.88 C28.872,24.1680014 28.7920008,24.411999 28.632,24.612 C28.4719992,24.812001 28.2800011,24.912 28.056,24.912 C27.7839986,24.912 27.5200013,24.808001 27.264,24.6 C26.4959962,24.0239971 25.7960032,23.6200012 25.164,23.388 C24.5319968,23.1559988 23.816004,23.04 23.016,23.04 C21.2559912,23.04 19.9040047,23.6079943 18.96,24.744 C18.0159953,25.8800057 17.544,27.5119894 17.544,29.64 C17.544,31.7840107 18.0159953,33.4239943 18.96,34.56 C19.9040047,35.6960057 21.2559912,36.264 23.016,36.264 C23.7840038,36.264 24.4839968,36.1440012 25.116,35.904 C25.7480032,35.6639988 26.463996,35.2640028 27.264,34.704 C27.5840016,34.495999 27.847999,34.392 28.056,34.392 C28.2800011,34.392 28.4719992,34.491999 28.632,34.692 C28.7920008,34.892001 28.872,35.1359986 28.872,35.424 C28.872,35.824002 28.7200015,36.1439988 28.416,36.384 C27.7119965,37.0080031 26.8880047,37.4839984 25.944,37.812 C24.9999953,38.1400016 24.0000053,38.304 22.944,38.304 Z M33.048,38.232 C32.6799982,38.232 32.3840011,38.1200011 32.16,37.896 C31.9359989,37.6719989 31.824,37.3680019 31.824,36.984 L31.824,22.392 C31.824,22.0239982 31.9319989,21.7320011 32.148,21.516 C32.3640011,21.2999989 32.6639981,21.192 33.048,21.192 L38.832,21.192 C40.624009,21.192 42.015995,21.6319956 43.008,22.512 C44.000005,23.3920044 44.496,24.6399919 44.496,26.256 C44.496,27.856008 44.000005,29.1039955 43.008,30 C42.015995,30.8960045 40.624009,31.344 38.832,31.344 L34.296,31.344 L34.296,36.984 C34.296,37.3680019 34.1880011,37.6719989 33.972,37.896 C33.7559989,38.1200011 33.448002,38.232 33.048,38.232 Z M38.568,29.352 C40.9360118,29.352 42.12,28.3200103 42.12,26.256 C42.12,24.2079898 40.9360118,23.184 38.568,23.184 L34.296,23.184 L34.296,29.352 L38.568,29.352 Z"/>
</svg>
