<svg id="Layer_1" data-name="Layer 1" xmlns="http://www.w3.org/2000/svg" viewBox="0 0 60 60"><title>Rules Security_60px  copy 5</title><path d="M41,29V27H39l-1-1-1,1H35v2l-1,1,1,1v2h2l1,1,1-1h2l0-2,1-1Zm-3,3a2,2,0,1,1,2-2A2,2,0,0,1,38.05,32Z"/><path d="M34,22.27a.51.51,0,0,0-.42-.5l-1.29-.21a4.12,4.12,0,0,0-.23-.58l.75-1.06a.49.49,0,0,0-.05-.64l-1-1a.49.49,0,0,0-.64,0L30,18.94a4.12,4.12,0,0,0-.58-.23l-.21-1.29a.51.51,0,0,0-.5-.42H27.27a.51.51,0,0,0-.5.42l-.21,1.29a4.12,4.12,0,0,0-.58.23l-1.06-.75a.49.49,0,0,0-.64,0l-1,1a.49.49,0,0,0,0,.64L23.94,21a4.12,4.12,0,0,0-.23.58l-1.29.21a.51.51,0,0,0-.42.5v1.46a.51.51,0,0,0,.42.5l1.29.21a4.12,4.12,0,0,0,.23.58l-.75,1.06a.49.49,0,0,0,0,.64l1,1a.49.49,0,0,0,.64,0L26,27.06a4.12,4.12,0,0,0,.58.23l.21,1.29a.51.51,0,0,0,.5.42h1.46a.51.51,0,0,0,.5-.42l.21-1.29a4.12,4.12,0,0,0,.58-.23l1.06.75a.49.49,0,0,0,.64,0l1-1a.49.49,0,0,0,.05-.64L32.06,25a4.12,4.12,0,0,0,.23-.58l1.29-.21a.51.51,0,0,0,.42-.5ZM28,25a2,2,0,1,1,2-2A2,2,0,0,1,28,25Z"/><path d="M32,34V32H30l-1-1-1,1H26v2l-1,1,1,1v2h2l1,1,1-1h2l0-2,1-1Zm-3,3a2,2,0,1,1,2-2A2,2,0,0,1,29,37Z"/><path d="M48.94,26.5v-.85A15.71,15.71,0,0,0,33.24,10H31.88a16.76,16.76,0,0,0-11.8,5.15,13.68,13.68,0,0,0-4,10,1.7,1.7,0,0,1-.25,1l-3.36,6.83a1.44,1.44,0,0,0-.23,1.53,1.27,1.27,0,0,0,1.26.55L17,35v6a2,2,0,0,0,2,2h5.05a1.16,1.16,0,0,1,.83.45c.94,1.13,2.5,3.45,3.87,5.5l.42.63A1,1,0,0,0,30,50a1,1,0,0,0,.56-.17,1,1,0,0,0,.27-1.39l-.42-.62c-1.47-2.2-3-4.46-4-5.67A3.08,3.08,0,0,0,24.05,41H19V34.24A1.27,1.27,0,0,0,17.7,33H14.61l2.88-5.85A3.76,3.76,0,0,0,18,25a11.75,11.75,0,0,1,3.49-8.52A14.73,14.73,0,0,1,31.88,12h1.36a13.71,13.71,0,0,1,13.7,13.69v.85c0,2.58-1,4.82-2,7.18-2,4.52-4,9.19,1.23,15.93a1,1,0,1,0,1.59-1.22c-4.47-5.81-2.86-9.57-1-13.92C47.85,32,48.94,29.49,48.94,26.5Z"/></svg>