<svg xmlns="http://www.w3.org/2000/svg" viewBox="0 0 60 60"><title>Analitics_60px</title><g id="Layer_2" data-name="Layer 2"><path d="M41,43H39V41a1,1,0,0,0-2,0v2H31V41a1,1,0,0,0-2,0v2H22V41a1,1,0,0,0-2,0v2H14V30.38l4.53-4a3.51,3.51,0,0,0,2,.61,3.43,3.43,0,0,0,2.11-.73l4,4.25a3.45,3.45,0,0,0-.62,2,3.5,3.5,0,0,0,7,0,3.4,3.4,0,0,0-.48-1.73l.06-.07,5.12-7.8a3.5,3.5,0,1,0-1.74-1l-4.91,7.48A3.38,3.38,0,0,0,29.5,29a3.61,3.61,0,0,0-1.32.26L23.8,24.61A3.41,3.41,0,0,0,24,23.5a3.5,3.5,0,1,0-6.73,1.34L14,27.71V16a1,1,0,0,0-2,0V44a1,1,0,0,0,1,1H41a1,1,0,0,0,0-2ZM38.5,18A1.5,1.5,0,1,1,37,19.5,1.5,1.5,0,0,1,38.5,18ZM31,32.5A1.5,1.5,0,1,1,29.5,31,1.5,1.5,0,0,1,31,32.5ZM20.5,22A1.5,1.5,0,1,1,19,23.5,1.5,1.5,0,0,1,20.5,22Z"/></g></svg>