<svg id="Layer_1" data-name="Layer 1" xmlns="http://www.w3.org/2000/svg" viewBox="0 0 60 60"><title>Database-60px_2px</title><path d="M45,26H15a3,3,0,0,0-3,3v2a3,3,0,0,0,3,3H45a3,3,0,0,0,3-3V29A3,3,0,0,0,45,26Zm1,5a1,1,0,0,1-1,1H15a1,1,0,0,1-1-1V29a1,1,0,0,1,1-1H45a1,1,0,0,1,1,1Z"/><path d="M45,37H15a3,3,0,0,0-3,3v1a1,1,0,0,0,2,0V40a1,1,0,0,1,1-1H45a1,1,0,0,1,1,1v2a1,1,0,0,1-1,1H22a1,1,0,0,0,0,2H45a3,3,0,0,0,3-3V40A3,3,0,0,0,45,37Z"/><path d="M43,29H31a1,1,0,0,0,0,2H43a1,1,0,0,0,0-2Z"/><circle cx="17" cy="30" r="1"/><path d="M43,42a1,1,0,0,0,0-2H31a1,1,0,0,0,0,2Z"/><circle cx="17" cy="41" r="1"/><path d="M45,15H15a3,3,0,0,0-3,3v2a3,3,0,0,0,3,3H45a3,3,0,0,0,3-3V18A3,3,0,0,0,45,15Zm1,5a1,1,0,0,1-1,1H15a1,1,0,0,1-1-1V18a1,1,0,0,1,1-1H45a1,1,0,0,1,1,1Z"/><path d="M43,18H31a1,1,0,0,0,0,2H43a1,1,0,0,0,0-2Z"/><circle cx="17" cy="19" r="1"/></svg>