<svg id="Layer_1" data-name="Layer 1" xmlns="http://www.w3.org/2000/svg" viewBox="0 0 60 60"><defs><style>.cls-1,.cls-2{fill:none;stroke:#000;stroke-miterlimit:10;stroke-width:2px;}.cls-2{stroke-linecap:round;}</style></defs><title>default orphan_60px_stroke</title><circle class="cls-1" cx="20" cy="41" r="5"/><circle cx="20" cy="41" r="1.5"/><line class="cls-1" x1="38.8" y1="27" x2="25.2" y2="40.5"/><line class="cls-1" x1="34.67" y1="23.33" x2="21.59" y2="36.37"/><path class="cls-2" d="M32,39l6.19,6.44c1,1,2.87.73,4.14-.54L45,42.27c1.28-1.27,1.5-3.1.49-4.07L39,32"/><path class="cls-2" d="M19.61,22.87a4,4,0,0,0,1.09,1.72l6.24,6.11"/><path class="cls-2" d="M21.78,20.42a4,4,0,0,1,1.8,1.09l6.12,6.16"/><path class="cls-2" d="M48.38,16.5A7.5,7.5,0,1,1,41.5,12a7.15,7.15,0,0,1,2.85.58"/><path class="cls-2" d="M44.35,12.58,39.8,17.17a2.82,2.82,0,0,0-.8,2,2.78,2.78,0,0,0,4.75,2l4.63-4.67"/><line class="cls-2" x1="36" y1="35.99" x2="41.02" y2="41"/><path class="cls-1" d="M20.45,15.34,22,19.71a.56.56,0,0,1-.13.58l-2.56,2.56a.54.54,0,0,1-.58.12l-4.34-1.56a.6.6,0,0,1-.33-.3l-3-5.84a.56.56,0,0,1,.09-.65l2.49-2.49a.57.57,0,0,1,.65-.09l5.88,3A.61.61,0,0,1,20.45,15.34Z"/></svg>