<svg id="Layer_1" data-name="Layer 1" xmlns="http://www.w3.org/2000/svg" viewBox="0 0 60 60"><title>Source_60px </title><path d="M25.28,42.31l-.22.23A6.87,6.87,0,0,1,20,45c-3.72,0-7.91-3-8-7.35a7.28,7.28,0,0,1,2.19-5.32A7.94,7.94,0,0,1,19.66,30l.08,0,.11,0H25v3l2.5-2,2.5-2-2.5-2-2.5-2V28H19.85a.45.45,0,0,0-.11,0,.42.42,0,0,0-.12,0,9.93,9.93,0,0,0-6.87,2.91A9.26,9.26,0,0,0,10,37.68c.1,5.58,5.25,9.32,10,9.32a8.76,8.76,0,0,0,6.57-3.1l.12-.13a1,1,0,0,0-1.37-1.46Z"/><path d="M21,24h0a1,1,0,0,0,1-1c.12-3,1.94-8,8-8a8,8,0,0,1,8,8,8.16,8.16,0,0,1-2.39,5.68L33.93,27v5h5L37,30.09A10.19,10.19,0,0,0,40,23,10,10,0,0,0,30,13c-6.59,0-9.8,5.16-10,10A1,1,0,0,0,21,24Z"/><path d="M49.68,36.1a10.44,10.44,0,0,0-7.4-9A1,1,0,0,0,41.72,29a8.53,8.53,0,0,1,6,7.26,8.15,8.15,0,0,1-1.91,5.9,7.9,7.9,0,0,1-5.46,2.79A8.06,8.06,0,0,1,32,39h3L33,36.5,31,34,29,36.5,27,39H30a10.07,10.07,0,0,0,9.77,8q.38,0,.75,0a9.88,9.88,0,0,0,6.83-3.49A10.12,10.12,0,0,0,49.68,36.1Z"/></svg>