<svg id="Layer_1" data-name="Layer 1" xmlns="http://www.w3.org/2000/svg" viewBox="0 0 60 60"><title>default orphan_60px</title><circle cx="18" cy="41" r="1.5"/><path d="M37.69,31.26a1,1,0,0,0-1.41,0,1,1,0,0,0,0,1.42l6.47,6.21a1.21,1.21,0,0,1,.32.86,2.58,2.58,0,0,1-.82,1.79l-2.66,2.65c-.86.86-2.14,1.1-2.71.54l-6.19-6.43a1,1,0,0,0-1.44,1.38l6.21,6.46a3.24,3.24,0,0,0,2.29.88A4.66,4.66,0,0,0,41,45.62L43.69,43a4.6,4.6,0,0,0,1.41-3.22,3.17,3.17,0,0,0-.93-2.29Z"/><path d="M47.3,16.12h0v0a1.13,1.13,0,0,0-.12-.18,1,1,0,0,0-.09-.13h0a1,1,0,0,0-.3-.2l0,0a1.09,1.09,0,0,0-.44-.06,1.14,1.14,0,0,0-.32.07h0a1,1,0,0,0-.17.12.65.65,0,0,0-.15.1h0L41,20.48a1.75,1.75,0,0,1-1.25.52,1.88,1.88,0,0,1-1.28-.53,1.9,1.9,0,0,1,0-2.59l4.55-4.6a1,1,0,0,0,.11-.17l.1-.14h0a.88.88,0,0,0,.06-.27s0-.08,0-.12a1.29,1.29,0,0,0,0-.19,1.13,1.13,0,0,0,0-.18.76.76,0,0,0-.08-.11,1,1,0,0,0-.14-.22h0a1,1,0,0,0-.17-.11.67.67,0,0,0-.14-.09h0A8.28,8.28,0,0,0,39.5,11a8.5,8.5,0,0,0-7.8,11.88l-3.61,3.61L28,26.42l-8.3-8.21L18.6,14.85a.73.73,0,0,0-.37-.42l-4.79-2.35a.74.74,0,0,0-.85.13l-2.4,2.36a.72.72,0,0,0-.14.83l2.4,4.72a.73.73,0,0,0,.43.36l3.42,1.13,8.3,8.18.1.07-5.31,5.31A5.81,5.81,0,0,0,18,35a6,6,0,1,0,6,6.11L37.47,27.75A8.49,8.49,0,0,0,48,19.5,8.6,8.6,0,0,0,47.3,16.12ZM13.63,19.21l-2-4,1.65-1.62,4.05,2,1,2.83-1.75,1.73ZM17.74,21l1.37-1.35L27,27.44a.14.14,0,0,0,.08,0L25.7,28.87l-.06-.1ZM18,45a4,4,0,1,1,4-4A4,4,0,0,1,18,45Zm5.55-6.26A6,6,0,0,0,21.36,36l11.4-11.38A8.6,8.6,0,0,0,35.43,27ZM39.5,26a6.5,6.5,0,0,1,0-13,6.09,6.09,0,0,1,1,.08l-3.36,3.39A3.83,3.83,0,0,0,39.78,23h0a3.75,3.75,0,0,0,2.65-1.12L45.9,18.4a6.72,6.72,0,0,1,.1,1.1A6.51,6.51,0,0,1,39.5,26Z"/><path d="M39,42a1,1,0,0,0,.71-1.71l-5-5A1,1,0,1,0,33.3,36.7l5,5A1,1,0,0,0,39,42Z"/></svg>