<svg id="Layer_1" data-name="Layer 1" xmlns="http://www.w3.org/2000/svg" viewBox="0 0 60 60"><defs><style>.cls-1{fill:none;stroke:#000;stroke-linecap:round;stroke-miterlimit:10;stroke-width:2px;}.cls-2{fill-rule:evenodd;}.cls-3{fill:#111;}</style></defs><title>Rules Security_60px  copy 5</title><path class="cls-1" d="M13,34h2.86C18,34,18,34,18,35.71l0,4.65A1.62,1.62,0,0,0,19.62,42l4,0a3,3,0,0,1,2.45,1.3L30,49"/><path class="cls-1" d="M47.94,49c-7.45-9.68,0-14.61,0-22.54V25.36C47.94,17.42,41,11,33,11H31.88C24.23,11,16.74,17.41,17,25.05a2.7,2.7,0,0,1-.41,1.6L13,34"/><path class="cls-2" d="M43,30l-1-1V27H40l-1-1-1,1-2,0v2l-1,1,1,1v2h2l1,1,1-1h2V31Zm-4,2a2,2,0,1,1,2-2A2,2,0,0,1,39,32Z"/><path class="cls-3" d="M29,20.67A2.33,2.33,0,1,0,31.33,23,2.33,2.33,0,0,0,29,20.67ZM29,25a2,2,0,1,1,2-2A2,2,0,0,1,29,25Z"/><path d="M34.5,23.73V22.27L32.9,22A4,4,0,0,0,32.47,21l.94-1.32-1-1-1.32.94A4,4,0,0,0,30,19.1l-.27-1.6H28.27L28,19.1a4,4,0,0,0-1.05.43l-1.32-.94-1,1L25.53,21A4,4,0,0,0,25.1,22l-1.6.27v1.46l1.6.27a3.74,3.74,0,0,0,.43,1.05l-.94,1.32,1,1L27,26.47A3.74,3.74,0,0,0,28,26.9l.27,1.6h1.46L30,26.9a4,4,0,0,0,1.05-.43l1.32.94,1-1-.94-1.32A3.74,3.74,0,0,0,32.9,24ZM31,23a2,2,0,1,1-2-2A2,2,0,0,1,31,23Z"/><path class="cls-3" d="M34.58,21.77l-1.29-.21a4.12,4.12,0,0,0-.23-.58l.75-1.06a.49.49,0,0,0-.05-.64l-1-1a.49.49,0,0,0-.64,0L31,18.94a4.12,4.12,0,0,0-.58-.23l-.21-1.29a.51.51,0,0,0-.5-.42H28.27a.51.51,0,0,0-.5.42l-.21,1.29a4.12,4.12,0,0,0-.58.23l-1.06-.75a.49.49,0,0,0-.64,0l-1,1a.49.49,0,0,0,0,.64L24.94,21a4.12,4.12,0,0,0-.23.58l-1.29.21a.51.51,0,0,0-.42.5v1.46a.51.51,0,0,0,.42.5l1.29.21a4.12,4.12,0,0,0,.23.58l-.75,1.06a.49.49,0,0,0,0,.64l1,1a.49.49,0,0,0,.64,0L27,27.06a4.12,4.12,0,0,0,.58.23l.21,1.29a.51.51,0,0,0,.5.42h1.46a.51.51,0,0,0,.5-.42l.21-1.29a4.12,4.12,0,0,0,.58-.23l1.06.75a.49.49,0,0,0,.64,0l1-1a.49.49,0,0,0,.05-.64L33.06,25a4.12,4.12,0,0,0,.23-.58l1.29-.21a.51.51,0,0,0,.42-.5V22.27A.51.51,0,0,0,34.58,21.77ZM34,23.31l-1.18.2a.49.49,0,0,0-.4.37,3.51,3.51,0,0,1-.38.92.48.48,0,0,0,0,.54l.69,1-.43.43-1-.69a.47.47,0,0,0-.54,0,3.51,3.51,0,0,1-.92.38.48.48,0,0,0-.37.4L29.31,28h-.62l-.2-1.18a.49.49,0,0,0-.37-.4A3.51,3.51,0,0,1,27.2,26a.48.48,0,0,0-.54,0l-1,.69-.43-.43.69-1a.48.48,0,0,0,0-.54,3.51,3.51,0,0,1-.38-.92.49.49,0,0,0-.4-.37L24,23.31v-.62l1.18-.2a.48.48,0,0,0,.4-.37A3.51,3.51,0,0,1,26,21.2a.48.48,0,0,0,0-.54l-.69-1,.43-.43,1,.69a.5.5,0,0,0,.54,0,3.51,3.51,0,0,1,.92-.38.48.48,0,0,0,.37-.4l.2-1.18h.62l.2,1.18a.48.48,0,0,0,.37.4,3.51,3.51,0,0,1,.92.38.5.5,0,0,0,.54,0l1-.69.43.43-.69,1a.48.48,0,0,0,0,.54,3.51,3.51,0,0,1,.38.92.48.48,0,0,0,.4.37l1.18.2Z"/><path class="cls-2" d="M34,35l-1-1V32H31l-1-1-1,1-2,0v2l-1,1,1,1v2h2l1,1,1-1h2V36Zm-4,2a2,2,0,1,1,2-2A2,2,0,0,1,30,37Z"/></svg>