<svg xmlns="http://www.w3.org/2000/svg" viewBox="0 0 60 60">
  <path fill-rule="evenodd" d="M30.552,38.304 C29.3359939,38.304 28.1800055,38.1360017 27.084,37.8 C25.9879945,37.4639983 25.1120033,37.000003 24.456,36.408 C24.1519985,36.1519987 24,35.824002 24,35.424 C24,35.1359986 24.0799992,34.892001 24.24,34.692 C24.4000008,34.491999 24.5919989,34.392 24.816,34.392 C25.0400011,34.392 25.3119984,34.495999 25.632,34.704 C27.0560071,35.7600053 28.6799909,36.288 30.504,36.288 C31.7840064,36.288 32.7679966,36.0480024 33.456,35.568 C34.1440034,35.0879976 34.488,34.4000045 34.488,33.504 C34.488,32.7999965 34.1680032,32.2720018 33.528,31.92 C32.8879968,31.5679982 31.864007,31.2320016 30.456,30.912 C29.1119933,30.6239986 28.0080043,30.2960018 27.144,29.928 C26.2799957,29.5599982 25.6040024,29.0600032 25.116,28.428 C24.6279976,27.7959968 24.384,26.9920049 24.384,26.016 C24.384,25.0399951 24.6519973,24.1720038 25.188,23.412 C25.7240027,22.6519962 26.4719952,22.0600021 27.432,21.636 C28.3920048,21.2119979 29.4879938,21 30.72,21 C31.8560057,21 32.9039952,21.1599984 33.864,21.48 C34.8240048,21.8000016 35.6399966,22.2719969 36.312,22.896 C36.6320016,23.1680014 36.792,23.4959981 36.792,23.88 C36.792,24.1520014 36.7080008,24.391999 36.54,24.6 C36.3719992,24.808001 36.1760011,24.912 35.952,24.912 C35.743999,24.912 35.4800016,24.808001 35.16,24.6 C34.4239963,24.0399972 33.7320032,23.6360012 33.084,23.388 C32.4359968,23.1399988 31.6560046,23.016 30.744,23.016 C29.5119938,23.016 28.5520034,23.2679975 27.864,23.772 C27.1759966,24.2760025 26.832,24.9759955 26.832,25.872 C26.832,26.6400038 27.135997,27.219998 27.744,27.612 C28.352003,28.004002 29.3279933,28.3599984 30.672,28.68 C32.080007,29.0000016 33.2199956,29.3319983 34.092,29.676 C34.9640044,30.0200017 35.6599974,30.491997 36.18,31.092 C36.7000026,31.692003 36.96,32.4639953 36.96,33.408 C36.96,34.3680048 36.6920027,35.2199963 36.156,35.964 C35.6199973,36.7080037 34.8680048,37.283998 33.9,37.692 C32.9319952,38.100002 31.8160063,38.304 30.552,38.304 Z"/>
</svg>
