<svg xmlns="http://www.w3.org/2000/svg" viewBox="0 0 60 60">
  <path fill-rule="evenodd" d="M36.2,36.384 C36.3440007,36.592001 36.416,36.8159988 36.416,37.056 C36.416,37.3440014 36.3000012,37.587999 36.068,37.788 C35.8359988,37.988001 35.5680015,38.088 35.264,38.088 C34.8159978,38.088 34.4560014,37.888002 34.184,37.488 L30.968,32.496 C30.5999982,31.9199971 30.2080021,31.5160012 29.792,31.284 C29.3759979,31.0519988 28.8320034,30.936 28.16,30.936 L25.448,30.936 L25.448,36.792 C25.448,37.1760019 25.3400011,37.4799989 25.124,37.704 C24.9079989,37.9280011 24.6080019,38.04 24.224,38.04 C23.8559982,38.04 23.5600011,37.9280011 23.336,37.704 C23.1119989,37.4799989 23,37.1760019 23,36.792 L23,22.2 C23,21.8319982 23.1079989,21.5400011 23.324,21.324 C23.5400011,21.1079989 23.8399981,21 24.224,21 L30.2,21 C32.0720094,21 33.4999951,21.4159958 34.484,22.248 C35.4680049,23.0800042 35.96,24.295992 35.96,25.896 C35.96,27.2240066 35.5840038,28.2999959 34.832,29.124 C34.0799962,29.9480041 33.008007,30.4719989 31.616,30.696 C32.0320021,30.8080006 32.4079983,31.0079986 32.744,31.296 C33.0800017,31.5840014 33.4079984,31.9839974 33.728,32.496 L36.2,36.384 Z M29.912,28.944 C31.1600062,28.944 32.083997,28.7000024 32.684,28.212 C33.284003,27.7239976 33.584,26.9680051 33.584,25.944 C33.584,24.9199949 33.288003,24.1720024 32.696,23.7 C32.103997,23.2279976 31.1760063,22.992 29.912,22.992 L25.424,22.992 L25.424,28.944 L29.912,28.944 Z"/>
</svg>
