<svg id="Layer_1" data-name="Layer 1" xmlns="http://www.w3.org/2000/svg" viewBox="0 0 60 60"><title>VIRTUAL FIREWALL 2_60px </title><path d="M13.5,38h13A1.5,1.5,0,0,0,28,36.5v-3A1.5,1.5,0,0,0,26.5,32h-13A1.5,1.5,0,0,0,12,33.5v3A1.5,1.5,0,0,0,13.5,38Zm.5-4H26v2H14Z"/><path d="M37.5,32h-5A1.5,1.5,0,0,0,31,33.5v3A1.5,1.5,0,0,0,32.5,38h5A1.5,1.5,0,0,0,39,36.5v-3A1.5,1.5,0,0,0,37.5,32ZM37,36H33V34h4Z"/><path d="M37.5,40h-13A1.5,1.5,0,0,0,23,41.5v3A1.5,1.5,0,0,0,24.5,46h13A1.5,1.5,0,0,0,39,44.5v-3A1.5,1.5,0,0,0,37.5,40ZM37,44H25V42H37Z"/><path d="M18.5,40h-5A1.5,1.5,0,0,0,12,41.5v3A1.5,1.5,0,0,0,13.5,46h5A1.5,1.5,0,0,0,20,44.5v-3A1.5,1.5,0,0,0,18.5,40ZM18,44H14V42h4Z"/><path d="M51,31.1c0-8.33-8.87-21.8-10.08-22.82a1.28,1.28,0,0,0-.45-.23l-.11,0A.76.76,0,0,0,40,8h0c-1.37.24-1.15,1.65-.56,5.43A38.44,38.44,0,0,1,40,18.1a5.41,5.41,0,0,1-1.42,3.84A4,4,0,0,1,35.68,23c-2,0-2.87-2.42-3.66-5.08-.51-1.71-.87-2.94-2-2.94h0c-2.21,0-5.47,9-5.91,13H10a2,2,0,0,0-2,2V48a2,2,0,0,0,2,2H41a2,2,0,0,0,2-2V42.39C48.31,40.48,51,36.68,51,31.1ZM10,48V30H41V48Zm33-7.75V30a2,2,0,0,0-2-2H26.05A32.37,32.37,0,0,1,29.8,17.54c.1.32.21.68.3,1C30.82,21,32,25,35.65,25A6.08,6.08,0,0,0,40,23.36a7.23,7.23,0,0,0,2-5.26,37.57,37.57,0,0,0-.57-5c0-.33-.1-.7-.16-1.06C44,16.31,49,25.31,49,31.1,49,35.64,47.09,38.56,43,40.25Z"/></svg>