<svg id="Layer_1" data-name="Layer 1" xmlns="http://www.w3.org/2000/svg" viewBox="0 0 60 60"><title>fortinet_60px</title><path id="path4380" d="M36.54,32.16H35.32V27.85h3.9a2,2,0,0,1,1.17.37,1.44,1.44,0,0,1,.46,1.16v2.78H39.64V29.31s0-.29-.1-.39a.41.41,0,0,0-.29-.11H36.53v3.35Zm5.15,0V27.85h4.87v1H42.9v.73h2.54v.93H42.9v.73h3.68v1Zm-8.48,0V27.85h1.21v4.31ZM48.6,28.54v0Zm-.31,3.62V28.81H47.15v-1h4.53v1H49.5v3.35ZM29.54,28.54v0Zm-.31,3.62V28.81H28.09v-1h4.53v1H30.43v3.35Zm-3.64-2.62a1.6,1.6,0,0,0,.54,0,.23.23,0,0,0,.13-.19V29a.23.23,0,0,0-.13-.19,2.19,2.19,0,0,0-.63,0H23.15v.73h2.44Zm.65,2.62V30.69a.23.23,0,0,0-.13-.19,1.48,1.48,0,0,0-.48,0H23.15v1.7H21.94V27.85h3.77a2.13,2.13,0,0,1,1.41.35,1.21,1.21,0,0,1,.34,1v.3a1,1,0,0,1-.4.77l0,0a.5.5,0,0,1,.14.09.71.71,0,0,1,.17.56v1.23ZM8,27.85v4.31H9.21V30.47h3.65v-.93H9.21v-.73h4.24v-1Z"/><path id="path4384" d="M51.26,31.4v.19h.22c.05,0,.11,0,.12-.08s-.07-.11-.12-.11Zm-.08-.07h.29c.11,0,.2,0,.21.15s0,.1-.08.14.07.05.08.15,0,.09,0,.14h-.1l0-.08c0-.07,0-.17-.11-.17h-.22v.25h-.08v-.58Zm.22-.16a.5.5,0,0,0-.53.46.49.49,0,0,0,.53.46.5.5,0,0,0,.53-.46.5.5,0,0,0-.53-.46m0,1a.52.52,0,1,1,0-1,.57.57,0,0,1,.6.52.56.56,0,0,1-.6.52"/><path id="path4408" d="M20.29,32.2a1.21,1.21,0,0,0,.77-1v-.15h-2V32.2ZM21.06,29v-.13a1.19,1.19,0,0,0-.82-1H19.05V29ZM14,31.05v.14a1.18,1.18,0,0,0,.77,1H16V31.05Zm.82-3.25a1.16,1.16,0,0,0-.82,1V29h2V27.8Zm6.25,1.63h-2v1.14h2ZM16.54,32.2h2V31.05h-2V32.2Zm2-4.4h-2V29h2ZM14,30.57h2V29.43H14Z"/></svg>