<svg id="Layer_1" data-name="Layer 1" xmlns="http://www.w3.org/2000/svg" viewBox="0 0 60 60"><title>fortinet_60px</title><path id="path4380" d="M37.72,32.55H36.29V27.46H40.9a2.25,2.25,0,0,1,1.38.44,1.68,1.68,0,0,1,.54,1.37v3.28H41.4V29.18s0-.34-.12-.46a.48.48,0,0,0-.34-.13H37.72v4Zm6.1,0V27.46h5.75v1.13H45.24v.87h3v1.09h-3v.87h4.35v1.13Zm-10,0V27.46h1.42v5.09ZM52,28.27v0Zm-.37,4.28v-4H50.27V27.46h5.35v1.13H53v4ZM29.46,28.27v0Zm-.37,4.28v-4H27.74V27.46h5.35v1.13H30.51v4Zm-4.3-3.09a2.05,2.05,0,0,0,.64-.05.27.27,0,0,0,.15-.22v-.33a.27.27,0,0,0-.15-.23,2.47,2.47,0,0,0-.75,0H21.91v.87h2.88Zm.77,3.09V30.81a.27.27,0,0,0-.15-.22,2.16,2.16,0,0,0-.57,0H21.91v2H20.48V27.46h4.45a2.47,2.47,0,0,1,1.66.41A1.43,1.43,0,0,1,27,29v.36a1.11,1.11,0,0,1-.48.9l.05,0a.44.44,0,0,1,.17.11.83.83,0,0,1,.2.65v1.46ZM4,27.46v5.09H5.43v-2H9.74V29.46H5.43v-.87h5V27.46Z"/><path id="path4384" d="M55.13,31.65v.23h.25c.07,0,.13,0,.14-.1s-.08-.13-.14-.13Zm-.1-.08h.35c.12,0,.24,0,.25.18s0,.12-.11.17c.08,0,.09,0,.1.17s0,.1,0,.16h-.11l0-.08c0-.08,0-.21-.13-.21h-.26v.29H55v-.68Zm.26-.18a.58.58,0,0,0-.62.54.58.58,0,0,0,.62.54.55.55,0,1,0,0-1.08m0,1.16a.62.62,0,1,1,0-1.24.67.67,0,0,1,.71.62.68.68,0,0,1-.71.62"/><path id="path4408" d="M18.52,32.6a1.39,1.39,0,0,0,.91-1.19v-.17H17.06V32.6Zm.91-3.84V28.6a1.38,1.38,0,0,0-1-1.2h-1.4v1.36Zm-8.35,2.48v.17A1.39,1.39,0,0,0,12,32.6h1.45V31.24Zm1-3.84a1.37,1.37,0,0,0-1,1.21v.15h2.36V27.4Zm7.38,1.92H17.06v1.36h2.37ZM14.09,32.6h2.32V31.24H14.09V32.6Zm2.32-5.2H14.09v1.36h2.32Zm-5.33,3.28h2.36V29.32H11.08Z"/></svg>