<svg id="Layer_1" data-name="Layer 1" xmlns="http://www.w3.org/2000/svg" viewBox="0 0 60 60"><title>Gateway_60px</title><path d="M48.63,25.24a1,1,0,0,0-1.31,1.52L49.92,29H21.34l6.78-11H39.94l-2.59,2.24A1,1,0,0,0,38,22a1,1,0,0,0,.66-.24L44.15,17l-5.49-4.76a1,1,0,0,0-1.42.11,1,1,0,0,0,.11,1.41L39.94,16H27L19,28.91A.32.32,0,0,0,19,29H14a3.5,3.5,0,1,0-.3,2h5.44L27,43h11.9l-2.6,2.25a1,1,0,0,0,1.31,1.51L43.13,42l-5.5-4.75a1,1,0,0,0-1.31,1.51L38.92,41H28.1L21.48,31H49.92l-2.6,2.24a1,1,0,0,0,1.31,1.52L54.13,30Z"/></svg>