<svg xmlns="http://www.w3.org/2000/svg" viewBox="0 0 60 60">
  <path fill-rule="evenodd" d="M36.296,29.136 C36.6000015,29.136 36.8439991,29.2239991 37.028,29.4 C37.2120009,29.5760009 37.304,29.8159985 37.304,30.12 L37.304,35.736 C37.304,36.2800027 37.2280008,36.6719988 37.076,36.912 C36.9239992,37.1520012 36.6240022,37.3439993 36.176,37.488 C35.5359968,37.7440013 34.7760044,37.9439993 33.896,38.088 C33.0159956,38.2320007 32.1440043,38.304 31.28,38.304 C29.5679914,38.304 28.0880062,37.9600034 26.84,37.272 C25.5919938,36.5839966 24.6400033,35.5920065 23.984,34.296 C23.3279967,32.9999935 23,31.448009 23,29.64 C23,27.8639911 23.3279967,26.3280065 23.984,25.032 C24.6400033,23.7359935 25.5799939,22.7400035 26.804,22.044 C28.0280061,21.3479965 29.4639918,21 31.112,21 C32.2320056,21 33.2679952,21.1639984 34.22,21.492 C35.1720048,21.8200016 35.9839966,22.2959969 36.656,22.92 C36.9760016,23.1760013 37.136,23.4959981 37.136,23.88 C37.136,24.1680014 37.0560008,24.411999 36.896,24.612 C36.7359992,24.812001 36.5440011,24.912 36.32,24.912 C36.1759993,24.912 36.0480006,24.8880002 35.936,24.84 C35.8239994,24.7919998 35.6800009,24.7120006 35.504,24.6 C34.7199961,24.0239971 34.0080032,23.6200012 33.368,23.388 C32.7279968,23.1559988 31.9920042,23.04 31.16,23.04 C29.3359909,23.04 27.9440048,23.6039944 26.984,24.732 C26.0239952,25.8600056 25.544,27.4959893 25.544,29.64 C25.544,31.832011 26.0359951,33.4919944 27.02,34.62 C28.0040049,35.7480056 29.4479905,36.312 31.352,36.312 C32.6320064,36.312 33.8639941,36.1200019 35.048,35.736 L35.048,31.008 L31.904,31.008 C31.5839984,31.008 31.3320009,30.9240008 31.148,30.756 C30.9639991,30.5879992 30.872,30.3600014 30.872,30.072 C30.872,29.7839986 30.9639991,29.5560008 31.148,29.388 C31.3320009,29.2199992 31.5839984,29.136 31.904,29.136 L36.296,29.136 Z"/>
</svg>
