<svg id="Layer_1" data-name="Layer 1" xmlns="http://www.w3.org/2000/svg" viewBox="0 0 60 60"><title>Load Balance_64px</title><path d="M49,33a1,1,0,0,0-1,1v5.76L37.75,29.93A7.68,7.68,0,0,0,38,28a8,8,0,0,0-7-7.93V15.82a3,3,0,1,0-2,0v4.25A8,8,0,0,0,22,28a7.61,7.61,0,0,0,.15,1.52L12,39.71V34a1,1,0,0,0-2,0v9h9a1,1,0,1,0,0-2H13.53l9.35-9.38A8,8,0,0,0,29,35.93V46.37l-4.35-4.08a1,1,0,0,0-1.37,1.46L29.92,50l6.79-6.22a1,1,0,0,0-1.35-1.48l-4.36,4V35.93a8,8,0,0,0,6-4L46.4,41H41a1,1,0,0,0,0,2h9V34A1,1,0,0,0,49,33ZM30,34a6,6,0,1,1,6-6A6,6,0,0,1,30,34Z"/></svg>