<svg id="Layer_1" data-name="Layer 1" xmlns="http://www.w3.org/2000/svg" viewBox="0 0 60 60"><title>Rules Network Template monitor_60px </title><path d="M48.51,18h-37A1.49,1.49,0,0,0,10,19.49v21A1.49,1.49,0,0,0,11.49,42h37A1.49,1.49,0,0,0,50,40.51v-21A1.49,1.49,0,0,0,48.51,18ZM48,40H12V20H48Z"/><path d="M16,25h8a1,1,0,0,0,0-2H16a1,1,0,0,0,0,2Z"/><path d="M28.55,36.93A1,1,0,0,0,29,37a1,1,0,0,0,.89-.55l4.44-8.81,3.94,4,.07.05s0,0,.07.06l.13.07.1.05A1,1,0,0,0,39,32h0a1,1,0,0,0,.42-.1l.11-.07a1,1,0,0,0,.17-.12.24.24,0,0,0,.06-.08l.06-.05,5-7a1,1,0,1,0-1.63-1.16l-4.3,6.05-4.08-4.17a.67.67,0,0,0-.14-.09.64.64,0,0,0-.13-.1h0l-.2-.06-.18,0a.62.62,0,0,0-.19,0,1.13,1.13,0,0,0-.18,0,.83.83,0,0,0-.16.09l-.18.12h0a.67.67,0,0,0-.09.14,1.47,1.47,0,0,0-.1.13L28.11,35.59A1,1,0,0,0,28.55,36.93Z"/><path d="M16,30h8a1,1,0,0,0,0-2H16a1,1,0,0,0,0,2Z"/><path d="M16,35h8a1,1,0,0,0,0-2H16a1,1,0,0,0,0,2Z"/></svg>