<svg id="Layer_1" data-name="Layer 1" xmlns="http://www.w3.org/2000/svg" viewBox="0 0 60 60"><title> Cloud_60px</title><path d="M43.81,26.09c-1-6-7-10-12.18-10h-.25c-8-.48-11.12,2.76-12.3,5.56a1,1,0,0,0,1.84.78c1.34-3.16,4.92-4.66,10.34-4.35l.35,0c4.5.05,9.84,3.78,10.32,9.05L42,28h.89c3.25.06,6.1,3.23,6.1,6.78a6.13,6.13,0,0,1-1.87,4.37A6.58,6.58,0,0,1,42.59,41H15.43A6.66,6.66,0,0,1,9,34.5,6.47,6.47,0,0,1,15.41,28,7.58,7.58,0,0,1,22,32.39a1,1,0,0,0,1.88-.69A9.63,9.63,0,0,0,15.41,26,8.46,8.46,0,0,0,7,34.5,8.71,8.71,0,0,0,15.41,43H42.59a8.58,8.58,0,0,0,5.93-2.4A8.1,8.1,0,0,0,51,34.8,8.76,8.76,0,0,0,43.81,26.09Z"/></svg>