<svg id="Layer_1" data-name="Layer 1" xmlns="http://www.w3.org/2000/svg" viewBox="0 0 60 60"><title>Network_60px</title><path d="M45,40.13A18.94,18.94,0,0,0,48,30,18.95,18.95,0,0,0,23,12,3.49,3.49,0,0,0,17,14.5a3.38,3.38,0,0,0,.08.72A18.81,18.81,0,0,0,10,30,19.07,19.07,0,0,0,29,49h.06a18.88,18.88,0,0,0,15.75-8.51A.84.84,0,0,0,45,40.13ZM24.5,38A1.5,1.5,0,1,1,26,36.5,1.5,1.5,0,0,1,24.5,38ZM28,36.42a39.57,39.57,0,0,0,4.52-2l.89-.49a24.56,24.56,0,0,1-2.14,4.18c-1.2-.22-2.34-.45-3.4-.69A3.53,3.53,0,0,0,28,36.5S28,36.45,28,36.42Zm8.08-4.1c1.32-.86,2.53-1.74,3.62-2.59,2,3.76,3.48,7.18,4.08,8.64l-.3.49a43.5,43.5,0,0,1-10.07-.41A26.35,26.35,0,0,0,36.07,32.32ZM34.36,20.53a1.46,1.46,0,0,1,.89-.51l.25,0a1.5,1.5,0,0,1,.22,3l-.22,0A1.5,1.5,0,0,1,34,21.5,1.44,1.44,0,0,1,34.36,20.53ZM37,25.06c.61,1,1.19,1.92,1.74,2.89-.63.49-1.29,1-2,1.5A24.22,24.22,0,0,0,37,25.06ZM44.9,35.91c-.8-1.86-2-4.56-3.62-7.46C43,27,44.34,25.68,45.2,24.8a16.82,16.82,0,0,1-.3,11.11Zm-.52-13.16a52.85,52.85,0,0,1-4.1,3.91c-.59-1-1.21-2-1.86-3l-.07-.11A3.46,3.46,0,0,0,36,18.05,37.39,37.39,0,0,0,34.62,14a16.84,16.84,0,0,1,9.76,8.79ZM32.16,13.3A33.82,33.82,0,0,1,34,18.37a4,4,0,0,0-.39.23,37.69,37.69,0,0,0-9.24-5A17,17,0,0,1,29,13,17.44,17.44,0,0,1,32.16,13.3ZM20.5,13A1.5,1.5,0,1,1,19,14.5,1.5,1.5,0,0,1,20.5,13Zm-2.45,4a3.48,3.48,0,0,0,5.76-1.39,36.13,36.13,0,0,1,8.48,4.53A3.54,3.54,0,0,0,32,21.5,3.5,3.5,0,0,0,35,25a20.84,20.84,0,0,1-.61,6.1c-.89.56-1.81,1.1-2.78,1.61a37.32,37.32,0,0,1-4.19,1.85A3.52,3.52,0,0,0,24.5,33a3.39,3.39,0,0,0-1.75.49.83.83,0,0,0-.21-.28,37,37,0,0,1-8.63-11.06A17,17,0,0,1,18.05,17ZM12.9,24.53a39.59,39.59,0,0,0,8.32,10.18,1,1,0,0,0,.22.13A3.48,3.48,0,0,0,21,36.47c-3,.75-5.63,1.18-7,1.39a16.92,16.92,0,0,1-1-13.33Zm2.18,15.18c1.55-.25,3.86-.66,6.48-1.32A3.5,3.5,0,0,0,24.5,40a3.44,3.44,0,0,0,2.19-.8c1,.24,2.12.48,3.29.71a27.3,27.3,0,0,1-6.8,6A17.1,17.1,0,0,1,15.08,39.71Zm14,7.29H29a16.35,16.35,0,0,1-3.3-.34,27.85,27.85,0,0,0,6.49-6.36,54.09,54.09,0,0,0,8.25.71c.51,0,1,0,1.52,0A16.85,16.85,0,0,1,29.06,47Z"/></svg>