<svg id="Layer_1" data-name="Layer 1" xmlns="http://www.w3.org/2000/svg" viewBox="0 0 60 60"><title>object storage icon-60px_2px</title><path d="M41,32H34a1,1,0,0,0,0,2h7a1,1,0,0,0,0-2Z"/><path d="M41,37H34a1,1,0,0,0,0,2h7a1,1,0,0,0,0-2Z"/><path d="M41,42H34a1,1,0,0,0,0,2h7a1,1,0,0,0,0-2Z"/><path d="M50.16,24a6.91,6.91,0,0,0-3.84-2.73,10.52,10.52,0,0,0-8.9-5.3h-.81a3.89,3.89,0,0,1-.48,0,12.24,12.24,0,0,0-10.05-5c-5.9,0-9.41,4.91-10,10a8.41,8.41,0,0,0-5.81,2.49A9.11,9.11,0,0,0,8,29.5c0,4.69,3.5,8.5,7.8,8.5H29V50a3,3,0,0,0,3,3H43a3,3,0,0,0,3-3V37.91a6.49,6.49,0,0,0,3.76-2.44A9.06,9.06,0,0,0,50.16,24ZM44,50a1,1,0,0,1-1,1H32a1,1,0,0,1-1-1V27a1,1,0,0,1,1-1H43a1,1,0,0,1,1,1Zm4.28-15.87A5.28,5.28,0,0,1,46,35.87V27a3,3,0,0,0-3-3H32a3,3,0,0,0-3,3v9H15.8c-3.2,0-5.8-2.92-5.8-6.5a7.06,7.06,0,0,1,1.72-4.63A6.51,6.51,0,0,1,16.2,23h1.72l0-1C18.2,17.57,21.06,13,26.08,13a10.2,10.2,0,0,1,8.67,4.54L35,18l.52,0c.46,0,.77,0,1.08,0h.76a8.5,8.5,0,0,1,7.37,4.63l.23.45.49.08a4.75,4.75,0,0,1,3.08,2.09A7,7,0,0,1,50,29.5,7.06,7.06,0,0,1,48.28,34.13Z"/></svg>