<svg id="Layer_1" data-name="Layer 1" xmlns="http://www.w3.org/2000/svg" viewBox="0 0 60 60"><title>Generic OSS_60PX</title><path d="M28.8,26A3.51,3.51,0,0,0,26,27.18a5,5,0,0,0-1,3.31,5,5,0,0,0,1,3.32A3.42,3.42,0,0,0,28.8,35a3.42,3.42,0,0,0,2.79-1.16,5,5,0,0,0,1-3.31,5,5,0,0,0-1-3.32A3.45,3.45,0,0,0,28.8,26Zm0,7.4a1.72,1.72,0,0,1-1.51-.74,3.94,3.94,0,0,1-.5-2.19,3.94,3.94,0,0,1,.5-2.19,1.73,1.73,0,0,1,1.51-.75c1.34,0,2,1,2,2.94S30.14,33.43,28.8,33.43Z"/><path d="M36.94,29.84a12.32,12.32,0,0,1-1.07-.61,1.33,1.33,0,0,1-.33-.35.94.94,0,0,1-.1-.43.82.82,0,0,1,.25-.63,1.06,1.06,0,0,1,.73-.25,2.91,2.91,0,0,1,.82.12,6.48,6.48,0,0,1,1,.39l.54-1.43a8.68,8.68,0,0,0-1.17-.45A4.2,4.2,0,0,0,36.48,26a2.79,2.79,0,0,0-2,.66,2.36,2.36,0,0,0-.71,1.81A2.52,2.52,0,0,0,34,29.58a2.57,2.57,0,0,0,.58.8,4.65,4.65,0,0,0,1.09.72,10.83,10.83,0,0,1,1,.59,1.37,1.37,0,0,1,.38.38.8.8,0,0,1,.13.46.82.82,0,0,1-.29.68,1.32,1.32,0,0,1-.85.24,3.52,3.52,0,0,1-1-.16,9.42,9.42,0,0,1-1.36-.55v1.71A4.66,4.66,0,0,0,36,35a3.17,3.17,0,0,0,2.15-.68,2.35,2.35,0,0,0,.77-1.85A2.47,2.47,0,0,0,38.46,31,4.22,4.22,0,0,0,36.94,29.84Z"/><path d="M43,29.83a10.68,10.68,0,0,1-1.07-.6,1.37,1.37,0,0,1-.33-.36.93.93,0,0,1-.1-.42.87.87,0,0,1,.26-.64,1,1,0,0,1,.73-.24,3.29,3.29,0,0,1,.81.11,7.85,7.85,0,0,1,1,.4l.54-1.43a6.63,6.63,0,0,0-1.17-.45A4.2,4.2,0,0,0,42.58,26a2.79,2.79,0,0,0-2,.66,2.36,2.36,0,0,0-.71,1.81,2.55,2.55,0,0,0,.22,1.07,2.69,2.69,0,0,0,.58.8,4.65,4.65,0,0,0,1.09.72,8.09,8.09,0,0,1,1,.59,1.57,1.57,0,0,1,.39.38.85.85,0,0,1,.13.45.81.81,0,0,1-.3.69,1.32,1.32,0,0,1-.85.23,3.57,3.57,0,0,1-1-.16,8,8,0,0,1-1.35-.55v1.71a4.62,4.62,0,0,0,2.23.53,3.2,3.2,0,0,0,2.15-.68A2.32,2.32,0,0,0,45,32.43,2.46,2.46,0,0,0,44.56,31,4.24,4.24,0,0,0,43,29.83Z"/><path d="M46.85,22H39.06c.3-.5.76-1.27.8-1.32a1,1,0,0,0-.16-1.23l-3-2.95a1,1,0,0,0-1.22-.15l-3.64,2.18a11.59,11.59,0,0,0-1.66-.69l-1-4.08a1,1,0,0,0-1-.76H24a1,1,0,0,0-1,.76l-1,4.08a12.09,12.09,0,0,0-1.66.69l-3.64-2.18a1,1,0,0,0-1.22.15l-3,2.95a1,1,0,0,0-.15,1.23l2.18,3.61a13,13,0,0,0-.68,1.63l-4.12,1a1,1,0,0,0-.76,1v4.18a1,1,0,0,0,.76,1l4.12,1a13,13,0,0,0,.68,1.63l-2.18,3.61a1,1,0,0,0,.15,1.23l3,3a1,1,0,0,0,1.22.15l3.64-2.18a12.09,12.09,0,0,0,1.66.69l1,4.08A1,1,0,0,0,24,47h4.21a1,1,0,0,0,1-.76l1-4.08a11.59,11.59,0,0,0,1.66-.69l3.64,2.18a1,1,0,0,0,1.22-.15l3-3a1,1,0,0,0,.18-1.16c0-.08,0-.11-.29-.39h7.25A3,3,0,0,0,50,36.13V24.87A3,3,0,0,0,46.85,22ZM37.59,39.73l0,.06-1.76,1.74-3.36-2,0,0a1,1,0,0,0-1.06,0,9.53,9.53,0,0,1-2.3.95,1,1,0,0,0-.7.72l-1,3.88H24.79l-1-3.88a1,1,0,0,0-.7-.72,9.53,9.53,0,0,1-2.3-.95,1,1,0,0,0-1.05,0h0l-3.39,2L14.5,39.68l2-3.33,0,0a1,1,0,0,0,0-1.07A10.44,10.44,0,0,1,15.63,33a1,1,0,0,0-.72-.7L11,31.3V28.7l3.91-1a1,1,0,0,0,.72-.7,10.44,10.44,0,0,1,.95-2.28,1,1,0,0,0,0-1.07h0l-2-3.35,1.86-1.85,3.36,2,.05,0a1,1,0,0,0,1.05.05,9.53,9.53,0,0,1,2.3-.95,1,1,0,0,0,.7-.72l1-3.88h2.65l1,3.88a1,1,0,0,0,.7.72,9.53,9.53,0,0,1,2.3.95,1,1,0,0,0,1.06-.05h0l3.39-2,1.87,1.85-.64,1.05A.94.94,0,0,0,37,22H23.15A3,3,0,0,0,20,24.87V36.13A3,3,0,0,0,23.15,39H37C37.06,39.13,37.24,39.33,37.59,39.73ZM48,36.13c0,.47-.53.87-1.15.87H23.15c-.62,0-1.15-.4-1.15-.87V24.87c0-.47.53-.87,1.15-.87h23.7c.62,0,1.15.4,1.15.87Z"/></svg>