<svg xmlns="http://www.w3.org/2000/svg" viewBox="0 0 60 60"><title>User Person_60px</title><g id="Layer_2" data-name="Layer 2"><path d="M27.5,38c4.14,0,7.5-4.49,7.5-10s-3.36-10-7.5-10S20,22.49,20,28,23.36,38,27.5,38Zm0-18c3,0,5.5,3.59,5.5,8s-2.47,8-5.5,8S22,32.41,22,28,24.47,20,27.5,20Z"/><path d="M46.3,32.23A10,10,0,0,0,40,30h0a1,1,0,0,0,0,2,8,8,0,0,1,5,1.76,5.27,5.27,0,0,1,2,4V42a1,1,0,0,0,2,0V37.79A7.26,7.26,0,0,0,46.3,32.23Z"/><path d="M30,15a7,7,0,0,1,7,7,1,1,0,0,0,2,0,9,9,0,0,0-9-9,1,1,0,0,0,0,2Z"/><path d="M38.92,36a1,1,0,0,0,0,2,4.2,4.2,0,0,1,2.89,1.18A3.9,3.9,0,0,1,43,42v3.75a.26.26,0,0,1-.27.25H12.27a.26.26,0,0,1-.27-.25V42a4,4,0,0,1,4.08-4,1,1,0,0,0,0-2A6,6,0,0,0,10,42v3.75A2.26,2.26,0,0,0,12.27,48H42.73A2.26,2.26,0,0,0,45,45.75V42a5.9,5.9,0,0,0-1.79-4.25A6.17,6.17,0,0,0,38.92,36Z"/></g></svg>