<svg xmlns="http://www.w3.org/2000/svg" viewBox="0 0 60 60">
  <path fill-rule="evenodd" d="M30.944,38.304 C29.3279919,38.304 27.920006,37.9560035 26.72,37.26 C25.519994,36.5639965 24.6000032,35.5640065 23.96,34.26 C23.3199968,32.9559935 23,31.4160089 23,29.64 C23,27.8799912 23.3199968,26.3480065 23.96,25.044 C24.6000032,23.7399935 25.519994,22.7400035 26.72,22.044 C27.920006,21.3479965 29.3279919,21 30.944,21 C32.0000053,21 32.9999953,21.1639984 33.944,21.492 C34.8880047,21.8200016 35.7119965,22.2959969 36.416,22.92 C36.7200015,23.1600012 36.872,23.479998 36.872,23.88 C36.872,24.1680014 36.7920008,24.411999 36.632,24.612 C36.4719992,24.812001 36.2800011,24.912 36.056,24.912 C35.7839986,24.912 35.5200013,24.808001 35.264,24.6 C34.4959962,24.0239971 33.7960032,23.6200012 33.164,23.388 C32.5319968,23.1559988 31.816004,23.04 31.016,23.04 C29.2559912,23.04 27.9040047,23.6079943 26.96,24.744 C26.0159953,25.8800057 25.544,27.5119894 25.544,29.64 C25.544,31.7840107 26.0159953,33.4239943 26.96,34.56 C27.9040047,35.6960057 29.2559912,36.264 31.016,36.264 C31.7840038,36.264 32.4839968,36.1440012 33.116,35.904 C33.7480032,35.6639988 34.463996,35.2640028 35.264,34.704 C35.5840016,34.495999 35.847999,34.392 36.056,34.392 C36.2800011,34.392 36.4719992,34.491999 36.632,34.692 C36.7920008,34.892001 36.872,35.1359986 36.872,35.424 C36.872,35.824002 36.7200015,36.1439988 36.416,36.384 C35.7119965,37.0080031 34.8880047,37.4839984 33.944,37.812 C32.9999953,38.1400016 32.0000053,38.304 30.944,38.304 Z"/>
</svg>
