<svg id="Layer_1" data-name="Layer 1" xmlns="http://www.w3.org/2000/svg" viewBox="0 0 60 60"><title>C_60px    </title><path d="M32.06,23.32A4.39,4.39,0,0,0,28.43,25a7.11,7.11,0,0,0-1.32,4.56,7.13,7.13,0,0,0,1.27,4.6,4.47,4.47,0,0,0,3.68,1.56,9.52,9.52,0,0,0,2-.21c.65-.14,1.32-.32,2-.53v2.31a12,12,0,0,1-4.37.74,7,7,0,0,1-5.52-2.2,9.28,9.28,0,0,1-1.92-6.29A10.34,10.34,0,0,1,25.22,25a6.77,6.77,0,0,1,2.71-3,8,8,0,0,1,4.15-1,10.19,10.19,0,0,1,4.63,1.06l-1,2.25A15.17,15.17,0,0,0,34,23.62,6.3,6.3,0,0,0,32.06,23.32Z"/></svg>