<svg xmlns="http://www.w3.org/2000/svg" viewBox="0 0 60 60">
  <path fill-rule="evenodd" d="M25.224,38.04 C24.8559982,38.04 24.5600011,37.9280011 24.336,37.704 C24.1119989,37.4799989 24,37.1760019 24,36.792 L24,22.2 C24,21.8319982 24.1079989,21.5400011 24.324,21.324 C24.5400011,21.1079989 24.8399981,21 25.224,21 L31.008,21 C32.800009,21 34.191995,21.4399956 35.184,22.32 C36.176005,23.2000044 36.672,24.4479919 36.672,26.064 C36.672,27.664008 36.176005,28.9119955 35.184,29.808 C34.191995,30.7040045 32.800009,31.152 31.008,31.152 L26.472,31.152 L26.472,36.792 C26.472,37.1760019 26.3640011,37.4799989 26.148,37.704 C25.9319989,37.9280011 25.624002,38.04 25.224,38.04 Z M30.744,29.16 C33.1120118,29.16 34.296,28.1280103 34.296,26.064 C34.296,24.0159898 33.1120118,22.992 30.744,22.992 L26.472,22.992 L26.472,29.16 L30.744,29.16 Z"/>
</svg>
