<svg id="Layer_1" data-name="Layer 1" xmlns="http://www.w3.org/2000/svg" viewBox="0 0 60 60"><title>port-60px_2px</title><path d="M46.5,14h-33A1.5,1.5,0,0,0,12,15.5v21A1.5,1.5,0,0,0,13.5,38H16v2.5A1.5,1.5,0,0,0,17.5,42H20v2.5A1.5,1.5,0,0,0,21.5,46h17A1.5,1.5,0,0,0,40,44.5V42h2.5A1.5,1.5,0,0,0,44,40.5V38h2.5A1.5,1.5,0,0,0,48,36.5v-21A1.5,1.5,0,0,0,46.5,14ZM46,36H43.5A1.5,1.5,0,0,0,42,37.5V40H39.5A1.5,1.5,0,0,0,38,41.5V44H22V41.5A1.5,1.5,0,0,0,20.5,40H18V37.5A1.5,1.5,0,0,0,16.5,36H14V16h5v5a1,1,0,0,0,2,0V16h3v5a1,1,0,0,0,2,0V16h3v5a1,1,0,0,0,2,0V16h3v5a1,1,0,0,0,2,0V16h3v5a1,1,0,0,0,2,0V16h5Z"/></svg>