<svg xmlns="http://www.w3.org/2000/svg" viewBox="0 0 60 60"><title>User Office_60px</title><g id="Layer_2" data-name="Layer 2"><path d="M27.75,17h-4.5A1.25,1.25,0,0,0,22,18.25v4.5A1.25,1.25,0,0,0,23.25,24h4.5A1.25,1.25,0,0,0,29,22.75v-4.5A1.25,1.25,0,0,0,27.75,17ZM27,22H24V19h3Z"/><path d="M37.75,17h-4.5A1.25,1.25,0,0,0,32,18.25v4.5A1.25,1.25,0,0,0,33.25,24h4.5A1.25,1.25,0,0,0,39,22.75v-4.5A1.25,1.25,0,0,0,37.75,17ZM37,22H34V19h3Z"/><path d="M27.75,27h-4.5A1.25,1.25,0,0,0,22,28.25v4.5A1.25,1.25,0,0,0,23.25,34h4.5A1.25,1.25,0,0,0,29,32.75v-4.5A1.25,1.25,0,0,0,27.75,27ZM27,32H24V29h3Z"/><path d="M37.75,27h-4.5A1.25,1.25,0,0,0,32,28.25v4.5A1.25,1.25,0,0,0,33.25,34h4.5A1.25,1.25,0,0,0,39,32.75v-4.5A1.25,1.25,0,0,0,37.75,27ZM37,32H34V29h3Z"/><path d="M37.75,37h-4.5A1.25,1.25,0,0,0,32,38.25v4.5A1.25,1.25,0,0,0,33.25,44h4.5A1.25,1.25,0,0,0,39,42.75v-4.5A1.25,1.25,0,0,0,37.75,37ZM37,42H34V39h3Z"/><path d="M41,12H20a3,3,0,0,0-3,3V46a3,3,0,0,0,3,3H41a3,3,0,0,0,3-3V15A3,3,0,0,0,41,12ZM24,47V39h3v8Zm18-1a1,1,0,0,1-1,1H29V38.25A1.25,1.25,0,0,0,27.75,37h-4.5A1.25,1.25,0,0,0,22,38.25V47H20a1,1,0,0,1-1-1V15a1,1,0,0,1,1-1H41a1,1,0,0,1,1,1Z"/></g></svg>