<svg id="Layer_1" data-name="Layer 1" xmlns="http://www.w3.org/2000/svg" viewBox="0 0 60 60"><title>Router_60px</title><path d="M34.33,41.28,31,44.37V36a1,1,0,0,0-2,0v8.36l-3.3-3.07a1,1,0,0,0-1.36,1.46L30,48l5.69-5.27a1,1,0,1,0-1.35-1.47Z"/><path d="M25.69,18.74,29,15.67V24a1,1,0,1,0,2,0v-8.4l3.37,3.11a1,1,0,0,0,.68.26,1,1,0,0,0,.73-.32,1,1,0,0,0-.05-1.41L30,12l-.72.66h0l-5,4.59a1,1,0,0,0-.06,1.41A1,1,0,0,0,25.69,18.74Z"/><path d="M47,29H37.64l3.09-3.39a1,1,0,0,0-1.47-1.35L34,30l5.26,5.66A1,1,0,0,0,40,36a1,1,0,0,0,.73-1.68L37.65,31H47a1,1,0,0,0,0-2Z"/><path d="M30,8A22,22,0,1,0,52,30,22,22,0,0,0,30,8Zm0,42A20,20,0,1,1,50,30,20,20,0,0,1,30,50Z"/><path d="M20.67,24.36a1,1,0,1,0-1.44,1.38L22.34,29H13a1,1,0,0,0,0,2h9.31l-3.06,3.34a1,1,0,0,0,.06,1.42A1.05,1.05,0,0,0,20,36a1,1,0,0,0,.74-.33L26,29.93Z"/></svg>