<svg id="Layer_1" data-name="Layer 1" xmlns="http://www.w3.org/2000/svg" viewBox="0 0 60 60"><title>Rules Security_60px </title><path d="M39,27.12v-7.6A2.68,2.68,0,0,0,36.19,17H15.81A2.68,2.68,0,0,0,13,19.52v26A2.68,2.68,0,0,0,15.81,48H36.19a2.08,2.08,0,0,0,.36,0c.32,0,.63,0,1,0A10.49,10.49,0,0,0,39,27.12ZM15.81,46c-.49,0-.81-.31-.81-.52v-26c0-.21.32-.52.81-.52H36.19c.49,0,.81.31.81.52V27a10.33,10.33,0,0,0-4.71,1.37,1,1,0,0,0-.78-.4H23.94a1,1,0,1,0,0,2h6.23A10.41,10.41,0,0,0,28,33H23.94a1,1,0,1,0,0,2h3.37A10.83,10.83,0,0,0,27,37.5c0,.17,0,.33,0,.5H23.94a1,1,0,1,0,0,2h3.37a10.54,10.54,0,0,0,4.05,6ZM37.5,46A8.5,8.5,0,1,1,46,37.5,8.51,8.51,0,0,1,37.5,46Z"/><path d="M41.57,34a5.73,5.73,0,0,1-4.1-1,5.79,5.79,0,0,1-4.08,1c-.19,0-.39.23-.41.49-.1,1.74,0,7.07,4.39,8.45a.32.32,0,0,0,.14,0,.4.4,0,0,0,.15,0C42,41.53,42.13,36.2,42,34.47A.47.47,0,0,0,41.57,34Z"/><path d="M23.94,25h9a1,1,0,0,0,0-2h-9a1,1,0,1,0,0,2Z"/><circle cx="19" cy="24" r="1"/><circle cx="19" cy="29" r="1"/><circle cx="19" cy="34" r="1"/><circle cx="19" cy="39" r="1"/></svg>