<svg id="Layer_1" data-name="Layer 1" xmlns="http://www.w3.org/2000/svg" viewBox="0 0 60 60"><title>Security_60px</title><path d="M44,17.45A2.41,2.41,0,0,0,41.5,15a27.38,27.38,0,0,1-10.74-1.79,2.22,2.22,0,0,0-.83-.22,2.2,2.2,0,0,0-.85.23A28,28,0,0,1,18.51,15,2.49,2.49,0,0,0,16,17.47c-.22,3.77-.61,22.78,13.29,27.42A1.93,1.93,0,0,0,30,45a2.48,2.48,0,0,0,.78-.11c5.71-1.9,9.65-6.44,11.73-13.49A44.25,44.25,0,0,0,44,17.45ZM30.17,43h-.24a14.42,14.42,0,0,1-6.07-3.93l14.63-8.2a1,1,0,0,0-1-1.74L22.58,37.49c-5-6.91-4.73-17.3-4.57-19.9,0-.26.11-.56.5-.56a30.19,30.19,0,0,0,11.28-1.94l.14-.05.09,0A29.46,29.46,0,0,0,41.5,17c.24,0,.47,0,.5.55,0,.23,0,.51,0,.85L22.52,29.12a1,1,0,0,0-.4,1.36A1,1,0,0,0,23,31a1,1,0,0,0,.48-.12L42,20.68C41.89,27,40.28,39.61,30.17,43Z"/></svg>