<svg id="Layer_1" data-name="Layer 1" xmlns="http://www.w3.org/2000/svg" viewBox="0 0 60 60"><title>Security_60px</title><path d="M44,17.45A2.4,2.4,0,0,0,41.49,15a27.48,27.48,0,0,1-10.74-1.79,2.14,2.14,0,0,0-.82-.22,2.2,2.2,0,0,0-.85.23A28,28,0,0,1,18.5,15,2.49,2.49,0,0,0,16,17.47c-.22,3.77-.62,22.78,13.29,27.42A1.93,1.93,0,0,0,30,45a2.48,2.48,0,0,0,.78-.11C36.49,43,40.43,38.45,42.5,31.4A44,44,0,0,0,44,17.45ZM30.17,43h-.24a14.42,14.42,0,0,1-6.07-3.93l14.63-8.2a1,1,0,0,0-1-1.74L22.57,37.5c-5-6.92-4.72-17.31-4.57-19.91,0-.26.12-.56.5-.56a30.21,30.21,0,0,0,11.29-1.94l.13-.05.1,0A29.44,29.44,0,0,0,41.49,17c.29,0,.48,0,.51.55,0,.23,0,.51,0,.85L22.52,29.12a1,1,0,0,0-.4,1.36A1,1,0,0,0,23,31a1,1,0,0,0,.48-.12L42,20.68C41.89,27,40.28,39.61,30.17,43Z"/></svg>