<svg id="Layer_1" data-name="Layer 1" xmlns="http://www.w3.org/2000/svg" viewBox="0 0 60 60"><title>Server-60px_2px</title><path d="M36,13H24a3,3,0,0,0-3,3V44a3,3,0,0,0,3,3H36a3,3,0,0,0,3-3V16A3,3,0,0,0,36,13Zm1,31a1,1,0,0,1-1,1H24a1,1,0,0,1-1-1V16a1,1,0,0,1,1-1H36a1,1,0,0,1,1,1Z"/><path d="M33,18H27a1,1,0,0,0,0,2h6a1,1,0,0,0,0-2Z"/><path d="M33,22H27a1,1,0,0,0,0,2h6a1,1,0,0,0,0-2Z"/><path d="M33,26H27a1,1,0,0,0,0,2h6a1,1,0,0,0,0-2Z"/><path d="M31.11,39.34a1.63,1.63,0,0,0-.34-.19,1.82,1.82,0,0,0-.38-.11,2,2,0,0,0-.78,0,1.66,1.66,0,0,0-.38.11,1.63,1.63,0,0,0-.34.19,1.42,1.42,0,0,0-.3.25,2,2,0,1,0,2.82,2.82,1.42,1.42,0,0,0,.25-.3,1.63,1.63,0,0,0,.19-.34A2.2,2.2,0,0,0,32,41a2,2,0,0,0-.59-1.41A1.42,1.42,0,0,0,31.11,39.34Z"/></svg>