<svg id="Layer_1" data-name="Layer 1" xmlns="http://www.w3.org/2000/svg" viewBox="0 0 60 60"><title>Setting_60px</title><path d="M46.24,26.94l-4.08-1a13,13,0,0,0-.68-1.63l2.17-3.61a1,1,0,0,0-.15-1.22l-3-3a1,1,0,0,0-1.22-.15l-3.61,2.17a13,13,0,0,0-1.63-.68l-1-4.08a1,1,0,0,0-1-.76H27.91a1,1,0,0,0-1,.76l-1,4.08a13,13,0,0,0-1.63.68l-3.61-2.17a1,1,0,0,0-1.22.15l-3,3a1,1,0,0,0-.15,1.22l2.17,3.61a13,13,0,0,0-.68,1.63l-4.08,1a1,1,0,0,0-.76,1v4.18a1,1,0,0,0,.76,1l4.08,1a13,13,0,0,0,.68,1.63l-2.17,3.61a1,1,0,0,0,.15,1.22l3,3a1,1,0,0,0,1.22.15l3.61-2.17a13,13,0,0,0,1.63.68l1,4.08a1,1,0,0,0,1,.76h4.18a1,1,0,0,0,1-.76l1-4.08a13,13,0,0,0,1.63-.68l3.61,2.17a1,1,0,0,0,1.22-.15l3-3a1,1,0,0,0,.15-1.22l-2.17-3.61a13,13,0,0,0,.68-1.63l4.08-1a1,1,0,0,0,.76-1V27.91A1,1,0,0,0,46.24,26.94ZM45,31.31l-3.88,1a1,1,0,0,0-.72.7,9.77,9.77,0,0,1-.94,2.28,1,1,0,0,0,0,1.06v0l2,3.35-1.85,1.85-3.33-2,0,0a1,1,0,0,0-1.06,0A9.77,9.77,0,0,1,33,40.4a1,1,0,0,0-.7.72l-1,3.88H28.69l-1-3.88a1,1,0,0,0-.7-.72,9.77,9.77,0,0,1-2.28-.94,1,1,0,0,0-1.06,0h0l-3.35,2-1.85-1.85,2-3.33,0,0a1,1,0,0,0,0-1.06A9.77,9.77,0,0,1,19.6,33a1,1,0,0,0-.72-.7l-3.88-1V28.69l3.88-1a1,1,0,0,0,.72-.7,9.77,9.77,0,0,1,.94-2.28,1,1,0,0,0,0-1.06l0,0-2-3.33,1.85-1.85,3.33,2,0,0a1,1,0,0,0,1.06,0A9.77,9.77,0,0,1,27,19.6a1,1,0,0,0,.7-.72l1-3.88h2.62l1,3.88a1,1,0,0,0,.7.72,9.77,9.77,0,0,1,2.28.94,1,1,0,0,0,1.06,0h0l3.35-2,1.85,1.85-2,3.33,0,0a1,1,0,0,0,0,1.06A9.77,9.77,0,0,1,40.4,27a1,1,0,0,0,.72.7l3.88,1Z"/><path d="M30,23a7,7,0,1,0,7,7A7,7,0,0,0,30,23Zm0,12a5,5,0,1,1,5-5A5,5,0,0,1,30,35Z"/></svg>