<svg id="Layer_1" data-name="Layer 1" xmlns="http://www.w3.org/2000/svg" viewBox="0 0 60 60"><title>universal Cpe_60px</title><path d="M34.29,40.35l-3.3,3V35a1,1,0,0,0-2,0v8.37l-3.35-3.09a1,1,0,0,0-1.35,1.47L30,47l5.65-5.18a1,1,0,0,0-1.35-1.48Z"/><path d="M25.72,19.63l3.28-3V25a1,1,0,0,0,2,0V16.6l3.37,3.11a1,1,0,0,0,.68.26,1,1,0,0,0,.73-.32,1,1,0,0,0-.05-1.42L30,13l-5.65,5.19a1,1,0,0,0,1.35,1.47Z"/><path d="M41.74,24.32a1,1,0,0,0-1.46,1.36L43.37,29H35a1,1,0,0,0,0,2h8.35l-3.07,3.32a1,1,0,0,0,0,1.41,1,1,0,0,0,1.42,0L47,30Z"/><path d="M16.59,31H25a1,1,0,0,0,0-2H16.62l3.07-3.32a1,1,0,0,0-1.47-1.36L13,30l5.27,5.66A1,1,0,0,0,19,36a1,1,0,0,0,.68-.27,1,1,0,0,0,.05-1.41Z"/><path d="M30,8A22,22,0,1,0,52,30,22,22,0,0,0,30,8Zm0,42A20,20,0,1,1,50,30,20,20,0,0,1,30,50Z"/></svg>