<svg id="Layer_1" data-name="Layer 1" xmlns="http://www.w3.org/2000/svg" xmlns:xlink="http://www.w3.org/1999/xlink" viewBox="0 0 60 60"><defs><style>.cls-1{fill:none;clip-rule:evenodd;}.cls-2{clip-path:url(#clip-path);}</style><clipPath id="clip-path"><path class="cls-1" d="M442.67,72.67a4,4,0,1,0,4,4A4,4,0,0,0,442.67,72.67Zm0,10a6,6,0,1,1,6-6A6,6,0,0,1,442.67,82.67Zm8-9.31V68.67H446l-3.31-3.31-3.31,3.31h-4.69v4.69l-3.31,3.31L434.67,80v4.69h4.69L442.67,88,446,84.67h4.69V80L454,76.67Z"/></clipPath></defs><title>Virtual Firewall_60px</title><path d="M15.45,39a3.5,3.5,0,0,0,0,7h.1a3.5,3.5,0,1,0-.1-7Zm.1,5h-.1A1.5,1.5,0,1,1,17,42.55,1.45,1.45,0,0,1,15.55,44Z"/><path d="M38.53,31.13a1,1,0,0,0-1.38.33L33,38.2l-4.16-6.72a1,1,0,0,0-1.38-.32,1,1,0,0,0-.32,1.37L33,42l5.86-9.5A1,1,0,0,0,38.53,31.13Z"/><path d="M41.1,7.43a1.24,1.24,0,0,0-1-.39,1.2,1.2,0,0,0-.88.52c-.44.64-.22,1.48.13,2.87A15.81,15.81,0,0,1,40,14.22a5,5,0,0,1-1.38,3.64,4.63,4.63,0,0,1-3.33,1.23c-2.06,0-3.8-2.32-5.16-6.83C29.93,11.61,29.75,11,29,11a1,1,0,0,0-.84.46A46.22,46.22,0,0,0,22.87,24H9.5A1.42,1.42,0,0,0,8,25.5V48c0,1.18.62,2,1.5,2h23v0L33,50A13.06,13.06,0,0,0,46,37.88a9.6,9.6,0,0,0,3-3,14.14,14.14,0,0,0,2-7.15C51,19.37,42.77,8.92,41.1,7.43ZM10,48V26H26a12.65,12.65,0,0,0-3.31,3H15.5a3.5,3.5,0,0,0,0,7h4.55c0,.29,0,.58,0,.88A13.12,13.12,0,0,0,26.14,48ZM20.33,34H15.5a1.5,1.5,0,0,1,0-3h5.9A13.21,13.21,0,0,0,20.33,34ZM33,48A11.07,11.07,0,0,1,22,36.88,10.82,10.82,0,0,1,33,26a10.79,10.79,0,0,1,8.8,4.2A11.15,11.15,0,0,1,33,48ZM47.35,33.76a8.73,8.73,0,0,1-1.43,1.66A12.66,12.66,0,0,0,33,24c-.37,0-.73,0-1.09.05V24h-7a45,45,0,0,1,3.81-9.55c.93,2.61,2.85,6.59,6.53,6.64A6.61,6.61,0,0,0,40,19.28a7,7,0,0,0,2-5.06A14.46,14.46,0,0,0,41.56,11C44.3,14.55,49,21.8,49,27.73A12,12,0,0,1,47.35,33.76Z"/></svg>