<svg id="Layer_1" data-name="Layer 1" xmlns="http://www.w3.org/2000/svg" viewBox="0 0 60 60"><title>VIRTUAL FIREWALL 2_60px </title><path d="M15,38H25a3,3,0,0,0,0-6H15a3,3,0,0,0,0,6Zm0-4H25a1,1,0,0,1,0,2H15a1,1,0,0,1,0-2Z"/><path d="M36,32H34a3,3,0,0,0,0,6h2a3,3,0,0,0,0-6Zm0,4H34a1,1,0,0,1,0-2h2a1,1,0,0,1,0,2Z"/><path d="M36,40H26a3,3,0,0,0,0,6H36a3,3,0,0,0,0-6Zm0,4H26a1,1,0,0,1,0-2H36a1,1,0,0,1,0,2Z"/><path d="M17,40H15a3,3,0,0,0,0,6h2a3,3,0,0,0,0-6Zm0,4H15a1,1,0,0,1,0-2h2a1,1,0,0,1,0,2Z"/><path d="M41.92,8.28A1.21,1.21,0,0,0,41,8c-1.37.24-1.15,1.65-.56,5.43A38.44,38.44,0,0,1,41,18.1a5.41,5.41,0,0,1-1.42,3.84A3.94,3.94,0,0,1,36.68,23c-2,0-2.87-2.42-3.66-5.08-.51-1.71-.87-2.94-2-2.94h0c-2.21,0-5.47,9-5.91,13H10a2,2,0,0,0-2,2V48a2,2,0,0,0,2,2H41a2,2,0,0,0,2-2V42.34a1,1,0,0,0,.53.16,1,1,0,0,0,.33-.06C49.26,40.55,52,36.73,52,31.1,52,22.77,43.13,9.3,41.92,8.28ZM10,48V30H41V48Zm33.2-7.44a.64.64,0,0,0-.2.11V30a2,2,0,0,0-2-2H27.05A32.37,32.37,0,0,1,30.8,17.54c.1.32.21.68.3,1C31.82,21,33,25,36.65,25A6,6,0,0,0,41,23.36a7.23,7.23,0,0,0,2-5.26,37.57,37.57,0,0,0-.57-5c0-.34-.1-.7-.16-1.06C45,16.31,50,25.31,50,31.1,50,35.92,47.84,38.93,43.2,40.56Z"/></svg>