<svg xmlns="http://www.w3.org/2000/svg" viewBox="0 0 60 60">
  <path fill-rule="evenodd" d="M29.914,22.616 C30.1046676,22.2053313 30.4199978,22 30.86,22 C31.1533348,22 31.4173322,22.098999 31.652,22.297 C31.8866678,22.495001 32.004,22.7333319 32.004,23.012 C32.004,23.1146672 31.9673337,23.2539991 31.894,23.43 L25.69,37.026 C25.5873328,37.2606678 25.4260011,37.4439993 25.206,37.576 C24.9859989,37.7080007 24.7513346,37.774 24.502,37.774 C24.2526654,37.774 24.0143345,37.7080007 23.787,37.576 C23.5596655,37.4439993 23.3946672,37.2606678 23.292,37.026 L17.11,23.43 C17.0366663,23.2539991 17,23.1146672 17,23.012 C17,22.7186652 17.1209988,22.4766676 17.363,22.286 C17.6050012,22.0953324 17.8726652,22 18.166,22 C18.6206689,22 18.9433324,22.2053313 19.134,22.616 L24.524,34.694 L29.914,22.616 Z M35.106,37.642 C34.768665,37.642 34.501001,37.5466676 34.303,37.356 C34.104999,37.1653324 34.006,36.9086683 34.006,36.586 L34.006,23.166 C34.006,22.828665 34.1086656,22.5536677 34.314,22.341 C34.5193344,22.1283323 34.790665,22.022 35.128,22.022 C35.4800018,22.022 35.7586656,22.1246656 35.964,22.33 C36.1693344,22.5353344 36.272,22.8139982 36.272,23.166 L36.272,35.75 L42.96,35.75 C43.297335,35.75 43.5576657,35.8306659 43.741,35.992 C43.9243343,36.1533341 44.016,36.3879985 44.016,36.696 C44.016,37.0040015 43.9243343,37.2386659 43.741,37.4 C43.5576657,37.5613341 43.297335,37.642 42.96,37.642 L35.106,37.642 Z"/>
</svg>
