<svg id="Layer_1" data-name="Layer 1" xmlns="http://www.w3.org/2000/svg" viewBox="0 0 60 60"><title>vnf conduration_60px</title><path d="M44,26.92l-3.23-.52A9.49,9.49,0,0,0,40.15,25L42,22.3a1.22,1.22,0,0,0-.13-1.6l-2.6-2.6A1.22,1.22,0,0,0,37.7,18l-2.65,1.88a9.53,9.53,0,0,0-1.45-.58l-.53-3.22A1.25,1.25,0,0,0,31.82,15H28.18a1.26,1.26,0,0,0-1.25,1.05l-.53,3.22a9.53,9.53,0,0,0-1.45.58L22.3,18a1.22,1.22,0,0,0-1.6.13l-2.6,2.6A1.22,1.22,0,0,0,18,22.3L19.85,25a9.49,9.49,0,0,0-.57,1.45l-3.23.52A1.28,1.28,0,0,0,15,28.17v3.66a1.28,1.28,0,0,0,1.05,1.25l3.23.52a9.49,9.49,0,0,0,.57,1.45L18,37.7a1.22,1.22,0,0,0,.12,1.6l2.6,2.6a1.22,1.22,0,0,0,1.6.13L25,40.15a9.53,9.53,0,0,0,1.45.58L26.93,44a1.26,1.26,0,0,0,1.25,1h3.64a1.25,1.25,0,0,0,1.25-1l.53-3.22a9.53,9.53,0,0,0,1.45-.58L37.7,42a1.22,1.22,0,0,0,1.6-.13l2.6-2.6A1.22,1.22,0,0,0,42,37.7l-1.88-2.65a9.49,9.49,0,0,0,.57-1.45L44,33.08a1.28,1.28,0,0,0,1-1.25V28.17A1.28,1.28,0,0,0,44,26.92ZM35,30a5,5,0,1,1-5-5A5,5,0,0,1,35,30Z"/></svg>