<svg id="Layer_1" data-name="Layer 1" xmlns="http://www.w3.org/2000/svg" viewBox="0 0 60 60"><title>Virual Router_60px</title><circle cx="15.5" cy="35.5" r="1.5"/><circle cx="20.5" cy="35.5" r="1.5"/><circle cx="25.5" cy="35.5" r="1.5"/><path d="M38.49,30,42,22.72a.5.5,0,1,0-.91-.43L38.5,27.68l-2.56-5.39a.5.5,0,0,0-.66-.24.5.5,0,0,0-.24.67Z"/><path d="M48,29H46.24a8.5,8.5,0,1,0-15.48,0H22V15a1,1,0,0,0-2,0V29H12a3,3,0,0,0-3,3v7a3,3,0,0,0,3,3H48a3,3,0,0,0,3-3V32A3,3,0,0,0,48,29ZM38.5,19A6.5,6.5,0,1,1,32,25.5,6.51,6.51,0,0,1,38.5,19ZM49,39a1,1,0,0,1-1,1H12a1,1,0,0,1-1-1V32a1,1,0,0,1,1-1H32A8.48,8.48,0,0,0,45,31h3a1,1,0,0,1,1,1Z"/></svg>