<svg id="Layer_1" data-name="Layer 1" xmlns="http://www.w3.org/2000/svg" viewBox="0 0 60 60"><title>WAN accelerator_60px</title><path d="M25.25,35.73a1,1,0,0,0,.69.27,1,1,0,0,0,.73-.31L32,30l-5.37-5.69a1,1,0,0,0-1.46,1.38L28.35,29H7.78l6.4-11h11.2l-3.1,3.36a1,1,0,0,0,0,1.41,1,1,0,0,0,.68.27,1,1,0,0,0,.74-.33L29,17l-5.3-5.63a1,1,0,0,0-1.46,1.37L25.36,16H13L5.47,29a1.09,1.09,0,0,0,0,.17,1,1,0,0,0-.49.84,1,1,0,0,0,.49.84,1,1,0,0,0,0,.16L13,44H25.37l-3.11,3.33A1,1,0,0,0,23,49a1,1,0,0,0,.73-.32L29,43l-5.32-5.69a1,1,0,0,0-1.46,1.37L25.36,42H14.11L7.78,31H28.35l-3.14,3.31A1,1,0,0,0,25.25,35.73Z"/><path d="M45.71,20.31a1,1,0,0,0-1.42,0,1,1,0,0,0,0,1.41l7,7.31H37a1,1,0,1,0,0,2H51.26l-7,7.31a1,1,0,0,0,0,1.41,1,1,0,0,0,1.42,0L55,30Z"/></svg>