<svg id="Layer_1" data-name="Layer 1" xmlns="http://www.w3.org/2000/svg" viewBox="0 0 60 60"><title>WAN accelerator_60px</title><path d="M30.25,24.27a1,1,0,0,0,0,1.42L33.35,29H8.78l6.4-11h11.2l-3.1,3.36a1,1,0,0,0,0,1.41,1,1,0,0,0,.68.27,1,1,0,0,0,.74-.33L30,17l-5.3-5.63a1,1,0,0,0-1.46,1.37L26.36,16H14L6.47,29a1.09,1.09,0,0,0,0,.17,1,1,0,0,0-.49.84,1,1,0,0,0,.49.84,1,1,0,0,0,0,.16L14,44H26.37l-3.11,3.33A1,1,0,0,0,24,49a1,1,0,0,0,.73-.32L30,43l-5.32-5.69a1,1,0,0,0-1.46,1.37L26.36,42H15.11L8.78,31H33.35l-3.14,3.31a1,1,0,0,0,0,1.42,1,1,0,0,0,.69.27,1,1,0,0,0,.73-.31L37,30l-5.37-5.69A1,1,0,0,0,30.25,24.27Z"/><path d="M42.7,18.31a1,1,0,1,0-1.44,1.38l9,9.31H42a1,1,0,1,0,0,2h8.27l-9,9.31a1,1,0,0,0,0,1.41A1,1,0,0,0,42,42a1,1,0,0,0,.72-.31L54,30Z"/></svg>