<svg xmlns="http://www.w3.org/2000/svg" viewBox="0 0 24 24">
  <path d="M8,0 C12.4363636,0 16,3.56363636 16,8 C16,12.4363636 12.4363636,16 8,16 C3.56363636,16 0,12.4363636 0,8 C0,3.56363636 3.56363636,0 8,0 Z M8,2 C4.67272727,2 2,4.67272727 2,8 C2,11.3272727 4.67272727,14 8,14 C11.3272727,14 14,11.3272727 14,8 C14,4.67272727 11.3272727,2 8,2 Z M8,4.36363636 C8.43636364,4.36363636 8.72727273,4.65454545 8.72727273,5.09090909 L8.72727273,8 C8.72727273,8.43636364 8.43636364,8.72727273 8,8.72727273 C7.56363636,8.72727273 7.27272727,8.43636364 7.27272727,8 L7.27272727,5.09090909 C7.27272727,4.65454545 7.56363636,4.36363636 8,4.36363636 Z M7.27272727,10.9090909 C7.27272727,10.6909091 7.34545455,10.5454545 7.49090909,10.4 C7.78181818,10.1090909 8.21818182,10.1090909 8.50909091,10.4 C8.65454545,10.5454545 8.72727273,10.7636364 8.72727273,10.9090909 C8.72727273,11.0545455 8.65454545,11.2727273 8.50909091,11.4181818 C8.36363636,11.5636364 8.21818182,11.6363636 8,11.6363636 C7.78181818,11.6363636 7.63636364,11.5636364 7.49090909,11.4181818 C7.34545455,11.2727273 7.27272727,11.1272727 7.27272727,10.9090909 Z" transform="translate(4 4)"/>
</svg>
