<svg xmlns="http://www.w3.org/2000/svg" viewBox="0 0 24 24">
  <path d="M11,0 C17.1,0 22,4.9 22,11 C22,17.1 17.1,22 11,22 C4.9,22 0,17.1 0,11 C0,4.9 4.9,0 11,0 Z M11,6 C10.4,6 10,6.4 10,7 L10,11 C10,11.6 10.4,12 11,12 C11.6,12 12,11.6 12,11 L12,7 C12,6.4 11.6,6 11,6 Z M10.3,14.3 C10.1,14.5 10,14.7 10,15 C10,15.3 10.1,15.5 10.3,15.7 C10.5,15.9 10.7,16 11,16 C11.3,16 11.5,15.9 11.7,15.7 C11.9,15.5 12,15.2 12,15 C12,14.8 11.9,14.5 11.7,14.3 C11.3,13.9 10.7,13.9 10.3,14.3 Z" transform="translate(1 1)"/>
</svg>
