<svg xmlns="http://www.w3.org/2000/svg" viewBox="0 0 24 24">
  <path d="M8,0 C12.4363636,0 16,3.56363636 16,8 C16,12.4363636 12.4363636,16 8,16 C3.56363636,16 0,12.4363636 0,8 C0,3.56363636 3.56363636,0 8,0 Z M8.02272727,3.68181818 C7.43636364,3.68181818 7.04545455,4.07272727 7.04545455,4.65909091 L7.04545455,8.56818182 C7.04545455,9.15454545 7.43636364,9.54545455 8.02272727,9.54545455 C8.60909091,9.54545455 9,9.15454545 9,8.56818182 L9,4.65909091 C9,4.07272727 8.60909091,3.68181818 8.02272727,3.68181818 Z M7.3,11.3 C7.1,11.5 7,11.7 7,12 C7,12.3 7.1,12.5 7.3,12.7 C7.5,12.9 7.7,13 8,13 C8.3,13 8.5,12.9 8.7,12.7 C8.9,12.5 9,12.2 9,12 C9,11.8 8.9,11.5 8.7,11.3 C8.3,10.9 7.7,10.9 7.3,11.3 Z" transform="translate(4 4)"/>
</svg>
