<svg xmlns="http://www.w3.org/2000/svg" viewBox="0 0 24 24">
  <g transform="translate(1 1)">
    <path d="M11,0 C4.9,0 0,4.9 0,11 C0,17.1 4.9,22 11,22 C17.1,22 22,17.1 22,11 C22,4.9 17.1,0 11,0 Z M11,20 C6,20 2,16 2,11 C2,6 6,2 11,2 C16,2 20,6 20,11 C20,16 16,20 11,20 Z"/>
    <path d="M11 6C10.4 6 10 6.4 10 7L10 11C10 11.6 10.4 12 11 12 11.6 12 12 11.6 12 11L12 7C12 6.4 11.6 6 11 6zM10.3 14.3C10.1 14.5 10 14.7 10 15 10 15.3 10.1 15.5 10.3 15.7 10.5 15.9 10.7 16 11 16 11.3 16 11.5 15.9 11.7 15.7 11.9 15.5 12 15.2 12 15 12 14.8 11.9 14.5 11.7 14.3 11.3 13.9 10.7 13.9 10.3 14.3z"/>
  </g>
</svg>
