<svg xmlns="http://www.w3.org/2000/svg" viewBox="0 0 24 24">
  <path fill-rule="evenodd" d="M9,15 L15,15 C15,14.4477153 15.4477153,14 16,14 C16.5522847,14 17,14.4477153 17,15 L17,15.6838379 C17,15.7376292 16.9957528,15.7904286 16.9875755,15.8419189 C16.9957528,15.8934093 17,15.9462086 17,16 C17,16.5522847 16.5522847,17 16,17 L8,17 C7.44771525,17 7,16.5522847 7,16 C7,15.9462086 7.00424718,15.8934093 7.01242449,15.8419189 C7.00424718,15.7904286 7,15.7376292 7,15.6838379 L7,15 C7,14.4477153 7.44771525,14 8,14 C8.55228475,14 9,14.4477153 9,15 Z M3,10 L21,10 C21.5522847,10 22,10.4477153 22,11 L22,21 C22,21.5522847 21.5522847,22 21,22 L3,22 C2.44771525,22 2,21.5522847 2,21 L2,11 C2,10.4477153 2.44771525,10 3,10 Z M5,12 C4.44771525,12 4,12.4477153 4,13 L4,19 C4,19.5522847 4.44771525,20 5,20 L19.0820312,20 C19.634316,20 20.0820312,19.5522847 20.0820312,19 L20.0820312,13 C20.0820312,12.4477153 19.634316,12 19.0820312,12 L5,12 Z M5,6 L19,6 C19.5522847,6 20,6.44771525 20,7 C20,7.55228475 19.5522847,8 19,8 L5,8 C4.44771525,8 4,7.55228475 4,7 C4,6.44771525 4.44771525,6 5,6 Z M7,2 L17,2 C17.5522847,2 18,2.44771525 18,3 C18,3.55228475 17.5522847,4 17,4 L7,4 C6.44771525,4 6,3.55228475 6,3 C6,2.44771525 6.44771525,2 7,2 Z"/>
</svg>
