<svg xmlns="http://www.w3.org/2000/svg" viewBox="0 0 24 24">
  <path d="M19.8906076,13.7292325 C19.9488768,13.6126939 19.9488768,13.4378862 19.8906076,13.2630784 C19.8323383,13.2048091 19.8323383,13.1465399 19.7740691,13.0882706 L16.8606062,10.1748078 C16.6275292,9.94173074 16.2779136,9.94173074 16.0448366,10.1748078 C15.8117596,10.4078848 15.8117596,10.7575003 16.0448366,10.9905774 L17.9677221,12.9134629 L5.81858199,12.9134629 C4.55905252,12.9134629 4.90917714,14.2025015 5.81858199,14.078848 L17.9677221,14.078848 L16.0448366,16.0017335 C15.8117596,16.2348105 15.8117596,16.5844261 16.0448366,16.8175031 C16.1613751,16.9340416 16.3361829,16.9923109 16.4527214,16.9923109 C16.5692599,16.9923109 16.7440677,16.9340416 16.8606062,16.8175031 L19.7740691,13.9040402 C19.8323383,13.845771 19.8906076,13.7875017 19.8906076,13.7292325 Z"/>
</svg>
