<svg xmlns="http://www.w3.org/2000/svg" xmlns:xlink="http://www.w3.org/1999/xlink" viewBox="0 0 24 24">
    <path id="arrow-left-a" d="M11.299625,19.699625 C11.400625,19.799625 11.499625,19.899625 11.599625,19.899625 C11.699625,19.999625 11.900625,19.999625 11.999625,19.999625 C12.099625,19.999625 12.299625,19.999625 12.400625,19.899625 C12.499625,19.799625 12.599625,19.799625 12.699625,19.699625 L16.699625,15.699625 C17.099625,15.299625 17.099625,14.699625 16.699625,14.299625 C16.299625,13.899625 15.699625,13.899625 15.299625,14.299625 L12.999625,16.598625 L12.999625,4.999625 C12.999625,4.399625 12.599625,3.999625 11.999625,3.999625 C11.400625,3.999625 10.999625,4.399625 10.999625,4.999625 L10.999625,16.598625 L8.699625,14.299625 C8.299625,13.899625 7.699625,13.899625 7.299625,14.299625 C6.900625,14.699625 6.900625,15.299625 7.299625,15.699625 L11.299625,19.699625 Z"/>
</svg>
