<svg xmlns="http://www.w3.org/2000/svg" viewBox="0 0 24 24">
  <path fill-rule="evenodd" stroke="#000" stroke-linecap="round" stroke-linejoin="round" stroke-width="2" d="M22,16 C22,17.1045695 21.1045695,18 20,18 L2,18 C0.8954305,18 2.22044605e-16,17.1045695 0,16 L0,5 C-1.11022302e-16,3.8954305 0.8954305,3 2,3 L6,3 L8,0 L14,0 L16,3 L20,3 C21.1045695,3 22,3.8954305 22,5 L22,16 Z M11,14 C13.209139,14 15,12.209139 15,10 C15,7.790861 13.209139,6 11,6 C8.790861,6 7,7.790861 7,10 C7,12.209139 8.790861,14 11,14 Z" transform="translate(1 3)"/>
</svg>
