<svg xmlns="http://www.w3.org/2000/svg" viewBox="0 0 24 24">
  <path fill-rule="evenodd" d="M12,21 C7,21 3,17 3,12 C3,7 7,3 12,3 C17,3 21,7 21,12 C21,17 17,21 12,21 M15.8577344,13.3510289 C15.9185653,13.3123766 15.9761319,13.2665088 16.0292152,13.2134254 C16.4197395,12.8229012 16.4197395,12.1897362 16.0292152,11.7992119 L11.7865746,7.5565712 C11.3960503,7.1660469 10.7628853,7.1660469 10.372361,7.5565712 C9.9818367,7.94709549 9.9818367,8.58026047 10.372361,8.97078476 L13.8909562,12.48938 L10.3168481,16.0634881 C9.92632382,16.4540124 9.92632382,17.0871774 10.3168481,17.4777017 C10.7073724,17.868226 11.3405374,17.868226 11.7310617,17.4777017 L15.8577344,13.3510289 Z M1,12 C1,5.9 5.9,1 12,1 C18.1,1 23,5.9 23,12 C23,18.1 18.1,23 12,23 C5.9,23 1,18.1 1,12 Z" transform="rotate(-180 12 12)"/>
</svg>
