<svg xmlns="http://www.w3.org/2000/svg" viewBox="0 0 40 40">
  <path d="M38.6666667,0 L1.33333333,0 C0.596953667,0 0,0.596953667 0,1.33333333 L0,30.6666667 C0,31.4030463 0.596953667,32 1.33333333,32 L18.6666667,32 L18.6666667,38.6666667 C18.6674956,39.1476854 18.9273508,39.5909678 19.3466667,39.8266667 C19.5459409,39.9396031 19.770949,39.9992991 20,40 C20.2393111,39.9999296 20.4741924,39.9354524 20.68,39.8133333 L33.7066667,32 L38.6666667,32 C39.4030463,32 40,31.4030463 40,30.6666667 L40,1.33333333 C40,0.596953667 39.4030463,0 38.6666667,0 Z M37.3333333,29.3333333 L33.3333333,29.3333333 C33.0940222,29.3334037 32.8591409,29.3978809 32.6533333,29.52 L21.3333333,36.3066667 L21.3333333,30.6666667 C21.3333333,29.930287 20.7363797,29.3333333 20,29.3333333 L2.66666667,29.3333333 L2.66666667,2.66666667 L37.3333333,2.66666667 L37.3333333,29.3333333 Z M12,25.3333333 L28,25.3333333 C28.7363797,25.3333333 29.3333333,24.7363797 29.3333333,24 C29.3361389,20.392348 27.2595436,17.106136 24,15.56 C25.9367985,13.4291403 25.8324079,10.145609 23.7641682,8.14207816 C21.6959285,6.13854732 18.4107382,6.13854732 16.3424985,8.14207816 C14.2742588,10.145609 14.1698682,13.4291403 16.1066667,15.56 C12.8055247,17.0751235 10.6832296,20.3678019 10.6666667,24 C10.6666667,24.353622 10.8071425,24.6927605 11.057191,24.942809 C11.3072395,25.1928575 11.646378,25.3333333 12,25.3333333 Z M17.3333333,12 C17.3333333,10.5272407 18.5272407,9.33333333 20,9.33333333 C21.4727593,9.33333333 22.6666667,10.5272407 22.6666667,12 C22.6666667,13.4727593 21.4727593,14.6666667 20,14.6666667 C18.5272407,14.6666667 17.3333333,13.4727593 17.3333333,12 Z M20,17.3333333 C23.1684575,17.3326867 25.8996419,19.562225 26.5333333,22.6666667 L13.4666667,22.6666667 C14.1003581,19.562225 16.8315425,17.3326867 20,17.3333333 L20,17.3333333 Z"/>
</svg>
