<svg xmlns="http://www.w3.org/2000/svg" viewBox="0 0 24 24">
  <path d="M23.2,0 L0.8,0 C0.3581722,0 0,0.3581722 0,0.8 L0,18.4 C0,18.8418278 0.3581722,19.2 0.8,19.2 L11.2,19.2 L11.2,23.2 C11.2004974,23.4886113 11.3564105,23.7545807 11.608,23.896 C11.7275645,23.9637618 11.8625694,23.9995795 12,24 C12.1435867,23.9999578 12.2845155,23.9612714 12.408,23.888 L20.224,19.2 L23.2,19.2 C23.6418278,19.2 24,18.8418278 24,18.4 L24,0.8 C24,0.3581722 23.6418278,0 23.2,0 Z M22.4,17.6 L20,17.6 C19.8564133,17.6000422 19.7154845,17.6387286 19.592,17.712 L12.8,21.784 L12.8,18.4 C12.8,17.9581722 12.4418278,17.6 12,17.6 L1.6,17.6 L1.6,1.6 L22.4,1.6 L22.4,17.6 Z M7.2,15.2 L16.8,15.2 C17.2418278,15.2 17.6,14.8418278 17.6,14.4 C17.6016833,12.2354088 16.3557262,10.2636816 14.4,9.336 C15.5620791,8.05748419 15.4994447,6.08736539 14.2585009,4.88524689 C13.0175571,3.68312839 11.0464429,3.68312839 9.80549909,4.88524689 C8.56455528,6.08736539 8.50192093,8.05748419 9.664,9.336 C7.68331482,10.2450741 6.40993777,12.2206811 6.4,14.4 C6.4,14.6121732 6.48428547,14.8156563 6.63431458,14.9656854 C6.78434368,15.1157145 6.98782681,15.2 7.2,15.2 Z M10.4,7.2 C10.4,6.3163444 11.1163444,5.6 12,5.6 C12.8836556,5.6 13.6,6.3163444 13.6,7.2 C13.6,8.0836556 12.8836556,8.8 12,8.8 C11.1163444,8.8 10.4,8.0836556 10.4,7.2 Z M12,10.4 C13.9010745,10.399612 15.5397851,11.737335 15.92,13.6 L8.08,13.6 C8.46021486,11.737335 10.0989255,10.399612 12,10.4 L12,10.4 Z"/>
</svg>
