<?xml version="1.0" encoding="UTF-8"?>
<svg width="16px" height="16px" viewBox="0 0 16 16" version="1.1" xmlns="http://www.w3.org/2000/svg" xmlns:xlink="http://www.w3.org/1999/xlink">
    <!-- Generator: Sketch 64 (93537) - https://sketch.com -->
    <title>Combined Shape Copy 42</title>
    <desc>Created with Sketch.</desc>
    <g id="Page-1" stroke="none" stroke-width="1" fill="none" fill-rule="evenodd">
        <path d="M8,0 C12.418278,0 16,3.581722 16,8 C16,12.418278 12.418278,16 8,16 C3.581722,16 0,12.418278 0,8 C0,3.581722 3.581722,0 8,0 Z M9.12375117,4.73170414 C8.91061686,4.57913242 8.61593769,4.60092838 8.42610191,4.79709201 L8.42610191,4.79709201 L8.36282332,4.87535555 C8.21517327,5.09559434 8.23626614,5.40009615 8.42610191,5.59625979 L8.42610191,5.59625979 L10.4084211,7.64457895 L3.74575998,7.64542936 L3.6899996,7.65410342 C3.50804121,7.71124295 3.36842105,8.04376773 3.36842105,8.44542936 L3.36842105,8.44542936 L3.37251238,8.5636475 C3.39946359,8.94941928 3.55630677,9.24542936 3.74575998,9.24542936 L3.74575998,9.24542936 L9.95442105,9.24457895 L8.42610191,10.8247928 L8.36282332,10.9030564 C8.21517327,11.1232952 8.23626614,11.427797 8.42610191,11.6239606 C8.63966716,11.8446447 8.98592484,11.8446447 9.19949008,11.6239606 L9.19949008,11.6239606 L12.1161195,8.6101102 L12.1793981,8.53184666 C12.3270482,8.31160788 12.3059553,8.00710606 12.1161195,7.81094243 L12.1161195,7.81094243 L9.19949008,4.79709201 Z" id="Combined-Shape-Copy-42" fill="#DAA520"></path>
    </g>
</svg>