<svg xmlns="http://www.w3.org/2000/svg" xmlns:xlink="http://www.w3.org/1999/xlink" viewBox="0 0 24 24">
  <defs>
    <path id="download-a" d="M21,16 C21.6,16 22,16.4 22,17 L22,20 C22,21.7 20.7,23 19,23 L5,23 C3.3,23 2,21.7 2,20 L2,17 C2,16.4 2.4,16 3,16 C3.6,16 4,16.4 4,17 L4,20 C4,20.6 4.4,21 5,21 L19,21 C19.6,21 20,20.6 20,20 L20,17 C20,16.4 20.4,16 21,16 Z M11.29925,16.7 L7.29925,12.7 C6.90025,12.3 6.90025,11.7 7.29925,11.3 C7.69925,10.9 8.29925,10.9 8.69925,11.3 L10.99925,13.599 L10.99925,2 C10.99925,1.4 11.40025,1 11.99925,1 C12.59925,1 12.99925,1.4 12.99925,2 L12.99925,13.599 L15.29925,11.3 C15.69925,10.9 16.29925,10.9 16.69925,11.3 C17.09925,11.7 17.09925,12.3 16.69925,12.7 L12.69925,16.7 C12.59925,16.8 12.49925,16.8 12.40025,16.9 C12.29925,17 12.09925,17 11.99925,17 C11.90025,17 11.69925,17 11.59925,16.9 C11.49925,16.9 11.40025,16.8 11.29925,16.7 Z"/>
  </defs>
  <use fill-rule="evenodd" xlink:href="#download-a"/>
</svg>
