<svg xmlns="http://www.w3.org/2000/svg" xmlns:xlink="http://www.w3.org/1999/xlink" viewBox="0 0 24 24">
  <defs>
    <path id="expand-o_3-a" d="M21.9006,2.6 C22.0006,2.701 22.0006,2.901 22.0006,3 L22.0006,9 C22.0006,9.6 21.5996,10 21.0006,10 C20.4006,10 20.0006,9.6 20.0006,9 L20.0006,5.401 L14.7006,10.701 C14.5006,10.901 14.2006,11 14.0006,11 C13.7996,11 13.5006,10.901 13.2996,10.701 C12.9006,10.3 12.9006,9.701 13.2996,9.3 L18.5996,4 L15.0006,4 C14.4006,4 14.0006,3.6 14.0006,3 C14.0006,2.401 14.4006,2 15.0006,2 L21.0006,2 C21.0996,2 21.2996,2 21.4006,2.1 C21.5996,2.201 21.7996,2.401 21.9006,2.6 Z M9.3,13.3002 C9.7,12.9012 10.3,12.9012 10.7,13.3002 C11.1,13.7002 11.1,14.3002 10.7,14.7002 L5.401,20.0002 L9,20.0002 C9.6,20.0002 10,20.4012 10,21.0002 C10,21.6002 9.6,22.0002 9,22.0002 L3,22.0002 C2.901,22.0002 2.7,22.0002 2.6,21.9012 C2.401,21.8002 2.2,21.6002 2.1,21.4012 C2,21.3002 2,21.1002 2,21.0002 L2,15.0002 C2,14.4012 2.401,14.0002 3,14.0002 C3.6,14.0002 4,14.4012 4,15.0002 L4,18.6002 L9.3,13.3002 Z M21.4006,21.9008 C21.2996,22.0008 21.0996,22.0008 21.0006,22.0008 L15.0006,22.0008 C14.4006,22.0008 14.0006,21.5998 14.0006,21.0008 C14.0006,20.4008 14.4006,20.0008 15.0006,20.0008 L18.5996,20.0008 L13.2996,14.7008 C13.0996,14.5008 13.0006,14.2008 13.0006,14.0008 C13.0006,13.7998 13.0996,13.5008 13.2996,13.2998 C13.7006,12.9008 14.2996,12.9008 14.7006,13.2998 L20.0006,18.5998 L20.0006,15.0008 C20.0006,14.4008 20.4006,14.0008 21.0006,14.0008 C21.5996,14.0008 22.0006,14.4008 22.0006,15.0008 L22.0006,21.0008 C22.0006,21.0998 22.0006,21.2998 21.9006,21.4008 C21.7996,21.5998 21.5996,21.7998 21.4006,21.9008 Z M10.7004,9.3002 C11.0994,9.7002 11.0994,10.3002 10.7004,10.7002 C10.3004,11.1002 9.7004,11.1002 9.3004,10.7002 L4.0004,5.4012 L4.0004,9.0002 C4.0004,9.6002 3.5994,10.0002 3.0004,10.0002 C2.4004,10.0002 2.0004,9.6002 2.0004,9.0002 L2.0004,3.0002 C2.0004,2.9012 2.0004,2.7002 2.0994,2.6002 C2.2004,2.4012 2.4004,2.2002 2.5994,2.1002 C2.7004,2.0002 2.9004,2.0002 3.0004,2.0002 L9.0004,2.0002 C9.5994,2.0002 10.0004,2.4012 10.0004,3.0002 C10.0004,3.6002 9.5994,4.0002 9.0004,4.0002 L5.4004,4.0002 L10.7004,9.3002 Z"/>
  </defs>
  <use fill-rule="evenodd" xlink:href="#expand-o_3-a"/>
</svg>
