<svg xmlns="http://www.w3.org/2000/svg" xmlns:xlink="http://www.w3.org/1999/xlink" viewBox="0 0 24 24">
  <defs>
    <path id="fail-network-a" d="M15.0379747,16.1275168 C15.443038,16.1275168 15.6455696,16.3852349 15.8481013,16.642953 C16.0506329,16.9006711 16.0506329,17.2442953 15.8481013,17.5020134 L11.7974684,22.6563758 C11.5949367,22.8281879 11.2911392,23 10.9873418,23 C10.7848101,23 10.5822785,22.914094 10.3797468,22.8281879 C9.87341772,22.5704698 9.7721519,22.0550336 10.0759494,21.6255034 L13.1139241,17.8456376 L8.96202532,17.8456376 C8.55696203,17.8456376 8.25316456,17.6738255 8.15189873,17.4161074 C7.94936709,17.1583893 7.94936709,16.8147651 8.15189873,16.557047 L12.2025316,11.4026846 C12.5063291,10.9731544 13.1139241,10.8872483 13.6202532,11.1449664 C14.1265823,11.4026846 14.2278481,11.9181208 13.9240506,12.347651 L10.8860759,16.1275168 L15.0379747,16.1275168 Z M21.9107678,11.0502997 C22.4340678,13.7318548 20.602518,16.4134098 17.811585,17 C17.7243683,17 17.7243683,17 17.6371517,17 C17.2010684,17 16.8522018,16.7486042 16.7649851,16.3296112 C16.6777685,15.8268197 17.0266351,15.4078267 17.4627184,15.3240281 C19.2942682,14.9888337 20.5153013,13.2290632 20.1664347,11.3854941 C19.8175681,9.79332077 18.4221016,8.70393903 16.7649851,8.70393903 L15.7183852,8.70393903 C15.282302,8.70393903 14.9334353,8.36874464 14.8462187,8.03355026 C14.0612688,4.93300222 10.6598192,3.00563452 7.43280289,3.84362047 C5.86290308,4.17881486 4.46743657,5.18439801 3.68248667,6.52517554 C2.8103201,7.94975166 2.54867013,9.45812639 2.98475342,10.9665011 C3.4208367,12.5586744 4.46743657,13.899452 5.95011973,14.6536393 C6.38620301,14.9050351 6.56063633,15.4078267 6.29898636,15.8268197 C6.03733639,16.2458126 5.51403645,16.3296112 5.07795317,16.0782154 C3.15918673,15.0726323 1.76372023,13.3966604 1.24042029,11.3854941 C0.717120351,9.45812639 1.06598698,7.44696009 2.11258685,5.68718958 C3.24640339,4.01121767 4.90351986,2.75423873 6.99671961,2.25144716 C10.9214691,1.24586401 15.020652,3.3408289 16.3289018,7.02796711 L16.7649851,7.02796711 C19.2070515,7.02796711 21.3874679,8.70393903 21.9107678,11.0502997 Z"/>
  </defs>
  <use fill-rule="nonzero" xlink:href="#fail-network-a"/>
</svg>
