<svg xmlns="http://www.w3.org/2000/svg" xmlns:xlink="http://www.w3.org/1999/xlink" viewBox="0 0 24 24">
  <defs>
    <path id="filterup-a" d="M11.29925,19.7 C11.40025,19.8 11.49925,19.9 11.59925,19.9 C11.69925,20 11.90025,20 11.99925,20 C12.09925,20 12.29925,20 12.40025,19.9 C12.49925,19.8 12.59925,19.8 12.69925,19.7 L16.69925,15.7 C17.09925,15.3 17.09925,14.7 16.69925,14.3 C16.29925,13.9 15.69925,13.9 15.29925,14.3 L12.99925,16.599 L12.99925,5 C12.99925,4.4 12.59925,4 11.99925,4 C11.40025,4 10.99925,4.4 10.99925,5 L10.99925,16.599 L8.69925,14.3 C8.29925,13.9 7.69925,13.9 7.29925,14.3 C6.90025,14.7 6.90025,15.3 7.29925,15.7 L11.29925,19.7 Z"/>
  </defs>
  <use fill-rule="evenodd" transform="matrix(1 0 0 -1 0 24)" xlink:href="#filterup-a"/>
</svg>
