<svg xmlns="http://www.w3.org/2000/svg" xmlns:xlink="http://www.w3.org/1999/xlink" viewBox="0 0 24 24">
  <defs>
    <path id="heat-file-a" d="M21,12.7 C21.6,12.7 22,13.1 22,13.7 L22,19.001 C22,20.7 20.7,22.001 19,22.001 L5,22.001 C3.3,22.001 2,20.7 2,19.001 L2,5 C2,3.301 3.3,2 5,2 L10.3,2 C10.9,2 11.3,2.4 11.3,3 C11.3,3.6 10.9,4 10.3,4 L5,4 C4.4,4 4,4.4 4,5 L4,19.001 C4,19.6 4.4,20.001 5,20.001 L19,20.001 C19.6,20.001 20,19.6 20,19.001 L20,13.7 C20,13.1 20.4,12.7 21,12.7 Z M17.6949739,13.1386104 C17.8353741,13.2178105 17.9379743,13.3504107 17.9793744,13.5058109 C18.0213744,13.6618112 17.9985744,13.8274114 17.9169743,13.9666116 L16.6887725,16.0450146 C16.5225722,16.3258151 16.1637717,16.4236152 15.8769713,16.262215 L14.98237,15.7570142 C14.6223695,16.0432146 14.2227689,16.276615 13.7997683,16.4482152 L13.7997683,17.4004166 C13.7997683,17.7316171 13.5315679,18.0004175 13.1997674,18.0004175 L10.7997639,18.0004175 C10.4685634,18.0004175 10.199763,17.7316171 10.199763,17.4004166 L10.199763,16.4482152 C9.77676239,16.276615 9.37716181,16.0432146 9.01776128,15.7570142 L8.12255998,16.262215 C7.83755956,16.4236152 7.47755904,16.3258151 7.31135879,16.0450146 L6.083157,13.9666116 C6.00095688,13.8274114 5.97875685,13.6618112 6.02075691,13.5058109 C6.06215697,13.3504107 6.16475712,13.2178105 6.30515733,13.1386104 L7.24055869,12.6106096 C7.21355865,12.4054093 7.19975863,12.201409 7.19975863,12.0004087 C7.19975863,11.7994085 7.21355865,11.5954082 7.24055869,11.3896079 L6.30515733,10.8622071 C6.16475712,10.782407 6.06215697,10.6504068 6.02075691,10.4950066 C5.97875685,10.3390063 6.00095688,10.1728061 6.083157,10.0342059 L7.31135879,7.95580285 C7.47755904,7.67500244 7.83755956,7.5784023 8.12255998,7.73860253 L9.01776128,8.24320327 C9.37716181,7.95760285 9.77676239,7.72420251 10.199763,7.55200226 L10.199763,6.60040087 C10.199763,6.26920039 10.4685634,6.0004 10.7997639,6.0004 L13.1997674,6.0004 C13.5315679,6.0004 13.7997683,6.26920039 13.7997683,6.60040087 L13.7997683,7.55200226 C14.2227689,7.72420251 14.6223695,7.95760285 14.98237,8.24320327 L15.8769713,7.73860253 C16.1637717,7.5784023 16.5225722,7.67500244 16.6887725,7.95580285 L17.9169743,10.0342059 C17.9985744,10.1728061 18.0213744,10.3390063 17.9793744,10.4950066 C17.9379743,10.6504068 17.8353741,10.782407 17.6949739,10.8622071 L16.7595726,11.3896079 C16.7865726,11.5954082 16.7997726,11.7994085 16.7997726,12.0004087 C16.7997726,12.201409 16.7865726,12.4054093 16.7595726,12.6106096 L17.6949739,13.1386104 Z M11.9999456,9.60028525 C10.6763437,9.60028525 9.59994213,10.6766868 9.59994213,12.0002887 C9.59994213,13.3238907 10.6763437,14.4002922 11.9999456,14.4002922 C13.3235476,14.4002922 14.3999491,13.3238907 14.3999491,12.0002887 C14.3999491,10.6766868 13.3235476,9.60028525 11.9999456,9.60028525 M15.5997709,12.0004087 C15.5997709,12.2572091 15.5697708,12.5242095 15.5091707,12.7936099 C15.4509707,13.0516103 15.5691708,13.3174107 15.7995712,13.4470109 L16.5717723,13.8826115 L15.9543714,14.927813 L15.2025703,14.5036124 C14.97277,14.3740122 14.6829695,14.4100123 14.4927693,14.5936125 C14.0781687,14.9914131 13.5717679,15.2872135 13.0287671,15.4486138 C12.7743668,15.5242139 12.5997665,15.7582142 12.5997665,16.0240146 L12.5997665,16.8004157 L11.3997648,16.8004157 L11.3997648,16.0240146 C11.3997648,15.7582142 11.2251645,15.5242139 10.9713641,15.4486138 C10.4277633,15.2872135 9.9213626,14.9914131 9.507362,14.5936125 C9.31716172,14.4100123 9.0267613,14.3740122 8.79696096,14.5036124 L8.04575987,14.927813 L7.42775896,13.8826115 L8.19996009,13.4470109 C8.43096043,13.3174107 8.5485606,13.0516103 8.49096051,12.7936099 C8.43036043,12.5242095 8.39976038,12.2572091 8.39976038,12.0004087 C8.39976038,11.7430084 8.43036043,11.476008 8.49096051,11.2072076 C8.5485606,10.9492072 8.43096043,10.6834068 8.19996009,10.5532066 L7.42775896,10.117606 L8.04575987,9.07240448 L8.79696096,9.4966051 C9.0273613,9.62680529 9.31716172,9.59080524 9.507362,9.40720497 C9.9213626,9.00880439 10.4277633,8.71360396 10.9713641,8.55160372 C11.2251645,8.47600361 11.3997648,8.24200327 11.3997648,7.97680288 L11.3997648,7.20040175 L12.5997665,7.20040175 L12.5997665,7.97680288 C12.5997665,8.24200327 12.7743668,8.47600361 13.0287671,8.55160372 C13.5717679,8.71360396 14.0781687,9.00880439 14.4927693,9.40720497 C14.6829695,9.59080524 14.97217,9.62620529 15.2025703,9.4966051 L15.9543714,9.07240448 L16.5717723,10.117606 L15.7995712,10.5532066 C15.5691708,10.6834068 15.4509707,10.9492072 15.5091707,11.2072076 C15.5697708,11.476008 15.5997709,11.7430084 15.5997709,12.0004087 Z M11.9999456,13.2002905 C11.3381447,13.2002905 10.7999439,12.6620897 10.7999439,12.0002887 C10.7999439,11.3384878 11.3381447,10.800287 11.9999456,10.800287 C12.6617466,10.800287 13.1999474,11.3384878 13.1999474,12.0002887 C13.1999474,12.6620897 12.6617466,13.2002905 11.9999456,13.2002905"/>
  </defs>
  <use fill-rule="evenodd" xlink:href="#heat-file-a"/>
</svg>
