<svg xmlns="http://www.w3.org/2000/svg" xmlns:xlink="http://www.w3.org/1999/xlink" viewBox="0 0 24 24">
  <defs>
    <path id="home-a" d="M16.2,17.2759157 C16.2,17.8207326 15.84,18.1839438 15.3,18.1839438 L12.6,18.1839438 L12.6,10.0116909 C12.6,9.46596597 12.24,9.10366276 11.7,9.10366276 L6.3,9.10366276 C5.76,9.10366276 5.4,9.46596597 5.4,10.0116909 L5.4,18.1839438 L2.7,18.1839438 C2.16,18.1839438 1.8,17.8207326 1.8,17.2759157 L1.8,7.7416206 L9,2.11184636 L16.2,7.7416206 L16.2,17.2759157 Z M7.2,18.1839438 L10.8,18.1839438 L10.8,10.919719 L7.2,10.919719 L7.2,18.1839438 Z M17.64,6.56118407 L9.54,0.204987344 C9.18,-0.0683291148 8.73,-0.0683291148 8.46,0.204987344 L0.36,6.56118407 C0.09,6.74188166 0,7.01519812 0,7.28760655 L0,17.2759157 C0,18.8186554 1.17,20 2.7,20 L15.3,20 C16.83,20 18,18.8186554 18,17.2759157 L18,7.28760655 C18,7.01519812 17.91,6.74188166 17.64,6.56118407 Z"/>
  </defs>
  <use fill-rule="evenodd" transform="translate(3 3)" xlink:href="#home-a"/>
</svg>
