<svg xmlns="http://www.w3.org/2000/svg" xmlns:xlink="http://www.w3.org/1999/xlink" viewBox="0 0 24 24">
  <defs>
    <path id="icons_close-a" d="M13.59945,11.9995 L19.6572607,5.94168932 C20.1142464,5.4847036 20.1142464,4.79972501 19.6572607,4.34273929 C19.200275,3.88575357 18.5142964,3.88575357 18.0573107,4.34273929 L11.9995,10.39955 L5.94268929,4.34273929 C5.48570357,3.88575357 4.79972501,3.88575357 4.34273929,4.34273929 C3.88575357,4.79972501 3.88575357,5.4847036 4.34273929,5.94168932 L10.40055,11.9995 L4.34273929,18.0573107 C3.88575357,18.5142964 3.88575357,19.199275 4.34273929,19.6562607 C4.57173213,19.8852536 4.79972501,19.99925 5.14271429,19.99925 C5.48570357,19.99925 5.71369645,19.8852536 5.94268929,19.6562607 L11.9995,13.59945 L18.0573107,19.6562607 C18.2863036,19.8852536 18.6282929,19.99925 18.8572857,19.99925 C19.0852786,19.99925 19.4282679,19.8852536 19.6572607,19.6562607 C20.1142464,19.199275 20.1142464,18.5142964 19.6572607,18.0573107 L13.59945,11.9995 Z"/>
  </defs>
  <use fill-rule="evenodd" xlink:href="#icons_close-a"/>
</svg>
