<svg xmlns="http://www.w3.org/2000/svg" xmlns:xlink="http://www.w3.org/1999/xlink" viewBox="0 0 24 24">
  <defs>
    <path id="icons_trash-a" d="M18,20 C18,20.6 17.6,21 17,21 L7,21 C6.4,21 6,20.6 6,20 L6,7 L18,7 L18,20 Z M9,4 C9,3.4 9.4,3 10,3 L14,3 C14.6,3 15,3.4 15,4 L15,5 L9,5 L9,4 Z M21,5 L17,5 L17,4 C17,2.3 15.7,1 14,1 L10,1 C8.3,1 7,2.3 7,4 L7,5 L3,5 C2.4,5 2,5.4 2,6 C2,6.6 2.4,7 3,7 L4,7 L4,20 C4,21.7 5.3,23 7,23 L17,23 C18.7,23 20,21.7 20,20 L20,7 L21,7 C21.6,7 22,6.6 22,6 C22,5.4 21.6,5 21,5 Z M10,18.0001 C10.6,18.0001 11,17.6001 11,17.0001 L11,11.0001 C11,10.4001 10.6,10.0001 10,10.0001 C9.4,10.0001 9,10.4001 9,11.0001 L9,17.0001 C9,17.6001 9.4,18.0001 10,18.0001 M14,18.0001 C14.6,18.0001 15,17.6001 15,17.0001 L15,11.0001 C15,10.4001 14.6,10.0001 14,10.0001 C13.4,10.0001 13,10.4001 13,11.0001 L13,17.0001 C13,17.6001 13.4,18.0001 14,18.0001"/>
  </defs>
  <use fill-rule="evenodd" xlink:href="#icons_trash-a"/>
</svg>
