<svg xmlns="http://www.w3.org/2000/svg" xmlns:xlink="http://www.w3.org/1999/xlink" viewBox="0 0 24 24">
  <defs>
    <path id="icons_undo-a" d="M22.4,8.69868189 C21.5,6.19868189 19.7,4.19868189 17.299,2.99868189 C14.9,1.79868189 12.2,1.69868189 9.7,2.59868189 C8.299,3.09868189 7,3.89868189 6,4.89868189 L3,7.69868189 L3,3.99868189 C3,3.39868189 2.599,2.99868189 2,2.99868189 C1.4,2.99868189 1,3.39868189 1,3.99868189 L1,9.99868189 L1,10.0986819 L1,10.2986819 C1,10.3986819 1.099,10.3986819 1.099,10.4986819 C1.099,10.4986819 1.099,10.5986819 1.2,10.5986819 C1.299,10.6986819 1.299,10.6986819 1.4,10.6986819 L1.5,10.7986819 L1.599,10.7986819 L1.799,10.7986819 L7.799,10.7986819 C8.4,10.7986819 8.799,10.3986819 8.799,9.79868189 C8.799,9.19868189 8.599,8.99868189 8,8.99868189 L4.5,8.99868189 L7.299,6.29868189 C8.099,5.49868189 9.2,4.79868189 10.299,4.39868189 C12.299,3.69868189 14.5,3.79868189 16.4,4.69868189 C18.299,5.59868189 19.799,7.19868189 20.5,9.29868189 C21.2,11.2986819 21.099,13.4986819 20.2,15.3986819 C19.299,17.2986819 17.7,18.7986819 15.599,19.4986819 C11.4,20.9986819 6.9,18.7986819 5.4,14.5986819 C5.2,14.0986819 4.599,13.7986819 4.099,13.9986819 C3.599,14.1986819 3.299,14.7986819 3.5,15.2986819 C5,19.3986819 8.9,21.9986819 13,21.9986819 C14.099,21.9986819 15.2,21.7986819 16.299,21.3986819 C21.5,19.5986819 24.299,13.8986819 22.4,8.69868189"/>
  </defs>
  <use fill-rule="evenodd" xlink:href="#icons_undo-a"/>
</svg>
