<svg xmlns="http://www.w3.org/2000/svg" xmlns:xlink="http://www.w3.org/1999/xlink" viewBox="0 0 24 24">
  <defs>
    <path id="icons_save-o-22-a" d="M21,20 C21,20.6 20.6,21 20,21 L18,21 L18,12 C18,11.4 17.6,11 17,11 L7,11 C6.4,11 6,11.4 6,12 L6,21 L4,21 C3.4,21 3,20.6 3,20 L3,4 C3,3.4 3.4,3 4,3 L6,3 L6,7 C6,7.6 6.4,8 7,8 L15,8 C15.6,8 16,7.6 16,7 C16,6.4 15.6,6 15,6 L8,6 L8,3 L16.6,3 L21,7.4 L21,20 Z M8,21 L16,21 L16,13 L8,13 L8,21 Z M17.7,1.3 C17.5,1.1 17.3,1 17,1 L4,1 C2.3,1 1,2.3 1,4 L1,20 C1,21.7 2.3,23 4,23 L19,23 C20.7,23 23,21.7 23,20 L23,7 C23,6.7 22.9,6.5 22.7,6.3 L17.7,1.3 Z"/>
  </defs>
  <use fill-rule="evenodd" xlink:href="#icons_save-o-22-a"/>
</svg>
