<svg xmlns="http://www.w3.org/2000/svg" xmlns:xlink="http://www.w3.org/1999/xlink" viewBox="0 0 24 24">
  <defs>
    <path id="icons_search-o-input-a" d="M5.6,10.8 C5.6,7.92 7.92,5.6 10.8,5.6 C13.68,5.6 16,7.92 16,10.8 C16,12.24 15.44,13.52 14.48,14.48 C13.52,15.44 12.24,16 10.8,16 C7.92,16 5.6,13.68 5.6,10.8 M19.76,18.64 L16.16,15.04 C17.04,13.92 17.6,12.4 17.6,10.8 C17.6,7.04 14.56,4 10.8,4 C7.04,4 4,7.04 4,10.8 C4,14.56 7.04,17.6 10.8,17.6 C12.4,17.6 13.84,17.04 15.04,16.16 L18.64,19.76 C18.8,19.92 19.04,20 19.2,20 C19.36,20 19.6,19.92 19.76,19.76 C20.08,19.44 20.08,18.96 19.76,18.64"/>
  </defs>
  <use fill-rule="evenodd" xlink:href="#icons_search-o-input-a"/>
</svg>
