<svg xmlns="http://www.w3.org/2000/svg" xmlns:xlink="http://www.w3.org/1999/xlink" viewBox="0 0 24 24">
  <defs>
    <path id="icons_sync-a" d="M19.0968505,14.5940231 C19.2843826,14.1251928 19.846979,13.8438946 20.3158093,14.0314267 C20.7846396,14.1251928 21.0668755,14.6877892 20.9721717,15.2503855 C20.5033414,16.5631105 19.6603845,17.7820693 18.7227239,18.7197299 C16.940231,20.5012852 14.5960794,21.4389458 12.0643956,21.4389458 C9.53271187,21.4389458 7.18856026,20.5012852 5.59547482,18.7197299 L2.87532129,16.0942801 L2.87532129,19.5636245 C2.87532129,20.1262209 2.50025703,20.5012852 1.93766065,20.5012852 C1.37600192,20.5012852 1,20.1262209 1,19.5636245 L1,13.7178374 C1.12097168,13.2392791 1.43352523,13 1.93766065,13 L7.37609239,13 C7.93962644,13 8.31375303,13.3750643 8.31375303,13.9376606 C8.31375303,14.500257 7.93962644,14.8753213 7.37609239,14.8753213 L4.09428013,14.8753213 L6.71972994,17.313239 C8.22092463,18.813496 10.0962459,19.5636245 12.0643956,19.5636245 C14.0344206,19.5636245 16.0025703,18.813496 17.3162329,17.407005 C18.1591898,16.6568765 18.7227239,15.6254498 19.0968505,14.5940231 Z M21.1246787,4.89122433 C21.1246787,4.32862795 21.499743,3.95356369 22.0623394,3.95356369 C22.6249357,3.95356369 23,4.32862795 23,4.89122433 C23,8.01675982 23,9.89208111 23,10.5171882 C23,11.4548489 22.1561054,11.4548489 22.0623394,11.4548489 L16.4363755,11.4548489 C15.8737791,11.4548489 15.4987148,11.0797846 15.4987148,10.5171882 C15.4987148,9.95459182 15.8737791,9.57952756 16.4363755,9.57952756 L19.7181877,9.57952756 L17.0927379,7.04784382 C16.3426094,6.20394924 15.3111827,5.64135285 14.279756,5.26628859 C12.4044347,4.60992614 10.3415813,4.7036922 8.56002606,5.54758678 C6.77847083,6.48524743 5.37197986,7.98550446 4.71561741,9.86082575 C4.52808528,10.3296561 3.9654889,10.6109543 3.49665857,10.4234221 C3.02782825,10.3296561 2.74653006,9.76705969 2.93406219,9.29822937 C3.77795677,6.86031169 5.46574593,4.9849904 7.71613148,3.95356369 C9.96651703,2.82837091 12.4982008,2.73460485 14.9361184,3.48473336 C16.2488434,3.95356369 17.4678022,4.79745827 18.4054628,5.73511891 L21.1246787,8.36056872 L21.1246787,4.89122433 Z"/>
  </defs>
  <use fill-rule="evenodd" xlink:href="#icons_sync-a"/>
</svg>
