<svg xmlns="http://www.w3.org/2000/svg" xmlns:xlink="http://www.w3.org/1999/xlink" viewBox="0 0 24 24">
  <defs>
    <path id="icons_save-o-20-a" d="M20,19 C20,19.6 19.6,20 19,20 L18,20 L18,13 C18,12.4 17.6,12 17,12 L7,12 C6.4,12 6,12.4 6,13 L6,20 L5,20 C4.4,20 4,19.6 4,19 L4,5 C4,4.4 4.4,4 5,4 L6,4 L6,8 C6,8.6 6.4,9 7,9 L15,9 C15.6,9 16,8.6 16,8 C16,7.4 15.6,7 15,7 L8,7 L8,4 L15.6,4 L20,8.4 L20,19 Z M8,20 L16,20 L16,14 L8,14 L8,20 Z M21.7,7.3 L16.7,2.3 C16.5,2.1 16.3,2 16,2 L5,2 C3.3,2 2,3.3 2,5 L2,19 C2,20.7 3.3,22 5,22 L19,22 C20.7,22 22,20.7 22,19 L22,8 C22,7.7 21.9,7.5 21.7,7.3 Z"/>
  </defs>
  <use fill-rule="evenodd" xlink:href="#icons_save-o-20-a"/>
</svg>
