<svg xmlns="http://www.w3.org/2000/svg" xmlns:xlink="http://www.w3.org/1999/xlink" viewBox="0 0 24 24">
  <defs>
    <path id="icons_close-input-a" d="M13.3329021,12.3331667 L17.1190338,8.54703499 C17.4046499,8.26141892 17.4046499,7.8333073 17.1190338,7.54769122 C16.8334177,7.26207515 16.4046811,7.26207515 16.119065,7.54769122 L12.3329333,11.3331979 L8.54742664,7.54769122 C8.26181057,7.26207515 7.83307396,7.26207515 7.54745789,7.54769122 C7.26184181,7.8333073 7.26184181,8.26141892 7.54745789,8.54703499 L11.3335896,12.3331667 L7.54745789,16.1192984 C7.26184181,16.4049144 7.26184181,16.8330261 7.54745789,17.1186421 C7.69057842,17.2617627 7.83307396,17.3330104 8.04744226,17.3330104 C8.26181057,17.3330104 8.40430611,17.2617627 8.54742664,17.1186421 L12.3329333,13.3331354 L16.119065,17.1186421 C16.2621856,17.2617627 16.4759289,17.3330104 16.6190494,17.3330104 C16.7615449,17.3330104 16.9759132,17.2617627 17.1190338,17.1186421 C17.4046499,16.8330261 17.4046499,16.4049144 17.1190338,16.1192984 L13.3329021,12.3331667 Z"/>
  </defs>
  <use fill-rule="evenodd" xlink:href="#icons_close-input-a"/>
</svg>
