<svg xmlns="http://www.w3.org/2000/svg" xmlns:xlink="http://www.w3.org/1999/xlink" viewBox="0 0 24 24">
  <defs>
    <path id="in_progress-a" d="M16.8892528,1.00067167 C16.6521255,1.02314799 16.4508328,1.18837091 16.3774086,1.42079823 L15.9586266,2.71936929 C15.8342077,2.78596816 15.7105976,2.8521637 15.5956824,2.92943257 L14.2834996,2.66207763 C14.0324878,2.61103505 13.7777494,2.73018631 13.6506739,2.95807534 L12.7572728,4.54309549 C12.6298181,4.76875487 12.6559818,5.05253533 12.8224168,5.24967115 L13.6785927,6.25224451 C13.6738947,6.33490337 13.6692867,6.41630641 13.6692867,6.50050222 C13.6692867,6.58469803 13.6738947,6.66610107 13.6785927,6.74875688 L12.8224168,7.75133024 C12.6559818,7.94846606 12.6298181,8.23224652 12.7572728,8.45790589 L13.6506739,10.042926 C13.7777485,10.2708162 14.0324871,10.3899688 14.2834996,10.3389268 L15.5956824,10.0715719 C15.7105976,10.1488377 15.8342077,10.2150363 15.9586266,10.2816352 L16.3774086,11.5802001 C16.4580219,11.831579 16.687164,12.0011661 16.9450903,12.0003389 L18.7318925,12.0003389 C18.9898188,12.0011662 19.2189611,11.8315791 19.2995745,11.5802001 L19.7183562,10.2816352 C19.8427751,10.2150363 19.9663852,10.1488377 20.0813004,10.0715719 L21.3934831,10.3389268 C21.6444956,10.3899688 21.8992343,10.2708162 22.0263089,10.042926 L22.91971,8.45790589 C23.0471647,8.23224659 23.0210012,7.94846612 22.8545662,7.75133024 L21.9983903,6.74875688 C22.0030883,6.66610107 22.0076963,6.58469803 22.0076963,6.50050222 C22.0076963,6.41630641 22.0030883,6.33490337 21.9983903,6.25224451 L22.8545662,5.24967115 C23.0210012,5.05253526 23.0471647,4.7687548 22.91971,4.54309549 L22.0263089,2.95807534 C21.8992334,2.73018631 21.644495,2.61103505 21.3934831,2.66207763 L20.0813004,2.92943257 C19.9663852,2.8521637 19.8427751,2.78596816 19.7183562,2.71936929 L19.2995745,1.42079823 C19.2189569,1.16942403 18.9898156,0.999842607 18.7318925,1.00067167 L16.9450903,1.00067167 C16.926488,0.999776112 16.9078551,0.999776112 16.8892528,1.00067167 Z M17.3731785,2.22285691 L18.3038045,2.22285691 L18.6574424,3.31136469 C18.7113318,3.47938794 18.8335313,3.61521378 18.9924677,3.68374821 C19.2120208,3.77902652 19.42616,3.91137176 19.6252935,4.06568034 C19.7626503,4.1743391 19.939345,4.21617551 20.1092192,4.18026058 L21.2166641,3.95110009 L21.6819773,4.77225599 L20.9374763,5.64115188 C20.8235917,5.77112577 20.7693918,5.9449068 20.7885762,6.1185701 C20.8040892,6.24530229 20.8164942,6.36935475 20.8164942,6.50050222 C20.8164942,6.63164969 20.8040862,6.7556991 20.7885762,6.88243435 C20.7693927,7.05609662 20.8235925,7.22987636 20.9374763,7.3598495 L21.6819773,8.22874845 L21.2166641,9.0499013 L20.1092192,8.82074386 C19.939345,8.78482893 19.7626503,8.82666535 19.6252935,8.93532411 C19.42616,9.08963268 19.2120208,9.22197792 18.9924677,9.31725623 C18.8335313,9.38579066 18.7113318,9.52161651 18.6574424,9.68963975 L18.3038045,10.7781475 L17.3731785,10.7781475 L17.0195403,9.68963975 C16.965651,9.52161651 16.8434514,9.38579066 16.684515,9.31725623 C16.464962,9.22197792 16.2508231,9.08963268 16.0516892,8.93532411 C15.9143325,8.82666543 15.737638,8.78482902 15.5677638,8.82074386 L14.4603186,9.0499013 L13.9950055,8.22874845 L14.7395065,7.3598495 C14.8533903,7.22987636 14.9075901,7.05609662 14.8884066,6.88243435 C14.8728936,6.7556991 14.8604886,6.63164969 14.8604886,6.50050222 C14.8604886,6.36935475 14.8728936,6.24530229 14.8884066,6.1185701 C14.907591,5.9449068 14.8533911,5.77112577 14.7395065,5.64115188 L13.9950055,4.77225599 L14.4603186,3.95110009 L15.5677638,4.18026058 C15.737638,4.21617542 15.9143325,4.17433901 16.0516892,4.06568034 C16.2508231,3.91137176 16.464962,3.77902652 16.684515,3.68374821 C16.8434514,3.61521378 16.965651,3.47938794 17.0195403,3.31136469 L17.3731785,2.22285691 Z M17.8384914,4.66722435 C16.8516677,4.66722435 16.0516892,5.48801053 16.0516892,6.50050222 C16.0516892,7.51299391 16.8516677,8.33378009 17.8384914,8.33378009 C18.8253151,8.33378009 19.6252935,7.51299391 19.6252935,6.50050222 C19.6252935,5.48801053 18.8253151,4.66722435 17.8384914,4.66722435 Z M17.8384914,5.8894096 C18.167433,5.8894096 18.4340923,6.16300397 18.4340923,6.50050222 C18.4340923,6.83800047 18.167433,7.11159484 17.8384914,7.11159484 C17.5095497,7.11159484 17.2428908,6.83800047 17.2428908,6.50050222 C17.2428908,6.16300397 17.5095497,5.8894096 17.8384914,5.8894096 Z M6.35964143,8.94486966 C6.11761178,8.97028968 5.91497592,9.14417554 5.84779714,9.38409344 L5.39179031,11.007308 C5.08554756,11.1523124 4.79769239,11.3245113 4.52630811,11.5229085 L2.93493719,11.1123397 C2.67706155,11.0458059 2.40743723,11.1626959 2.27419282,11.3987918 L1.08299129,13.5185218 C0.946626896,13.7550456 0.980896094,14.0558665 1.16674762,14.2537494 L2.29280541,15.4377158 C2.27376142,15.6131658 2.24627395,15.7832685 2.24627395,15.9724379 C2.24627395,16.1616073 2.27375992,16.3316489 2.29280541,16.5071294 L1.16674762,17.6911263 C0.980896094,17.8890093 0.946626896,18.1898302 1.08299129,18.4263539 L2.27419282,20.546084 C2.40744436,20.7821705 2.67706707,20.8990499 2.93493719,20.8325117 L4.52630811,20.4219368 C4.79769239,20.6203339 5.08554756,20.792545 5.39179031,20.9375616 L5.84779714,22.560764 C5.92177045,22.8197002 6.15249473,22.99822 6.41547888,23 L8.79788196,23 C9.06086612,22.99822 9.2915904,22.8197002 9.3655637,22.560764 L9.82157054,20.9375616 C10.1278133,20.792545 10.4156682,20.6203339 10.6870527,20.4219368 L12.2784234,20.8325117 C12.5362936,20.8990501 12.8059165,20.7821706 12.939168,20.546084 L14.1303696,18.4263539 C14.2667339,18.1898302 14.2324648,17.8890093 14.0466132,17.6911263 L12.9205554,16.5071294 C12.9395994,16.3316489 12.9670869,16.1616073 12.9670869,15.9724379 C12.9670869,15.7832685 12.9396009,15.6131658 12.9205554,15.4377158 L14.0466132,14.2537494 C14.2324648,14.0558665 14.2667339,13.7550456 14.1303696,13.5185218 L12.939168,11.3987918 C12.8059236,11.1626958 12.5362991,11.0458057 12.2784234,11.1123397 L10.6870527,11.5229085 C10.4156682,11.3245113 10.1278133,11.1523124 9.82157054,11.007308 L9.3655637,9.38409344 C9.29158606,9.12516208 9.06086282,8.94664809 8.79788196,8.94486966 L6.41547888,8.94486966 C6.39687663,8.94397411 6.37824368,8.94397411 6.35964143,8.94486966 Z M6.86217942,10.1670549 L8.35118142,10.1670549 L8.7513505,11.5802001 C8.80203034,11.7630316 8.93273801,11.9112601 9.10498841,11.9812417 C9.51151269,12.1422694 9.89628488,12.3716194 10.2310459,12.6496137 C10.37749,12.7698658 10.5705857,12.812321 10.7521968,12.764197 L12.1388296,12.4109138 L12.8740243,13.7190273 L11.8782543,14.7789076 C11.7474487,14.9183714 11.6887629,15.1131648 11.7200479,15.3040353 C11.7555607,15.5348213 11.7758854,15.7535074 11.7758854,15.9724379 C11.7758854,16.1913378 11.7555604,16.4100239 11.7200479,16.6408099 C11.688753,16.8316904 11.7474395,17.0264975 11.8782543,17.1659681 L12.8740243,18.2258484 L12.1388296,19.533962 L10.7521968,19.1806787 C10.5705857,19.1325548 10.37749,19.17501 10.2310459,19.295262 C9.89628488,19.5732259 9.51151269,19.8026064 9.10498841,19.9636341 C8.93274488,20.0336094 8.80203841,20.1818252 8.7513505,20.3646451 L8.35118142,21.7778086 L6.86217942,21.7778086 L6.46201035,20.3646451 C6.41132243,20.1818252 6.28061596,20.0336094 6.10837243,19.9636341 C5.70184816,19.8026064 5.31707597,19.5732259 4.98231464,19.295262 C4.83587059,19.1750101 4.64277505,19.1325549 4.46116406,19.1806787 L3.07453128,19.533962 L2.33933657,18.2258484 L3.33510657,17.1659681 C3.46592132,17.0264975 3.52460786,16.8316904 3.49331294,16.6408099 C3.45779987,16.4100239 3.43747549,16.1913378 3.43747549,15.9724379 C3.43747549,15.7535074 3.45780047,15.5348213 3.49331294,15.3040353 C3.52459797,15.1131648 3.46591214,14.9183714 3.33510657,14.7789076 L2.33933657,13.7190273 L3.07453128,12.4109138 L4.46116406,12.764197 C4.64277505,12.8123209 4.83587059,12.7698657 4.98231464,12.6496137 C5.31707597,12.3716194 5.70184816,12.1422694 6.10837243,11.9812417 C6.28062283,11.9112601 6.4113305,11.7630316 6.46201035,11.5802001 L6.86217942,10.1670549 Z M7.60668042,13.2225302 C6.13349981,13.2225302 4.92647718,14.460916 4.92647718,15.9724379 C4.92647718,17.4839292 6.13349981,18.7223455 7.60668042,18.7223455 C9.07986133,18.7223455 10.2868837,17.4839292 10.2868837,15.9724379 C10.2868837,14.460916 9.07986133,13.2225302 7.60668042,13.2225302 Z M7.60668042,14.444691 C8.43608795,14.444691 9.09568212,15.1214659 9.09568212,15.9724379 C9.09568212,16.8234099 8.43608795,17.5001542 7.60668042,17.5001542 C6.77727289,17.5001542 6.11767872,16.8234099 6.11767872,15.9724379 C6.11767872,15.1214659 6.77727289,14.444691 7.60668042,14.444691 Z"/>
  </defs>
  <use fill-rule="nonzero" xlink:href="#in_progress-a"/>
</svg>
