<?xml version="1.0" encoding="UTF-8"?>
<svg width="16px" height="16px" viewBox="0 0 16 16" version="1.1" xmlns="http://www.w3.org/2000/svg" xmlns:xlink="http://www.w3.org/1999/xlink">
    <!-- Generator: Sketch 64 (93537) - https://sketch.com -->
    <title>Combined Shape Copy 41</title>
    <desc>Created with Sketch.</desc>
    <g id="Page-1" stroke="none" stroke-width="1" fill="none" fill-rule="evenodd">
        <path d="M8,0 C12.418278,0 16,3.581722 16,8 C16,12.418278 12.418278,16 8,16 C3.581722,16 0,12.418278 0,8 C0,3.581722 3.581722,0 8,0 Z M12.3271727,5.47546344 C12.1034613,5.26841145 11.7542586,5.2819166 11.5472066,5.50562802 L11.5472066,5.50562802 L7.39255991,9.99455828 L4.21429182,7.69473741 C4.20791334,7.69012189 4.20142677,7.68565762 4.19483754,7.68134833 C3.9636477,7.53015254 3.65366289,7.59500054 3.50246711,7.82619038 C3.34081917,8.07336235 3.3979344,8.40346637 3.63323148,8.58195815 L3.63323148,8.58195815 L6.95621439,11.1027082 C7.23819693,11.3166147 7.63548194,11.2863811 7.88184796,11.0322671 L7.88184796,11.0322671 L12.3437903,6.43000131 C12.5869801,6.17916337 12.5983343,5.78412878 12.3699533,5.51973684 C12.3565279,5.50419459 12.3422455,5.4894138 12.3271727,5.47546344 Z" id="Combined-Shape-Copy-41" fill="#4CAF50" fill-rule="nonzero"></path>
    </g>
</svg>