<svg xmlns="http://www.w3.org/2000/svg" viewBox="0 0 24 24">
  <path d="M9,6 C9.55228475,6 10,6.44771525 10,7 C10,7.55228475 9.55228475,8 9,8 L7,8 C4.790861,8 3,9.790861 3,12 C3,14.209139 4.790861,16 7,16 L9,16 C9.55228475,16 10,16.4477153 10,17 C10,17.5522847 9.55228475,18 9,18 L6.5,18 C3.46243388,18 1,15.5375661 1,12.5 L1,11.5 C1,8.46243388 3.46243388,6 6.5,6 L9,6 Z M16,8 L15,8 C14.4477153,8 14,7.55228475 14,7 C14,6.44771525 14.4477153,6 15,6 L16,6 L17.5,6 C20.5375661,6 23,8.46243388 23,11.5 L23,12.5 C23,15.5375661 20.5375661,18 17.5,18 L16,18 L15,18 C14.4477153,18 14,17.5522847 14,17 C14,16.4477153 14.4477153,16 15,16 L16,16 L17,16 C19.209139,16 21,14.209139 21,12 C21,9.790861 19.209139,8 17,8 L16,8 Z M8,11 L16,11 C16.5522847,11 17,11.4477153 17,12 C17,12.5522847 16.5522847,13 16,13 L8,13 C7.44771525,13 7,12.5522847 7,12 C7,11.4477153 7.44771525,11 8,11 Z"/>
</svg>
