<svg xmlns="http://www.w3.org/2000/svg" viewBox="0 0 24 24">
  <path d="M20.9,7.6 C21,7.7 21,7.9 21,8 L21,20 C21,21.7 19.7,23 18,23 L6,23 C4.3,23 3,21.7 3,20 L3,4 C3,2.3 4.3,1 6,1 L14,1 C14.1,1 14.3,1 14.4,1.1 C14.5,1.1 14.6,1.2 14.7,1.3 L20.7,7.3 C20.8,7.4 20.8,7.5 20.9,7.6 Z M15,4.4 L15,7 L17.6,7 L15,4.4 Z M18,21 C18.6,21 19,20.6 19,20 L19,9 L14,9 C13.4,9 13,8.6 13,8 L13,3 L6,3 C5.4,3 5,3.4 5,4 L5,20 C5,20.6 5.4,21 6,21 L18,21 Z M16,12 C16.6,12 17,12.4 17,13 C17,13.6 16.6,14 16,14 L8,14 C7.4,14 7,13.6 7,13 C7,12.4 7.4,12 8,12 L16,12 Z M16,16 C16.6,16 17,16.4 17,17 C17,17.6 16.6,18 16,18 L8,18 C7.4,18 7,17.6 7,17 C7,16.4 7.4,16 8,16 L16,16 Z M8,10 C7.4,10 7,9.6 7,9 C7,8.4 7.4,8 8,8 L10,8 C10.6,8 11,8.4 11,9 C11,9.6 10.6,10 10,10 L8,10 Z"/>
</svg>
