<svg xmlns="http://www.w3.org/2000/svg" xmlns:xlink="http://www.w3.org/1999/xlink" viewBox="0 0 24 24">
  <defs>
    <path id="locked_status-a" d="M8,7 L8,10 L16,10 L16,7 C16,4.8 14.2,3 12,3 C9.8,3 8,4.8 8,7 Z M18,10 L19,10 C20.7,10 22,11.3 22,13 L22,20 C22,21.7 20.7,23 19,23 L5,23 C3.3,23 2,21.7 2,20 L2,13 C2,11.3 3.3,10 5,10 L6,10 L6,7 C6,3.7 8.7,1 12,1 C15.3,1 18,3.7 18,7 L18,10 Z M12.0606061,20.4 C12.3953939,20.4 12.6666667,20.1363861 12.6666667,19.8110502 L12.6666667,17.7737549 C13.4421818,17.5061361 14,16.7878529 14,15.9435344 C14,14.8718813 13.1027879,14 12,14 C10.8972121,14 10,14.8718813 10,15.9435344 C10,16.8311996 10.6164848,17.5801082 11.4545455,17.8116833 L11.4545455,19.8108146 C11.4545455,20.1363861 11.7258182,20.4 12.0606061,20.4 Z M11.2121212,15.94377 C11.2121212,15.5216108 11.5655758,15.1781352 12,15.1781352 C12.4344242,15.1781352 12.7878788,15.5216108 12.7878788,15.94377 C12.7878788,16.3659293 12.4344242,16.7094048 12,16.7094048 C11.5655758,16.7094048 11.2121212,16.3659293 11.2121212,15.94377 Z"/>
  </defs>
  <use fill-rule="evenodd" xlink:href="#locked_status-a"/>
</svg>
