<svg xmlns="http://www.w3.org/2000/svg" viewBox="0 0 24 24">
  <path fill-rule="evenodd" d="M4,1 L20,1 C21.6568542,1 23,2.34314575 23,4 L23,20 C23,21.6568542 21.6568542,23 20,23 L4,23 C2.34314575,23 1,21.6568542 1,20 L1,4 C1,2.34314575 2.34314575,1 4,1 Z M15.4,13.6 L9,13.6 C6.76,13.6 5,15.36 5,17.6 L5,19.2 C5,19.68 5.32,20 5.8,20 C6.28,20 6.6,19.68 6.6,19.2 L6.6,17.6 C6.6,16.24 7.64,15.2 9,15.2 L15.4,15.2 C16.76,15.2 17.8,16.24 17.8,17.6 L17.8,19.2 C17.8,19.68 18.12,20 18.6,20 C19.08,20 19.4,19.68 19.4,19.2 L19.4,17.6 C19.4,15.36 17.64,13.6 15.4,13.6 Z M12.2,5.6 C13.56,5.6 14.6,6.64 14.6,8 C14.6,9.36 13.56,10.4 12.2,10.4 C10.84,10.4 9.8,9.36 9.8,8 C9.8,6.64 10.84,5.6 12.2,5.6 Z M12.2,12 C14.44,12 16.2,10.24 16.2,8 C16.2,5.76 14.44,4 12.2,4 C9.96,4 8.2,5.76 8.2,8 C8.2,10.24 9.96,12 12.2,12 Z"/>
</svg>
