<svg xmlns="http://www.w3.org/2000/svg" viewBox="0 0 24 24">
  <g fill-rule="evenodd">
    <path fill-rule="nonzero" d="M6,3 L18,3 C18.5522847,3 19,3.44771525 19,4 L19,4 C19,4.55228475 18.5522847,5 18,5 L6,5 C5.44771525,5 5,4.55228475 5,4 L5,4 C5,3.44771525 5.44771525,3 6,3 Z"/>
    <path d="M11.29925,20.7 C11.40025,20.8 11.6239578,20.9999396 11.99925,21 C12.3745422,21.0000604 12.59925,20.8 12.69925,20.7 L16.69925,16.7 C17.09925,16.3 17.09925,15.7 16.69925,15.3 C16.29925,14.9 15.69925,14.9 15.29925,15.3 L12.99925,17.599 L12.99925,8 C12.99925,7.4 12.59925,7 11.99925,7 C11.40025,7 10.99925,7.4 10.99925,8 L10.99925,17.599 L8.69925,15.3 C8.29925,14.9 7.69925,14.9 7.29925,15.3 C6.90025,15.7 6.90025,16.3 7.29925,16.7 L11.29925,20.7 Z" transform="matrix(1 0 0 -1 0 28)"/>
    <path fill-rule="nonzero" d="M6,3 L18,3 C18.5522847,3 19,3.44771525 19,4 L19,4 C19,4.55228475 18.5522847,5 18,5 L6,5 C5.44771525,5 5,4.55228475 5,4 L5,4 C5,3.44771525 5.44771525,3 6,3 Z"/>
    <path d="M11.29925,20.7 C11.40025,20.8 11.6239578,20.9999396 11.99925,21 C12.3745422,21.0000604 12.59925,20.8 12.69925,20.7 L16.69925,16.7 C17.09925,16.3 17.09925,15.7 16.69925,15.3 C16.29925,14.9 15.69925,14.9 15.29925,15.3 L12.99925,17.599 L12.99925,8 C12.99925,7.4 12.59925,7 11.99925,7 C11.40025,7 10.99925,7.4 10.99925,8 L10.99925,17.599 L8.69925,15.3 C8.29925,14.9 7.69925,14.9 7.29925,15.3 C6.90025,15.7 6.90025,16.3 7.29925,16.7 L11.29925,20.7 Z" transform="matrix(1 0 0 -1 0 28)"/>
    <path fill-rule="nonzero" d="M6,3 L18,3 C18.5522847,3 19,3.44771525 19,4 L19,4 C19,4.55228475 18.5522847,5 18,5 L6,5 C5.44771525,5 5,4.55228475 5,4 L5,4 C5,3.44771525 5.44771525,3 6,3 Z"/>
    <path d="M11.29925,20.7 C11.40025,20.8 11.6239578,20.9999396 11.99925,21 C12.3745422,21.0000604 12.59925,20.8 12.69925,20.7 L16.69925,16.7 C17.09925,16.3 17.09925,15.7 16.69925,15.3 C16.29925,14.9 15.69925,14.9 15.29925,15.3 L12.99925,17.599 L12.99925,8 C12.99925,7.4 12.59925,7 11.99925,7 C11.40025,7 10.99925,7.4 10.99925,8 L10.99925,17.599 L8.69925,15.3 C8.29925,14.9 7.69925,14.9 7.29925,15.3 C6.90025,15.7 6.90025,16.3 7.29925,16.7 L11.29925,20.7 Z" transform="matrix(1 0 0 -1 0 28)"/>
  </g>
</svg>
