<svg xmlns="http://www.w3.org/2000/svg" viewBox="0 0 24 24">
  <g fill-rule="evenodd">
    <path d="M22.4006,1.1 C22.2996,1 22.0996,1 22.0006,1 L16.0006,1 C15.4006,1 15.0006,1.401 15.0006,2 C15.0006,2.6 15.4006,3 16.0006,3 L19.5996,3 L13.5924932,9.00710678 C13.1934932,9.40810678 13.1934932,10.0071068 13.5924932,10.4081068 C13.7934932,10.6081068 14.0924932,10.7071068 14.2934932,10.7071068 C14.4934932,10.7071068 14.7934932,10.6081068 14.9934932,10.4081068 L21.0006,4.401 L21.0006,8 C21.0006,8.6 21.4006,9 22.0006,9 C22.5996,9 23.0006,8.6 23.0006,8 L23.0006,2 C23.0006,1.901 23.0006,1.701 22.9006,1.6 C22.7996,1.401 22.5996,1.201 22.4006,1.1 Z" transform="rotate(-180 18.147 5.854)"/>
    <path d="M3,19.6002 L3,16.0002 C3,15.4012 2.6,15.0002 2,15.0002 C1.401,15.0002 1,15.4012 1,16.0002 L1,22.0002 C1,22.1002 1,22.3002 1.1,22.4012 C1.2,22.6002 1.401,22.8002 1.6,22.9012 C1.7,23.0002 1.901,23.0002 2,23.0002 L8,23.0002 C8.6,23.0002 9,22.6002 9,22.0002 C9,21.4012 8.6,21.0002 8,21.0002 L4.401,21.0002 L10.4071068,14.9930932 C10.8071068,14.5930932 10.8071068,13.9930932 10.4071068,13.5930932 C10.0071068,13.1940932 9.40710678,13.1940932 9.00710678,13.5930932 L3,19.6002 Z" transform="rotate(-180 5.854 18.147)"/>
    <path d="M22.9006,22.4008 C23.0006,22.2998 23.0006,22.0998 23.0006,22.0008 L23.0006,16.0008 C23.0006,15.4008 22.5996,15.0008 22.0006,15.0008 C21.4006,15.0008 21.0006,15.4008 21.0006,16.0008 L21.0006,19.5998 L14.9934932,13.5926932 C14.5924932,13.1936932 13.9934932,13.1936932 13.5924932,13.5926932 C13.3924932,13.7936932 13.2934932,14.0926932 13.2934932,14.2936932 C13.2934932,14.4936932 13.3924932,14.7936932 13.5924932,14.9936932 L19.5996,21.0008 L16.0006,21.0008 C15.4006,21.0008 15.0006,21.4008 15.0006,22.0008 C15.0006,22.5998 15.4006,23.0008 16.0006,23.0008 L22.0006,23.0008 C22.0996,23.0008 22.2996,23.0008 22.4006,22.9008 C22.5996,22.7998 22.7996,22.5998 22.9006,22.4008 Z" transform="rotate(-180 18.147 18.147)"/>
    <path d="M4.4004,3.0002 L8.0004,3.0002 C8.5994,3.0002 9.0004,2.6002 9.0004,2.0002 C9.0004,1.4012 8.5994,1.0002 8.0004,1.0002 L2.0004,1.0002 C1.9004,1.0002 1.7004,1.0002 1.5994,1.1002 C1.4004,1.2002 1.2004,1.4012 1.0994,1.6002 C1.0004,1.7002 1.0004,1.9012 1.0004,2.0002 L1.0004,8.0002 C1.0004,8.6002 1.4004,9.0002 2.0004,9.0002 C2.5994,9.0002 3.0004,8.6002 3.0004,8.0002 L3.0004,4.4012 L9.00750678,10.4073068 C9.40750678,10.8073068 10.0075068,10.8073068 10.4075068,10.4073068 C10.8065068,10.0073068 10.8065068,9.40730678 10.4075068,9.00730678 L4.4004,3.0002 Z" transform="rotate(-180 5.854 5.854)"/>
  </g>
</svg>
