<svg xmlns="http://www.w3.org/2000/svg" viewBox="0 0 24 24">
  <g fill-rule="evenodd">
    <path d="M21.9006,2.6 C21.7996,2.401 21.5996,2.201 21.4006,2.1 C21.2996,2 21.0996,2 21.0006,2 L15.0006,2 C14.4006,2 14.0006,2.401 14.0006,3 C14.0006,3.6 14.4006,4 15.0006,4 L18.5996,4 L13.2996,9.3 C12.9006,9.701 12.9006,10.3 13.2996,10.701 C13.5006,10.901 13.7996,11 14.0006,11 C14.2006,11 14.5006,10.901 14.7006,10.701 L20.0006,5.401 L20.0006,9 C20.0006,9.6 20.4006,10 21.0006,10 C21.5996,10 22.0006,9.6 22.0006,9 L22.0006,3 C22.0006,2.901 22.0006,2.701 21.9006,2.6" transform="rotate(-180 17.5 6.5)"/>
    <path d="M9.3,13.3002 L4,18.6002 L4,15.0002 C4,14.4012 3.6,14.0002 3,14.0002 C2.401,14.0002 2,14.4012 2,15.0002 L2,21.0002 C2,21.1002 2,21.3002 2.1,21.4012 C2.2,21.6002 2.401,21.8002 2.6,21.9012 C2.7,22.0002 2.901,22.0002 3,22.0002 L9,22.0002 C9.6,22.0002 10,21.6002 10,21.0002 C10,20.4012 9.6,20.0002 9,20.0002 L5.401,20.0002 L10.7,14.7002 C11.1,14.3002 11.1,13.7002 10.7,13.3002 C10.3,12.9012 9.7,12.9012 9.3,13.3002" transform="rotate(-180 6.5 17.5)"/>
    <path d="M21.4006,21.9008 C21.5996,21.7998 21.7996,21.5998 21.9006,21.4008 C22.0006,21.2998 22.0006,21.0998 22.0006,21.0008 L22.0006,15.0008 C22.0006,14.4008 21.5996,14.0008 21.0006,14.0008 C20.4006,14.0008 20.0006,14.4008 20.0006,15.0008 L20.0006,18.5998 L14.7006,13.2998 C14.2996,12.9008 13.7006,12.9008 13.2996,13.2998 C13.0996,13.5008 13.0006,13.7998 13.0006,14.0008 C13.0006,14.2008 13.0996,14.5008 13.2996,14.7008 L18.5996,20.0008 L15.0006,20.0008 C14.4006,20.0008 14.0006,20.4008 14.0006,21.0008 C14.0006,21.5998 14.4006,22.0008 15.0006,22.0008 L21.0006,22.0008 C21.0996,22.0008 21.2996,22.0008 21.4006,21.9008" transform="rotate(-180 17.5 17.5)"/>
    <path d="M10.7004,9.3002 L5.4004,4.0002 L9.0004,4.0002 C9.5994,4.0002 10.0004,3.6002 10.0004,3.0002 C10.0004,2.4012 9.5994,2.0002 9.0004,2.0002 L3.0004,2.0002 C2.9004,2.0002 2.7004,2.0002 2.5994,2.1002 C2.4004,2.2002 2.2004,2.4012 2.0994,2.6002 C2.0004,2.7002 2.0004,2.9012 2.0004,3.0002 L2.0004,9.0002 C2.0004,9.6002 2.4004,10.0002 3.0004,10.0002 C3.5994,10.0002 4.0004,9.6002 4.0004,9.0002 L4.0004,5.4012 L9.3004,10.7002 C9.7004,11.1002 10.3004,11.1002 10.7004,10.7002 C11.0994,10.3002 11.0994,9.7002 10.7004,9.3002" transform="rotate(-180 6.5 6.5)"/>
  </g>
</svg>
