<svg xmlns="http://www.w3.org/2000/svg" viewBox="0 0 24 24">
  <path d="M4.37883959,11 L8.68373151,6.7 C9.08418658,6.3 9.08418658,5.7 8.68373151,5.3 C8.28327645,4.9 7.68259386,4.9 7.28213879,5.3 L1.27531286,11.3 C1.17519909,11.4 1.07508532,11.5 1.07508532,11.6 C0.974971559,11.8 0.974971559,12.1 1.07508532,12.4 C1.17519909,12.5 1.17519909,12.6 1.27531286,12.7 L7.28213879,18.7 C7.48236633,18.9 7.68259386,19 7.98293515,19 C8.28327645,19 8.48350398,18.9 8.68373151,18.7 C9.08418658,18.3 9.08418658,17.7 8.68373151,17.3 L4.37883959,13 L21.9988623,13 C22.5995449,13 23,12.6 23,12 C23,11.4 22.5995449,11 21.9988623,11 L4.37883959,11 Z"/>
</svg>
