<svg xmlns="http://www.w3.org/2000/svg" xmlns:xlink="http://www.w3.org/1999/xlink" viewBox="0 0 24 24">
  <defs>
    <path id="notifications-a" d="M22,16 C22.6,16 23,16.4 23,17 C23,17.6 22.6,18 22,18 L2,18 C1.4,18 1,17.6 1,17 C1,16.4 1.4,16 2,16 C3.1,16 4,15.1 4,14 L4,9 C4,4.6 7.6,1 12,1 C16.4,1 20,4.6 20,9 L20,14 C20,15.1 20.9,16 22,16 Z M14.0968122,20.140954 C14.5968122,20.440954 14.7968122,21.040954 14.2968122,21.540954 C13.6968122,22.540954 12.6968122,23.040954 11.6968122,23.040954 C11.1968122,23.040954 10.6968122,22.940954 10.1968122,22.640954 C9.69681223,22.340954 9.39681223,22.040954 9.09681223,21.540954 C8.89681223,21.040954 8.99581223,20.440954 9.49581223,20.140954 C9.99581223,19.940954 10.5968122,20.040954 10.8968122,20.540954 C10.9958122,20.740954 11.0968122,20.840954 11.2968122,20.940954 C11.7968122,21.140954 12.3968122,21.040954 12.6968122,20.540954 C12.9958122,20.040954 13.5968122,19.840954 14.0968122,20.140954 Z"/>
  </defs>
  <use fill-rule="evenodd" xlink:href="#notifications-a"/>
</svg>
