<svg xmlns="http://www.w3.org/2000/svg" xmlns:xlink="http://www.w3.org/1999/xlink" viewBox="0 0 24 24">
  <defs>
    <path id="pause-a" d="M12,21 C7,21 3,17 3,12 C3,7 7,3 12,3 C17,3 21,7 21,12 C21,17 17,21 12,21 M12,1 C18.1,1 23,5.9 23,12 C23,18.101 18.1,23 12,23 C5.9,23 1,18.101 1,12 C1,5.9 5.9,1 12,1 Z M14,8 C13.4477153,8 13,8.44771525 13,9 L13,15 C13,15.5522847 13.4477153,16 14,16 C14.5522847,16 15,15.5522847 15,15 L15,9 C15,8.44771525 14.5522847,8 14,8 Z M10,8 C9.44771525,8 9,8.44771525 9,9 L9,15 C9,15.5522847 9.44771525,16 10,16 C10.5522847,16 11,15.5522847 11,15 L11,9 C11,8.44771525 10.5522847,8 10,8 Z"/>
  </defs>
  <use fill-rule="evenodd" xlink:href="#pause-a"/>
</svg>
