<svg xmlns="http://www.w3.org/2000/svg" xmlns:xlink="http://www.w3.org/1999/xlink" viewBox="0 0 24 24">
  <defs>
    <path id="pending-a" d="M12,21 C7,21 3,17 3,12 C3,7 7,3 12,3 C17,3 21,7 21,12 C21,17 17,21 12,21 M12,1 C18.1,1 23,5.9 23,12 C23,18.1 18.1,23 12,23 C5.9,23 1,18.1 1,12 C1,5.9 5.9,1 12,1 Z M12.0488812,11.5380604 L8.75288116,7.34206037 C8.38888116,6.92506037 7.75588116,6.88406037 7.34188116,7.24806037 C6.92588116,7.61206037 6.88388116,8.24306037 7.24688116,8.65906037 L11.2468812,13.6590604 C11.4298812,13.8670604 11.6898812,13.9910604 11.9668812,14.0000604 C11.9778812,14.0010604 11.9888812,14.0010604 11.9998812,14.0010604 C12.2648812,14.0010604 12.5198812,13.8960604 12.7068812,13.7080604 L15.7068812,11.7080604 C16.0978812,11.3170604 16.0978812,10.6840604 15.7068812,10.2940604 C15.3158812,9.90306037 14.6838812,9.90306037 14.2928812,10.2940604 L12.0488812,11.5380604 Z"/>
  </defs>
  <use fill-rule="evenodd" xlink:href="#pending-a"/>
</svg>
