<svg xmlns="http://www.w3.org/2000/svg" xmlns:xlink="http://www.w3.org/1999/xlink" viewBox="0 0 24 24">
  <defs>
    <path id="resume-a" d="M12,21 C17,21 21,17 21,12 C21,7 17,3 12,3 C7,3 3,7 3,12 C3,17 7,21 12,21 Z M12,1 C18.1,1 23,5.9 23,12 C23,18.101 18.1,23 12,23 C5.9,23 1,18.101 1,12 C1,5.9 5.9,1 12,1 Z M16.1142006,12.7592566 L11.6507914,16.585036 C11.2314655,16.9444581 10.6001655,16.8958966 10.2407434,16.4765707 C10.0853922,16.2953276 10,16.0644906 10,15.8257794 L10,8.17422064 C10,7.62193589 10.4477153,7.17422064 11,7.17422064 C11.2387113,7.17422064 11.4695483,7.2596128 11.6507914,7.41496403 L16.1142006,11.2407434 C16.5335265,11.6001655 16.582088,12.2314655 16.2226659,12.6507914 C16.1893412,12.6896702 16.1530794,12.7259319 16.1142006,12.7592566 Z"/>
  </defs>
  <use fill-rule="evenodd" xlink:href="#resume-a"/>
</svg>
