<?xml version="1.0" encoding="UTF-8"?>
<svg width="17px" height="16px" viewBox="0 0 17 16" version="1.1" xmlns="http://www.w3.org/2000/svg" xmlns:xlink="http://www.w3.org/1999/xlink">
    <!-- Generator: Sketch 64 (93537) - https://sketch.com -->
    <title>Group 7 Copy 7</title>
    <desc>Created with Sketch.</desc>
    <g id="Page-1" stroke="none" stroke-width="1" fill="none" fill-rule="evenodd">
        <g id="Group-7-Copy-7">
            <path d="M11.6129032,3.89022148e-13 C12.996235,3.89022148e-13 14.1176471,1.12141201 14.1176471,2.50474383 L14.1176471,11.6129032 C14.1176471,12.996235 12.996235,14.1176471 11.6129032,14.1176471 L2.50474383,14.1176471 C1.12141201,14.1176471 -8.80184814e-13,12.996235 -8.80184814e-13,11.6129032 L-8.80184814e-13,2.50474383 C-8.80184814e-13,1.12141201 1.12141201,3.89022148e-13 2.50474383,3.89022148e-13 L11.6129032,3.89022148e-13 Z M11.6129032,1.36622391 L2.50474383,1.36622391 C1.87595664,1.36622391 1.36622391,1.87595664 1.36622391,2.50474383 L1.36622391,11.6129032 C1.36622391,12.2416904 1.87595664,12.7514231 2.50474383,12.7514231 L11.6129032,12.7514231 C12.2416904,12.7514231 12.7514231,12.2416904 12.7514231,11.6129032 L12.7514231,2.50474383 C12.7514231,1.87595664 12.2416904,1.36622391 11.6129032,1.36622391 Z M5.1127005,8.90815096 C5.21466076,8.90815096 5.29731588,9.27826223 5.29731588,9.73481763 C5.29731588,10.1457175 5.23036523,10.4865976 5.14264607,10.5506646 L5.1127005,10.5614843 L3.88193127,10.5614843 C3.77997101,10.5614843 3.69731588,10.191373 3.69731588,9.73481763 C3.69731588,9.32391777 3.76426653,8.98303766 3.85198569,8.91897063 L3.88193127,8.90815096 L5.1127005,8.90815096 Z M10.0359072,8.90815096 C10.305802,8.90815096 10.5245949,9.27826223 10.5245949,9.73481763 C10.5245949,10.191373 10.305802,10.5614843 10.0359072,10.5614843 L10.0359072,10.5614843 L6.77798862,10.5614843 C6.50809381,10.5614843 6.28930083,10.191373 6.28930083,9.73481763 C6.28930083,9.27826223 6.50809381,8.90815096 6.77798862,8.90815096 L6.77798862,8.90815096 Z M5.1127005,6.586751 C5.21466076,6.586751 5.29731588,6.95686227 5.29731588,7.41341767 C5.29731588,7.82431752 5.23036523,8.16519764 5.14264607,8.22926466 L5.1127005,8.24008433 L3.88193127,8.24008433 C3.77997101,8.24008433 3.69731588,7.86997306 3.69731588,7.41341767 C3.69731588,7.00251781 3.76426653,6.6616377 3.85198569,6.59757067 L3.88193127,6.586751 L5.1127005,6.586751 Z M10.0359072,6.586751 C10.305802,6.586751 10.5245949,6.95686227 10.5245949,7.41341767 C10.5245949,7.86997306 10.305802,8.24008433 10.0359072,8.24008433 L10.0359072,8.24008433 L6.77798862,8.24008433 C6.50809381,8.24008433 6.28930083,7.86997306 6.28930083,7.41341767 C6.28930083,6.95686227 6.50809381,6.586751 6.77798862,6.586751 L6.77798862,6.586751 Z M5.1127005,4.26535104 C5.21466076,4.26535104 5.29731588,4.63546232 5.29731588,5.09201771 C5.29731588,5.5485731 5.21466076,5.91868438 5.1127005,5.91868438 L5.1127005,5.91868438 L3.88193127,5.91868438 C3.77997101,5.91868438 3.69731588,5.5485731 3.69731588,5.09201771 C3.69731588,4.63546232 3.77997101,4.26535104 3.88193127,4.26535104 L3.88193127,4.26535104 Z M10.0359072,4.26535104 C10.305802,4.26535104 10.5245949,4.63546232 10.5245949,5.09201771 C10.5245949,5.5485731 10.305802,5.91868438 10.0359072,5.91868438 L10.0359072,5.91868438 L6.77798862,5.91868438 C6.50809381,5.91868438 6.28930083,5.5485731 6.28930083,5.09201771 C6.28930083,4.63546232 6.50809381,4.26535104 6.77798862,4.26535104 L6.77798862,4.26535104 Z" id="Combined-Shape-Copy-30" fill="#9B9B9B" fill-rule="nonzero"></path>
            <g id="Group-4-Copy-2" transform="translate(8.941176, 8.000000)">
                <ellipse id="Oval" fill="#FFFFFF" cx="3.76470588" cy="4" rx="3.29411765" ry="3.05882353"></ellipse>
                <path d="M4,0 C6.209139,0 8,1.790861 8,4 C8,6.209139 6.209139,8 4,8 C1.790861,8 0,6.209139 0,4 C0,1.790861 1.790861,0 4,0 Z M6.16358637,2.73773172 C6.05173066,2.63420573 5.87712929,2.6409583 5.7736033,2.75281401 L5.7736033,2.75281401 L3.69627996,4.99727914 L2.10714591,3.84736871 C2.10395667,3.84506095 2.10071339,3.84282881 2.09741877,3.84067417 C1.98182385,3.76507627 1.82683145,3.79750027 1.75123355,3.91309519 C1.67040959,4.03668117 1.6989672,4.20173318 1.81661574,4.29097907 L1.81661574,4.29097907 L3.23109932,5.36397874 C3.51308186,5.5778852 3.91036687,5.54765167 4.15673289,5.29353769 L4.15673289,5.29353769 L6.17189513,3.21500065 C6.29349006,3.08958169 6.29916715,2.89206439 6.18497665,2.75986842 C6.17826397,2.75209729 6.17112277,2.7447069 6.16358637,2.73773172 Z" id="Combined-Shape" fill="#4CAF50" fill-rule="nonzero"></path>
            </g>
        </g>
    </g>
</svg>