<svg xmlns="http://www.w3.org/2000/svg" xmlns:xlink="http://www.w3.org/1999/xlink" viewBox="0 0 24 24">
  <defs>
    <path id="success_with_warning-a" d="M18.1104456,11.7730949 C17.9356342,11.4667378 17.6297142,11.2482235 17.2800913,11.1608178 C16.9304684,11.0734121 16.5808456,11.117552 16.2749256,11.2919264 C16.1001141,11.3793321 15.9253027,11.5545806 15.837897,11.728955 L12.1668569,17.9784637 C11.817234,18.5903037 12.0357483,19.4210951 12.6475883,19.7702809 C12.8223998,19.9013895 13.0409141,19.9450923 13.2594284,19.9450923 L20.6889143,19.9450923 C21.0389741,19.9450923 21.38816,19.8139838 21.6066743,19.5517666 C21.8688914,19.2895495 22,18.9840665 22,18.6340066 C21.9562971,18.4154923 21.9130313,18.1532751 21.7814857,17.9784637 L18.1104456,11.7730949 Z M17,13.3394342 C16.6666667,13.3394342 16.4444444,13.5616564 16.4444444,13.8949897 L16.4444444,16.117212 C16.4444444,16.4511009 16.6666667,16.6727675 17,16.6727675 C17.3333333,16.6727675 17.5555556,16.4511009 17.5555556,16.117212 L17.5555556,13.8949897 C17.5555556,13.5616564 17.3333333,13.3394342 17,13.3394342 M16.6111111,17.9505453 C16.8333333,17.7283231 17.1666667,17.7283231 17.3888889,17.9505453 C17.5,18.0611009 17.5555556,18.2283231 17.5555556,18.3388786 C17.5555556,18.4499897 17.5,18.6166564 17.3888889,18.7277675 C17.2777778,18.8394342 17.1666667,18.8944342 17,18.8944342 C16.8333333,18.8944342 16.7222222,18.8394342 16.6111111,18.7277675 C16.5,18.6166564 16.4444444,18.5061009 16.4444444,18.3388786 C16.4444444,18.172212 16.5,18.0611009 16.6111111,17.9505453 Z M16.1405332,4.32325 C16.5855332,3.89225 17.2525332,3.89225 17.6965332,4.32325 C18.1405332,4.75425 18.1405332,5.40025 17.6965332,5.83025 L9.444,19.5404891 C9.223,19.7554891 9,19.8634891 8.667,19.8634891 C8.333,19.8634891 8.111,19.7554891 7.889,19.5404891 L2.333,14.1554891 C1.889,13.7244891 1.889,13.0784891 2.333,12.6474891 C2.777,12.2174891 3.444,12.2174891 3.889,12.6474891 L8.667,17.2784891 L16.1405332,4.32325 Z"/>
  </defs>
  <use fill-rule="evenodd" xlink:href="#success_with_warning-a"/>
</svg>
