<svg xmlns="http://www.w3.org/2000/svg" viewBox="0 0 24 24">
  <path fill-rule="evenodd" d="M16.3067017,18.6866321 L16.3067017,21 C16.3067017,21.0484184 16.3042916,21.0986448 16.299375,21.1495985 C16.3101745,21.2003214 16.3158572,21.2529376 16.3158572,21.306881 C16.315858,22.2637147 15.5207608,23.0588119 14.5639271,23.0588111 L10.5626738,23.0588112 C9.60584018,23.0588103 8.81074474,22.2637148 8.81074384,21.3068812 L8.81074409,11.3037478 C8.5822903,11.1304846 8.34898796,10.9635768 8.14202634,10.7566151 C5.70650902,8.32109781 5.70650841,4.34958443 8.14202656,1.91406628 C8.85135586,1.20473698 9.690599,0.691939514 10.5903073,0.394253139 C10.8195092,0.317287558 11.0717544,0.35547482 11.2679042,0.496834187 C11.464054,0.638193554 11.5800751,0.865404857 11.5795674,1.10718362 L11.5795673,5.93742593 L13.580194,5.93742588 L13.5801941,1.11823675 C13.5796865,0.876457994 13.6957076,0.649246685 13.8918574,0.507887309 C14.0880072,0.366527932 14.3402524,0.328340658 14.5694543,0.405306228 C15.4554773,0.704609154 16.2851776,1.21466822 16.9845754,1.91406607 C19.4200998,4.34959046 19.4200933,8.32109677 16.9845752,10.7566149 C16.7776129,10.9635773 16.5443229,11.130495 16.3158574,11.3037476 L16.3213838,18.5380579 C16.3213838,18.5889208 16.3163316,18.6386037 16.3067017,18.6866321 Z M14.8295898,18.6694151 C14.8220718,18.6267616 14.8181505,18.5828677 14.8181505,18.538058 L14.8126241,10.9500457 C14.8125952,10.6955138 14.9415954,10.4583198 15.1552729,10.3200141 C15.4257683,10.1437096 15.6828222,9.93615623 15.9234694,9.69550908 C17.7855234,7.833455 17.7855228,4.83722524 15.9234695,2.97517196 C15.6619565,2.71365888 15.3808796,2.48863778 15.0834274,2.30092763 L15.0834273,6.68904249 C15.0837535,6.88848346 15.0046703,7.07984971 14.8636441,7.22087596 C14.7226178,7.36190221 14.5312516,7.4409854 14.3318106,7.44065916 L10.8279506,7.44065925 C10.6285097,7.4409855 10.4371434,7.36190231 10.2961172,7.22087607 C10.1550909,7.07984983 10.0760078,6.88848358 10.076334,6.68904262 L10.0763341,2.27882138 C9.76655893,2.47069001 9.47415829,2.70414622 9.20313239,2.97517212 C7.34107832,4.8372262 7.34107895,7.83345597 9.20313223,9.69550925 C9.44377866,9.93615567 9.70083667,10.1437064 9.97132865,10.3200142 C10.1850061,10.4583199 10.3140063,10.6955139 10.3139774,10.9500458 L10.3139771,21.3068812 C10.313977,21.4585134 10.4110416,21.555578 10.5626738,21.5555779 L14.5639272,21.5555778 C14.7155594,21.5555776 14.8126237,21.4585133 14.8126239,21.3068811 C14.8126239,21.2521377 14.8184764,21.1987614 14.8295898,21.1473434 L14.8295898,18.6694151 Z" transform="rotate(45 12.563 11.707)"/>
</svg>
