<svg xmlns="http://www.w3.org/2000/svg" xmlns:xlink="http://www.w3.org/1999/xlink" viewBox="0 0 24 24">
  <defs>
    <path id="undo_resume-a" d="M16.4563422,4.16519597 C15.1453036,3.42275826 13.6254966,3 12,3 C7,3 3,7 3,12 C3,13.2871289 3.26507211,14.5079897 3.74403903,15.6114052 L2.19304623,17.0079254 C1.42971172,15.5080352 1,13.8067231 1,12 C1,5.9 5.9,1 12,1 C14.2206328,1 16.282237,1.64936653 18.006311,2.76959785 L16.4563422,4.16519597 Z M4.74897149,17.3565628 C4.74948921,17.357265 4.75000703,17.3579671 4.75052495,17.3586691 L6.1390937,16.1083962 L20.4994512,3.21448112 C20.5590368,3.16098032 20.610719,3.10191041 20.6544013,3.03875452 L21.0649103,2.66913061 C21.4753378,2.29957998 22.1076351,2.33271727 22.4771857,2.74314483 C22.8467363,3.15357238 22.8135991,3.78586963 22.4031715,4.15542026 L20.8979143,5.51075996 C22.2211475,7.32678613 23,9.56802338 23,12 C23,18.101 18.1,23 12,23 C9.15127685,23 6.56426476,21.9315646 4.61580888,20.1712335 L3.08140604,21.552816 C2.67097848,21.9223667 2.03868124,21.8892294 1.66913061,21.4788018 C1.29957998,21.0683742 1.33271727,20.436077 1.74314483,20.0665264 L3.25988188,18.7008502 C3.25878349,18.6994165 3.25768544,18.6979825 3.25658774,18.6965482 L4.74897149,17.3565628 Z M10,9.97851262 L10,8.17422064 C10,7.62193589 10.4477153,7.17422064 11,7.17422064 C11.2387113,7.17422064 11.4695483,7.2596128 11.6507914,7.41496403 L12.2636737,7.94029171 L10,9.97851262 Z M19.40334,6.85648069 L15.3047154,10.5468989 L16.1142006,11.2407434 C16.5335265,11.6001655 16.582088,12.2314655 16.2226659,12.6507914 C16.1893412,12.6896702 16.1530794,12.7259319 16.1142006,12.7592566 L11.6507914,16.585036 C11.2314655,16.9444581 10.6001655,16.8958966 10.2407434,16.4765707 C10.0853922,16.2953276 10,16.0644906 10,15.8257794 L10,15.323286 L6.11024107,18.8256407 C7.68455892,20.1828853 9.74014013,21 12,21 C17,21 21,17 21,12 C21,10.0818658 20.4113218,8.3109012 19.40334,6.85648069 Z"/>
  </defs>
  <use fill-rule="evenodd" xlink:href="#undo_resume-a"/>
</svg>
