<svg xmlns="http://www.w3.org/2000/svg" xmlns:xlink="http://www.w3.org/1999/xlink" viewBox="0 0 24 24">
  <defs>
    <path id="undo-delete-a" d="M6,18.0117031 L6,20 C6,20.6 6.4,21 7,21 L17,21 C17.6,21 18,20.6 18,20 L18,7.20685458 L14.658744,10.215335 C14.874537,10.39077 15,10.6640692 15,11.0001 L15,17.0001 C15,17.6001 14.6,18.0001 14,18.0001 C13.4,18.0001 13,17.6001 13,17.0001 L13,11.7088748 L11,13.5096829 L11,17.2501 C11,17.7001 10.6,18.0001 10,18.0001 C9.4,18.0001 9,17.7001 9,17.2501 L9,15.310491 L6,18.0117031 Z M20.4509603,5 L21,5 C21.6,5 22,5.4 22,6 C22,6.6 21.6,7 21,7 L20,7 L20,20 C20,21.7 18.7,23 17,23 L7,23 C5.3,23 4,21.7 4,20 L4,19.8125112 L3.48572809,20.2755637 C3.07530054,20.6451143 2.44300329,20.611977 2.07345266,20.2015495 C1.70390203,19.7911219 1.73703932,19.1588247 2.14746688,18.7892741 L21.4692323,1.39187829 C21.8796599,1.02232766 22.5119571,1.05546495 22.8815078,1.46589251 C23.2510584,1.87632006 23.2179211,2.50861731 22.8074936,2.87816794 L20.4509603,5 Z M6,12.6291722 L4,14.4299803 L4,7 L3,7 C2.4,7 2,6.6 2,6 C2,5.4 2.4,5 3,5 L7,5 L7,4 C7,2.3 8.3,1 10,1 L14,1 C15.3087692,1 16.380462,1.77049822 16.8044161,2.90083227 L15,4.52553579 L15,4 C15,3.4 14.6,3 14,3 L10,3 C9.4,3 9,3.4 9,4 L9,5 L14.4730541,5 L12.2518291,7 L6,7 L6,12.6291722 Z"/>
  </defs>
  <use fill-rule="evenodd" xlink:href="#undo-delete-a"/>
</svg>
