<svg xmlns="http://www.w3.org/2000/svg" viewBox="0 0 24 24">
  <path fill-rule="evenodd" d="M8.7,9.67525 C8.3,10.07425 7.7,10.07425 7.3,9.67525 C6.9,9.27525 6.9,8.67525 7.3,8.27525 L11.3,4.27525 C11.4,4.17525 11.5,4.17525 11.599,4.07425 C11.9,3.97525 12.2,3.97525 12.4,4.07425 C12.5,4.07425 12.599,4.17525 12.7,4.27525 L16.7,8.27525 C17.099,8.67525 17.099,9.27525 16.7,9.67525 C16.5,9.87525 16.3,9.97525 16,9.97525 C15.7,9.97525 15.5,9.87525 15.3,9.67525 L13,7.37525 L13,18.97525 C13,19.57425 12.599,19.97525 12,19.97525 C11.4,19.97525 11,19.57425 11,18.97525 L11,7.37525 L8.7,9.67525 Z M10,21 L14,21 C14.5522847,21 15,21.4477153 15,22 C15,22.5522847 14.5522847,23 14,23 L10,23 C9.44771525,23 9,22.5522847 9,22 C9,21.4477153 9.44771525,21 10,21 Z M6,1 L18,1 C18.5522847,1 19,1.44771525 19,2 C19,2.55228475 18.5522847,3 18,3 L6,3 C5.44771525,3 5,2.55228475 5,2 C5,1.44771525 5.44771525,1 6,1 Z"/>
</svg>
