<svg id="Layer_1" data-name="Layer 1" xmlns="http://www.w3.org/2000/svg" viewBox="0 0 24 24"><defs><style>.cls-1{fill-rule:evenodd;}</style></defs><title>Call control_24px </title><path class="cls-1" d="M15.92,13h-.58c-.54,0-1.05,0-1.59,0a1.25,1.25,0,0,0-1,.29l-.12.19a3,3,0,0,1-.16.36,2.19,2.19,0,0,1-1.7-.52,3.9,3.9,0,0,1-1.51-2.68,3.64,3.64,0,0,1,.44-.31l.1-.07a1.14,1.14,0,0,0,.27-1.14,6.18,6.18,0,0,1-.32-2A1.12,1.12,0,0,0,8.62,6H6.11A1.11,1.11,0,0,0,5,7.11,10.89,10.89,0,0,0,15.9,18,1.11,1.11,0,0,0,17,16.85V14.31A1.26,1.26,0,0,0,15.92,13ZM16,16.85a.11.11,0,0,1-.11.11A9.89,9.89,0,0,1,6,7.11.11.11,0,0,1,6.11,7H8.62a.12.12,0,0,1,.12.11,7.23,7.23,0,0,0,.37,2.32s0,.06,0,.09c-.84.51-.85.79-.85,1a4.75,4.75,0,0,0,1.89,3.64,3,3,0,0,0,2.71.67c.11,0,.37-.11.64-.78h.19c.58,0,1.11,0,1.67,0h.52a.44.44,0,0,1,.14.29Z"/><polygon class="cls-1" points="15 10.99 14.25 10.25 16 8.5 15.5 8 13.75 9.75 13 9 13 10.99 15 10.99"/><polygon class="cls-1" points="13.5 8 15.25 6.25 16 7 16 5 14 5 14.75 5.75 13 7.5 13.5 8"/></svg>