<svg id="Layer_1" data-name="Layer 1" xmlns="http://www.w3.org/2000/svg" viewBox="0 0 24 24"><title>Compute as Service_24px </title><path d="M14.5,10h-4A1.5,1.5,0,0,0,9,11.5v8A1.5,1.5,0,0,0,10.5,21h4A1.5,1.5,0,0,0,16,19.5v-8A1.5,1.5,0,0,0,14.5,10Zm.5,9.5a.5.5,0,0,1-.5.5h-4a.5.5,0,0,1-.5-.5v-8a.5.5,0,0,1,.5-.5h4a.5.5,0,0,1,.5.5Z"/><path d="M12.85,18.15a.49.49,0,0,0-.54-.11.53.53,0,0,0-.27.27.43.43,0,0,0,0,.19.45.45,0,0,0,.15.35.36.36,0,0,0,.16.11.41.41,0,0,0,.19,0,.47.47,0,0,0,.35-.15.36.36,0,0,0,.11-.16.41.41,0,0,0,0-.19.43.43,0,0,0,0-.19A.36.36,0,0,0,12.85,18.15Z"/><path d="M13.5,12h-2a.5.5,0,0,0,0,1h2a.5.5,0,0,0,0-1Z"/><path d="M13.5,14h-2a.5.5,0,0,0,0,1h2a.5.5,0,0,0,0-1Z"/><path d="M20.23,8.25a2.93,2.93,0,0,0-1.56-1.12A4.41,4.41,0,0,0,15,5h-.43a5.2,5.2,0,0,0-4.16-2A4.46,4.46,0,0,0,6.07,7,3.27,3.27,0,0,0,3.93,8,3.74,3.74,0,0,0,3,10.5,3.39,3.39,0,0,0,6.25,14H7.5a.5.5,0,0,0,0-1H6.25A2.39,2.39,0,0,1,4,10.5a2.71,2.71,0,0,1,.67-1.78A2.18,2.18,0,0,1,6.25,8H7l0-.48A3.54,3.54,0,0,1,10.41,4a4.15,4.15,0,0,1,3.48,1.78L14,6h1a3.34,3.34,0,0,1,2.9,1.8L18,8l.24,0a1.86,1.86,0,0,1,1.19.8A2.67,2.67,0,0,1,20,10.5a2.71,2.71,0,0,1-.67,1.78,2.18,2.18,0,0,1-1.58.72H17.5a.5.5,0,0,0,0,1h.25a3.24,3.24,0,0,0,2.32-1A3.74,3.74,0,0,0,21,10.5,3.63,3.63,0,0,0,20.23,8.25Z"/></svg>