<svg id="Layer_1" data-name="Layer 1" xmlns="http://www.w3.org/2000/svg" viewBox="0 0 24 24"><title>S_24px</title><path d="M15.46,13.87a2,2,0,0,1-.83,1.73,3.88,3.88,0,0,1-2.36.61,5.67,5.67,0,0,1-2.49-.47V14.32a6.11,6.11,0,0,0,2.54.63c1,0,1.52-.3,1.52-.91a.68.68,0,0,0-.17-.49,1.9,1.9,0,0,0-.55-.41,9.36,9.36,0,0,0-1.07-.47,5.17,5.17,0,0,1-1.81-1,2,2,0,0,1-.47-1.35,1.75,1.75,0,0,1,.8-1.53,3.78,3.78,0,0,1,2.18-.55,6.13,6.13,0,0,1,2.58.55L14.8,10a5.81,5.81,0,0,0-2.1-.51c-.87,0-1.31.24-1.31.74a.76.76,0,0,0,.34.61,7.28,7.28,0,0,0,1.48.69,7.31,7.31,0,0,1,1.4.68,2,2,0,0,1,.64.71A2.06,2.06,0,0,1,15.46,13.87Z"/></svg>