<svg id="Layer_1" data-name="Layer 1" xmlns="http://www.w3.org/2000/svg" viewBox="0 0 24 24"><title>Network L4_24px</title><path d="M17.94,7.05a5.27,5.27,0,0,0-5-4C9.78,2.84,8.53,4.17,8,5.32A.5.5,0,1,0,9,5.71C9.49,4.49,10.83,3.9,12.86,4H13a4.2,4.2,0,0,1,4,3.54L17,8h.45A2.61,2.61,0,0,1,20,10.51,2.44,2.44,0,0,1,17.5,13H6.5A2.57,2.57,0,0,1,4,10.51a2.41,2.41,0,0,1,.85-1.64c.32-.31,2.11-1.1,4.3,1a.5.5,0,0,0,.7-.72c-2.55-2.44-4.94-1.73-5.7-1A3.38,3.38,0,0,0,3,10.51,3.54,3.54,0,0,0,6.5,14h11A3.61,3.61,0,0,0,20,13a3.66,3.66,0,0,0,1-2.51A3.58,3.58,0,0,0,17.94,7.05Z"/><path d="M15,16H14l-2,3.23V20h2v1h1.1V20H16V19h-.9ZM14,18.3V19H13l1-1.83Z"/><polygon points="9.01 16.01 7.97 16.01 7.97 21.01 11.01 21.01 11.01 20 9 20 9.01 16.01"/></svg>