<svg id="Layer_1" data-name="Layer 1" xmlns="http://www.w3.org/2000/svg" viewBox="0 0 24 24"><title>Network L1-3_24px </title><polygon points="6.01 16.01 4.97 16.01 4.97 21.01 8.01 21.01 8.01 20 6 20 6.01 16.01"/><polygon points="10.46 17.54 11 18.01 12 17.08 12.01 17.79 12 18.24 12 21.01 13.01 21.01 13.01 16.01 12 16.01 10.46 17.54"/><rect x="14" y="18" width="2" height="0.99"/><path d="M18.93,18.4v0a1.24,1.24,0,0,0,.69-.44,1.19,1.19,0,0,0,.25-.77,1,1,0,0,0-.39-.86,1.71,1.71,0,0,0-1.06-.3,2.2,2.2,0,0,0-1.42.48l.42.7a1.91,1.91,0,0,1,.5-.27,1.09,1.09,0,0,1,.43-.08c.41,0,.62.18.62.55a.55.55,0,0,1-.24.51,1.37,1.37,0,0,1-.73.15h-.34v.78H18a1.64,1.64,0,0,1,.8.15.52.52,0,0,1,.24.49.67.67,0,0,1-.21.55,1.05,1.05,0,0,1-.67.17,1.79,1.79,0,0,1-.6-.09,2.13,2.13,0,0,1-.56-.23v.88a3,3,0,0,0,1.26.26,1.91,1.91,0,0,0,1.29-.39A1.38,1.38,0,0,0,20,19.53a1.06,1.06,0,0,0-.27-.77A1.33,1.33,0,0,0,18.93,18.4Z"/><path d="M17.5,14A3.61,3.61,0,0,0,20,13a3.66,3.66,0,0,0,1-2.51,3.58,3.58,0,0,0-3.06-3.46,5.27,5.27,0,0,0-5-4C9.78,2.84,8.53,4.17,8,5.32A.5.5,0,1,0,9,5.71C9.49,4.49,10.83,3.9,12.86,4H13a4.2,4.2,0,0,1,4,3.54L17,8h.45A2.61,2.61,0,0,1,20,10.51,2.44,2.44,0,0,1,17.5,13H6.5A2.57,2.57,0,0,1,4,10.51a2.41,2.41,0,0,1,.85-1.64c.32-.31,2.11-1.1,4.3,1a.5.5,0,0,0,.7-.72c-2.55-2.44-4.94-1.73-5.7-1A3.38,3.38,0,0,0,3,10.51,3.54,3.54,0,0,0,6.5,14Z"/></svg>