<svg xmlns="http://www.w3.org/2000/svg" viewBox="0 0 24 24"><title>Platform as Service_24px</title><g id="Layer_2" data-name="Layer 2"><path d="M20.23,8.25a2.93,2.93,0,0,0-1.56-1.12A4.41,4.41,0,0,0,15,5h-.43a5.2,5.2,0,0,0-4.16-2,4.43,4.43,0,0,0-4.3,4A3.24,3.24,0,0,0,3.93,8,3.74,3.74,0,0,0,3,10.5,3.39,3.39,0,0,0,6.25,14h.26a.5.5,0,0,0,0-1H6.25A2.39,2.39,0,0,1,4,10.5a2.71,2.71,0,0,1,.67-1.78A2.18,2.18,0,0,1,6.25,8H7l0-.48A3.52,3.52,0,0,1,10.41,4a4.15,4.15,0,0,1,3.48,1.78L14,6h1a3.34,3.34,0,0,1,2.9,1.8L18,8l.24,0a1.86,1.86,0,0,1,1.19.8A2.67,2.67,0,0,1,20,10.5a2.71,2.71,0,0,1-.67,1.78,2.18,2.18,0,0,1-1.58.72h-.26a.5.5,0,0,0,0,1h.26a3.24,3.24,0,0,0,2.32-1A3.74,3.74,0,0,0,21,10.5,3.63,3.63,0,0,0,20.23,8.25Z"/><path d="M16,14.54a.49.49,0,0,0-.38-.48l-.75-.19,0-.1.4-.66a.53.53,0,0,0-.08-.62l-.64-.64a.51.51,0,0,0-.36-.15.59.59,0,0,0-.26.07l-.66.4-.1,0-.19-.75a.49.49,0,0,0-.48-.38h-.92a.49.49,0,0,0-.48.38l-.19.75-.1,0-.66-.4a.59.59,0,0,0-.26-.07.51.51,0,0,0-.36.15l-.64.64a.53.53,0,0,0-.08.62l.4.66,0,.1-.75.19a.49.49,0,0,0-.38.48v.92a.49.49,0,0,0,.38.48l.75.19,0,.1-.4.66a.53.53,0,0,0,.08.62l.64.64a.51.51,0,0,0,.36.15.59.59,0,0,0,.26-.07l.66-.4.1,0,.19.75a.49.49,0,0,0,.48.38h.92a.49.49,0,0,0,.48-.38l.19-.75.1,0,.66.4a.59.59,0,0,0,.26.07.51.51,0,0,0,.36-.15l.64-.64a.53.53,0,0,0,.08-.62l-.4-.66,0-.1.75-.19a.49.49,0,0,0,.38-.48Zm-.5.92-1,.25a2.66,2.66,0,0,1-.23.55h0l.54.89-.65.65-.89-.54h0a2.66,2.66,0,0,1-.55.23l-.25,1h-.92l-.25-1a2.66,2.66,0,0,1-.55-.23h0l-.89.54-.65-.65.54-.89h0a2.66,2.66,0,0,1-.23-.55l-1-.25v-.92l1-.25a2.66,2.66,0,0,1,.23-.55h0l-.54-.89.65-.65.89.54h0a2.66,2.66,0,0,1,.55-.23l.25-1h.92l.25,1a2.66,2.66,0,0,1,.55.23h0l.89-.54.65.65-.54.89h0a2.66,2.66,0,0,1,.23.55l1,.25Z"/><path d="M18.56,16.44h-.62L17.5,16l-.44.44h-.62v.62L16,17.5l.44.44v.62h.62l.44.44.44-.44h.62v-.62L19,17.5l-.44-.44ZM17.5,18.3a.8.8,0,1,1,.8-.8A.8.8,0,0,1,17.5,18.3Z"/><path d="M12,14a1,1,0,1,0,1,1A1,1,0,0,0,12,14Zm0,1.5a.5.5,0,0,1-.5-.5.5.5,0,0,1,1,0A.5.5,0,0,1,12,15.49Z"/></g></svg>