<svg id="Layer_1" data-name="Layer 1" xmlns="http://www.w3.org/2000/svg" viewBox="0 0 24 24"><defs><style>.cls-1{fill-rule:evenodd;}</style></defs><title>Platform as Service_24px</title><path class="cls-1" d="M20.23,8.25a2.93,2.93,0,0,0-1.56-1.12A4.41,4.41,0,0,0,15,5h-.43a5.2,5.2,0,0,0-4.16-2,4.43,4.43,0,0,0-4.3,4A3.24,3.24,0,0,0,3.93,8,3.74,3.74,0,0,0,3,10.5,3.39,3.39,0,0,0,6.25,14h.26a.5.5,0,0,0,0-1H6.25A2.39,2.39,0,0,1,4,10.5a2.71,2.71,0,0,1,.67-1.78A2.18,2.18,0,0,1,6.25,8H7l0-.48A3.52,3.52,0,0,1,10.41,4a4.15,4.15,0,0,1,3.48,1.78L14,6h1a3.34,3.34,0,0,1,2.9,1.8L18,8l.24,0a1.86,1.86,0,0,1,1.19.8A2.67,2.67,0,0,1,20,10.5a2.71,2.71,0,0,1-.67,1.78,2.18,2.18,0,0,1-1.58.72h-.26a.5.5,0,0,0,0,1h.26a3.24,3.24,0,0,0,2.32-1A3.74,3.74,0,0,0,21,10.5,3.63,3.63,0,0,0,20.23,8.25Z"/><path class="cls-1" d="M15.82,14.57,15,13.76V12.6a.6.6,0,0,0-.6-.61H13.24l-.81-.81a.6.6,0,0,0-.86,0l-.81.81H9.6a.6.6,0,0,0-.6.61v1.16l-.82.81a.6.6,0,0,0,0,.86l.82.81V17.4a.59.59,0,0,0,.6.6h1.16l.81.82a.6.6,0,0,0,.86,0l.81-.82H14.4a.59.59,0,0,0,.6-.6V16.24l.82-.81A.6.6,0,0,0,15.82,14.57Zm-1.52,1-.3.29V17H12.83l-.29.3-.54.54-.54-.54-.29-.3H10V15.83l-.3-.29L9.16,15l.54-.54.3-.29V13h1.17l.29-.29.54-.54.54.54.29.29H14v1.18l.3.29.54.54Z"/><circle cx="12" cy="15" r="1"/><path class="cls-1" d="M18.56,16.44h-.62L17.5,16l-.44.44h-.62v.62L16,17.5l.44.44v.62h.62l.44.44.44-.44h.62v-.62L19,17.5l-.44-.44ZM17.5,18.3a.8.8,0,1,1,.8-.8A.8.8,0,0,1,17.5,18.3Z"/></svg>