<svg id="Layer_1" data-name="Layer 1" xmlns="http://www.w3.org/2000/svg" viewBox="0 0 24 24"><title>Storage as Service_24px</title><path d="M16.25,10H7.75a.76.76,0,0,0-.75.75v1.5a.76.76,0,0,0,.75.75H8v4.25a.76.76,0,0,0,.75.75h6.5a.76.76,0,0,0,.75-.75V13h.25a.76.76,0,0,0,.75-.75v-1.5A.76.76,0,0,0,16.25,10ZM15,17H9V13h6Zm1-5H8V11h8Z"/><path d="M10.5,15h3a.5.5,0,0,0,0-1h-3a.5.5,0,0,0,0,1Z"/><path d="M20.23,9.25a2.93,2.93,0,0,0-1.56-1.12A4.41,4.41,0,0,0,15,6h-.43a5.2,5.2,0,0,0-4.16-2,4.43,4.43,0,0,0-4.3,4A3.24,3.24,0,0,0,3.93,9,3.74,3.74,0,0,0,3,11.5,3.39,3.39,0,0,0,6.25,15h.21a.5.5,0,1,0,0-1H6.25A2.39,2.39,0,0,1,4,11.5a2.71,2.71,0,0,1,.67-1.78A2.18,2.18,0,0,1,6.25,9H7l0-.48A3.52,3.52,0,0,1,10.41,5a4.15,4.15,0,0,1,3.48,1.78L14,7h1a3.34,3.34,0,0,1,2.9,1.8L18,9l.24,0a1.86,1.86,0,0,1,1.19.8A2.67,2.67,0,0,1,20,11.5a2.71,2.71,0,0,1-.67,1.78,2.18,2.18,0,0,1-1.58.72h-.23a.5.5,0,1,0,0,1h.23a3.24,3.24,0,0,0,2.32-1A3.74,3.74,0,0,0,21,11.5,3.63,3.63,0,0,0,20.23,9.25Z"/></svg>