<svg id="Layer_1" data-name="Layer 1" xmlns="http://www.w3.org/2000/svg" viewBox="0 0 24 24"><title>Aloted_24px</title><path d="M17,12H14.25V10H15a1,1,0,0,0,1-1V7a1,1,0,0,0-1-1H13a1,1,0,0,0-1,1v.76H10V7A1,1,0,0,0,9,6H7A1,1,0,0,0,6,7V9a1,1,0,0,0,1,1h.76v2H7a1,1,0,0,0-1,1v2a1,1,0,0,0,1,1H9a1,1,0,0,0,1-1v-.76h2V17a1,1,0,0,0,1,1h4a1,1,0,0,0,1-1V13A1,1,0,0,0,17,12ZM15,7V9H13V7ZM7,7H9V9H7Zm2,8H7V13H9Zm3-2v.76H10V13a1,1,0,0,0-1-1H8.25V10H9a1,1,0,0,0,1-1V8.25h2V9a1,1,0,0,0,1,1h.76v2H13A1,1,0,0,0,12,13Zm5,4H13V13h4Z"/></svg>