<svg id="Layer_1" data-name="Layer 1" xmlns="http://www.w3.org/2000/svg" viewBox="0 0 24 24"><title>Applcation Server-24px</title><path d="M10.5,8h3a.5.5,0,0,0,0-1h-3a.5.5,0,0,0,0,1Z"/><path d="M10.5,10h3a.5.5,0,0,0,0-1h-3a.5.5,0,0,0,0,1Z"/><path d="M10.5,12h3a.5.5,0,0,0,0-1h-3a.5.5,0,0,0,0,1Z"/><circle cx="12" cy="16" r="1"/><path d="M17.5,12H16V4.75A.76.76,0,0,0,15.25,4H8.75A.76.76,0,0,0,8,4.75v14.5a.76.76,0,0,0,.75.75h6.5a.76.76,0,0,0,.75-.75V17h1.5a.5.5,0,0,0,.5-.5v-4A.5.5,0,0,0,17.5,12ZM15,12h-.5a.5.5,0,0,0-.5.5v4a.5.5,0,0,0,.5.5H15v2H9V5h6Z"/></svg>