<svg id="Layer_1" data-name="Layer 1" xmlns="http://www.w3.org/2000/svg" viewBox="0 0 24 24"><title> Cloud_24px</title><path d="M17.5,17H6.5A3.6,3.6,0,0,1,3,13.5,3.5,3.5,0,0,1,6.5,10,3.9,3.9,0,0,1,10,12.33a.5.5,0,0,1-.3.64A.5.5,0,0,1,9,12.68,2.85,2.85,0,0,0,6.5,11,2.5,2.5,0,0,0,4,13.5,2.57,2.57,0,0,0,6.51,16h11a2.55,2.55,0,0,0,1.77-.7A2.34,2.34,0,0,0,20,13.62,2.7,2.7,0,0,0,17.48,11H17l0-.45A4.11,4.11,0,0,0,13.05,7h-.14C10.85,6.9,9.49,7.47,9,8.7A.5.5,0,1,1,8,8.3C8.53,7.16,9.79,5.82,13,6a5.23,5.23,0,0,1,5,4.05A3.71,3.71,0,0,1,21,13.62,3.36,3.36,0,0,1,20,16,3.63,3.63,0,0,1,17.5,17Z"/></svg>