<svg id="Layer_1" data-name="Layer 1" xmlns="http://www.w3.org/2000/svg" viewBox="0 0 24 24"><title>Collaboration_24px </title><path d="M18,10l-.19,0-2.1-3.16A2,2,0,1,0,13,5a1.85,1.85,0,0,0,.15.74L8,7.68A2,2,0,1,0,6,10a1,1,0,0,0,.25,0V13A1,1,0,0,0,6,13a2,2,0,1,0,1.76,2.93L11,16.4a2,2,0,0,0,4-.4,2.05,2.05,0,0,0-.09-.56l1.87-1.87A2,2,0,0,0,18,14a2,2,0,0,0,0-4Zm-.71.14a2,2,0,0,0-.83.59l-2.14-.53L14.62,7A1.58,1.58,0,0,0,15,7l.19,0ZM13,14a2,2,0,0,0-1.08.32L9.75,11.84,11.26,10l2.53.63-.32,3.48A1.84,1.84,0,0,0,13,14ZM7.69,9.06l3,.75L9.42,11.45,7.52,9.29C7.58,9.21,7.64,9.14,7.69,9.06Zm3.92.46,2.28-2.86.24.13-.3,3.29Zm1.91-3.19L11.07,9.39,7.9,8.59A2.33,2.33,0,0,0,8,8.21l5.41-2ZM6.75,9.85a1.94,1.94,0,0,0,.4-.22L9.1,11.85,7.56,13.77a2,2,0,0,0-.81-.62Zm1.09,4.37,1.59-2,2.11,2.41A2,2,0,0,0,11,15.89l-3.07-.44A1.63,1.63,0,0,0,8,15,2,2,0,0,0,7.84,14.22Zm6.12,0,.32-3.55,1.9.48A2,2,0,0,0,16,12a2,2,0,0,0,.43,1.22L14.7,15A2.16,2.16,0,0,0,14,14.25Z"/></svg>