<svg id="Layer_1" data-name="Layer 1" xmlns="http://www.w3.org/2000/svg" viewBox="0 0 24 24"><title>Compute-24px</title><path d="M9.75,15h4.5a.76.76,0,0,0,.75-.75V9.75A.76.76,0,0,0,14.25,9H9.75A.76.76,0,0,0,9,9.75v4.5A.76.76,0,0,0,9.75,15ZM10,10h4v4H10Z"/><path d="M19.5,12a.5.5,0,0,0,0-1H18V9h1.5a.5.5,0,0,0,0-1H18V6.75A.76.76,0,0,0,17.25,6H15V4.5a.5.5,0,0,0-1,0V6H12V4.5a.5.5,0,0,0-1,0V6H9V4.5a.5.5,0,0,0-1,0V6H6.75A.76.76,0,0,0,6,6.75V9H4.5a.5.5,0,0,0,0,1H6v2H4.5a.5.5,0,0,0,0,1H6v2H4.5a.5.5,0,0,0,0,1H6v1.25a.76.76,0,0,0,.75.75H9v1.5a.5.5,0,0,0,1,0V18h2v1.5a.5.5,0,0,0,1,0V18h2v1.5a.5.5,0,0,0,1,0V18h1.25a.76.76,0,0,0,.75-.75V15h1.5a.5.5,0,0,0,0-1H18V12ZM17,17H7V7H17Z"/></svg>