<svg xmlns="http://www.w3.org/2000/svg" viewBox="0 0 24 24">
  <path fill-rule="evenodd" d="M9.044,16.676 C8.22799592,16.676 7.51400306,16.5000018 6.902,16.148 C6.28999694,15.7959982 5.82000164,15.2920033 5.492,14.636 C5.16399836,13.9799967 5,13.2120044 5,12.332 C5,11.4519956 5.16399836,10.6860033 5.492,10.034 C5.82000164,9.38199674 6.28999694,8.88000176 6.902,8.528 C7.51400306,8.17599824 8.22799592,8 9.044,8 C9.57200264,8 10.0679977,8.07799922 10.532,8.234 C10.9960023,8.39000078 11.4079982,8.61599852 11.768,8.912 C11.8720005,8.9920004 11.9439998,9.07599956 11.984,9.164 C12.0240002,9.25200044 12.044,9.35999936 12.044,9.488 C12.044,9.66400088 11.9960005,9.8119994 11.9,9.932 C11.8039995,10.0520006 11.6880007,10.112 11.552,10.112 C11.3919992,10.112 11.2280008,10.0560006 11.06,9.944 C10.7159983,9.68799872 10.3960015,9.5100005 10.1,9.41 C9.80399852,9.3099995 9.4760018,9.26 9.116,9.26 C8.28399584,9.26 7.65400214,9.5199974 7.226,10.04 C6.79799786,10.5600026 6.584,11.323995 6.584,12.332 C6.584,13.3480051 6.79799786,14.1159974 7.226,14.636 C7.65400214,15.1560026 8.28399584,15.416 9.116,15.416 C9.46000172,15.416 9.77799854,15.3640005 10.07,15.26 C10.3620015,15.1559995 10.6919982,14.9800012 11.06,14.732 C11.1400004,14.6839998 11.2199996,14.6440002 11.3,14.612 C11.3800004,14.5799998 11.4639996,14.564 11.552,14.564 C11.6880007,14.564 11.8039995,14.6239994 11.9,14.744 C11.9960005,14.8640006 12.044,15.0119991 12.044,15.188 C12.044,15.3080006 12.0240002,15.4139995 11.984,15.506 C11.9439998,15.5980005 11.8720005,15.6839996 11.768,15.764 C11.4079982,16.0600015 10.9960023,16.2859992 10.532,16.442 C10.0679977,16.5980008 9.57200264,16.676 9.044,16.676 Z M14.168,16.64 C13.9359988,16.64 13.7500007,16.5700007 13.61,16.43 C13.4699993,16.2899993 13.4,16.1000012 13.4,15.86 L13.4,8.84 C13.4,8.60799884 13.4659993,8.42800064 13.598,8.3 C13.7300007,8.17199936 13.9119988,8.108 14.144,8.108 L17.096,8.108 C18.0000045,8.108 18.7039975,8.33399774 19.208,8.786 C19.7120025,9.23800226 19.964,9.87199592 19.964,10.688 C19.964,11.5040041 19.7120025,12.1399977 19.208,12.596 C18.7039975,13.0520023 18.0000045,13.28 17.096,13.28 L14.948,13.28 L14.948,15.86 C14.948,16.1000012 14.8780007,16.2899993 14.738,16.43 C14.5979993,16.5700007 14.4080012,16.64 14.168,16.64 Z M16.904,12.092 C17.9680053,12.092 18.5,11.6280046 18.5,10.7 C18.5,9.77199536 17.9680053,9.308 16.904,9.308 L14.948,9.308 L14.948,12.092 L16.904,12.092 Z"/>
</svg>
