<svg id="Layer_1" data-name="Layer 1" xmlns="http://www.w3.org/2000/svg" viewBox="0 0 24 24"><title>cp_24px</title><path d="M9.4,9.09a2.17,2.17,0,0,0-1.77.78A3.25,3.25,0,0,0,7,12a3.3,3.3,0,0,0,.62,2.17,2.24,2.24,0,0,0,1.8.73,5.36,5.36,0,0,0,1-.09c.31-.07.64-.15,1-.26v1.09A6.2,6.2,0,0,1,9.24,16a3.47,3.47,0,0,1-2.7-1,4.21,4.21,0,0,1-.94-3,4.6,4.6,0,0,1,.46-2.12A3.12,3.12,0,0,1,7.38,8.49a4,4,0,0,1,2-.49,5.24,5.24,0,0,1,2.27.5l-.47,1.06c-.27-.12-.56-.23-.86-.33A3.31,3.31,0,0,0,9.4,9.09Z"/><path d="M18.4,10.46a2.22,2.22,0,0,1-.82,1.87,3.66,3.66,0,0,1-2.34.65h-.83v2.91H13.1V8.11h2.3a3.55,3.55,0,0,1,2.25.6A2.1,2.1,0,0,1,18.4,10.46Zm-4,1.45h.69a2.51,2.51,0,0,0,1.48-.34,1.2,1.2,0,0,0,.47-1.06,1.19,1.19,0,0,0-.42-1,2.12,2.12,0,0,0-1.31-.33h-.91Z"/></svg>