<svg id="Layer_1" data-name="Layer 1" xmlns="http://www.w3.org/2000/svg" viewBox="0 0 24 24"><title>Database-24px</title><path d="M17.5,9H6.5A1.5,1.5,0,0,0,5,10.5v2A1.5,1.5,0,0,0,6.5,14h11A1.5,1.5,0,0,0,19,12.5v-2A1.5,1.5,0,0,0,17.5,9Zm.5,3.5a.5.5,0,0,1-.5.5H6.5a.5.5,0,0,1-.5-.5v-2a.5.5,0,0,1,.5-.5h11a.5.5,0,0,1,.5.5Z"/><path d="M16.5,11h-5a.5.5,0,0,0,0,1h5a.5.5,0,0,0,0-1Z"/><circle cx="7.5" cy="11.5" r="0.5"/><path d="M16.5,17h-5a.5.5,0,0,0,0,1h5a.5.5,0,0,0,0-1Z"/><circle cx="7.5" cy="17.5" r="0.5"/><path d="M17.5,3H6.5A1.5,1.5,0,0,0,5,4.5v2A1.5,1.5,0,0,0,6.5,8h11A1.5,1.5,0,0,0,19,6.5v-2A1.5,1.5,0,0,0,17.5,3ZM18,6.5a.5.5,0,0,1-.5.5H6.5A.5.5,0,0,1,6,6.5v-2A.5.5,0,0,1,6.5,4h11a.5.5,0,0,1,.5.5Z"/><path d="M16.5,5h-5a.5.5,0,0,0,0,1h5a.5.5,0,0,0,0-1Z"/><circle cx="7.5" cy="5.5" r="0.5"/><path d="M17.5,15H6.5A1.5,1.5,0,0,0,5,16.5v2A1.5,1.5,0,0,0,6.5,20h11A1.5,1.5,0,0,0,19,18.5v-2A1.5,1.5,0,0,0,17.5,15Zm.5,3.5a.5.5,0,0,1-.5.5H6.5a.5.5,0,0,1-.5-.5v-2a.5.5,0,0,1,.5-.5h11a.5.5,0,0,1,.5.5Z"/></svg>