<svg xmlns="http://www.w3.org/2000/svg" viewBox="0 0 24 24"><title>Analitics_24px</title><g id="Layer_2" data-name="Layer 2"><path d="M17.5,17H16v-.5a.5.5,0,0,0-1,0V17H13v-.5a.5.5,0,0,0-1,0V17H10v-.5a.5.5,0,0,0-1,0V17H7V12.81l1.91-1.93A1.45,1.45,0,0,0,9.5,11a1.64,1.64,0,0,0,.5-.09l1.36,1.63a1.48,1.48,0,0,0-.36,1,1.5,1.5,0,0,0,3,0,1.52,1.52,0,0,0-.38-1l2.47-3.57A1.84,1.84,0,0,0,16.5,9a1.5,1.5,0,1,0-1.06-.44L13,12.09a1.64,1.64,0,0,0-.5-.09,1.51,1.51,0,0,0-.53.1l-1.35-1.62a1.48,1.48,0,0,0,.38-1,1.5,1.5,0,0,0-3,0,1.46,1.46,0,0,0,.32.91L7,11.74V6.5a.5.5,0,0,0-1,0V18H17.5a.5.5,0,0,0,0-1Zm-1-10a.5.5,0,1,1-.5.5A.5.5,0,0,1,16.5,7ZM13,13.5a.5.5,0,1,1-.5-.5A.5.5,0,0,1,13,13.5ZM9.5,9a.5.5,0,1,1-.5.5A.5.5,0,0,1,9.5,9Z"/></g></svg>