<svg id="Layer_1" data-name="Layer 1" xmlns="http://www.w3.org/2000/svg" viewBox="0 0 24 24"><title>default orphan_24px</title><circle cx="6.44" cy="17.5" r="0.5"/><path d="M14.79,13.15a.5.5,0,0,0-.71,0,.49.49,0,0,0,0,.7l2.75,2.72a.73.73,0,0,1-.14,1l-1.07,1.08a1,1,0,0,1-.57.29.56.56,0,0,1-.44-.14l-2.84-2.67a.5.5,0,0,0-.71,0,.49.49,0,0,0,0,.7l2.84,2.67A1.49,1.49,0,0,0,15,20h.16a2,2,0,0,0,1.19-.58l1.07-1.08a1.73,1.73,0,0,0,.14-2.42Z"/><path d="M19.65,6.12h0L19.59,6a.56.56,0,0,1-.05-.08h0a.5.5,0,0,0-.44-.12l-.11,0h0s0,0-.08.06a.25.25,0,0,0-.08,0h0L17,7.82a.62.62,0,0,1-.87,0,.64.64,0,0,1-.17-.45.65.65,0,0,1,.17-.45l1.82-1.84L18,5l0-.06h0a.58.58,0,0,0,0-.14s0,0,0,0a.43.43,0,0,0,0-.11s0,0,0-.08l0,0a.41.41,0,0,0-.07-.11h0l-.09-.06-.06-.05h0A3.44,3.44,0,0,0,16.44,4a3.5,3.5,0,0,0-3.5,3.5,3.31,3.31,0,0,0,.15.95l-3,3L7.79,9.15s0,0,0,0a.76.76,0,0,0,.19-.5V7.3a.73.73,0,0,0-.41-.65L4.24,5,3,6.3,4.59,9.59a.72.72,0,0,0,.64.4H6.57a.75.75,0,0,0,.49-.19s0,0,0,0l2.29,2.29L6.48,15h0a2.5,2.5,0,1,0,2.5,2.5s0,0,0-.05l6.57-6.59a3.62,3.62,0,0,0,.94.14,3.5,3.5,0,0,0,3.5-3.5A3.45,3.45,0,0,0,19.65,6.12ZM6.46,9h-1L4.17,6.5l.27-.27L6.93,7.47v1Zm0,10a1.5,1.5,0,1,1,1.5-1.5A1.5,1.5,0,0,1,6.44,19Zm2.19-2.67a2.44,2.44,0,0,0-1-1l5.92-5.87a3.49,3.49,0,0,0,1,1ZM16.44,10a2.5,2.5,0,0,1,0-5l.15,0L15.4,6.22A1.63,1.63,0,0,0,16.55,9h0a1.54,1.54,0,0,0,1.13-.48l1.23-1.23c0,.07,0,.14,0,.21A2.5,2.5,0,0,1,16.44,10Z"/><path d="M15.44,18a.5.5,0,0,0,.35-.85l-2-2a.5.5,0,0,0-.71,0,.5.5,0,0,0,0,.7l2,2A.51.51,0,0,0,15.44,18Z"/></svg>