<svg id="Layer_1" data-name="Layer 1" xmlns="http://www.w3.org/2000/svg" xmlns:xlink="http://www.w3.org/1999/xlink" viewBox="0 0 24 24"><defs><style>.cls-1{fill:none;clip-rule:evenodd;}.cls-2{clip-path:url(#clip-path);}</style><clipPath id="clip-path"><path class="cls-1" d="M-15.17-16a1.54,1.54,0,0,1-1.54-1.53,1.54,1.54,0,0,1,1.54-1.54,1.54,1.54,0,0,1,1.54,1.54A1.54,1.54,0,0,1-15.17-16Zm2.05-.69.85-.84-.85-.85v-1.21h-1.2l-.85-.84-.85.84h-1.2v1.21l-.85.85.85.84v1.21H-16l.85.85.85-.85h1.2Z"/></clipPath></defs><title>Rules Security_24px copy 5</title><path d="M19,9.69V9.24A6.28,6.28,0,0,0,12.7,3h-.46A6.49,6.49,0,0,0,7.6,5,5.6,5.6,0,0,0,6,9.1a.61.61,0,0,1-.09.35L4.09,12.19a.51.51,0,0,0-.07.23s0,0,0,.07,0,.06,0,.09a.5.5,0,0,0,.49.43H5.84a.14.14,0,0,1,.11.05.13.13,0,0,1,0,.11L6,14.7a1.29,1.29,0,0,0,.38.92,1.26,1.26,0,0,0,.91.39H8.65a1.24,1.24,0,0,1,.85.45l1.58,2.3a.48.48,0,0,0,.41.21.46.46,0,0,0,.28-.08.5.5,0,0,0,.13-.7l-1.57-2.3A2.21,2.21,0,0,0,8.66,15H7.28a.31.31,0,0,1-.3-.3l0-1.54a1.17,1.17,0,0,0-.34-.83A1.15,1.15,0,0,0,5.84,12H5.41L6.7,10A1.58,1.58,0,0,0,7,9.06,4.62,4.62,0,0,1,8.32,5.67,5.54,5.54,0,0,1,12.24,4h.46A5.29,5.29,0,0,1,18,9.24v.45a7.3,7.3,0,0,1-.66,2.71c-.67,1.75-1.36,3.56.76,6.33a.5.5,0,0,0,.4.19.47.47,0,0,0,.3-.1.51.51,0,0,0,.1-.7c-1.79-2.33-1.28-3.66-.63-5.36A8.2,8.2,0,0,0,19,9.69Z"/><path d="M15.63,8.08l-1.2.13a3.81,3.81,0,0,0-.48-.5l.22-1.19-1-.44-.76,1a3.14,3.14,0,0,0-.69,0l-.68-1-1,.37.13,1.2a3.81,3.81,0,0,0-.5.48L8.52,7.83l-.44,1L9,9.55a3.14,3.14,0,0,0,0,.69l-1,.68.37,1,1.2-.13a3.81,3.81,0,0,0,.48.5l-.22,1.19,1,.44.76-.95a3.14,3.14,0,0,0,.69,0l.68,1,1-.37-.13-1.2a3.81,3.81,0,0,0,.5-.48l1.19.22.44-1L15,10.45a3.14,3.14,0,0,0,0-.69l1-.68ZM12,11.33A1.33,1.33,0,1,1,13.33,10,1.34,1.34,0,0,1,12,11.33Z"/></svg>