<svg id="Layer_1" data-name="Layer 1" xmlns="http://www.w3.org/2000/svg" viewBox="0 0 24 24"><title>Rules Security_24px copy 5</title><path d="M13.19,9.34a2.44,2.44,0,0,0,.1-.24L13.83,9A.2.2,0,0,0,14,8.8V8.2A.2.2,0,0,0,13.83,8l-.54-.09a2.44,2.44,0,0,0-.1-.24l.31-.44a.2.2,0,0,0,0-.27l-.43-.43a.2.2,0,0,0-.27,0l-.44.31-.24-.1L12,6.17A.21.21,0,0,0,11.8,6h-.6a.21.21,0,0,0-.21.17l-.09.54-.24.1-.44-.31a.2.2,0,0,0-.27,0L9.52,7a.2.2,0,0,0,0,.27l.31.44a2.44,2.44,0,0,0-.1.24L9.17,8A.2.2,0,0,0,9,8.2v.6A.2.2,0,0,0,9.17,9l.54.09a2.44,2.44,0,0,0,.1.24l-.31.44a.2.2,0,0,0,0,.27l.43.43a.2.2,0,0,0,.27,0l.44-.31.24.1.09.54a.21.21,0,0,0,.21.17h.6a.21.21,0,0,0,.21-.17l.09-.54.24-.1.44.31a.2.2,0,0,0,.27,0l.43-.43a.2.2,0,0,0,0-.27ZM11.5,9.5a1,1,0,1,1,1-1A1,1,0,0,1,11.5,9.5Z"/><path d="M18.9,18.2c-1.79-2.33-1.26-3.76-.64-5.42A8.39,8.39,0,0,0,19,9.72V9.26C19,5.93,15.83,3,12.25,3A6.19,6.19,0,0,0,6,9a16.75,16.75,0,0,1-1.67,2.69l-.26.38a.65.65,0,0,0,0,.66A.46.46,0,0,0,4.5,13H6v2a1,1,0,0,0,1,1H9.27c.42.59,1.37,2.07,1.82,2.78a.51.51,0,0,0,.41.23.57.57,0,0,0,.28-.08.5.5,0,0,0,.15-.69c-.73-1.15-1.46-2.28-1.85-2.82C9.9,15.16,9.82,15,9.5,15H7l0-2a1,1,0,0,0-1-1H5.5C6.8,10.11,7,9.42,7,9a5.18,5.18,0,0,1,5.21-5c3,0,5.72,2.5,5.72,5.25v.46a7.57,7.57,0,0,1-.64,2.71C16.66,14.2,16,16,18.1,18.81a.52.52,0,0,0,.7.09A.51.51,0,0,0,18.9,18.2Z"/></svg>