<svg id="Layer_1" data-name="Layer 1" xmlns="http://www.w3.org/2000/svg" viewBox="0 0 24 24"><title>Database-24px</title><path d="M18.5,9H5.5A1.5,1.5,0,0,0,4,10.5v2A1.5,1.5,0,0,0,5.5,14h13A1.5,1.5,0,0,0,20,12.5v-2A1.5,1.5,0,0,0,18.5,9Zm.5,3.5a.5.5,0,0,1-.5.5H5.5a.5.5,0,0,1-.5-.5v-2a.5.5,0,0,1,.5-.5h13a.5.5,0,0,1,.5.5Z"/><path d="M18.5,15H5.5A1.5,1.5,0,0,0,4,16.5v1a.5.5,0,0,0,1,0v-1a.53.53,0,0,1,.15-.35A.47.47,0,0,1,5.5,16h13a.5.5,0,0,1,.5.5v2a.5.5,0,0,1-.5.5H8.5a.5.5,0,0,0,0,1h10A1.5,1.5,0,0,0,20,18.5v-2A1.5,1.5,0,0,0,18.5,15Z"/><path d="M17.5,11h-5a.5.5,0,0,0,0,1h5a.5.5,0,0,0,0-1Z"/><path d="M17.5,18a.5.5,0,0,0,0-1h-5a.5.5,0,0,0,0,1Z"/><path d="M18.5,3H5.5A1.5,1.5,0,0,0,4,4.5v2A1.5,1.5,0,0,0,5.5,8h13A1.5,1.5,0,0,0,20,6.5v-2A1.5,1.5,0,0,0,18.5,3ZM19,6.5a.5.5,0,0,1-.5.5H5.5A.5.5,0,0,1,5,6.5v-2A.5.5,0,0,1,5.5,4h13a.5.5,0,0,1,.5.5Z"/><path d="M17.5,5h-5a.5.5,0,0,0,0,1h5a.5.5,0,0,0,0-1Z"/><circle cx="6.5" cy="11.5" r="0.5"/><circle cx="6.5" cy="17.5" r="0.5"/><circle cx="6.5" cy="5.5" r="0.5"/></svg>