<svg id="Layer_1" data-name="Layer 1" xmlns="http://www.w3.org/2000/svg" viewBox="0 0 24 24"><defs><style>.cls-1,.cls-2{fill:none;stroke:#000;stroke-miterlimit:10;}.cls-2{stroke-linecap:round;}</style></defs><title>default orphan_24px_stroke</title><circle class="cls-1" cx="6.5" cy="17.5" r="2"/><circle cx="6.5" cy="17.5" r="0.5"/><line class="cls-1" x1="15.45" y1="10.25" x2="8.56" y2="17.17"/><line class="cls-1" x1="13.68" y1="8.62" x2="6.85" y2="15.4"/><path class="cls-2" d="M11.5,16.5l2.84,2.67A1.23,1.23,0,0,0,16.05,19l1.06-1.08a1.23,1.23,0,0,0,.15-1.71L14.5,13.51"/><path class="cls-2" d="M19.25,6.3A3,3,0,1,1,16.5,4.5a2.9,2.9,0,0,1,1.14.23"/><path class="cls-2" d="M17.64,4.73,15.82,6.57a1.12,1.12,0,0,0,1.58,1.6L19.25,6.3"/><line class="cls-2" x1="10.05" y1="12.05" x2="7.5" y2="9.5"/><path class="cls-1" d="M7.43,8.8l-.63.63a.2.2,0,0,1-.18.07H5.3a.23.23,0,0,1-.2-.13l-1.48-3,.78-.78,3,1.48a.23.23,0,0,1,.13.2V8.62A.2.2,0,0,1,7.43,8.8Z"/><line class="cls-2" x1="15.5" y1="17.5" x2="13.5" y2="15.5"/></svg>