<svg xmlns="http://www.w3.org/2000/svg" viewBox="0 0 24 24">
  <path fill-rule="evenodd" d="M12.36,16.676 C11.7439969,16.676 11.1620027,16.5940008 10.614,16.43 C10.0659973,16.2659992 9.62000172,16.0440014 9.276,15.764 C9.09199908,15.6279993 9,15.4360012 9,15.188 C9,15.0199992 9.0499995,14.8740006 9.15,14.75 C9.2500005,14.6259994 9.36799932,14.564 9.504,14.564 C9.64800072,14.564 9.81199908,14.6199994 9.996,14.732 C10.3400017,14.9800012 10.6999981,15.1599994 11.076,15.272 C11.4520019,15.3840006 11.8679977,15.44 12.324,15.44 C12.9080029,15.44 13.3559984,15.338001 13.668,15.134 C13.9800016,14.929999 14.136,14.632002 14.136,14.24 C14.136,13.9359985 13.9900015,13.7020008 13.698,13.538 C13.4059985,13.3739992 12.9200034,13.2160008 12.24,13.064 C11.5359965,12.9119992 10.9640022,12.736001 10.524,12.536 C10.0839978,12.335999 9.75200112,12.0800016 9.528,11.768 C9.30399888,11.4559984 9.192,11.0600024 9.192,10.58 C9.192,10.0839975 9.3319986,9.64000196 9.612,9.248 C9.8920014,8.85599804 10.2819975,8.5500011 10.782,8.33 C11.2820025,8.1099989 11.8439969,8 12.468,8 C13.6120057,8 14.5439964,8.30399696 15.264,8.912 C15.3680005,9.00000044 15.4419998,9.08599958 15.486,9.17 C15.5300002,9.25400042 15.552,9.35999936 15.552,9.488 C15.552,9.65600084 15.5020005,9.80199938 15.402,9.926 C15.3019995,10.0500006 15.1840007,10.112 15.048,10.112 C14.9679996,10.112 14.8940003,10.1000001 14.826,10.076 C14.7579997,10.0519999 14.6680006,10.0080003 14.556,9.944 C14.2279984,9.7039988 13.9100015,9.52600058 13.602,9.41 C13.2939985,9.29399942 12.9160022,9.236 12.468,9.236 C11.9239973,9.236 11.4940016,9.3459989 11.178,9.566 C10.8619984,9.7860011 10.704,10.091998 10.704,10.484 C10.704,10.8120016 10.8439986,11.0639991 11.124,11.24 C11.4040014,11.4160009 11.8799966,11.5799992 12.552,11.732 C13.2640036,11.8920008 13.8419978,12.069999 14.286,12.266 C14.7300022,12.462001 15.0699988,12.7119985 15.306,13.016 C15.5420012,13.3200015 15.66,13.6999977 15.66,14.156 C15.66,14.6520025 15.5220014,15.0899981 15.246,15.47 C14.9699986,15.8500019 14.5820025,16.1459989 14.082,16.358 C13.5819975,16.5700011 13.0080032,16.676 12.36,16.676 Z"/>
</svg>
