<svg xmlns="http://www.w3.org/2000/svg" viewBox="0 0 24 24">
  <path fill-rule="evenodd" d="M15.768,15.488 C15.8640005,15.6320007 15.912,15.7719993 15.912,15.908 C15.912,16.0920009 15.8380007,16.2439994 15.69,16.364 C15.5419993,16.4840006 15.368001,16.544 15.168,16.544 C15.0399994,16.544 14.9180006,16.5140003 14.802,16.454 C14.6859994,16.3939997 14.5880004,16.3040006 14.508,16.184 L12.912,13.76 C12.7519992,13.5039987 12.5820009,13.3240005 12.402,13.22 C12.2219991,13.1159995 11.9880014,13.064 11.7,13.064 L10.524,13.064 L10.524,15.752 C10.524,15.9920012 10.4560007,16.1819993 10.32,16.322 C10.1839993,16.4620007 10.0000012,16.532 9.768,16.532 C9.53599884,16.532 9.3500007,16.4620007 9.21,16.322 C9.0699993,16.1819993 9,15.9920012 9,15.752 L9,8.732 C9,8.49999884 9.06599934,8.32000064 9.198,8.192 C9.33000066,8.06399936 9.51199884,8 9.744,8 L12.744,8 C13.7040048,8 14.4339975,8.21399786 14.934,8.642 C15.4340025,9.07000214 15.684,9.68799596 15.684,10.496 C15.684,11.1520033 15.4980019,11.6899979 15.126,12.11 C14.7539981,12.5300021 14.2280034,12.7999994 13.548,12.92 C13.7800012,12.9760003 13.9839991,13.0759993 14.16,13.22 C14.3360009,13.3640007 14.5079992,13.5639987 14.676,13.82 L15.768,15.488 Z M12.528,11.876 C13.1120029,11.876 13.5399986,11.7660011 13.812,11.546 C14.0840014,11.3259989 14.22,10.9880023 14.22,10.532 C14.22,10.0679977 14.0840014,9.73000106 13.812,9.518 C13.5399986,9.30599894 13.1120029,9.2 12.528,9.2 L10.512,9.2 L10.512,11.876 L12.528,11.876 Z"/>
</svg>
