<svg id="Layer_1" data-name="Layer 1" xmlns="http://www.w3.org/2000/svg" viewBox="0 0 24 24"><title>VIRTUAL FIREWALL 2_24px</title><path d="M6,16h4a1,1,0,0,0,1-1V14a1,1,0,0,0-1-1H6a1,1,0,0,0-1,1v1A1,1,0,0,0,6,16Zm0-2h4v1h0v0H6Z"/><path d="M13,16h1a1,1,0,0,0,1-1V14a1,1,0,0,0-1-1H13a1,1,0,0,0-1,1v1A1,1,0,0,0,13,16Zm0-2h1v1h0v0H13Z"/><path d="M6.5,17h-1a.5.5,0,0,0,0,1h1a.5.5,0,0,0,0-1Z"/><path d="M14.5,17h-6a.5.5,0,0,0,0,1h6a.5.5,0,0,0,0-1Z"/><path d="M20,12.5c0-3.37-3.6-9-4.07-9.36A.53.53,0,0,0,15.5,3c-.65.11-.55.75-.31,2.45a18,18,0,0,1,.2,1.87,1.75,1.75,0,0,1-.46,1.27A1.59,1.59,0,0,1,13.75,9c-.74,0-1.06-.83-1.38-1.83C12.17,6.55,12,6,11.47,6h0c-1,0-2.16,3.34-2.43,5H4.5A1.5,1.5,0,0,0,3,12.5v6A1.5,1.5,0,0,0,4.5,20h11A1.5,1.5,0,0,0,17,18.5V17A4.47,4.47,0,0,0,20,12.5Zm-4,6a.5.5,0,0,1-.5.5H4.5a.5.5,0,0,1-.5-.5v-6a.5.5,0,0,1,.5-.5h11a.5.5,0,0,1,.5.5Zm1-2.61V12.5A1.5,1.5,0,0,0,15.5,11H10a13.24,13.24,0,0,1,1.35-3.67s0,.1.05.15c.3.94.79,2.51,2.32,2.53a2.74,2.74,0,0,0,1.9-.7,2.77,2.77,0,0,0,.75-2,17.66,17.66,0,0,0-.21-2s0-.08,0-.12C17.28,7.05,19,10.39,19,12.5A3.43,3.43,0,0,1,17,15.89Z"/></svg>