<svg id="Layer_1" data-name="Layer 1" xmlns="http://www.w3.org/2000/svg" viewBox="0 0 24 24"><title>Gateway_24px</title><path d="M18.87,9.16a.5.5,0,0,0-.74.67L19.2,11h-11l2.42-4h4.62L14.13,8.17a.49.49,0,0,0,0,.7A.46.46,0,0,0,14.5,9a.52.52,0,0,0,.38-.17L17,6.48,14.87,4.16a.5.5,0,0,0-.7,0,.5.5,0,0,0,0,.71L15.2,6H10L7,11H4.91a1.5,1.5,0,1,0,0,1H7l3,5H15.2l-1.07,1.16a.5.5,0,0,0,0,.71.59.59,0,0,0,.17.1.52.52,0,0,0,.18,0,.5.5,0,0,0,.37-.16l1-1.13.8-.87s0,0,0,0L17,16.5l-.31-.33s0,0,0,0h0l-1.79-2a.5.5,0,0,0-.71,0,.49.49,0,0,0,0,.7L15.2,16H10.54L8.15,12h11l-1.07,1.17a.49.49,0,0,0,0,.7.46.46,0,0,0,.33.13.49.49,0,0,0,.37-.16L21,11.5Z"/></svg>