<svg xmlns="http://www.w3.org/2000/svg" viewBox="0 0 24 24">
  <path fill-rule="evenodd" d="M14.708,11.996 C14.8920009,11.996 15.0399994,12.0499995 15.152,12.158 C15.2640006,12.2660005 15.32,12.4079991 15.32,12.584 L15.32,15.164 C15.32,15.5320018 15.2720005,15.7919992 15.176,15.944 C15.0799995,16.0960008 14.8840015,16.2199995 14.588,16.316 C14.2679984,16.4280006 13.8960021,16.5159997 13.472,16.58 C13.0479979,16.6440003 12.640002,16.676 12.248,16.676 C11.3759956,16.676 10.6200032,16.5040017 9.98,16.16 C9.3399968,15.8159983 8.8500017,15.3180033 8.51,14.666 C8.1699983,14.0139967 8,13.2360045 8,12.332 C8,11.4439956 8.1699983,10.6740033 8.51,10.022 C8.8500017,9.36999674 9.33199688,8.87000174 9.956,8.522 C10.5800031,8.17399826 11.3159958,8 12.164,8 C13.2920056,8 14.2159964,8.30399696 14.936,8.912 C15.0320005,9.00000044 15.1019998,9.08799956 15.146,9.176 C15.1900002,9.26400044 15.212,9.3679994 15.212,9.488 C15.212,9.66400088 15.1640005,9.8119994 15.068,9.932 C14.9719995,10.0520006 14.8560007,10.112 14.72,10.112 C14.6319996,10.112 14.5520004,10.0980001 14.48,10.07 C14.4079996,10.0419999 14.3240005,9.99600032 14.228,9.932 C13.8759982,9.68399876 13.5480015,9.5100005 13.244,9.41 C12.9399985,9.3099995 12.5960019,9.26 12.212,9.26 C11.3399956,9.26 10.6820022,9.51799742 10.238,10.034 C9.79399778,10.5500026 9.572,11.3159949 9.572,12.332 C9.572,14.4120104 10.4839909,15.452 12.308,15.452 C12.8520027,15.452 13.3959973,15.3760008 13.94,15.224 L13.94,13.1 L12.584,13.1 C12.391999,13.1 12.2420005,13.0520005 12.134,12.956 C12.0259995,12.8599995 11.972,12.7240009 11.972,12.548 C11.972,12.3719991 12.0259995,12.2360005 12.134,12.14 C12.2420005,12.0439995 12.391999,11.996 12.584,11.996 L14.708,11.996 Z"/>
</svg>
