<svg id="Layer_1" data-name="Layer 1" xmlns="http://www.w3.org/2000/svg" viewBox="0 0 24 24"><title>Load Balance_24px</title><path d="M18.5,13a.5.5,0,0,0-.5.5v1.89l-3.18-2.83A3.42,3.42,0,0,0,15,11.5a3.5,3.5,0,0,0-3-3.45V6.94a1.5,1.5,0,1,0-1,0V8.05A3.5,3.5,0,0,0,8,11.5a3.42,3.42,0,0,0,.18,1.06L5,15.39V13.5a.5.5,0,0,0-1,0V17H7.5a.5.5,0,0,0,0-1H5.81l2.82-2.5A3.5,3.5,0,0,0,11,15V18.2L9.84,17.14a.5.5,0,1,0-.68.74L11.5,20l2.34-2.12a.5.5,0,1,0-.68-.74L12,18.2V15a3.5,3.5,0,0,0,2.37-1.45L17.18,16H15.5a.5.5,0,0,0,0,1H19V13.5A.5.5,0,0,0,18.5,13Zm-7,1A2.5,2.5,0,1,1,14,11.5,2.5,2.5,0,0,1,11.5,14Z"/></svg>