<svg id="Layer_1" data-name="Layer 1" xmlns="http://www.w3.org/2000/svg" viewBox="0 0 24 24"><title>Mobility2_24px </title><path d="M14.5,21h-4A1.5,1.5,0,0,1,9,19.5v-8A1.5,1.5,0,0,1,10.5,10h4A1.5,1.5,0,0,1,16,11.5v8A1.5,1.5,0,0,1,14.5,21Zm-4-10a.5.5,0,0,0-.5.5v8a.5.5,0,0,0,.5.5h4a.5.5,0,0,0,.5-.5v-8a.5.5,0,0,0-.5-.5Z"/><path d="M13.5,19h-2a.5.5,0,0,1,0-1h2a.5.5,0,0,1,0,1Z"/><path d="M13.25,17h-1.5a.76.76,0,0,1-.75-.75v-3.5a.76.76,0,0,1,.75-.75h1.5a.76.76,0,0,1,.75.75v3.5A.76.76,0,0,1,13.25,17ZM12,16h1V13H12Z"/><path d="M17.75,15h-.23a.5.5,0,1,1,0-1h.23a2.18,2.18,0,0,0,1.58-.72A2.71,2.71,0,0,0,20,11.5a2.67,2.67,0,0,0-.56-1.64,1.86,1.86,0,0,0-1.19-.8L18,9l-.12-.22A3.34,3.34,0,0,0,15,7H14l-.14-.22A4.15,4.15,0,0,0,10.41,5,3.52,3.52,0,0,0,7.06,8.52L7,9H6.25a2.18,2.18,0,0,0-1.58.72A2.71,2.71,0,0,0,4,11.5,2.39,2.39,0,0,0,6.25,14h.21a.5.5,0,1,1,0,1H6.25A3.39,3.39,0,0,1,3,11.5,3.74,3.74,0,0,1,3.93,9,3.24,3.24,0,0,1,6.11,8a4.43,4.43,0,0,1,4.3-4,5.2,5.2,0,0,1,4.16,2H15a4.41,4.41,0,0,1,3.67,2.13,2.93,2.93,0,0,1,1.56,1.12A3.63,3.63,0,0,1,21,11.5,3.74,3.74,0,0,1,20.07,14,3.24,3.24,0,0,1,17.75,15Z"/></svg>