<svg id="Layer_1" data-name="Layer 1" xmlns="http://www.w3.org/2000/svg" viewBox="0 0 24 24"><title>Network Cloud_24px</title><path d="M17.93,10.07A5.22,5.22,0,0,0,13,6C9.8,5.84,8.53,7.16,8,8.3A.5.5,0,1,0,9,8.7c.53-1.23,1.9-1.81,3.95-1.69h.14A4.1,4.1,0,0,1,17,10.58L17,11h.45A2.7,2.7,0,0,1,20,13.62a2.3,2.3,0,0,1-.73,1.67A2.56,2.56,0,0,1,17.5,16h-11A2.58,2.58,0,0,1,4,13.5,2.5,2.5,0,0,1,6.5,11,2.85,2.85,0,0,1,9,12.68a.5.5,0,0,0,.64.29.5.5,0,0,0,.3-.64A3.88,3.88,0,0,0,6.5,10,3.5,3.5,0,0,0,3,13.5,3.6,3.6,0,0,0,6.5,17h11A3.61,3.61,0,0,0,20,16a3.38,3.38,0,0,0,1-2.4A3.71,3.71,0,0,0,17.93,10.07Z"/></svg>