<svg id="Layer_1" data-name="Layer 1" xmlns="http://www.w3.org/2000/svg" viewBox="0 0 24 24"><title>Rules Security_24px copy</title><path d="M14,6.08A.24.24,0,0,0,14,6V5.18A1.18,1.18,0,0,0,12.82,4H5.18A1.18,1.18,0,0,0,4,5.18V16.82A1.18,1.18,0,0,0,5.18,18H8l.09,0A7,7,0,1,0,14,6.08ZM5,16.82V5.18A.19.19,0,0,1,5.18,5h7.64a.19.19,0,0,1,.18.18V6A7,7,0,0,0,7.26,17H5.18A.19.19,0,0,1,5,16.82ZM13,19a6,6,0,1,1,6-6A6,6,0,0,1,13,19Z"/><path d="M15.87,12.05A2.49,2.49,0,0,0,11,12H10.5a1.5,1.5,0,0,0,0,3h5a1.5,1.5,0,0,0,.37-2.95Z"/></svg>