<svg id="Layer_1" data-name="Layer 1" xmlns="http://www.w3.org/2000/svg" viewBox="0 0 24 24"><title>Network_24px</title><path d="M12,4a7.92,7.92,0,0,0-2.49.4,1.46,1.46,0,0,0-1-.4A1.5,1.5,0,0,0,7,5.5a2.11,2.11,0,0,0,0,.25A8,8,0,1,0,12,4Zm6.8,6.35a22.24,22.24,0,0,1-2.58,1.9c-.24-.53-.49-1.07-.77-1.6a1.48,1.48,0,0,0-.53-2.58,17.55,17.55,0,0,0-.56-2.65A7,7,0,0,1,18.8,10.35ZM15,10.91c.28.53.53,1.07.77,1.6-.36.22-.74.44-1.15.64l.09-.29A11.07,11.07,0,0,0,15,10.91ZM13.78,5.24A16,16,0,0,1,14.4,8a1.5,1.5,0,0,0-.78.28A14.3,14.3,0,0,0,9.93,5.93,1.55,1.55,0,0,0,10,5.5a1.36,1.36,0,0,0,0-.2A7.1,7.1,0,0,1,12,5,7,7,0,0,1,13.78,5.24ZM7.52,6.63A1.47,1.47,0,0,0,8.5,7a1.5,1.5,0,0,0,1.21-.62,14.34,14.34,0,0,1,3.56,2.27A1.46,1.46,0,0,0,13,9.5,1.5,1.5,0,0,0,14.5,11h0a11.64,11.64,0,0,1-.27,1.74c-.06.24-.13.48-.2.71-.35.17-.7.32-1.07.47s-.66.24-1,.34A1.5,1.5,0,0,0,10.5,13a1.55,1.55,0,0,0-.87.28,11.21,11.21,0,0,1-1.48-1.12A9.62,9.62,0,0,1,7,10.94a8.67,8.67,0,0,1-1.2-2.15A7,7,0,0,1,7.52,6.63Zm-2,2.76A9,9,0,0,0,6.6,11.24a10.46,10.46,0,0,0,1.22,1.3,11.53,11.53,0,0,0,1.45,1.1A1.51,1.51,0,0,0,9,14.5a1.62,1.62,0,0,0,.07.44,29.71,29.71,0,0,1-3.25.34A7,7,0,0,1,5,12,6.9,6.9,0,0,1,5.51,9.39Zm.6,6.37a28.31,28.31,0,0,0,3.2-.36A1.49,1.49,0,0,0,12,14.79c.4-.12.8-.26,1.19-.41.23-.09.44-.19.66-.29a10.31,10.31,0,0,1-3.43,4.72A7,7,0,0,1,6.11,15.76ZM12,19a7.48,7.48,0,0,1-1-.07,10.87,10.87,0,0,0,3.41-5.12c.56-.27,1.06-.55,1.54-.84.66,1.53,1.12,2.9,1.33,3.56A7,7,0,0,1,12,19Zm5.69-2.94c-.25-.76-.68-2-1.26-3.35a21.88,21.88,0,0,0,2.48-1.79A7.61,7.61,0,0,1,19,12,7,7,0,0,1,17.69,16.06Z"/></svg>