<svg id="Layer_1" data-name="Layer 1" xmlns="http://www.w3.org/2000/svg" viewBox="0 0 24 24"><title>Notification_24px</title><path d="M17.86,15.52l-1.85-2V11.34a4.5,4.5,0,0,0-2-3.83V6a1,1,0,0,0-1-1H11a1,1,0,0,0-1,1V7.47a4.51,4.51,0,0,0-2.07,3.87v2.19l-1.8,2a1,1,0,0,0,0,1,.91.91,0,0,0,.79.47H10a2,2,0,0,0,4,0h3.08a.91.91,0,0,0,.79-.47A1,1,0,0,0,17.86,15.52ZM11,6h2V7H11Zm1,12a1,1,0,0,1-1-1h2A1,1,0,0,1,12,18ZM7,16l1.7-1.86.06-.09a1,1,0,0,0,.14-.51v-2.2A3.39,3.39,0,0,1,11.22,8h1.5A3.38,3.38,0,0,1,15,11.34v2.2a1,1,0,0,0,.14.51L17,16Z"/></svg>