<svg id="Layer_1" data-name="Layer 1" xmlns="http://www.w3.org/2000/svg" viewBox="0 0 24 24"><title>Object storage icon-24px</title><path d="M15.5,12h-2a.5.5,0,0,0,0,1h2a.5.5,0,0,0,0-1Z"/><path d="M15.5,14h-2a.5.5,0,0,0,0,1h2a.5.5,0,0,0,0-1Z"/><path d="M15.5,16h-2a.5.5,0,0,0,0,1h2a.5.5,0,0,0,0-1Z"/><path d="M21,10.5a3.63,3.63,0,0,0-.77-2.25,2.93,2.93,0,0,0-1.56-1.12A4.41,4.41,0,0,0,15,5h-.43a5.2,5.2,0,0,0-4.16-2,4.43,4.43,0,0,0-4.3,4A3.24,3.24,0,0,0,3.93,8,3.74,3.74,0,0,0,3,10.5,3.39,3.39,0,0,0,6.25,14H11v5.5A1.5,1.5,0,0,0,12.5,21h4A1.5,1.5,0,0,0,18,19.5V14a3.22,3.22,0,0,0,2.07-1A3.74,3.74,0,0,0,21,10.5Zm-4,9a.5.5,0,0,1-.5.5h-4a.5.5,0,0,1-.5-.5V9.5a.5.5,0,0,1,.5-.5h4a.5.5,0,0,1,.5.5Zm2.33-7.22A2.21,2.21,0,0,1,18,13V9.5A1.5,1.5,0,0,0,16.5,8h-4A1.5,1.5,0,0,0,11,9.5V13H6.25A2.39,2.39,0,0,1,4,10.5a2.71,2.71,0,0,1,.67-1.78A2.18,2.18,0,0,1,6.25,8H7l0-.48A3.52,3.52,0,0,1,10.41,4a4.15,4.15,0,0,1,3.48,1.78L14,6h1a3.34,3.34,0,0,1,2.9,1.8L18,8l.24,0a1.86,1.86,0,0,1,1.19.8A2.67,2.67,0,0,1,20,10.5,2.71,2.71,0,0,1,19.33,12.28Z"/></svg>