<svg id="Layer_1" data-name="Layer 1" xmlns="http://www.w3.org/2000/svg" viewBox="0 0 24 24"><title>Generic OSS_24PX</title><path d="M12.49,10.94a1.51,1.51,0,0,0-1.13.4A1.59,1.59,0,0,0,11,12.49a1.58,1.58,0,0,0,.39,1.16,1.5,1.5,0,0,0,1.12.41,1.48,1.48,0,0,0,1.12-.41A1.57,1.57,0,0,0,14,12.5a1.61,1.61,0,0,0-.39-1.16A1.45,1.45,0,0,0,12.49,10.94Zm0,2.58a.71.71,0,0,1-.6-.26,1.23,1.23,0,0,1-.2-.76,1.29,1.29,0,0,1,.2-.77.74.74,0,0,1,.61-.25c.53,0,.79.34.79,1S13,13.52,12.48,13.52Z"/><path d="M15.74,12.27l-.42-.21a.44.44,0,0,1-.14-.13.29.29,0,0,1,.06-.37.51.51,0,0,1,.3-.08,1.22,1.22,0,0,1,.32,0,3.4,3.4,0,0,1,.42.14l.22-.5A3.27,3.27,0,0,0,16,11a1.84,1.84,0,0,0-.47-.06,1.18,1.18,0,0,0-.79.24.75.75,0,0,0-.28.63.87.87,0,0,0,.08.37.92.92,0,0,0,.24.28,2,2,0,0,0,.43.25,2.38,2.38,0,0,1,.41.21.39.39,0,0,1,.15.13.23.23,0,0,1,.06.16.29.29,0,0,1-.12.24.63.63,0,0,1-.34.08,1.62,1.62,0,0,1-.41-.06,3,3,0,0,1-.54-.19v.6a2.13,2.13,0,0,0,.9.18,1.39,1.39,0,0,0,.86-.24.76.76,0,0,0,.3-.64.75.75,0,0,0-.16-.5A1.56,1.56,0,0,0,15.74,12.27Z"/><path d="M18.19,12.27a3.4,3.4,0,0,1-.43-.21.4.4,0,0,1-.13-.13.23.23,0,0,1,0-.14.29.29,0,0,1,.1-.23.48.48,0,0,1,.29-.08,1.24,1.24,0,0,1,.33,0,3.4,3.4,0,0,1,.42.14l.21-.5a3.27,3.27,0,0,0-.47-.16,1.78,1.78,0,0,0-.47-.06,1.22,1.22,0,0,0-.79.24.78.78,0,0,0-.28.63.75.75,0,0,0,.09.37.77.77,0,0,0,.23.28,2.23,2.23,0,0,0,.43.25,2.6,2.6,0,0,1,.42.21.64.64,0,0,1,.15.13.28.28,0,0,1,.05.16.29.29,0,0,1-.12.24.63.63,0,0,1-.34.08,1.49,1.49,0,0,1-.4-.06,3.3,3.3,0,0,1-.55-.19v.6a2.13,2.13,0,0,0,.9.18,1.37,1.37,0,0,0,.86-.24.74.74,0,0,0,.31-.64.76.76,0,0,0-.17-.5A1.59,1.59,0,0,0,18.19,12.27Z"/><path d="M19.66,9H16.49l.93-1.3a.5.5,0,0,0-.06-.65L16,5.64a.49.49,0,0,0-.64-.06l-1.54,1.1a6.37,6.37,0,0,0-1-.4l-.31-1.86A.5.5,0,0,0,12,4H10a.5.5,0,0,0-.49.42L9.2,6.28a6.37,6.37,0,0,0-1,.4L6.69,5.58a.49.49,0,0,0-.64.06L4.64,7.05a.5.5,0,0,0-.06.65l1.1,1.53a6.37,6.37,0,0,0-.4,1l-1.86.31A.5.5,0,0,0,3,11v2a.5.5,0,0,0,.42.49l1.86.31a6.37,6.37,0,0,0,.4,1L4.58,16.3a.5.5,0,0,0,.06.65l1.41,1.41a.49.49,0,0,0,.64.06l1.54-1.1a6.37,6.37,0,0,0,1,.4l.31,1.86A.5.5,0,0,0,10,20h2a.5.5,0,0,0,.49-.42l.31-1.86a6.37,6.37,0,0,0,1-.4l1.53,1.1a.5.5,0,0,0,.65-.06L17.36,17a.49.49,0,0,0,.06-.64L17.2,16h2.46A1.3,1.3,0,0,0,21,14.75v-4.5A1.3,1.3,0,0,0,19.66,9Zm-3.3,7.54-.82.82-1.45-1a.52.52,0,0,0-.55,0,5,5,0,0,1-1.3.54.51.51,0,0,0-.37.4L11.58,19H10.42l-.29-1.76a.51.51,0,0,0-.37-.4,5,5,0,0,1-1.3-.54.52.52,0,0,0-.55,0l-1.45,1-.82-.82,1-1.45a.52.52,0,0,0,0-.55,5,5,0,0,1-.54-1.3.51.51,0,0,0-.4-.37L4,12.58V11.42l1.76-.29a.51.51,0,0,0,.4-.37,5,5,0,0,1,.54-1.3.52.52,0,0,0,0-.55l-1-1.45.82-.82,1.45,1a.52.52,0,0,0,.55,0,5,5,0,0,1,1.3-.54.51.51,0,0,0,.37-.4L10.42,5h1.16l.29,1.76a.51.51,0,0,0,.37.4,5,5,0,0,1,1.3.54.52.52,0,0,0,.55,0l1.45-1,.82.82-1,1.45s0,.06,0,.09h-5A1.3,1.3,0,0,0,9,10.25v4.5A1.3,1.3,0,0,0,10.34,16H16ZM20,14.75c0,.13-.16.25-.34.25H10.34c-.18,0-.34-.12-.34-.25v-4.5c0-.13.16-.25.34-.25h9.32c.18,0,.34.12.34.25Z"/></svg>