<svg id="Layer_1" data-name="Layer 1" xmlns="http://www.w3.org/2000/svg" viewBox="0 0 24 24"><title>Generic OSS_24PX</title><path d="M10.59,12A2.3,2.3,0,0,1,10,13.67a2.12,2.12,0,0,1-1.61.58,2.13,2.13,0,0,1-1.61-.58A2.35,2.35,0,0,1,6.25,12a2.28,2.28,0,0,1,.56-1.66,2.16,2.16,0,0,1,1.62-.58,2.09,2.09,0,0,1,1.6.58A2.28,2.28,0,0,1,10.59,12ZM7.26,12a1.78,1.78,0,0,0,.29,1.1,1,1,0,0,0,.87.37c.77,0,1.16-.49,1.16-1.47s-.38-1.48-1.15-1.48a1,1,0,0,0-.87.37A1.75,1.75,0,0,0,7.26,12Z"/><path d="M14.23,13a1.13,1.13,0,0,1-.44.93,2,2,0,0,1-1.24.34A3.06,3.06,0,0,1,11.26,14v-.86a4.56,4.56,0,0,0,.78.27,2.12,2.12,0,0,0,.58.08.85.85,0,0,0,.49-.11.41.41,0,0,0,.17-.35.39.39,0,0,0-.07-.23A.84.84,0,0,0,13,12.6l-.59-.3a2.5,2.5,0,0,1-.63-.36,1.45,1.45,0,0,1-.34-.4,1.19,1.19,0,0,1-.12-.54,1.11,1.11,0,0,1,.41-.91,1.75,1.75,0,0,1,1.13-.34,2.48,2.48,0,0,1,.68.09,5.34,5.34,0,0,1,.68.22l-.31.72c-.25-.09-.45-.16-.61-.2a2.5,2.5,0,0,0-.47-.05.66.66,0,0,0-.42.12.39.39,0,0,0-.14.32.46.46,0,0,0,.05.21.83.83,0,0,0,.19.18,6.66,6.66,0,0,0,.62.31,2.4,2.4,0,0,1,.87.58A1.13,1.13,0,0,1,14.23,13Z"/><path d="M17.75,13a1.13,1.13,0,0,1-.44.93,2,2,0,0,1-1.24.34A3.06,3.06,0,0,1,14.78,14v-.86a4.56,4.56,0,0,0,.78.27,2.12,2.12,0,0,0,.58.08.85.85,0,0,0,.49-.11A.41.41,0,0,0,16.8,13a.39.39,0,0,0-.07-.23.84.84,0,0,0-.22-.19l-.59-.3a2.5,2.5,0,0,1-.63-.36,1.45,1.45,0,0,1-.34-.4,1.19,1.19,0,0,1-.12-.54,1.11,1.11,0,0,1,.41-.91,1.75,1.75,0,0,1,1.13-.34,2.48,2.48,0,0,1,.68.09,5.34,5.34,0,0,1,.68.22l-.31.72c-.25-.09-.45-.16-.61-.2a2.5,2.5,0,0,0-.47-.05.66.66,0,0,0-.42.12.39.39,0,0,0-.14.32.46.46,0,0,0,.05.21.83.83,0,0,0,.19.18,5.52,5.52,0,0,0,.62.31,2.4,2.4,0,0,1,.87.58A1.13,1.13,0,0,1,17.75,13Z"/><path d="M19.62,17H4.38A1.38,1.38,0,0,1,3,15.62V8.38A1.38,1.38,0,0,1,4.38,7H19.62A1.38,1.38,0,0,1,21,8.38v7.24A1.38,1.38,0,0,1,19.62,17ZM4.38,8A.38.38,0,0,0,4,8.38v7.24a.38.38,0,0,0,.38.38H19.62a.38.38,0,0,0,.38-.38V8.38A.38.38,0,0,0,19.62,8Z"/></svg>