<svg xmlns="http://www.w3.org/2000/svg" viewBox="0 0 24 24"><title>User Person_24px</title><g id="Layer_2" data-name="Layer 2"><path d="M11,15c1.65,0,3-1.79,3-4s-1.35-4-3-4S8,8.79,8,11,9.35,15,11,15Zm0-7c1.08,0,2,1.37,2,3s-.92,3-2,3-2-1.37-2-3S9.92,8,11,8Z"/><path d="M18.94,11.84A4,4,0,0,0,16.5,11a.5.5,0,0,0,0,1,2.93,2.93,0,0,1,1.8.61A1.79,1.79,0,0,1,19,14V15.5a.5.5,0,0,0,1,0V14A2.75,2.75,0,0,0,18.94,11.84Z"/><path d="M12.5,6A2.5,2.5,0,0,1,15,8.5a.5.5,0,0,0,1,0A3.5,3.5,0,0,0,12.5,5a.5.5,0,0,0,0,1Z"/><path d="M15.5,14a.5.5,0,0,0,0,1,1.53,1.53,0,0,1,1.06.44A1.5,1.5,0,0,1,17,16.5V18H5V16.5A1.5,1.5,0,0,1,6.5,15a.5.5,0,0,0,0-1A2.5,2.5,0,0,0,4,16.5V18a1,1,0,0,0,1,1H17a1,1,0,0,0,1-1V16.5a2.49,2.49,0,0,0-.73-1.77A2.53,2.53,0,0,0,15.5,14Z"/></g></svg>