<svg id="Layer_1" data-name="Layer 1" xmlns="http://www.w3.org/2000/svg" viewBox="0 0 24 24"><title>C_24px  </title><path d="M12.8,9.09a2.37,2.37,0,0,0-1.87.78A3.16,3.16,0,0,0,10.25,12a3.15,3.15,0,0,0,.66,2.17,2.39,2.39,0,0,0,1.89.73,5.92,5.92,0,0,0,1-.09c.33-.07.68-.15,1-.26v1.09a6.81,6.81,0,0,1-2.25.35,3.75,3.75,0,0,1-2.84-1,4.15,4.15,0,0,1-1-3,4.48,4.48,0,0,1,.48-2.12,3.35,3.35,0,0,1,1.39-1.4A4.53,4.53,0,0,1,12.81,8a5.75,5.75,0,0,1,2.39.5l-.5,1.06a9.41,9.41,0,0,0-.9-.33A3.66,3.66,0,0,0,12.8,9.09Z"/></svg>