<svg xmlns="http://www.w3.org/2000/svg" viewBox="0 0 24 24">
  <path fill-rule="evenodd" d="M12.044,16.676 C11.2279959,16.676 10.5140031,16.5000018 9.902,16.148 C9.28999694,15.7959982 8.82000164,15.2920033 8.492,14.636 C8.16399836,13.9799967 8,13.2120044 8,12.332 C8,11.4519956 8.16399836,10.6860033 8.492,10.034 C8.82000164,9.38199674 9.28999694,8.88000176 9.902,8.528 C10.5140031,8.17599824 11.2279959,8 12.044,8 C12.5720026,8 13.0679977,8.07799922 13.532,8.234 C13.9960023,8.39000078 14.4079982,8.61599852 14.768,8.912 C14.8720005,8.9920004 14.9439998,9.07599956 14.984,9.164 C15.0240002,9.25200044 15.044,9.35999936 15.044,9.488 C15.044,9.66400088 14.9960005,9.8119994 14.9,9.932 C14.8039995,10.0520006 14.6880007,10.112 14.552,10.112 C14.3919992,10.112 14.2280008,10.0560006 14.06,9.944 C13.7159983,9.68799872 13.3960015,9.5100005 13.1,9.41 C12.8039985,9.3099995 12.4760018,9.26 12.116,9.26 C11.2839958,9.26 10.6540021,9.5199974 10.226,10.04 C9.79799786,10.5600026 9.584,11.323995 9.584,12.332 C9.584,13.3480051 9.79799786,14.1159974 10.226,14.636 C10.6540021,15.1560026 11.2839958,15.416 12.116,15.416 C12.4600017,15.416 12.7779985,15.3640005 13.07,15.26 C13.3620015,15.1559995 13.6919982,14.9800012 14.06,14.732 C14.1400004,14.6839998 14.2199996,14.6440002 14.3,14.612 C14.3800004,14.5799998 14.4639996,14.564 14.552,14.564 C14.6880007,14.564 14.8039995,14.6239994 14.9,14.744 C14.9960005,14.8640006 15.044,15.0119991 15.044,15.188 C15.044,15.3080006 15.0240002,15.4139995 14.984,15.506 C14.9439998,15.5980005 14.8720005,15.6839996 14.768,15.764 C14.4079982,16.0600015 13.9960023,16.2859992 13.532,16.442 C13.0679977,16.5980008 12.5720026,16.676 12.044,16.676 Z"/>
</svg>
