<svg xmlns="http://www.w3.org/2000/svg" viewBox="0 0 24 24">
  <path fill-rule="evenodd" d="M9.768,16.532 C9.53599884,16.532 9.3500007,16.4620007 9.21,16.322 C9.0699993,16.1819993 9,15.9920012 9,15.752 L9,8.732 C9,8.49999884 9.06599934,8.32000064 9.198,8.192 C9.33000066,8.06399936 9.51199884,8 9.744,8 L12.696,8 C13.6000045,8 14.3039975,8.22599774 14.808,8.678 C15.3120025,9.13000226 15.564,9.76399592 15.564,10.58 C15.564,11.3960041 15.3120025,12.0319977 14.808,12.488 C14.3039975,12.9440023 13.6000045,13.172 12.696,13.172 L10.548,13.172 L10.548,15.752 C10.548,15.9920012 10.4780007,16.1819993 10.338,16.322 C10.1979993,16.4620007 10.0080012,16.532 9.768,16.532 Z M12.504,11.984 C13.5680053,11.984 14.1,11.5200046 14.1,10.592 C14.1,9.66399536 13.5680053,9.2 12.504,9.2 L10.548,9.2 L10.548,11.984 L12.504,11.984 Z"/>
</svg>
