<svg xmlns="http://www.w3.org/2000/svg" viewBox="0 0 24 24"><title>User Office_24px</title><g id="Layer_2" data-name="Layer 2"><path d="M10.25,6H8.75A.76.76,0,0,0,8,6.75v1.5A.76.76,0,0,0,8.75,9h1.5A.76.76,0,0,0,11,8.25V6.75A.76.76,0,0,0,10.25,6ZM10,8H9V7h1Z"/><path d="M14.25,6h-1.5a.76.76,0,0,0-.75.75v1.5a.76.76,0,0,0,.75.75h1.5A.76.76,0,0,0,15,8.25V6.75A.76.76,0,0,0,14.25,6ZM14,8H13V7h1Z"/><path d="M10.25,10H8.75a.76.76,0,0,0-.75.75v1.5a.76.76,0,0,0,.75.75h1.5a.76.76,0,0,0,.75-.75v-1.5A.76.76,0,0,0,10.25,10ZM10,12H9V11h1Z"/><path d="M14.25,10h-1.5a.76.76,0,0,0-.75.75v1.5a.76.76,0,0,0,.75.75h1.5a.76.76,0,0,0,.75-.75v-1.5A.76.76,0,0,0,14.25,10ZM14,12H13V11h1Z"/><path d="M14.25,14h-1.5a.76.76,0,0,0-.75.75v1.5a.76.76,0,0,0,.75.75h1.5a.76.76,0,0,0,.75-.75v-1.5A.76.76,0,0,0,14.25,14ZM14,16H13V15h1Z"/><path d="M15.5,4h-8A1.5,1.5,0,0,0,6,5.5v12A1.5,1.5,0,0,0,7.5,19h8A1.5,1.5,0,0,0,17,17.5V5.5A1.5,1.5,0,0,0,15.5,4ZM10,18H9V15h1Zm6-.5a.5.5,0,0,1-.5.5H11V14.75a.76.76,0,0,0-.75-.75H8.75a.76.76,0,0,0-.75.75V18H7.5a.5.5,0,0,1-.5-.5V5.5A.5.5,0,0,1,7.5,5h8a.5.5,0,0,1,.5.5Z"/></g></svg>