<svg xmlns="http://www.w3.org/2000/svg" viewBox="0 0 24 24"><title>User Office_24px</title><g id="Layer_2" data-name="Layer 2"><path d="M10.25,6H8.75A.76.76,0,0,0,8,6.75v1.5A.76.76,0,0,0,8.75,9h1.5A.76.76,0,0,0,11,8.25V6.75A.76.76,0,0,0,10.25,6ZM10,8H9V7h1Z"/><path d="M15.25,6h-1.5a.76.76,0,0,0-.75.75v1.5a.76.76,0,0,0,.75.75h1.5A.76.76,0,0,0,16,8.25V6.75A.76.76,0,0,0,15.25,6ZM15,8H14V7h1Z"/><path d="M10.25,10H8.75a.76.76,0,0,0-.75.75v1.5a.76.76,0,0,0,.75.75h1.5a.76.76,0,0,0,.75-.75v-1.5A.76.76,0,0,0,10.25,10ZM10,12H9V11h1Z"/><path d="M15.25,10h-1.5a.76.76,0,0,0-.75.75v1.5a.76.76,0,0,0,.75.75h1.5a.76.76,0,0,0,.75-.75v-1.5A.76.76,0,0,0,15.25,10ZM15,12H14V11h1Z"/><path d="M15.25,14h-1.5a.76.76,0,0,0-.75.75v1.5a.76.76,0,0,0,.75.75h1.5a.76.76,0,0,0,.75-.75v-1.5A.76.76,0,0,0,15.25,14ZM15,16H14V15h1Z"/><path d="M16.5,4h-9A1.5,1.5,0,0,0,6,5.5v12A1.5,1.5,0,0,0,7.5,19h9A1.5,1.5,0,0,0,18,17.5V5.5A1.5,1.5,0,0,0,16.5,4ZM9,18V15h1v3Zm8-.5a.5.5,0,0,1-.5.5H11V14.75a.76.76,0,0,0-.75-.75H8.75a.76.76,0,0,0-.75.75V18H7.5a.5.5,0,0,1-.5-.5V5.5A.5.5,0,0,1,7.5,5h9a.5.5,0,0,1,.5.5Z"/></g></svg>