<svg id="Layer_1" data-name="Layer 1" xmlns="http://www.w3.org/2000/svg" viewBox="0 0 24 24"><title>Router_24px</title><path d="M12,2A10,10,0,1,0,22,12,10,10,0,0,0,12,2Zm0,19a9,9,0,1,1,9-9A9,9,0,0,1,12,21Z"/><path d="M6.17,9.12a.51.51,0,0,0,0,.71L7.19,11H4.5a.5.5,0,0,0-.5.5.5.5,0,0,0,.5.5H7.19L6.13,13.16a.5.5,0,0,0,0,.71A.46.46,0,0,0,6.5,14a.52.52,0,0,0,.38-.17L9,11.48,6.87,9.16A.49.49,0,0,0,6.17,9.12Z"/><path d="M13.17,17.14,12,18.2V15.5a.5.5,0,0,0-1,0v2.69L9.83,17.14a.49.49,0,0,0-.7,0,.5.5,0,0,0,0,.71L11.51,20l2.33-2.11a.5.5,0,0,0,0-.71A.49.49,0,0,0,13.17,17.14Z"/><path d="M19.5,12H16.82l1.05-1.16a.5.5,0,0,0-.75-.67L15,12.51l2.12,2.32a.5.5,0,0,0,.37.17.46.46,0,0,0,.33-.13.5.5,0,0,0,0-.71L16.8,13h2.7a.5.5,0,0,0,.5-.5A.5.5,0,0,0,19.5,12Z"/><path d="M12.49,4,10.16,6.14a.5.5,0,0,0,.67.74L12,5.81V8.5a.5.5,0,0,0,1,0V5.83l1.17,1A.51.51,0,0,0,14.5,7a.5.5,0,0,0,.37-.17.5.5,0,0,0,0-.71Z"/></svg>