<svg id="Layer_1" data-name="Layer 1" xmlns="http://www.w3.org/2000/svg" viewBox="0 0 24 24"><title>Rules Security_24px copy 4</title><path d="M14,6.08A.19.19,0,0,0,14,6V5.18A1.18,1.18,0,0,0,12.82,4H5.18A1.18,1.18,0,0,0,4,5.18V16.82A1.18,1.18,0,0,0,5.18,18H8.1A6.92,6.92,0,0,0,13,20,7,7,0,0,0,14,6.08ZM5.18,17A.19.19,0,0,1,5,16.82V5.18A.19.19,0,0,1,5.18,5h7.64a.19.19,0,0,1,.18.18V6a7,7,0,0,0-7,7,6.89,6.89,0,0,0,1.26,4ZM13,19a6,6,0,1,1,6-6A6,6,0,0,1,13,19Z"/><path d="M13,17a6,6,0,0,1-3-5.71c0-.22-.09-1.27.47-1.27A3.91,3.91,0,0,0,13,9a3.86,3.86,0,0,0,2.5,1c.5,0,.5.93.51,1.14A6.33,6.33,0,0,1,13,17Z"/></svg>