<svg id="Layer_1" data-name="Layer 1" xmlns="http://www.w3.org/2000/svg" viewBox="0 0 24 24"><title>Security_24px</title><path d="M17,8.08a1.08,1.08,0,0,0-1-1,8.82,8.82,0,0,1-4.1-.91.72.72,0,0,0-.82,0A9,9,0,0,1,7,7,1.09,1.09,0,0,0,6,8.09c-.09,1.49-.23,9,5.17,10.87a1.26,1.26,0,0,0,.33.05,1.14,1.14,0,0,0,.33-.05C17.05,17.15,17.1,10.17,17,8.08ZM7,8.15A.68.68,0,0,1,7,8a10.31,10.31,0,0,0,4.44-1A9.85,9.85,0,0,0,16,8s0,0,0,.1,0,.4,0,.64L7.61,13.5A16.48,16.48,0,0,1,7,8.15ZM11.52,18v0A6,6,0,0,1,8,14.45l8-4.52C15.86,12.61,15.07,16.78,11.52,18Z"/></svg>