<svg id="Layer_1" data-name="Layer 1" xmlns="http://www.w3.org/2000/svg" viewBox="0 0 24 24"><title>universal Cpe_24px</title><path d="M8.5,11H5.83l1-1.16a.48.48,0,0,0,0-.7.49.49,0,0,0-.7,0L4,11.53l2.09,2.32a.5.5,0,0,0,.37.16.54.54,0,0,0,.34-.12.5.5,0,0,0,0-.71L5.79,12H8.5a.5.5,0,0,0,.5-.5A.5.5,0,0,0,8.5,11Z"/><path d="M17.9,10.19a.49.49,0,0,0-.7,0,.5.5,0,0,0,0,.71l1,1.14H15.5a.5.5,0,0,0-.5.5.5.5,0,0,0,.5.5h2.72l-1.08,1.2a.5.5,0,0,0,0,.7.5.5,0,0,0,.33.13.52.52,0,0,0,.38-.17L20,12.51Z"/><path d="M12,2A10,10,0,1,0,22,12,10,10,0,0,0,12,2Zm0,19a9,9,0,1,1,9-9A9,9,0,0,1,12,21Z"/><path d="M13.17,17.14,12,18.2V15.5a.5.5,0,0,0-1,0v2.69L9.83,17.13a.5.5,0,0,0-.67.75L11.51,20l2.33-2.11a.5.5,0,0,0,0-.71A.49.49,0,0,0,13.17,17.14Z"/><path d="M14.84,6.13,12.49,4,10.16,6.14a.5.5,0,0,0,.67.74L12,5.82V8.5a.5.5,0,0,0,1,0V5.83l1.17,1A.51.51,0,0,0,14.5,7a.5.5,0,0,0,.37-.17A.5.5,0,0,0,14.84,6.13Z"/></svg>