<svg id="Layer_1" data-name="Layer 1" xmlns="http://www.w3.org/2000/svg" viewBox="0 0 24 24"><defs><style>.cls-1,.cls-2,.cls-3{fill:none;stroke:#000;}.cls-1,.cls-2{stroke-miterlimit:10;}.cls-2,.cls-3{stroke-linecap:round;}.cls-3{stroke-linejoin:round;}</style></defs><title>Virtual Firewall_24px </title><path class="cls-1" d="M13.5,19.5H3.75a.23.23,0,0,1-.25-.2V11.7a.23.23,0,0,1,.25-.2H13.5"/><path class="cls-1" d="M17.5,15.5a4,4,0,1,1-.8-2.4A4,4,0,0,1,17.5,15.5Z"/><polyline class="cls-2" points="12.5 14.5 13.49 16.77 14.5 14.5"/><path class="cls-3" d="M17.62,16.1A5.34,5.34,0,0,0,18.8,15a4.43,4.43,0,0,0,.7-2.52c0-3.3-3.74-9-3.92-9s.31,2.71.31,3.82a2,2,0,0,1-2.14,2.18c-1.79,0-1.79-3-2.3-3s-1.19.87-2.1,4.92"/><line class="cls-2" x1="5.5" y1="13.5" x2="9.5" y2="13.5"/><path d="M6.5,18A1.5,1.5,0,1,1,8,16.5,1.5,1.5,0,0,1,6.5,18Zm0-2a.5.5,0,1,0,.5.5A.5.5,0,0,0,6.5,16Z"/></svg>