<svg xmlns="http://www.w3.org/2000/svg" viewBox="0 0 24 24">
  <path fill-rule="evenodd" d="M10.972,8.408 C11.1000006,8.13599864 11.3119985,8 11.608,8 C11.808001,8 11.9879992,8.06399936 12.148,8.192 C12.3080008,8.32000064 12.388,8.47999904 12.388,8.672 C12.388,8.76000044 12.3640002,8.85999944 12.316,8.972 L8.992,16.124 C8.91999964,16.2760008 8.81000074,16.3939996 8.662,16.478 C8.51399926,16.5620004 8.35600084,16.604 8.188,16.604 C8.01999916,16.604 7.86200074,16.5620004 7.714,16.478 C7.56599926,16.3939996 7.45600036,16.2760008 7.384,16.124 L4.072,8.972 C4.02399976,8.85999944 4,8.7640004 4,8.684 C4,8.483999 4.08199918,8.32000064 4.246,8.192 C4.41000082,8.06399936 4.59599896,8 4.804,8 C4.94000068,8 5.06599942,8.03399966 5.182,8.102 C5.29800058,8.17000034 5.38799968,8.27199932 5.452,8.408 L8.212,14.54 L10.972,8.408 Z M14.116,16.532 C13.8839988,16.532 13.7040006,16.4680006 13.576,16.34 C13.4479994,16.2119994 13.384,16.0360011 13.384,15.812 L13.384,8.78 C13.384,8.54799884 13.4539993,8.3620007 13.594,8.222 C13.7340007,8.0819993 13.9199988,8.012 14.152,8.012 C14.3920012,8.012 14.5819993,8.0819993 14.722,8.222 C14.8620007,8.3620007 14.932,8.54799884 14.932,8.78 L14.932,15.26 L18.304,15.26 C18.7840024,15.26 19.024,15.4719979 19.024,15.896 C19.024,16.3200021 18.7840024,16.532 18.304,16.532 L14.116,16.532 Z"/>
</svg>
