<svg id="Layer_1" data-name="Layer 1" xmlns="http://www.w3.org/2000/svg" viewBox="0 0 24 24"><title>vnf conduration_24px</title><path d="M17.58,10.77l-1.29-.21a4.12,4.12,0,0,0-.23-.58l.75-1.06a.49.49,0,0,0,0-.64l-1-1a.49.49,0,0,0-.64,0L14,7.94a4.12,4.12,0,0,0-.58-.23l-.21-1.29a.51.51,0,0,0-.5-.42H11.27a.51.51,0,0,0-.5.42l-.21,1.29a4.12,4.12,0,0,0-.58.23L8.92,7.19a.49.49,0,0,0-.64,0l-1,1a.49.49,0,0,0,0,.64L7.94,10a4.12,4.12,0,0,0-.23.58l-1.29.21a.51.51,0,0,0-.42.5v1.46a.51.51,0,0,0,.42.5l1.29.21a4.12,4.12,0,0,0,.23.58l-.75,1.06a.49.49,0,0,0,0,.64l1,1a.49.49,0,0,0,.64,0L10,16.06a4.12,4.12,0,0,0,.58.23l.21,1.29a.51.51,0,0,0,.5.42h1.46a.51.51,0,0,0,.5-.42l.21-1.29a4.12,4.12,0,0,0,.58-.23l1.06.75a.49.49,0,0,0,.64,0l1-1a.49.49,0,0,0,0-.64L16.06,14a4.12,4.12,0,0,0,.23-.58l1.29-.21a.51.51,0,0,0,.42-.5V11.27A.51.51,0,0,0,17.58,10.77ZM14,12a2,2,0,1,1-2-2A2,2,0,0,1,14,12Z"/></svg>