<svg id="Layer_1" data-name="Layer 1" xmlns="http://www.w3.org/2000/svg" viewBox="0 0 24 24"><title>Virual Router_24px</title><circle cx="6.5" cy="15.5" r="0.5"/><circle cx="8.5" cy="15.5" r="0.5"/><circle cx="10.5" cy="15.5" r="0.5"/><path d="M15.5,13,17,10.37a.25.25,0,0,0-.43-.25L15.5,12l-1.06-1.85a.25.25,0,0,0-.34-.1.25.25,0,0,0-.09.34Z"/><path d="M18.64,13A3.49,3.49,0,1,0,12,11.5a3.45,3.45,0,0,0,.35,1.5H9V7.5a.5.5,0,0,0-1,0V13H5.5A1.5,1.5,0,0,0,4,14.5v2A1.5,1.5,0,0,0,5.5,18h13A1.5,1.5,0,0,0,20,16.5v-2A1.51,1.51,0,0,0,18.64,13ZM15.5,9A2.5,2.5,0,1,1,13,11.5,2.5,2.5,0,0,1,15.5,9ZM19,16.5a.5.5,0,0,1-.5.5H5.5a.5.5,0,0,1-.5-.5v-2a.5.5,0,0,1,.5-.5h7.56a3.48,3.48,0,0,0,4.88,0h.56a.5.5,0,0,1,.5.5Z"/></svg>