<svg id="Layer_1" data-name="Layer 1" xmlns="http://www.w3.org/2000/svg" viewBox="0 0 60 60"><defs><style>.cls-1{fill:#fff;fill-rule:evenodd;}</style></defs><title>alcatel lucent_60px</title><path d="M23.93,29.22a.55.55,0,1,1-.55-.54.55.55,0,0,1,.55.54"/><path d="M55.92,29.22a5.47,5.47,0,1,1-5.47-5.46,5.47,5.47,0,0,1,5.47,5.46"/><path class="cls-1" d="M52.61,27.25a2.66,2.66,0,0,0-.8,0c0,.07-.05.15-.07.25a1.53,1.53,0,0,1,1.77.54,2.21,2.21,0,0,1-.26,2.23l.18.37h0c1.14-2.36-.13-3.22-.83-3.35m.27,3.51a4.3,4.3,0,0,1-1.57,1.17c-.46.19-.67.2-.69-.32a18.93,18.93,0,0,1,.86-4.5c.39-1.43.45-1.68-.24-1.9-.51-.17-.88-.05-1.64.65a17.92,17.92,0,0,0-3.22,4.5c.2.17.41.34.57.45s.3.09.43-.11a8.24,8.24,0,0,1,2.54-2.43c.06-.18.11-.35.16-.52a10.54,10.54,0,0,0-1.61.95c.92-1.68,2.24-3,2.48-2.93a13.35,13.35,0,0,1-.75,2.8,11.48,11.48,0,0,0-.59,3.66c.06.8.69,1,1.63.61a4.56,4.56,0,0,0,1.86-1.65l-.21-.44h0"/><path d="M25.66,26.73v3.79H27.4v.59H25V26.73Zm2.7,1.05v1.89a.91.91,0,0,0,.29.83.85.85,0,0,0,.49.13.72.72,0,0,0,.48-.14c.28-.22.26-.63.26-.95V27.78h.63v1.76a2.9,2.9,0,0,1-.06.77,1.09,1.09,0,0,1-.54.69,1.5,1.5,0,0,1-.78.19,2,2,0,0,1-.46-.05,1.22,1.22,0,0,1-.84-.69,2.52,2.52,0,0,1-.1-.83V27.78Zm5.18.67h0l-.12-.07a1.14,1.14,0,0,0-.55-.14,1.07,1.07,0,0,0-.47.11,1.11,1.11,0,0,0-.63,1.07,1.38,1.38,0,0,0,.08.5,1.09,1.09,0,0,0,1,.73,1.33,1.33,0,0,0,.68-.2V31a1,1,0,0,1-.18.1,1.68,1.68,0,0,1-2.28-1.66,1.88,1.88,0,0,1,.12-.7,1.57,1.57,0,0,1,1.52-1,1.83,1.83,0,0,1,.8.19Zm1.09,1.2a1.92,1.92,0,0,0,.06.3,1.08,1.08,0,0,0,.62.65,1.67,1.67,0,0,0,.57.09,2.26,2.26,0,0,0,.79-.15v.51a2.57,2.57,0,0,1-.89.14,2.11,2.11,0,0,1-.92-.19A1.63,1.63,0,0,1,34,29.41a2,2,0,0,1,.13-.76,1.43,1.43,0,0,1,1.35-.95,1.36,1.36,0,0,1,1.39,1.46,1.86,1.86,0,0,1-.07.49Zm1.62-.43a1.26,1.26,0,0,0-.11-.61.74.74,0,0,0-.68-.41.71.71,0,0,0-.47.16,1.17,1.17,0,0,0-.36.86Zm1.92-1.44v.65a1.23,1.23,0,0,1,.14-.25,1,1,0,0,1,.9-.48,1.23,1.23,0,0,1,.71.22,1.41,1.41,0,0,1,.43,1.25v1.94h-.64V29.24a1,1,0,0,0-.23-.79.62.62,0,0,0-.46-.17.83.83,0,0,0-.49.17,1.44,1.44,0,0,0-.34,1.16v1.5h-.63V27.78Zm4.61.53h-.93V30a1.18,1.18,0,0,0,0,.3c.09.33.46.32.54.32a1.48,1.48,0,0,0,.44-.07v.53a2.83,2.83,0,0,1-.57.06,1.38,1.38,0,0,1-.63-.13c-.42-.23-.44-.68-.44-1.09v-2.8l.64-.49v1.13h.93ZM8.66,31.11H8V26.73h.63Zm3.12-2.66h0l-.12-.07a1.14,1.14,0,0,0-.55-.14,1.07,1.07,0,0,0-.47.11A1.1,1.1,0,0,0,10,29.42a1.24,1.24,0,0,0,.09.5,1.08,1.08,0,0,0,1,.73,1.25,1.25,0,0,0,.67-.2V31a1.14,1.14,0,0,1-.19.1,1.64,1.64,0,0,1-.61.11,1.66,1.66,0,0,1-1.66-1.77,1.88,1.88,0,0,1,.12-.7,1.56,1.56,0,0,1,1.51-1,1.78,1.78,0,0,1,.8.19Zm.74-.46.22-.1a2.69,2.69,0,0,1,1-.19,1.29,1.29,0,0,1,.9.27.62.62,0,0,1,.21.25,1.34,1.34,0,0,1,.1.61v2.23a6.21,6.21,0,0,1-1.18.13,3.3,3.3,0,0,1-.6-.05,1,1,0,0,1-.54-1.69A2.55,2.55,0,0,1,14.3,29v-.16a.71.71,0,0,0,0-.34.64.64,0,0,0-.64-.32,2.18,2.18,0,0,0-.91.22l-.2.1Zm1.78,1.44a2.06,2.06,0,0,0-1.21.27.59.59,0,0,0-.22.47.44.44,0,0,0,.1.3c.13.17.37.24.78.24a3.61,3.61,0,0,0,.55-.05Zm3-1.12h-.94V30a2,2,0,0,0,0,.3.52.52,0,0,0,.55.32,1.52,1.52,0,0,0,.44-.07v.53a2.69,2.69,0,0,1-.57.06,1.37,1.37,0,0,1-.62-.13c-.42-.23-.44-.68-.44-1.09v-2.8l.63-.49v1.13h.94Zm.93,1.34a1.19,1.19,0,0,0,.06.3,1.08,1.08,0,0,0,.62.65,1.67,1.67,0,0,0,.57.09,2.3,2.3,0,0,0,.79-.15v.51a2.46,2.46,0,0,1-.88.14,2.09,2.09,0,0,1-.92-.19,1.65,1.65,0,0,1-.88-1.59,2.09,2.09,0,0,1,.14-.76,1.43,1.43,0,0,1,1.35-.95,1.36,1.36,0,0,1,1.39,1.46,1.86,1.86,0,0,1-.07.49Zm1.62-.43a1.26,1.26,0,0,0-.11-.61.78.78,0,0,0-1.16-.25,1.26,1.26,0,0,0-.36.86Zm1.91,1.89H21.1V26.73h.64Zm-14.85,0-.27-.86H5l-.26.86H4L5.4,26.73h.83l1.33,4.38ZM5.81,27.34l-.65,2.32H6.45Z"/></svg>