<svg id="Layer_1" data-name="Layer 1" xmlns="http://www.w3.org/2000/svg" xmlns:xlink="http://www.w3.org/1999/xlink" viewBox="0 0 60 60"><defs><style>.cls-1{fill:none;}.cls-2{clip-path:url(#clip-path);}.cls-3{fill:#fff;}</style><clipPath id="clip-path"><rect class="cls-1" x="5" y="24.66" width="50.65" height="10.68"/></clipPath></defs><title>alcatel lucent_60px</title><g id="g12"><g id="g2902"><g class="cls-2"><g id="g30"><g id="g40"><path id="path42" d="M24.42,30a.54.54,0,0,1-1.07,0,.54.54,0,0,1,1.07,0"/></g><g id="g44"><path id="path46" d="M6.72,28.16l-.63,2.27H7.35Zm1.06,3.68L7.52,31H5.92l-.26.84H5l1.32-4.27h.82l1.3,4.27Zm14.5,0h-.62V27.57h.62ZM20.41,30a1.31,1.31,0,0,0-.1-.6.72.72,0,0,0-.66-.4.71.71,0,0,0-.47.16,1.23,1.23,0,0,0-.35.84Zm-1.57.41a.92.92,0,0,0,.06.29,1,1,0,0,0,.6.64,1.55,1.55,0,0,0,.56.09,2.14,2.14,0,0,0,.77-.14v.49a2.37,2.37,0,0,1-.86.14,2.09,2.09,0,0,1-.9-.18,1.63,1.63,0,0,1-.86-1.56,2.16,2.16,0,0,1,.13-.74,1.42,1.42,0,0,1,1.33-.93A1.33,1.33,0,0,1,21,29.94a1.74,1.74,0,0,1-.07.47Zm-.91-1.31H17v1.69a1.94,1.94,0,0,0,0,.29.5.5,0,0,0,.53.31,1.77,1.77,0,0,0,.44-.06v.51a2.6,2.6,0,0,1-.56.06,1.33,1.33,0,0,1-.61-.13c-.41-.22-.42-.66-.42-1.06V28L17,27.5v1.1h.92ZM15,30.2a1.93,1.93,0,0,0-1.18.27.55.55,0,0,0-.22.45.44.44,0,0,0,.1.3c.13.16.36.23.76.23A3.5,3.5,0,0,0,15,31.4Zm-1.74-1.4.21-.1a2.66,2.66,0,0,1,.95-.19,1.3,1.3,0,0,1,.88.26.61.61,0,0,1,.2.25,1.29,1.29,0,0,1,.1.6V31.8a6.69,6.69,0,0,1-1.16.12,3.36,3.36,0,0,1-.59-.05A.93.93,0,0,1,13,31a1,1,0,0,1,.34-.74A2.47,2.47,0,0,1,15,29.8v-.15a.88.88,0,0,0,0-.34c-.07-.16-.25-.31-.63-.31a2.28,2.28,0,0,0-.89.21l-.19.1Zm-.72.45h0l-.11-.08A1.18,1.18,0,0,0,11.9,29a1,1,0,0,0-.46.11,1.07,1.07,0,0,0-.62,1.05,1.29,1.29,0,0,0,.08.48,1.07,1.07,0,0,0,1,.71,1.24,1.24,0,0,0,.66-.2v.52a.87.87,0,0,1-.19.1,1.55,1.55,0,0,1-.59.11,1.63,1.63,0,0,1-1.63-1.72,2,2,0,0,1,.12-.69,1.53,1.53,0,0,1,1.48-1,1.71,1.71,0,0,1,.78.19ZM9.51,31.84H8.9V27.57h.61ZM42.83,29.1h-.92v1.69a1.3,1.3,0,0,0,0,.29c.09.32.44.31.52.31a1.77,1.77,0,0,0,.44-.06v.51a2.6,2.6,0,0,1-.56.06,1.33,1.33,0,0,1-.61-.13c-.41-.22-.42-.66-.42-1.06V28l.61-.47v1.1h.92Zm-4.51-.51v.64a1.48,1.48,0,0,1,.14-.25,1,1,0,0,1,.88-.47,1.23,1.23,0,0,1,.69.21A1.37,1.37,0,0,1,40.45,30v1.89h-.62V30a1,1,0,0,0-.23-.78.64.64,0,0,0-.45-.16.78.78,0,0,0-.47.17,1.35,1.35,0,0,0-.33,1.13v1.46h-.62V28.59ZM36.45,30a1.23,1.23,0,0,0-.11-.6.72.72,0,0,0-.66-.4.68.68,0,0,0-.46.16,1.21,1.21,0,0,0-.36.84Zm-1.58.41a.92.92,0,0,0,.06.29,1,1,0,0,0,.6.64,1.6,1.6,0,0,0,.56.09,2.14,2.14,0,0,0,.77-.14v.49a2.37,2.37,0,0,1-.86.14,2.13,2.13,0,0,1-.91-.18,1.62,1.62,0,0,1-.85-1.56,2.16,2.16,0,0,1,.13-.74,1.41,1.41,0,0,1,1.32-.93,1.34,1.34,0,0,1,1.36,1.43,1.74,1.74,0,0,1-.07.47ZM33.8,29.25h0l-.11-.08a1.18,1.18,0,0,0-.54-.13,1,1,0,0,0-.46.11,1.07,1.07,0,0,0-.62,1.05,1.29,1.29,0,0,0,.08.48,1.07,1.07,0,0,0,1,.71,1.24,1.24,0,0,0,.66-.2v.52a.87.87,0,0,1-.19.1,1.55,1.55,0,0,1-.59.11,1.63,1.63,0,0,1-1.63-1.72,2,2,0,0,1,.12-.69,1.53,1.53,0,0,1,1.48-1,1.71,1.71,0,0,1,.78.19v.55Zm-5-.66v1.84a.73.73,0,0,0,.76.95.71.71,0,0,0,.46-.14c.28-.22.26-.62.26-.93V28.59h.61v1.72a2.41,2.41,0,0,1-.06.75,1.09,1.09,0,0,1-.52.68,1.51,1.51,0,0,1-.77.18,1.81,1.81,0,0,1-.44-.05,1.17,1.17,0,0,1-.82-.68,2.35,2.35,0,0,1-.1-.8v-1.8Zm-2.64-1v3.7H27.8v.57H25.49V27.57Z"/></g></g></g></g></g><circle cx="50" cy="29.67" r="5"/><g id="g36"><path id="path38" class="cls-3" d="M52.64,31.28a4.34,4.34,0,0,1-1.51,1.13c-.45.18-.65.18-.67-.31a18.85,18.85,0,0,1,.83-4.34c.38-1.38.43-1.62-.23-1.84-.49-.16-.85-.05-1.58.63a17.44,17.44,0,0,0-3.1,4.34,5.6,5.6,0,0,0,.54.43c.17.12.3.09.42-.1a7.91,7.91,0,0,1,2.45-2.35l.15-.5a10.25,10.25,0,0,0-1.55.92c.88-1.62,2.16-2.93,2.39-2.82a13.67,13.67,0,0,1-.72,2.69,11.15,11.15,0,0,0-.57,3.53c.06.78.67,1,1.57.59a4.36,4.36,0,0,0,1.79-1.59l-.2-.42Zm-.26-3.39a3.27,3.27,0,0,0-.77,0c0,.07,0,.15-.07.24a1.48,1.48,0,0,1,1.7.52A2.15,2.15,0,0,1,53,30.78l.17.35h0c1.1-2.28-.13-3.1-.8-3.23"/></g></svg>