<svg id="Layer_1" data-name="Layer 1" xmlns="http://www.w3.org/2000/svg" viewBox="0 0 60 60"><title>aricent_60px</title><path d="M38.41,30.39H35.8s-.07,0-.08.08v.12c0,.1,0,.2,0,.3a3.4,3.4,0,0,0,.38,1.33,2.34,2.34,0,0,0,1.61,1.21,2.84,2.84,0,0,0,.66.08h.32a3,3,0,0,0,1.89-.74l.12-.1h0s0,0,0,0,0,.07,0,.1c-.11.4-.22.79-.32,1.19l0,.1,0,0-.06,0a4.62,4.62,0,0,1-1,.26l-.43.06h-.11c-.3,0-.61,0-.91,0l-.38,0a4.33,4.33,0,0,1-.92-.25,3.62,3.62,0,0,1-2.26-2.56,3.8,3.8,0,0,1-.11-.95,5.22,5.22,0,0,1,0-.69,4.25,4.25,0,0,1,.49-1.47,3.31,3.31,0,0,1,2.16-1.59,3.14,3.14,0,0,1,.87-.1H38a3.12,3.12,0,0,1,2.57,1.42,3.62,3.62,0,0,1,.5,1.26,4.17,4.17,0,0,1,.07.71.34.34,0,0,0,0,.1.06.06,0,0,1-.06.06H38.41Zm-.71-.87h1.89s0,0,0,0v0a1.83,1.83,0,0,0-.21-.66,1.67,1.67,0,0,0-1-.84,2.38,2.38,0,0,0-.75-.1,1.78,1.78,0,0,0-.75.16,1.91,1.91,0,0,0-1.11,1.33.89.89,0,0,0,0,.14s0,.06,0,.06H37.7Z"/><path d="M10.89,22.32a.15.15,0,0,1,0,.07l.51,1.24c.67,1.63,1.34,3.25,2,4.88.54,1.32,1.09,2.65,1.64,4a5.51,5.51,0,0,0,.31.7,4.27,4.27,0,0,0,.3.51,2.42,2.42,0,0,0,.75.71.24.24,0,0,1,.09.06s0,0,0,0l0,0H13.16l0,0s0,0,0,0,0,0,.07,0l.14-.07.16-.09a.44.44,0,0,0,.17-.35,1.13,1.13,0,0,0,0-.32,3,3,0,0,0-.11-.32c-.19-.48-.38-1-.58-1.44-.85-2.1-1.71-4.2-2.56-6.29L10,24.47c0-.13,0-.13,0-.27.29-.6.59-1.2.88-1.81C10.86,22.36,10.86,22.34,10.89,22.32Z"/><path d="M30.94,34.58h-.47l-.34,0a5.61,5.61,0,0,1-1-.24,4.35,4.35,0,0,1-1.08-.59,3.54,3.54,0,0,1-1.24-1.82,5.78,5.78,0,0,1-.12-.57,5.53,5.53,0,0,1,0-.91,3.55,3.55,0,0,1,1.76-2.85A4.4,4.4,0,0,1,29.81,27c.23-.05.47-.07.7-.1h.7l.23,0h.11c.23,0,.46.06.69.1a4.88,4.88,0,0,1,.55.12h0c.17.05.17,0,.19.23s0,.39.05.58a.53.53,0,0,1,0,.13l0,.24c0,.07,0,.15,0,.22s0,0,0,0l-.05,0a.18.18,0,0,1-.07-.05,2.76,2.76,0,0,0-1.31-.6,2,2,0,0,0-.48-.05H31a3.27,3.27,0,0,0-1.11.22,2.58,2.58,0,0,0-1.41,1.4,2.75,2.75,0,0,0-.22.93c0,.05,0,.1,0,.14a2.44,2.44,0,0,0,0,.27c0,.17,0,.34.06.51A2.68,2.68,0,0,0,29,32.85a2.56,2.56,0,0,0,1,.59,3,3,0,0,0,.88.16h.34A2.82,2.82,0,0,0,33,32.91l.09-.06h0s0,0,0,0v0c-.08.41-.17.83-.25,1.25a.14.14,0,0,1,0,.07.1.1,0,0,1-.07.07l-.46.12c-.24,0-.49.08-.74.12S31.16,34.57,30.94,34.58Z"/><path d="M52.23,30.32V28.5c0-.1,0-.21,0-.31a.94.94,0,0,0-.51-.72.87.87,0,0,0-.35-.13l-.16,0s0-.05,0-.07l.06-.06.23-.19,2-1.63.11-.08a0,0,0,0,1,.07,0s0,.07,0,.1v1.45a.91.91,0,0,0,0,.17.07.07,0,0,0,.07.07h1.33a2.94,2.94,0,0,0,.59-.05l.32-.11h0a0,0,0,0,1,0,0s0,0,0,0l0,0-.5,1,0,.07a.15.15,0,0,1-.16.09H53.72a.07.07,0,0,0-.07.07.28.28,0,0,0,0,.09v3.4c0,.17,0,.34,0,.5a1.5,1.5,0,0,0,.15.51,1.1,1.1,0,0,0,.6.58,1.36,1.36,0,0,0,.44.11,1.9,1.9,0,0,0,.25,0,1.15,1.15,0,0,0,.55-.11l.07,0h0v0l0,.05-.6.91,0,.07a.12.12,0,0,1-.07.05l-.16,0a4,4,0,0,1-.69,0,1.93,1.93,0,0,1-1.65-1.14,2.88,2.88,0,0,1-.23-.81,4.87,4.87,0,0,1,0-.66V30.32Z"/><path d="M17.83,30.91V28.4a2.48,2.48,0,0,0,0-.27.77.77,0,0,0-.36-.49l-.16-.08a0,0,0,0,1,0,0,.1.1,0,0,1,0,0l0,0,.31-.06,1.3-.22a.78.78,0,0,1,.21,0h.05a0,0,0,0,1,0,0,.71.71,0,0,1,0,.14v.72s0,.07,0,.1h0l.07-.11a1.85,1.85,0,0,1,.3-.39,2,2,0,0,1,1-.55,2.57,2.57,0,0,1,.62-.08,2.74,2.74,0,0,1,.5,0h0c.15,0,.16,0,.16.19v1s0,.05,0,.08l0,0h-.07a2.18,2.18,0,0,0-.61-.15,2.24,2.24,0,0,0-1,.08,1.41,1.41,0,0,0-.87.8,2,2,0,0,0-.16.54,4.19,4.19,0,0,0,0,.5V33a3.89,3.89,0,0,0,0,.59,1.89,1.89,0,0,0,.09.34,1,1,0,0,0,.35.45l.11.08a0,0,0,0,1,0,0l0,0H17.27l0,0a.06.06,0,0,1,0,0l.09-.06a1,1,0,0,0,.45-.68,1.73,1.73,0,0,0,0-.32V30.91Z"/><path d="M44.86,28.21a.19.19,0,0,1,0-.08,3.11,3.11,0,0,1,.4-.41,2.64,2.64,0,0,1,1-.55,2.17,2.17,0,0,1,.62-.1h.32a2.55,2.55,0,0,1,2.08,1.23,3,3,0,0,1,.37,1,3.53,3.53,0,0,1,.08.72v2.91a4.57,4.57,0,0,0,0,.64,1.8,1.8,0,0,0,.1.4,1,1,0,0,0,.32.4l.13.09s0,0,0,0l0,0H47.77s0,0,0-.05l0,0,.1-.07a1,1,0,0,0,.35-.49,1.84,1.84,0,0,0,.09-.42c0-.25,0-.51,0-.76V30.53a5.68,5.68,0,0,0,0-.59,3.18,3.18,0,0,0-.25-1,2.15,2.15,0,0,0-.44-.64,1.89,1.89,0,0,0-.93-.48,2.7,2.7,0,0,0-.75,0,2.58,2.58,0,0,0-1.08.37Z"/><path d="M44.49,30.29V33c0,.2,0,.41,0,.62a1.74,1.74,0,0,0,.11.39,1,1,0,0,0,.32.39l.12.09a0,0,0,0,1,0,0s0,0,0,0H42.53l0,0s0,0,0,0l0,0,.09-.06a1,1,0,0,0,.39-.62,1.65,1.65,0,0,0,0-.32V28.32a.8.8,0,0,0,0-.26.69.69,0,0,0-.31-.42.8.8,0,0,0-.16-.08s0,0,0,0,0,0,.05-.05h0l.33-.06,1-.17.41-.08h.16s0,0,0,0a.43.43,0,0,0,0,0v3.05Z"/><path d="M24.85,30.27V33c0,.21,0,.41,0,.62a2.11,2.11,0,0,0,.09.36,1,1,0,0,0,.34.43l.13.1v0s0,0,0,0H22.91l-.05,0a.11.11,0,0,1,0-.05l0,0,.07,0a1,1,0,0,0,.4-.62,2.7,2.7,0,0,0,0-.28c0-.21,0-.42,0-.62,0-1.37,0-2.74,0-4.1,0-.16,0-.31,0-.47a.69.69,0,0,0-.05-.24.72.72,0,0,0-.31-.38l-.18-.09v0s0,0,0,0h0l.3-.06,1.1-.19.28-.05a.55.55,0,0,1,.18,0s.05,0,.05.05,0,0,0,.05v3Z"/><path d="M11.06,28.81a3.09,3.09,0,0,0-1.23.37,7.52,7.52,0,0,0-1.49,1.59c-.13.23-1.09,2.58-1.13,2.7a1.32,1.32,0,0,0-.08.33.5.5,0,0,0,.18.48.94.94,0,0,0,.22.12l.13.06v0H4.53s0,0,0,0a0,0,0,0,1,0,0l0,0,.09,0a2.2,2.2,0,0,0,.74-.65,4.48,4.48,0,0,0,.35-.6l.15-.3c.24-.53.5-1,.76-1.58a9.5,9.5,0,0,1,.5-.88,4.48,4.48,0,0,1,.62-.76,3,3,0,0,1,1.51-.81,3.6,3.6,0,0,1,.56-.08l.26,0a3.38,3.38,0,0,1,.45,0c.15,0,.3,0,.45.06A.1.1,0,0,1,11.06,28.81Z"/><path d="M23.18,23.46a.82.82,0,0,1,.31-.65,1,1,0,0,1,.74-.23.79.79,0,0,1,.52.22.94.94,0,0,1,0,1.4.8.8,0,0,1-.55.24,1,1,0,0,1-1-.76C23.19,23.61,23.19,23.53,23.18,23.46Z"/><polygon points="44.98 28.1 44.97 28.09 44.98 28.09 44.98 28.1"/></svg>