<svg id="Layer_1" data-name="Layer 1" xmlns="http://www.w3.org/2000/svg" viewBox="0 0 60 60"><title>at&amp;amp;t_60px</title><g id="g3"><path id="path5" d="M51.26,34a.22.22,0,0,1-.23-.22V27.34H48.78a.21.21,0,0,1-.22-.22v-.89a.21.21,0,0,1,.22-.22h6a.21.21,0,0,1,.23.22v.89a.21.21,0,0,1-.23.22H52.52v6.45a.21.21,0,0,1-.22.22h-1M34,30.79l-1.18-3.3-1.19,3.3Zm2.62,3a.18.18,0,0,1-.17.26H35.4a.28.28,0,0,1-.3-.21l-.61-1.7H31.18l-.61,1.7a.28.28,0,0,1-.3.21h-1a.19.19,0,0,1-.17-.26l2.78-7.54a.29.29,0,0,1,.3-.2h1.38a.3.3,0,0,1,.31.2l2.78,7.54m8-.82a1.67,1.67,0,0,0,1.46-.84l-1.66-1.74c-.64.35-1.05.7-1.05,1.4a1.2,1.2,0,0,0,1.25,1.18m.46-5.86a.76.76,0,0,0-.84.77c0,.34.19.64.61,1.08.73-.41,1-.66,1-1.1a.73.73,0,0,0-.81-.75m4.56,6.66c.13.14,0,.28-.12.28h-1.3a.42.42,0,0,1-.38-.17L47.06,33a2.91,2.91,0,0,1-2.47,1.19,2.42,2.42,0,0,1-2.68-2.39,2.48,2.48,0,0,1,1.6-2.3,2.45,2.45,0,0,1-.69-1.58,2.06,2.06,0,0,1,2.24-2.09,2,2,0,0,1,2.22,2,2.32,2.32,0,0,1-1.52,2L46.91,31l.65-1.1a.35.35,0,0,1,.34-.18h1c.16,0,.25.11.15.28L47.9,31.9l1.74,1.83M39.38,34a.21.21,0,0,0,.23-.22V27.34h2.25a.22.22,0,0,0,.23-.22v-.89a.22.22,0,0,0-.23-.22h-6a.22.22,0,0,0-.23.22v.89a.22.22,0,0,0,.23.22h2.25v6.45a.21.21,0,0,0,.23.22Z"/><path id="path9" d="M9,37.9a10.49,10.49,0,0,0,13.07-.38s0,0,0,0a12.7,12.7,0,0,1-6.76,1.68A13.2,13.2,0,0,1,9,37.88s0,0,0,0m7,.51a11.85,11.85,0,0,0,7-2,5.48,5.48,0,0,0,1.27-1.49,9.09,9.09,0,0,0,.62-1.25s0,0,0,0c-1.55,2.22-6,3.6-10.64,3.6-3.27,0-6.79-1-8.16-3,0,0,0,0,0,0,1.28,2.65,5.17,4.1,10,4.1M13.21,34C8,34,5.47,31.62,5,30c0,0,0,0,0,0a10.29,10.29,0,0,0,.15,1.72,2.08,2.08,0,0,0,.52.88c1.27,1.29,4.45,3.1,10,3.1,7.49,0,9.21-2.43,9.56-3.23A7.12,7.12,0,0,0,25.56,30c0-.21,0-.38,0-.54s0,0,0,0c-.37,2-6.78,4.56-12.31,4.56M6,25.71a9.72,9.72,0,0,0-.73,2.07.62.62,0,0,0,0,.49c.63,1.3,3.82,3.38,11.26,3.38,4.54,0,8.06-1.08,8.63-3.06a2.29,2.29,0,0,0,0-1.27,10,10,0,0,0-.67-1.73s0,0,0,0c.09,2.6-7.36,4.28-11.11,4.28-4.07,0-7.46-1.58-7.46-3.57A2.33,2.33,0,0,1,6,25.72s0,0,0,0m16.08-3.19a.44.44,0,0,1,.06.23c0,1.11-3.49,3.08-9,3.08-4.09,0-4.86-1.48-4.86-2.42a1.61,1.61,0,0,1,.43-1s0,0,0,0a10.08,10.08,0,0,0-1.45,1.47,1.29,1.29,0,0,0-.33.6c0,1.95,5,3.36,9.7,3.36,5,0,7.21-1.59,7.21-3,0-.5-.19-.79-.7-1.35a11,11,0,0,0-1-1s0,0,0,0m-1.53-1.11a10.52,10.52,0,0,0-10.59,0c-.47.28-.73.5-.73.79,0,.84,2,1.75,5.62,1.75s6.31-1,6.31-1.95c0-.23-.2-.39-.61-.63"/></g></svg>