<svg id="Layer_1" data-name="Layer 1" xmlns="http://www.w3.org/2000/svg" viewBox="0 0 60 60"><title>brocade_60px</title><g id="g3822"><g id="g3828"><path id="path3830" d="M10.56,46.33h1.68a1,1,0,0,0,1.14-1,1,1,0,0,0-1.14-1H10.56Zm0-3h1.58a1,1,0,1,0,0-2H10.56Zm-1.23-3h2.8a2.29,2.29,0,0,1,1.94.68,1.81,1.81,0,0,1,.4,1.16,1.54,1.54,0,0,1-1.31,1.58,1.84,1.84,0,0,1,1.12.57,1.75,1.75,0,0,1,.41,1.16,1.91,1.91,0,0,1-.58,1.41,2.32,2.32,0,0,1-1.64.52H9.33Z"/></g><g id="g3832"><path id="path3834" d="M16.56,43.46h1.62c.63,0,1.38-.21,1.38-1.09,0-.53-.36-1-1.28-1H16.56Zm2.94,3.93-1.12-2.91H16.56v2.91H15.27V40.31h3.11a2.66,2.66,0,0,1,1.88.55,2,2,0,0,1,.64,1.53,1.88,1.88,0,0,1-1.29,1.88l1.26,3.12Z"/></g><g id="g3836"><path id="path3838" d="M25.52,42a1.35,1.35,0,0,0-1.29-.78c-1.36,0-1.66,1.37-1.66,2.64,0,.84.14,2.6,1.64,2.6a1.51,1.51,0,0,0,1.35-.82,3.79,3.79,0,0,0,.32-1.81A4.37,4.37,0,0,0,25.52,42M24.2,47.5c-2.26,0-3-2.07-3-3.67,0-1.92,1.1-3.63,3.08-3.63s3,1.75,3,3.65c0,2.16-1.2,3.65-3.08,3.65"/></g><g id="g3840"><path id="path3842" d="M33.22,45.07a2.61,2.61,0,0,1-2.73,2.43c-2.41,0-2.88-2.43-2.88-3.65,0-1.84.87-3.65,2.92-3.65a2.63,2.63,0,0,1,2.69,2.51L32,42.84c-.13-.57-.38-1.61-1.47-1.61-1.44,0-1.52,2-1.52,2.59,0,2,.81,2.61,1.57,2.61A1.51,1.51,0,0,0,32,44.93Z"/></g><g id="g3844"><path id="path3846" d="M37,44.69l-1-3.17-1,3.17Zm2.31,2.7H38l-.59-1.68H34.61l-.56,1.68H32.94l2.39-7.08h1.58Z"/></g><g id="g3848"><path id="path3850" d="M41,46.35h1.08c1.12,0,2.08-.85,2.08-2.56,0-1.29-.7-2.47-1.93-2.47H41Zm-1.33-6h2.65a2.94,2.94,0,0,1,2.22.88,3.71,3.71,0,0,1,1,2.66A3.26,3.26,0,0,1,42,47.39H39.67Z"/></g><g id="g3852"><path id="path3854" d="M46,47.39V40.31h4.62v1H47.3v1.92H50v1H47.3v2h3.37v1.09Z"/></g></g><g id="g3860"><path id="path3862" d="M38.3,21.51c-4,0-8.58-1.86-13.87-5.67H38.3a2.84,2.84,0,0,1,0,5.67m0,9.54H24.42c5.3-3.82,9.84-5.67,13.88-5.67a2.84,2.84,0,0,1,0,5.67m4.11-7.61a6.24,6.24,0,0,0,2.18-4.76,6.08,6.08,0,0,0-6-6.18H15.41c5.93,6.19,11.59,9.37,16,10.94-4.42,1.57-10.08,4.76-16,11H38.6a6.08,6.08,0,0,0,6-6.18,6.25,6.25,0,0,0-2.18-4.77"/></g></svg>