<svg id="Layer_1" data-name="Layer 1" xmlns="http://www.w3.org/2000/svg" viewBox="0 0 60 60"><title>brocade_60px</title><g id="g3822"><g id="g3828"><path id="path3830" d="M6,50.15H8.09A1.25,1.25,0,0,0,9.5,48.89a1.27,1.27,0,0,0-1.41-1.25H6ZM6,46.4H8a1.22,1.22,0,1,0,0-2.44H6ZM4.5,42.72H8a2.82,2.82,0,0,1,2.39.84A2.18,2.18,0,0,1,10.84,45a1.9,1.9,0,0,1-1.61,2,2.32,2.32,0,0,1,1.38.7,2.16,2.16,0,0,1,.51,1.43,2.34,2.34,0,0,1-.72,1.74,2.86,2.86,0,0,1-2,.65H4.5Z"/></g><g id="g3832"><path id="path3834" d="M13.42,46.61h2c.79,0,1.71-.26,1.71-1.35,0-.66-.44-1.28-1.57-1.28H13.42Zm3.63,4.85-1.38-3.59H13.42v3.59H11.83V42.72h3.84A3.24,3.24,0,0,1,18,43.4a2.43,2.43,0,0,1,.8,1.89,2.35,2.35,0,0,1-1.6,2.32l1.56,3.85Z"/></g><g id="g3836"><path id="path3838" d="M24.48,44.81a1.66,1.66,0,0,0-1.6-1c-1.67,0-2,1.69-2,3.25,0,1,.17,3.21,2,3.21a1.88,1.88,0,0,0,1.66-1,4.68,4.68,0,0,0,.4-2.24,5.54,5.54,0,0,0-.44-2.26m-1.64,6.78c-2.79,0-3.73-2.56-3.73-4.53,0-2.36,1.36-4.47,3.8-4.47s3.74,2.15,3.74,4.49c0,2.67-1.48,4.51-3.81,4.51"/></g><g id="g3840"><path id="path3842" d="M34,48.59a3.22,3.22,0,0,1-3.36,3c-3,0-3.55-3-3.55-4.51,0-2.27,1.06-4.49,3.6-4.49,1.89,0,3,1.18,3.31,3.09l-1.49.16c-.16-.7-.47-2-1.81-2-1.78,0-1.88,2.4-1.88,3.18,0,2.5,1,3.22,1.94,3.22a1.85,1.85,0,0,0,1.75-1.84Z"/></g><g id="g3844"><path id="path3846" d="M38.66,48.12l-1.29-3.91-1.29,3.91Zm2.84,3.34H39.8l-.71-2.09H35.68L35,51.46H33.62l3-8.74h2Z"/></g><g id="g3848"><path id="path3850" d="M43.56,50.17h1.35c1.38,0,2.56-1.05,2.56-3.15,0-1.6-.86-3.06-2.38-3.06H43.56Zm-1.63-7.45H45.2a3.63,3.63,0,0,1,2.74,1.09,4.57,4.57,0,0,1,1.26,3.27,4.48,4.48,0,0,1-1.48,3.49,4.54,4.54,0,0,1-2.88.89H41.93Z"/></g><g id="g3852"><path id="path3854" d="M49.74,51.46V42.72h5.71V44H51.34v2.37h3.3v1.27h-3.3v2.45H55.5v1.35Z"/></g></g><g id="g3860"><path id="path3862" d="M40.24,19.53c-5,0-10.59-2.29-17.12-7H40.24a3.5,3.5,0,0,1,0,7m0,11.76H23.12c6.53-4.7,12.14-7,17.12-7a3.5,3.5,0,0,1,0,7m5.07-9.38A7.69,7.69,0,0,0,48,16a7.51,7.51,0,0,0-7.39-7.62H12C19.32,16.05,26.29,20,31.75,21.91,26.29,23.85,19.32,27.78,12,35.41H40.61A7.51,7.51,0,0,0,48,27.79a7.72,7.72,0,0,0-2.69-5.88"/></g></svg>