<svg id="Layer_1" data-name="Layer 1" xmlns="http://www.w3.org/2000/svg" viewBox="0 0 60 60"><title>cisco_60px</title><g id="layer1"><g id="g53688"><path id="path53690" d="M50.42,25.92a.89.89,0,1,0-1.77,0v1.86a.89.89,0,1,0,1.77,0Zm-4.87-2.44a.9.9,0,0,0-1.79,0v4.3a.9.9,0,0,0,1.79,0Zm-4.89-3.35a.89.89,0,0,0-1.77,0v9.42a.89.89,0,0,0,1.77,0Zm-4.89,3.35a.89.89,0,1,0-1.77,0v4.3a.89.89,0,1,0,1.77,0Zm-4.88,2.44a.89.89,0,0,0-1.78,0v1.86a.89.89,0,0,0,1.78,0ZM26,23.48a.89.89,0,0,0-1.78,0v4.3a.89.89,0,0,0,1.78,0Zm-4.89-3.35a.89.89,0,0,0-1.78,0v9.42a.89.89,0,0,0,1.78,0Zm-4.88,3.35a.89.89,0,1,0-1.78,0v4.3a.89.89,0,0,0,1.78,0Zm-4.89,2.44a.89.89,0,1,0-1.77,0v1.86a.89.89,0,1,0,1.77,0V25.92Zm18.36,7.71A8,8,0,0,0,28,33.41c-1.65,0-2.65.89-2.65,2.21s.83,1.76,1.83,2.08l.38.12c.45.14.8.35.8.71s-.41.66-1.3.66a6.8,6.8,0,0,1-1.69-.26v1.63a10.75,10.75,0,0,0,1.93.19c1.37,0,2.94-.6,2.94-2.38a2.14,2.14,0,0,0-1.69-2L28,36.19c-.3-.1-.83-.25-.83-.68s.39-.58,1.11-.58a5.89,5.89,0,0,1,1.4.22V33.63Zm15.14,3.45A1.85,1.85,0,1,1,43,35.22a1.83,1.83,0,0,1,1.85,1.86M43,33.41a3.67,3.67,0,1,0,3.75,3.67A3.64,3.64,0,0,0,43,33.41m-24.33.25A5.53,5.53,0,0,0,17,33.41a3.67,3.67,0,1,0,0,7.34,6,6,0,0,0,1.64-.25V38.59a3.09,3.09,0,0,1-1.51.38,1.89,1.89,0,1,1,0-3.78,3.13,3.13,0,0,1,1.51.38Zm18.69,0a5.5,5.5,0,0,0-1.63-.25,3.67,3.67,0,1,0,0,7.34,5.78,5.78,0,0,0,1.63-.25V38.59a3,3,0,0,1-1.5.38,1.89,1.89,0,1,1,0-3.78,3.07,3.07,0,0,1,1.5.38Zm-14.44,7H21.13V33.54h1.79Z"/></g></g></svg>