<svg id="Layer_1" data-name="Layer 1" xmlns="http://www.w3.org/2000/svg" viewBox="0 0 60 60"><title>cisco_60px</title><g id="layer1"><g id="g53688"><path id="path53690" d="M53.75,25.25a1,1,0,0,0-2.06,0v2.17a1,1,0,1,0,2.06,0Zm-5.67-2.84a1,1,0,0,0-2.08,0v5a1,1,0,0,0,2.08,0ZM42.4,18.53a1,1,0,1,0-2.06,0V29.47a1,1,0,1,0,2.06,0Zm-5.69,3.88a1,1,0,0,0-2.06,0v5a1,1,0,0,0,2.06,0ZM31,25.25a1,1,0,0,0-2.06,0v2.17a1,1,0,1,0,2.06,0Zm-5.67-2.84a1,1,0,0,0-2.07,0v5a1,1,0,0,0,2.07,0Zm-5.68-3.88a1,1,0,0,0-2.07,0V29.47a1,1,0,1,0,2.07,0ZM14,22.41a1,1,0,0,0-2.07,0v5a1,1,0,0,0,2.07,0ZM8.32,25.25a1,1,0,0,0-2.07,0v2.17a1,1,0,0,0,2.07,0V25.25Zm21.35,9a8.63,8.63,0,0,0-2-.27c-1.92,0-3.08,1-3.08,2.58,0,1.36,1,2,2.13,2.41l.44.14c.52.17.93.41.93.83s-.48.76-1.51.76a8.25,8.25,0,0,1-2-.3v1.89a11.48,11.48,0,0,0,2.25.23c1.59,0,3.42-.7,3.42-2.77a2.48,2.48,0,0,0-2-2.35l-.58-.19c-.34-.1-.95-.28-.95-.78s.45-.68,1.29-.68a8,8,0,0,1,1.63.25V34.23Zm17.6,4a2.16,2.16,0,1,1-2.16-2.17,2.13,2.13,0,0,1,2.16,2.17M45.11,34a4.27,4.27,0,1,0,4.36,4.26A4.23,4.23,0,0,0,45.11,34m-28.29.29a6.31,6.31,0,0,0-1.9-.29,4.27,4.27,0,1,0,0,8.53,6.8,6.8,0,0,0,1.9-.29V40a3.64,3.64,0,0,1-1.75.44,2.2,2.2,0,1,1,0-4.4,3.63,3.63,0,0,1,1.75.44Zm21.74,0a6.38,6.38,0,0,0-1.9-.29,4.27,4.27,0,1,0,0,8.53,6.8,6.8,0,0,0,1.9-.29V40a3.64,3.64,0,0,1-1.75.44,2.2,2.2,0,1,1,0-4.4,3.68,3.68,0,0,1,1.75.44ZM21.77,42.35H19.68V34.11h2.09Z"/></g></g></svg>