<svg id="Layer_1" data-name="Layer 1" xmlns="http://www.w3.org/2000/svg" viewBox="0 0 60 60"><title>cloud foundry_60px</title><g id="g4191"><g id="g4197"><path id="path4199" d="M27.18,29s.35-1.35-1.18-3.1L26,25.79A4.34,4.34,0,0,1,25,23a4.28,4.28,0,0,1,4.25-4.3h.1A4.28,4.28,0,0,1,33.55,23a4.34,4.34,0,0,1-1,2.77l0,.06A4.15,4.15,0,0,0,31.32,29a6.29,6.29,0,0,0-1.72-12.2h-.7A6.29,6.29,0,0,0,27.18,29"/></g><g id="g4201"><path id="path4203" d="M35.2,33.94a2.74,2.74,0,0,1,.37-.11,2.68,2.68,0,0,1,.43,0l0-.12a.72.72,0,0,0-.07-.26s0-.1,0-.14a.67.67,0,0,1-.06-.12L35.74,33a3.13,3.13,0,0,1-.44-.1l-.4-.14a1.57,1.57,0,0,1-.55-.34.42.42,0,0,1-.16-.35.25.25,0,0,1,.08-.15.36.36,0,0,1,.16-.13l-.14-.08-.13-.07L34,31.59l-.32-.15-.15-.06-.35,0a2.44,2.44,0,0,1-.38,0,3.1,3.1,0,0,1-.7-.12,1.63,1.63,0,0,1-.29-.1,1,1,0,0,1-.21-.11c-.12-.09-.19-.17-.19-.26l-.17,0-.48-.07a.51.51,0,0,1,0,.09l0,.17a.7.7,0,0,0,.48.82A2.43,2.43,0,0,1,32.83,33c.37,1-1.19,2-3.56,2s-3.94-1-3.57-2a2.35,2.35,0,0,1,1.61-1.14A.73.73,0,0,0,27.8,31l-.05-.24-.32,0a2.86,2.86,0,0,0-.37.06l-.18,0c0,.08-.05.17-.16.25l-.2.12-.28.11-.33.08-.37.05a3.54,3.54,0,0,1-.73,0l0,0-.1.05-.31.15c-.12.05-.22.12-.3.16l-.1.06,0,0c.16.07.25.17.26.28a.38.38,0,0,1-.11.36,1.11,1.11,0,0,1-.23.19,1.49,1.49,0,0,1-.31.17,3.15,3.15,0,0,1-.85.26l0,.12a2.56,2.56,0,0,0-.09.26c0,.09,0,.19,0,.26a.32.32,0,0,0,0,.13,2.25,2.25,0,0,1,.84.15,1,1,0,0,1,.53.37.57.57,0,0,1,0,.54,1.22,1.22,0,0,1-.47.62l0,0a.41.41,0,0,0,.12.09c.1.07.23.18.38.27l.45.25.16.07.07,0a3.8,3.8,0,0,1,1.15-.28,3.71,3.71,0,0,1,.57,0,3.43,3.43,0,0,1,.56.07,3.26,3.26,0,0,1,.5.16,3.31,3.31,0,0,1,.42.24,1.48,1.48,0,0,1,.55.7l.33,0c.2,0,.47,0,.74,0l.73,0,.33,0a.85.85,0,0,1,.17-.39,1,1,0,0,1,.14-.17l.16-.15a1.6,1.6,0,0,1,.4-.25,2.67,2.67,0,0,1,.48-.18,4.68,4.68,0,0,1,.54-.08A3.62,3.62,0,0,1,33,36a4,4,0,0,1,1.17.25l.2-.11a3.1,3.1,0,0,0,.41-.26c.13-.1.27-.19.36-.27l.13-.13a1.53,1.53,0,0,1-.53-.6.53.53,0,0,1-.06-.27.39.39,0,0,1,.06-.26.9.9,0,0,1,.46-.38"/></g></g><g id="g4205"><g id="g4207"><g id="g4213"><g id="g4215"><path id="path4229" d="M26.1,23a2.61,2.61,0,0,0,1,2h0a4.48,4.48,0,0,1,1.41,3.26h0c0,1.53-.06,3.3-.12,4.2h0c-.81.12-1.38.39-1.38.71h0c0,.42,1,.91,2.25.91h0c1.24,0,2.24-.49,2.24-.91h0c0-.32-.57-.59-1.37-.71h0c-.07-.9-.17-2.67-.13-4.2h0a4.52,4.52,0,0,1,1.41-3.26h0a2.58,2.58,0,0,0,1-2h0a3,3,0,0,0-3.13-2.72h0A3,3,0,0,0,26.1,23"/></g></g></g></g><g id="g4233"><g id="g4239"><path id="path4241" d="M9.28,45.47a1.71,1.71,0,0,1-1.21.5,1.6,1.6,0,0,1-1.7-1.68,1.62,1.62,0,0,1,1.7-1.71,1.67,1.67,0,0,1,1.21.5l-.18.15a1.42,1.42,0,0,0-1-.42,1.46,1.46,0,1,0,0,2.92,1.5,1.5,0,0,0,1-.42Z"/></g><g id="g4243"><path id="path4245" d="M10.54,42.62v3.07H12.4v.24H10.28V42.62Z"/></g><g id="g4247"><path id="path4249" d="M13.55,44.27a1.42,1.42,0,1,0,2.84,0,1.42,1.42,0,1,0-2.84,0m3.09,0A1.67,1.67,0,1,1,15,42.56a1.62,1.62,0,0,1,1.67,1.72"/></g><g id="g4251"><path id="path4253" d="M20.34,42.62v2.06a1.27,1.27,0,1,1-2.54,0V42.62h.25v2.06a1,1,0,1,0,2,0V42.62Z"/></g><g id="g4255"><path id="path4257" d="M21.82,42.86v2.82h.87a1.36,1.36,0,0,0,1.42-1.45,1.34,1.34,0,0,0-1.42-1.37Zm2.55,1.37a1.59,1.59,0,0,1-1.68,1.7H21.57V42.62h1.12a1.59,1.59,0,0,1,1.68,1.61"/></g><g id="g4259"><path id="path4261" d="M25.86,45.93V42.62h2.38v.6H26.48v.91h1.67v.57H26.48v1.23Z"/></g><g id="g4263"><path id="path4265" d="M29.7,44.31a1.09,1.09,0,1,0,2.17,0,1.09,1.09,0,1,0-2.17,0m2.78,0a1.7,1.7,0,1,1-3.4,0,1.7,1.7,0,1,1,3.4,0"/></g><g id="g4267"><path id="path4269" d="M36.4,42.62v1.9A1.34,1.34,0,0,1,35,46a1.38,1.38,0,0,1-1.47-1.48v-1.9h.62v1.9a.81.81,0,0,0,.86.91c.51,0,.8-.34.8-.91v-1.9Z"/></g><g id="g4271"><path id="path4273" d="M39.75,42.61h.62v3.32H40L38.24,43.7v2.23h-.62V42.62h.5l1.63,2.05Z"/></g><g id="g4275"><path id="path4277" d="M42.08,45.33h.68a1.06,1.06,0,0,0,0-2.12h-.68Zm2.34-1.09a1.58,1.58,0,0,1-1.66,1.69h-1.3V42.62h1.3a1.57,1.57,0,0,1,1.66,1.62"/></g><g id="g4279"><path id="path4281" d="M46,43.2v1.06h1a.53.53,0,1,0,0-1.06Zm2.31,2.73h-.74l-1-1.11H46v1.11h-.62V42.61H47a1.1,1.1,0,0,1,1.2,1.09,1,1,0,0,1-.84,1l1,1.13Z"/></g><g id="g4283"><path id="path4285" d="M50.53,44l.88-1.36h.75v0l-1.32,1.92v1.37h-.62V44.56l-1.28-1.92v0h.75Z"/></g></g></svg>