<svg id="Layer_1" data-name="Layer 1" xmlns="http://www.w3.org/2000/svg" viewBox="0 0 60 60"><title>ericcson_60px</title><path d="M23.44,20.65a2.7,2.7,0,1,1-1.88-5.07h0l14.9-5.4A2.7,2.7,0,0,1,40,11.72a.14.14,0,0,0,0,.06,2.59,2.59,0,0,1-1.53,3.35l-.09,0Z"/><path d="M23.44,28.67a2.7,2.7,0,1,1-1.87-5.07h0l14.9-5.4a2.69,2.69,0,0,1,3.47,1.53l0,.08a2.59,2.59,0,0,1-1.52,3.34l-.1,0Z"/><path d="M23.44,36.69A2.72,2.72,0,0,1,20,35.09a2.69,2.69,0,0,1,1.61-3.46h0l14.9-5.4a2.69,2.69,0,0,1,3.47,1.52l0,.09a2.59,2.59,0,0,1-1.52,3.34l-.1,0Z"/><polygon points="7 43.36 11.94 43.36 11.94 44.71 8.71 44.71 8.71 45.81 11.86 45.81 11.86 47.24 8.71 47.24 8.71 48.42 12.03 48.42 12.03 49.87 7 49.87 7 43.36"/><rect x="19.78" y="43.36" width="1.79" height="6.5"/><path d="M28,43.53,28,44.88c-1.45-.76-3.66-.5-3.66,1.61S26.51,49,28,48.26l.09,1.43c-2.64.76-5.71,0-5.71-3.2C22.42,43.45,25.57,42.6,28,43.53Z"/><path d="M33.33,43.45l-.09,1.35c-.94-.51-2.64-.51-2.64.25,0,1.18,3.06.34,3.06,2.79s-2.89,2.44-4.77,1.85L29,48.26c1.19.51,2.9.68,2.9-.25,0-1.1-3.07-.51-3.07-2.79C28.81,43.28,31.19,42.77,33.33,43.45Z"/><path d="M38.69,43.45l-.08,1.35c-.94-.51-2.65-.51-2.65.25,0,1.18,3.07.34,3.07,2.79s-2.89,2.44-4.77,1.85l.09-1.43c1.19.51,2.89.68,2.89-.25,0-1.1-3.06-.51-3.06-2.79C34.18,43.28,36.56,42.77,38.69,43.45Z"/><polygon points="46.96 43.36 49.17 43.36 51.3 47.5 51.3 43.36 53 43.36 53 49.87 50.87 49.87 48.57 45.56 48.57 49.87 46.96 49.87 46.96 43.36"/><path d="M41.42,46.57c0,1,.43,2.11,1.36,2.11s1.44-1.09,1.44-2.11c0-.84-.42-2.11-1.44-2.11S41.42,45.56,41.42,46.57Zm1.36-3.38a3.05,3.05,0,0,1,3.32,3.38,3.28,3.28,0,1,1-6.56,0,3,3,0,0,1,3.24-3.38Z"/><path d="M13.3,43.36h3.16c.93,0,2.12.34,2.12,1.69a1.55,1.55,0,0,1-1.19,1.61.87.87,0,0,1,.6.58c0,.09.94,2.54.94,2.63H17.05l-.67-2a.68.68,0,0,0-.6-.43c-.34,0-.77-.08-.77,0v2.46H13.3ZM15,46.06h.93a.79.79,0,0,0,.86-.7v0c0-.43-.34-.68-.86-.68H15Z"/></svg>