<svg id="Layer_1" data-name="Layer 1" xmlns="http://www.w3.org/2000/svg" viewBox="0 0 60 60"><title>ericcson_60px</title><path d="M24.43,22.05a2.31,2.31,0,0,1-3-1.36,2.28,2.28,0,0,1,1.37-2.94h0L35.5,13.15a2.29,2.29,0,0,1,3,1.31l0,.06a2.19,2.19,0,0,1-1.29,2.84l-.08,0Z"/><path d="M24.43,28.87a2.3,2.3,0,1,1-1.6-4.31h0L35.5,20a2.28,2.28,0,0,1,3,1.3.14.14,0,0,1,0,.07,2.19,2.19,0,0,1-1.29,2.84l-.08,0Z"/><path d="M24.43,35.69a2.31,2.31,0,0,1-3-1.36,2.29,2.29,0,0,1,1.36-2.95h0L35.5,26.79a2.29,2.29,0,0,1,3,1.29.25.25,0,0,1,0,.07A2.19,2.19,0,0,1,37.18,31l-.08,0Z"/><polygon points="10.45 41.36 14.65 41.36 14.65 42.51 11.9 42.51 11.9 43.44 14.58 43.44 14.58 44.66 11.9 44.66 11.9 45.66 14.72 45.66 14.72 46.88 10.45 46.88 10.45 41.36"/><rect x="21.31" y="41.36" width="1.52" height="5.53"/><path d="M28.34,41.5l-.07,1.15C27,42,25.15,42.22,25.15,44s1.89,2.16,3.19,1.51l.07,1.22c-2.24.64-4.85,0-4.85-2.73C23.56,41.43,26.24,40.71,28.34,41.5Z"/><path d="M32.83,41.43l-.08,1.15c-.79-.43-2.24-.43-2.24.21,0,1,2.6.29,2.6,2.37s-2.46,2.08-4.05,1.58l.08-1.22c1,.43,2.46.57,2.46-.22S29,44.88,29,42.93C29,41.29,31,40.85,32.83,41.43Z"/><path d="M37.39,41.43l-.07,1.15c-.8-.43-2.25-.43-2.25.21,0,1,2.6.29,2.6,2.37s-2.45,2.08-4.05,1.58l.08-1.22c1,.43,2.46.57,2.46-.22s-2.61-.42-2.61-2.37C33.55,41.29,35.57,40.85,37.39,41.43Z"/><polygon points="44.41 41.36 46.29 41.36 48.1 44.88 48.1 41.36 49.55 41.36 49.55 46.88 47.74 46.88 45.79 43.22 45.79 46.88 44.41 46.88 44.41 41.36"/><path d="M39.7,44.09c0,.86.37,1.79,1.16,1.79s1.23-.93,1.23-1.79-.36-1.8-1.23-1.8S39.7,43.22,39.7,44.09Zm1.16-2.87a2.6,2.6,0,0,1,2.83,2.87,2.79,2.79,0,1,1-5.58,0,2.58,2.58,0,0,1,2.75-2.87Z"/><path d="M15.81,41.36h2.68c.79,0,1.81.28,1.81,1.43a1.33,1.33,0,0,1-1,1.37.77.77,0,0,1,.51.5c0,.07.8,2.15.8,2.23H19l-.57-1.73a.55.55,0,0,0-.51-.36c-.29,0-.65-.07-.65,0v2.09H15.81Zm1.45,2.29h.79a.66.66,0,0,0,.73-.59V43c0-.36-.29-.58-.73-.58h-.79Z"/></svg>