<svg id="Layer_1" data-name="Layer 1" xmlns="http://www.w3.org/2000/svg" viewBox="0 0 60 60"><title>juniper_60px</title><path d="M29.49,34.55h.33l1.71,2.39V34.55h.29v2.9h-.28L29.78,35v2.46h-.29Z"/><path d="M32.55,34.55h1.89v.29H32.85v1H34.4v.29H32.85v1.08h1.6v.28h-1.9Z"/><path d="M36,34.84H34.9v-.29h2.45v.29H36.27v2.61H36Z"/><path d="M37.72,34.55H38l.75,2.4.77-2.4h.26l.77,2.4.75-2.4h.29l-.91,2.92h-.27l-.77-2.42-.76,2.42h-.27Z"/><path d="M44.47,36c0-.78-.36-1.21-1.14-1.21S42.2,35.22,42.2,36s.36,1.21,1.13,1.21,1.14-.42,1.14-1.21M41.9,36c0-1,.52-1.5,1.43-1.5A1.31,1.31,0,0,1,44.78,36a1.31,1.31,0,0,1-1.45,1.5c-.91,0-1.43-.46-1.43-1.5"/><path d="M46.64,36c.4,0,.65-.13.65-.59s-.24-.57-.67-.57h-.93V36Zm-.09.28h-.86v1.18H45.4v-2.9h1.23c.66,0,1,.27,1,.84a.78.78,0,0,1-.74.87l.69,1.19h-.32Z"/><path d="M49.11,35.91l-.57.64v.9h-.3v-2.9h.3v1.6L50,34.55h.35l-1,1.14,1.17,1.76h-.35Z"/><path d="M50.73,37.16l.16-.24a1.8,1.8,0,0,0,1,.3c.59,0,.85-.17.85-.57s-.34-.47-.85-.57-1-.21-1-.8.36-.78,1-.78a1.65,1.65,0,0,1,1,.26l-.16.25a1.51,1.51,0,0,0-.83-.23c-.51,0-.73.15-.73.49s.29.44.8.54,1.08.2,1.08.83-.37.85-1.14.85a2.06,2.06,0,0,1-1.19-.33"/><path d="M56.05,22.54c-4,0-4.19,1.83-4.19,4.41v6.34h.94V27c0-1.95-.07-3.51,3.25-3.51a6.8,6.8,0,0,1,1,.06v-.92a9.39,9.39,0,0,0-1,0"/><path d="M9.18,29.17V22.75h1v6.44c0,1.85,0,3.41,3.31,3.41S16.7,31,16.7,29.09V22.75h.95v6.34c0,2.58-.17,4.41-4.19,4.41s-4.28-1.83-4.28-4.33"/><path d="M27.73,26.87v6.42h-1V26.85c0-1.85,0-3.41-3.32-3.41S20.2,25,20.2,27v6.34h-.94V27c0-2.58.17-4.41,4.18-4.41s4.29,1.83,4.29,4.33"/><path d="M29.49,22.77h.92V33.29h-.92Z"/><path d="M37,28.69a2.22,2.22,0,0,0,2.51-2.51A2.23,2.23,0,0,0,37,23.71H33.08v5Zm-4.86-5.92H37c2.4,0,3.49,1.21,3.49,3.37S39.41,29.63,37,29.63h-3.9v3.66h-.93Z"/><path d="M42.51,27.28h7.06c-.1-2.1-.23-3.89-3.25-3.89s-3.69,1.6-3.81,3.89m-.94.71c0-3.1.87-5.49,4.77-5.49s4.17,2.75,4.15,5.66h-8c0,2.57.64,4.47,3.92,4.47a4.92,4.92,0,0,0,3.39-1.11l.53.71a6,6,0,0,1-3.92,1.27c-4.09,0-4.85-2.41-4.85-5.51"/><path d="M3.36,35.57c4,0,4.19-1.83,4.19-4.41V22.75h-1v8.41c0,1.95.08,3.51-3.24,3.51H3v.91h.36"/><path d="M54.88,32.09a.58.58,0,0,0,0,1.16.58.58,0,0,0,0-1.16m0,1.24a.66.66,0,0,1-.66-.66.67.67,0,0,1,.66-.67.66.66,0,0,1,.65.67.65.65,0,0,1-.65.66"/><path d="M54.94,32.66c.11,0,.17,0,.17-.14s-.06-.13-.17-.13h-.23v.27Zm0,.1h-.21v.29h-.1v-.76H55c.19,0,.26.08.26.23a.2.2,0,0,1-.18.23l.17.3h-.11Z"/></svg>