<svg id="Layer_1" data-name="Layer 1" xmlns="http://www.w3.org/2000/svg" viewBox="0 0 60 60"><title>mysql_60px</title><path d="M6,40.27H7.58V34L10,39.46a1.34,1.34,0,0,0,1.46.9,1.32,1.32,0,0,0,1.44-.9L15.38,34v6.3H17V34a1,1,0,0,0-.74-1.06c-1.2-.38-2-.05-2.37.77l-2.41,5.42L9.12,33.69c-.35-.82-1.17-1.15-2.37-.77A1,1,0,0,0,6,34Z"/><path d="M18.28,35.14h1.58v3.47c0,.19.06.64.93.65.44,0,3.41,0,3.43,0V35.13h1.59s0,5.63,0,5.66c0,1.38-1.71,1.69-2.5,1.71h-5V41.43h5c1-.11.9-.62.9-.79v-.42H20.85c-1.56,0-2.56-.7-2.57-1.5C18.28,38.65,18.31,35.18,18.28,35.14Z"/><path d="M27,40.27h4.54A3.37,3.37,0,0,0,33,40a1.42,1.42,0,0,0,1-1.3V37.49c0-.46-.38-.89-1.12-1.18a4,4,0,0,0-1.36-.23H29.66c-.64,0-.95-.2-1-.62a.41.41,0,0,1,0-.15v-.72a.36.36,0,0,1,0-.14c.07-.32.24-.42.8-.47h4.67V32.91H29.67A4.24,4.24,0,0,0,28.4,33c-.95.3-1.36.77-1.36,1.59v.93c0,.71.81,1.33,2.16,1.47l.46,0h1.81c.5,0,.71.13.86.32a.35.35,0,0,1,.13.28v.93a.53.53,0,0,1-.23.38,1.15,1.15,0,0,1-.67.23H27Z"/><path d="M43.92,38.42c0,1.09.8,1.71,2.43,1.83l.46,0h4.12V39.21H46.78c-.93,0-1.28-.24-1.28-.8v-5.5H43.92Z"/><path d="M35.06,38.48V34.69c0-1,.67-1.55,2-1.74a3,3,0,0,1,.42,0h3a3.25,3.25,0,0,1,.44,0c1.32.19,2,.77,2,1.74v3.79A1.38,1.38,0,0,1,42,40l1.56,1.42H41.7l-1.26-1.15-1.26.08h-1.7a3.58,3.58,0,0,1-.93-.13C35.55,39.89,35.06,39.36,35.06,38.48Zm1.71-.1a.51.51,0,0,0,0,.17c.09.44.5.68,1.13.68h1.43L38,38h1.84l1.15,1a.76.76,0,0,0,.4-.51.41.41,0,0,0,0-.16V34.78a.44.44,0,0,0,0-.15c-.09-.41-.5-.64-1.11-.64H37.93c-.7,0-1.16.31-1.16.79Z"/><path d="M52.32,31.15a5.47,5.47,0,0,0-2.35.33c-.18.08-.47.08-.5.31s.12.26.19.39a3.3,3.3,0,0,0,.64.75c.25.19.51.39.77.56.48.29,1,.46,1.47.75.27.17.54.39.8.59s.22.24.39.3v0c-.09-.11-.11-.27-.2-.39l-.36-.36a5.66,5.66,0,0,0-1.27-1.22c-.37-.28-1.22-.65-1.38-1.09l0,0a6.73,6.73,0,0,0,.83-.19c.42-.12.79-.09,1.22-.2l.58-.17v-.11c-.22-.22-.37-.52-.61-.72a16.27,16.27,0,0,0-2-1.51c-.38-.24-.86-.4-1.27-.61-.14-.07-.38-.11-.47-.23a6.44,6.44,0,0,1-.5-.94c-.34-.68-.69-1.41-1-2.12a11.82,11.82,0,0,0-.61-1.4A12.35,12.35,0,0,0,42,19.24a5.76,5.76,0,0,0-1.55-.5l-.91,0a5.34,5.34,0,0,1-.55-.42c-.7-.44-2.47-1.41-3-.14-.32.79.49,1.57.78,2a5.59,5.59,0,0,1,.6.92c.1.21.12.42.2.64a14.64,14.64,0,0,0,.63,1.64,6.33,6.33,0,0,0,.45.76c.1.14.27.2.3.41a3.66,3.66,0,0,0-.28.92A5.39,5.39,0,0,0,39,29.5c.2.31.65,1,1.27.73s.43-.92.59-1.54c0-.14,0-.24.08-.33v0l.5,1A6.61,6.61,0,0,0,43,31c.29.22.51.6.89.73v0h0c-.07-.11-.19-.16-.28-.25a6.13,6.13,0,0,1-.63-.72,17.22,17.22,0,0,1-1.36-2.23c-.19-.38-.36-.79-.52-1.18-.07-.14-.07-.36-.2-.44a5.19,5.19,0,0,0-.58.84A7.1,7.1,0,0,0,40,29.58l-.05,0c-.39-.09-.53-.49-.67-.83a5.31,5.31,0,0,1-.11-3.26c.08-.26.46-1.08.31-1.32s-.31-.37-.45-.55a4.6,4.6,0,0,1-.44-.78c-.3-.68-.43-1.44-.75-2.12a5.85,5.85,0,0,0-.6-.95,5.56,5.56,0,0,1-.67-.95c-.06-.14-.15-.36-.05-.5a.22.22,0,0,1,.16-.17c.16-.12.61,0,.78.11a7.43,7.43,0,0,1,1.19.62c.18.12.36.35.58.42h.25c.38.09.82,0,1.18.14a7.06,7.06,0,0,1,1.75.83,10.89,10.89,0,0,1,3.78,4.18,8.6,8.6,0,0,1,.33.84c.26.59.58,1.2.83,1.78a8.58,8.58,0,0,0,.86,1.65c.19.25.91.39,1.24.53a8.43,8.43,0,0,1,.83.33c.42.26.83.56,1.22.84C51.69,30.59,52.29,30.89,52.32,31.15Z"/><path d="M40,20.53a1.8,1.8,0,0,0-.49,0v0h0a3.92,3.92,0,0,0,.39.5c.09.2.18.39.28.59l0,0a.67.67,0,0,0,.25-.62c-.07-.07-.08-.16-.14-.25S40.06,20.62,40,20.53Z"/><path d="M51.67,39.18A1.17,1.17,0,1,0,52.83,38,1.15,1.15,0,0,0,51.67,39.18Zm2.07,0a.91.91,0,1,1-.91-.93A.91.91,0,0,1,53.74,39.18Zm-.59.67h.26L53,39.26a.35.35,0,0,0,.36-.37c0-.27-.17-.38-.5-.38h-.52v1.34h.22v-.58h.21Zm-.56-.77v-.39h.26c.13,0,.3,0,.3.19s-.15.2-.32.2Z"/></svg>