<svg id="Layer_1" data-name="Layer 1" xmlns="http://www.w3.org/2000/svg" viewBox="0 0 60 60"><title>mysql_60px</title><path d="M7.92,39.45H9.37V33.66l2.26,5.05a1.23,1.23,0,0,0,1.34.82,1.22,1.22,0,0,0,1.33-.82l2.25-5.05v5.79H18V33.66a.88.88,0,0,0-.69-1c-1.1-.35-1.85,0-2.18.7l-2.21,5-2.14-5c-.32-.75-1.08-1-2.18-.7a.87.87,0,0,0-.69,1Z"/><path d="M19.22,34.73h1.45v3.2c0,.17.06.58.85.59h3.17v-3.8h1.45s0,5.18,0,5.2c0,1.28-1.57,1.56-2.3,1.58H19.25v-1h4.6c.94-.1.83-.57.82-.72V39.4H21.58c-1.44,0-2.35-.65-2.36-1.37C19.22,38,19.25,34.76,19.22,34.73Z"/><path d="M27.27,39.45h4.18a3.18,3.18,0,0,0,1.34-.28A1.34,1.34,0,0,0,33.73,38V36.89c0-.42-.35-.82-1-1.08a3.55,3.55,0,0,0-1.24-.22H29.68c-.58,0-.86-.18-.93-.57a.32.32,0,0,1,0-.13v-.67a.25.25,0,0,1,0-.12c.07-.3.22-.39.74-.44h4.29v-1H29.7a3.76,3.76,0,0,0-1.18.12c-.86.27-1.24.7-1.24,1.46v.85c0,.66.74,1.23,2,1.36l.41,0h1.67c.46,0,.66.12.8.29a.36.36,0,0,1,.11.26v.86a.48.48,0,0,1-.21.34,1,1,0,0,1-.62.21H27.27Z"/><path d="M42.8,37.75c0,1,.75,1.57,2.24,1.68l.42,0h3.79v-1H45.43c-.85,0-1.17-.22-1.17-.73V32.68H42.8Z"/><path d="M34.66,37.8V34.31q0-1.34,1.83-1.59a2.69,2.69,0,0,1,.4,0h2.76a2.69,2.69,0,0,1,.4,0c1.22.17,1.84.7,1.84,1.59V37.8A1.26,1.26,0,0,1,41,39.15l1.44,1.31H40.77L39.61,39.4l-1.17.08H36.89a3,3,0,0,1-.86-.13C35.11,39.1,34.66,38.61,34.66,37.8Zm1.57-.09a.77.77,0,0,0,0,.15c.09.41.47.64,1,.64h1.32L37.4,37.39h1.69l1.06,1a.7.7,0,0,0,.37-.47.61.61,0,0,0,0-.14V34.4a.71.71,0,0,0,0-.14c-.09-.37-.47-.59-1-.59h-2.2c-.64,0-1.06.28-1.06.73Z"/><path d="M50.53,31.05a5.14,5.14,0,0,0-2.16.31c-.16.07-.43.07-.46.28a2,2,0,0,1,.18.36,2.85,2.85,0,0,0,.59.7c.23.17.46.36.71.51.44.27.92.42,1.35.69.24.16.49.36.73.54s.2.23.36.28v0c-.08-.11-.1-.25-.18-.36L51.32,34a5.19,5.19,0,0,0-1.17-1.12c-.35-.26-1.13-.6-1.27-1l0,0a6.18,6.18,0,0,0,.77-.18c.38-.1.72-.08,1.12-.18l.53-.15v-.11c-.2-.2-.34-.48-.56-.66a16.62,16.62,0,0,0-1.83-1.39c-.36-.22-.79-.37-1.17-.56-.13-.07-.35-.1-.43-.21a4.79,4.79,0,0,1-.46-.87c-.32-.62-.63-1.3-.92-1.95a10.49,10.49,0,0,0-.55-1.28A11.3,11.3,0,0,0,41,20.1a5.38,5.38,0,0,0-1.42-.46l-.84-.05a4.49,4.49,0,0,1-.51-.38c-.64-.41-2.27-1.29-2.75-.13-.29.73.45,1.45.72,1.82a6.81,6.81,0,0,1,.56.84c.08.2.1.39.17.59a14.52,14.52,0,0,0,.59,1.52,4.82,4.82,0,0,0,.41.69c.09.13.25.19.27.38a3.66,3.66,0,0,0-.25.85,4.92,4.92,0,0,0,.33,3.77c.18.29.6.9,1.17.67s.39-.85.54-1.41c0-.13,0-.22.07-.31v0l.46.92A6.3,6.3,0,0,0,42,31c.26.2.47.55.81.67v0h0c-.07-.1-.17-.14-.26-.23a5.17,5.17,0,0,1-.58-.66,14.67,14.67,0,0,1-1.25-2.06c-.18-.34-.33-.72-.48-1.07-.06-.14-.06-.34-.18-.41a4.36,4.36,0,0,0-.53.77,6.44,6.44,0,0,0-.31,1.69l0,0c-.35-.08-.48-.45-.61-.77a4.93,4.93,0,0,1-.1-3c.07-.23.42-1,.28-1.2s-.29-.35-.41-.51a4.62,4.62,0,0,1-.41-.72c-.27-.62-.4-1.32-.68-2a5.61,5.61,0,0,0-.56-.87,5.09,5.09,0,0,1-.61-.88c-.06-.12-.14-.33,0-.46s.06-.12.15-.15.56,0,.71.1a5.72,5.72,0,0,1,1.1.57c.16.11.33.32.53.38h.23c.36.08.76,0,1.09.13a6.4,6.4,0,0,1,1.6.77,10,10,0,0,1,3.49,3.84c.13.26.19.5.3.77.24.55.53,1.11.77,1.65a7.42,7.42,0,0,0,.78,1.51c.18.23.84.36,1.15.49a7.05,7.05,0,0,1,.76.3c.39.24.76.52,1.12.77C50,30.54,50.51,30.82,50.53,31.05Z"/><path d="M39.17,21.28a2,2,0,0,0-.46,0v0h0a4.06,4.06,0,0,0,.36.46l.25.54,0,0a.62.62,0,0,0,.23-.56c-.06-.07-.07-.15-.13-.23S39.26,21.37,39.17,21.28Z"/><path d="M49.94,38.44a1.07,1.07,0,1,0,2.14,0,1.07,1.07,0,1,0-2.14,0Zm1.9,0a.83.83,0,1,1-1.66,0,.83.83,0,1,1,1.66,0Zm-.54.62h.24l-.35-.54a.32.32,0,0,0,.33-.34c0-.25-.16-.35-.46-.35h-.48v1.23h.2v-.53H51Zm-.52-.71V38H51c.13,0,.27,0,.27.17s-.13.18-.29.18Z"/></svg>