<svg id="Layer_1" data-name="Layer 1" xmlns="http://www.w3.org/2000/svg" viewBox="0 0 60 60"><title>nokia siemens_60px</title><path d="M52,32.11a3.42,3.42,0,0,0,.49.22,2,2,0,0,0,.74.12,2.13,2.13,0,0,0,.39,0,.67.67,0,0,0,.24-.12.27.27,0,0,0,.13-.17.45.45,0,0,0,0-.2.48.48,0,0,0-.14-.35,1,1,0,0,0-.52-.21l-.43-.1a2.1,2.1,0,0,1-.42-.12,1.33,1.33,0,0,1-.34-.22.87.87,0,0,1-.22-.31,1.1,1.1,0,0,1,0-.87,1,1,0,0,1,.28-.35,1.18,1.18,0,0,1,.43-.23,1.71,1.71,0,0,1,.57-.08,2.34,2.34,0,0,1,.73.1,2,2,0,0,1,.53.24l-.19.48-.16-.07-.26-.09-.31-.07a2,2,0,0,0-.34,0,1,1,0,0,0-.59.14.46.46,0,0,0-.18.39.48.48,0,0,0,0,.18.33.33,0,0,0,.1.14.76.76,0,0,0,.2.12,2,2,0,0,0,.33.08l.45.09a2.54,2.54,0,0,1,.44.13,1.17,1.17,0,0,1,.34.22.81.81,0,0,1,.21.3,1.1,1.1,0,0,1,.08.43,1,1,0,0,1-.38.83,1.6,1.6,0,0,1-1.06.32,2.56,2.56,0,0,1-.87-.14,2.62,2.62,0,0,1-.58-.28Zm-3,.8h-.63v-5.6H49v3.54l1.54-1.67h.71l-1.52,1.65,1.77,2.08h-.83l-1.67-2Zm-1.26-3.16-.14,0a.68.68,0,0,0-.21,0,.93.93,0,0,0-.79.4,1.93,1.93,0,0,0-.3,1.16v1.65h-.63V29.18h.58l0,.63a1.23,1.23,0,0,1,.17-.25,1.7,1.7,0,0,1,.24-.22,1.57,1.57,0,0,1,.32-.15,1.35,1.35,0,0,1,.41-.06l.23,0,.15,0Zm-4.64,2.67A.89.89,0,0,0,43.9,32a1.79,1.79,0,0,0,.26-1,1.81,1.81,0,0,0-.07-.54,1.18,1.18,0,0,0-.19-.44,1,1,0,0,0-.33-.29,1,1,0,0,0-.46-.1.91.91,0,0,0-.79.38,1.73,1.73,0,0,0-.26,1,2.4,2.4,0,0,0,.06.56,1.62,1.62,0,0,0,.19.44,1,1,0,0,0,.33.28A1.12,1.12,0,0,0,43.11,32.42Zm0,.59a1.81,1.81,0,0,1-.72-.14,1.46,1.46,0,0,1-.54-.41,1.83,1.83,0,0,1-.33-.62,2.93,2.93,0,0,1,0-1.59,2.1,2.1,0,0,1,.33-.63,1.52,1.52,0,0,1,.54-.4,1.92,1.92,0,0,1,1.44,0,1.41,1.41,0,0,1,.53.4,1.61,1.61,0,0,1,.33.62,2.53,2.53,0,0,1,.12.8,2.66,2.66,0,0,1-.12.82,1.82,1.82,0,0,1-.32.62,1.42,1.42,0,0,1-.54.39,1.81,1.81,0,0,1-.72.14Zm-6.85-3.83h.67l.74,3,.68-2.9H39l.66,2.9.73-3H41l-1,3.73h-.67l-.63-2.77L38,32.91h-.67Zm-2.71,0h.71v-1l.63-.17v1.21H36v.56H34.89v2a1.15,1.15,0,0,0,0,.36.57.57,0,0,0,.15.21.46.46,0,0,0,.23.09,1.39,1.39,0,0,0,.3,0h.26l.14,0,0,.5-.26.05-.37,0a1.2,1.2,0,0,1-.89-.28,1.14,1.14,0,0,1-.29-.86V29.74h-.71ZM32.43,30.7a1.56,1.56,0,0,0-.24-.78.74.74,0,0,0-.65-.28.81.81,0,0,0-.68.28,1.75,1.75,0,0,0-.29.78Zm.43,2-.13.07-.25.09-.34.07a2,2,0,0,1-.44,0,1.65,1.65,0,0,1-1.33-.52A2.17,2.17,0,0,1,29.92,31a2.86,2.86,0,0,1,.11-.8,1.81,1.81,0,0,1,.31-.62,1.54,1.54,0,0,1,.51-.4,1.68,1.68,0,0,1,.7-.14,1.62,1.62,0,0,1,.64.12,1.13,1.13,0,0,1,.48.36,1.55,1.55,0,0,1,.31.63,3.51,3.51,0,0,1,.11.92v.11H30.56a1.48,1.48,0,0,0,.32.87,1.09,1.09,0,0,0,.87.33,2.09,2.09,0,0,0,.61-.07l.33-.1Zm-4.53-5.08H29v5.25h-.63L26,28.74v4.17h-.63V27.66H26l2.29,4.14ZM22,32.91l0-.42a1.09,1.09,0,0,1-.48.38,1.55,1.55,0,0,1-1.07.08,1.07,1.07,0,0,1-.38-.2,1.08,1.08,0,0,1-.28-.35,1.33,1.33,0,0,1-.11-.56,1.25,1.25,0,0,1,.35-.92,1.5,1.5,0,0,1,1.07-.34h.25l.27,0,.23,0,.13,0v-.23a.67.67,0,0,0-.23-.59,1,1,0,0,0-.65-.18,2,2,0,0,0-.65.09,2,2,0,0,0-.39.16l-.19-.47.18-.1a2,2,0,0,1,.28-.12,1.93,1.93,0,0,1,.38-.09,2.49,2.49,0,0,1,.49,0,1.51,1.51,0,0,1,1,.33,1.23,1.23,0,0,1,.37,1v2.53Zm0-1.74h-.09l-.21,0-.28,0h-.27a1.1,1.1,0,0,0-.39.06.68.68,0,0,0-.26.16.61.61,0,0,0-.15.23.92.92,0,0,0,0,.29.57.57,0,0,0,.2.48.88.88,0,0,0,.53.16,1.07,1.07,0,0,0,.35-.06,1.34,1.34,0,0,0,.31-.17,1,1,0,0,0,.22-.25.62.62,0,0,0,.08-.33Zm-3-3.2a.52.52,0,0,1-.11.33.38.38,0,0,1-.3.12.35.35,0,0,1-.3-.13.5.5,0,0,1-.11-.32.47.47,0,0,1,.11-.33.38.38,0,0,1,.3-.13.35.35,0,0,1,.3.13A.49.49,0,0,1,18.9,28Zm-.72,1.21h.63v3.73h-.63Zm-3.06,3.73h-.63v-5.6h.63v3.54l1.54-1.67h.71l-1.53,1.65,1.77,2.08h-.83l-1.66-2Zm-3.19-.49a.89.89,0,0,0,.79-.38A1.79,1.79,0,0,0,13,31a1.81,1.81,0,0,0-.07-.54,1.18,1.18,0,0,0-.19-.44,1.15,1.15,0,0,0-.33-.29,1,1,0,0,0-.46-.1.9.9,0,0,0-.79.38,1.75,1.75,0,0,0-.26,1,2.49,2.49,0,0,0,.06.57,1.69,1.69,0,0,0,.19.43.93.93,0,0,0,.8.38Zm0,.59a1.9,1.9,0,0,1-.73-.14,1.52,1.52,0,0,1-.53-.4,2,2,0,0,1-.33-.62,2.56,2.56,0,0,1-.11-.81,2.48,2.48,0,0,1,.11-.79,1.93,1.93,0,0,1,.33-.62,1.55,1.55,0,0,1,.54-.41,1.92,1.92,0,0,1,1.44,0,1.52,1.52,0,0,1,.53.4,1.61,1.61,0,0,1,.33.62,2.53,2.53,0,0,1,.12.8,2.66,2.66,0,0,1-.12.82,1.68,1.68,0,0,1-.33.62,1.38,1.38,0,0,1-.53.39,1.81,1.81,0,0,1-.72.14Zm-3.3-5.35h.63v5.25H8.63L6.3,28.74v4.17H5.67V27.66h.67L8.63,31.8Z"/></svg>