<svg id="Layer_1" data-name="Layer 1" xmlns="http://www.w3.org/2000/svg" viewBox="0 0 60 60"><title>Oracle_60px</title><g id="layer1"><g id="g16337"><path id="path16197" d="M25.86,30.83H29l-1.67-2.38-3.06,4.3H22.89l3.72-5.17a.94.94,0,0,1,.73-.33.9.9,0,0,1,.72.33l3.73,5.17H30.4l-.66-1H26.55Zm14.46,1V27.3H39.14v4.93a.49.49,0,0,0,.17.36.68.68,0,0,0,.44.16h5.39l.69-1ZM20.77,31a1.85,1.85,0,1,0,0-3.68H15.6v5.45h1.18V28.26h3.91a.89.89,0,1,1,0,1.77H17.36l3.53,2.73H22.6L20.23,31ZM8.32,32.75A2.92,2.92,0,0,1,5.25,30,2.92,2.92,0,0,1,8.32,27.3H11.9A2.92,2.92,0,0,1,15,30a2.92,2.92,0,0,1-3.07,2.72Zm3.5-1a1.78,1.78,0,1,0,0-3.53H8.4a1.78,1.78,0,1,0,0,3.53Zm22.44,1A2.92,2.92,0,0,1,31.19,30a2.92,2.92,0,0,1,3.07-2.73H38.5l-.69,1H34.34a1.78,1.78,0,1,0,0,3.53H38.6l-.69,1Zm14.46-1a2,2,0,0,1-1.92-1.28h5.06l.69-1H46.8a2,2,0,0,1,1.92-1.29h3.46l.71-1H48.64A2.92,2.92,0,0,0,45.56,30a2.92,2.92,0,0,0,3.08,2.72h3.64l.7-1H48.72"/><path id="path16199" d="M53.52,27.88a.54.54,0,0,1,1.08,0,.54.54,0,0,1-1.08,0Zm.54.62a.62.62,0,1,0-.69-.62A.66.66,0,0,0,54.06,28.5Zm-.07-1a.56.56,0,0,1,.21,0,.2.2,0,0,1,.15.19.18.18,0,0,1,0,.06.2.2,0,0,1-.1.12h0l.18.29h-.17L54.06,28H54v.26H53.8v-.69Zm.06.31c.05,0,.1,0,.13,0a.14.14,0,0,0,0-.06.09.09,0,0,0-.06-.08.3.3,0,0,0-.15,0h0v.2h.1"/></g></g></svg>