<svg id="Layer_1" data-name="Layer 1" xmlns="http://www.w3.org/2000/svg" viewBox="0 0 60 60"><title>Oracle_60px</title><g id="layer1"><g id="g16337"><path id="path16197" d="M25.48,30.9h3.44L27.1,28.31,23.76,33H22.24l4.06-5.63a1,1,0,0,1,.8-.37,1,1,0,0,1,.78.36L32,33H30.44L29.72,32H26.24ZM41.26,32V27.06H40v5.37a.54.54,0,0,0,.19.4.7.7,0,0,0,.47.17h5.88L47.27,32Zm-21.33-.88a2,2,0,1,0,0-4H14.29V33h1.29V28.11h4.26a1,1,0,1,1,0,1.92H16.21l3.85,3h1.87l-2.59-1.93ZM6.35,33A3.18,3.18,0,0,1,3,30a3.18,3.18,0,0,1,3.35-3h3.9a3.18,3.18,0,0,1,3.35,3,3.18,3.18,0,0,1-3.35,3ZM10.16,32a1.93,1.93,0,1,0,0-3.84H6.44a1.93,1.93,0,1,0,0,3.84ZM34.65,33a3.19,3.19,0,0,1-3.36-3,3.19,3.19,0,0,1,3.36-3h4.63l-.76,1.05H34.74a1.94,1.94,0,1,0,0,3.84h4.65L38.63,33ZM50.42,32a2.15,2.15,0,0,1-2.09-1.4h5.51l.76-1.05H48.33a2.16,2.16,0,0,1,2.09-1.39H54.2L55,27.06H50.33A3.18,3.18,0,0,0,47,30a3.18,3.18,0,0,0,3.35,3h4L55.07,32H50.42"/><path id="path16199" d="M55.66,27.69a.59.59,0,1,1,.59.52A.55.55,0,0,1,55.66,27.69Zm.59.67a.67.67,0,1,0-.75-.67A.72.72,0,0,0,56.25,28.36Zm-.07-1.07a.61.61,0,0,1,.22,0,.2.2,0,0,1,.16.21.18.18,0,0,1,0,.06s0,.08-.1.13l0,0,.19.3h-.18l-.17-.28h-.12V28H56v-.75Zm0,.35c.06,0,.11,0,.14-.05a.09.09,0,0,0,0-.07.11.11,0,0,0-.07-.09h-.2v.22h.1"/></g></g></svg>