<svg xmlns="http://www.w3.org/2000/svg" viewBox="0 0 24 24">
  <path d="M21.5,20.3333333 C21.1111111,20.3333333 20.7873603,20.120124 20.5095825,19.8423462 L17.5404053,17 L2.66666667,17 C1.75,17 1,16.25 1,15.3333333 L1,3.5 C1,2.66666667 1.66666667,2 2.5,2 L21.5,2 C22.3333333,2 23,2.66666667 23,3.5 L23,18.8333333 C23,19.6666667 22.3333333,20.3333333 21.5,20.3333333 Z M3.02777778,4 L3,15.0194092 L17.0249023,15.0194092 C17.8811646,15.0194092 18.213562,14.888916 19.074707,15.7085571 L20.99925,17.5689087 L20.99925,4 L3.02777778,4 Z M6,10 L16,10 C16.5522847,10 17,10.4477153 17,11 C17,11.5522847 16.5522847,12 16,12 L6,12 C5.44771525,12 5,11.5522847 5,11 C5,10.4477153 5.44771525,10 6,10 Z M6,6 L12,6 C12.5522847,6 13,6.44771525 13,7 C13,7.55228475 12.5522847,8 12,8 L6,8 C5.44771525,8 5,7.55228475 5,7 C5,6.44771525 5.44771525,6 6,6 Z"/>
</svg>
