<svg xmlns="http://www.w3.org/2000/svg" viewBox="0 0 24 24">
  <path fill-rule="evenodd" d="M11.5,5.58059846 C12.6930357,5.58059846 13.6428571,6.57003856 13.6428571,7.81283784 C13.6428571,9.05563711 12.6930357,10.0450772 11.5,10.0450772 C10.3069643,10.0450772 9.35714286,9.05563711 9.35714286,7.81283784 C9.35714286,6.57003856 10.3069643,5.58059846 11.5,5.58059846 M11.5,3.90641892 C9.43857143,3.90641892 7.75,5.66542355 7.75,7.81283784 C7.75,9.96025212 9.43857143,11.7192568 11.5,11.7192568 C13.5614286,11.7192568 15.25,9.96025212 15.25,7.81283784 C15.25,5.66542355 13.5614286,3.90641892 11.5,3.90641892 M11.5,1.67417954 C14.8069643,1.67417954 17.3928571,4.07104657 17.3928571,7.81283784 C17.3928571,9.07237891 16.7936607,11.0914394 16.2461607,12.1551015 L11.5,21.3720179 L6.75383929,12.1551015 C6.20633929,11.0914394 5.60714286,9.07237891 5.60714286,7.81283784 C5.60714286,4.07104657 8.19303571,1.67417954 11.5,1.67417954 M11.5,0 C7.41008929,0 4,3.23311972 4,7.81283784 C4,9.55258941 4.64607143,11.6015061 5.33928571,12.9486626 L10.7885714,23.5517997 C10.9948214,23.9611366 11.4807143,24.1187885 11.8739286,23.9039354 C12.0180357,23.82497 12.135625,23.7021968 12.2114286,23.5517997 L17.6607143,12.9486626 C18.3539286,11.6015061 19,9.55258941 19,7.81283784 C19,3.23311972 15.5899107,0 11.5,0"/>
</svg>
