<svg  width="15px" height="16px" viewBox="0 0 15 16" version="1.1" xmlns="http://www.w3.org/2000/svg" xmlns:xlink="http://www.w3.org/1999/xlink">
    <g id="Page-1" stroke="none" stroke-width="1" fill="none" fill-rule="evenodd">
        <g id="Group-Copy-3">
            <path d="M9.20555312,11.1704428 C8.93945244,11.7090551 8.43635304,12.0417337 7.89263685,12.0417337 L5.94424553,12.0417337 C5.11517729,12.0417337 4.43994007,11.2777577 4.43913044,10.3362819 C4.43744369,8.43612784 4.43580193,6.31338237 4.43843325,5.10936538 C4.43908546,4.81770291 4.64585774,4.58577568 4.89929659,4.58577568 L4.91256564,4.58577568 C5.16672418,4.58577568 5.37801693,4.81493059 5.37801693,5.10756455 L5.37801693,7.31089692 C5.37801693,7.39181554 5.44029151,7.45752194 5.51716204,7.45752194 C5.5939651,7.45752194 5.65632963,7.39181554 5.65632963,7.31089692 L5.65632963,3.5730252 C5.65632963,3.28048601 5.8586714,3.04249285 6.11422431,3.04249285 C6.36829288,3.04249285 6.57072461,3.28048601 6.57072461,3.5730252 L6.57072461,7.31089692 C6.57072461,7.39181554 6.63299918,7.45752194 6.70986971,7.45752194 C6.78667277,7.45752194 6.84903731,7.39181554 6.84903731,7.31089692 L6.84903731,3.01801586 C6.84903731,2.72547667 7.05985777,2.49139319 7.31392635,2.49139319 L7.32805001,2.49139319 C7.58211859,2.49139319 7.78891336,2.72734858 7.78875593,3.01965081 L7.78875593,3.9752962 C7.78850854,3.98363686 7.78835111,3.99166949 7.78835111,4.00001015 C7.78835111,4.00344593 7.78850854,4.00664476 7.78875593,4.01005685 C7.78866597,4.43483816 7.78850854,4.8949251 7.78850854,5.33311781 C7.78835111,6.34887756 7.78821617,7.2246706 7.78850854,7.31025715 C7.78866597,7.3488564 7.80341935,7.38591548 7.82950765,7.41309371 C7.85568591,7.44024824 7.89092761,7.45538939 7.92767613,7.45505765 L7.92812593,7.45505765 C7.96494192,7.45522352 8.00025109,7.43994021 8.02633939,7.41259611 C8.05238271,7.38518093 8.06697867,7.34795599 8.06679875,7.30919088 C8.06650638,7.2241967 8.06664132,6.34790606 8.06679875,5.33262022 C8.06688871,4.88371734 8.0671361,4.4120909 8.0671361,3.97880307 C8.07651439,3.69574191 8.27941841,3.46895651 8.52772956,3.46895651 C8.7816632,3.46895651 8.98836801,3.7067838 8.9886154,3.99918082 L8.99140415,8.2891 C8.99147162,8.35106258 9.02835508,8.40620098 9.08372525,8.42705263 C9.13900546,8.44792798 9.20080775,8.42991974 9.23807354,8.3821268 L9.72423803,7.75856765 C9.85247553,7.58938494 10.0416157,7.48394193 10.2464539,7.46749756 C10.4470189,7.4534227 10.6440981,7.52794365 10.7905524,7.67307588 C10.7922616,7.67473454 10.7940608,7.6763458 10.7958375,7.67798076 L10.8909474,7.76003675 L9.20555312,11.1704428 Z M7.05894737,5.92118946e-15 C3.16038822,5.92118946e-15 -3.74219174e-13,3.16038822 -3.74219174e-13,7.05894737 C-3.74219174e-13,10.957483 3.16038822,14.1178947 7.05894737,14.1178947 C10.957483,14.1178947 14.1178947,10.957483 14.1178947,7.05894737 C14.1178947,3.16038822 10.957483,5.92118946e-15 7.05894737,5.92118946e-15 L7.05894737,5.92118946e-15 Z" id="Fill-1" fill="#9B9B9B" transform="translate(7.058947, 7.058947) scale(-1, 1) translate(-7.058947, -7.058947) "></path>
            <g id="Group-4-Copy" transform="translate(6.784561, 8.000000)">
                <ellipse id="Oval" fill="#FFFFFF" cx="3.76470588" cy="4" rx="3.29411765" ry="3.05882353"></ellipse>
                <path d="M4,0 C6.209139,0 8,1.790861 8,4 C8,6.209139 6.209139,8 4,8 C1.790861,8 0,6.209139 0,4 C0,1.790861 1.790861,0 4,0 Z M6.16358637,2.73773172 C6.05173066,2.63420573 5.87712929,2.6409583 5.7736033,2.75281401 L5.7736033,2.75281401 L3.69627996,4.99727914 L2.10714591,3.84736871 C2.10395667,3.84506095 2.10071339,3.84282881 2.09741877,3.84067417 C1.98182385,3.76507627 1.82683145,3.79750027 1.75123355,3.91309519 C1.67040959,4.03668117 1.6989672,4.20173318 1.81661574,4.29097907 L1.81661574,4.29097907 L3.23109932,5.36397874 C3.51308186,5.5778852 3.91036687,5.54765167 4.15673289,5.29353769 L4.15673289,5.29353769 L6.17189513,3.21500065 C6.29349006,3.08958169 6.29916715,2.89206439 6.18497665,2.75986842 C6.17826397,2.75209729 6.17112277,2.7447069 6.16358637,2.73773172 Z" id="Combined-Shape" fill="#4CAF50" fill-rule="nonzero"></path>
            </g>
        </g>
    </g>
</svg>

